<svg xmlns="http://www.w3.org/2000/svg" viewBox="0 0 144 175.08">
  <g id="Layer_2" data-name="Layer 2">
    <g id="Layer_1-2" data-name="Layer 1">
      <path fill="#98c4d1" d="M0 0h143.84v175H0z"/>
      <path d="M41.56 124.43S42 58.85 66.43 58.07s24.85 66.36 24.85 66.36" fill="#78909c"/>
      <path d="M67.88 98.57A1.56 1.56 0 1166.32 97a1.56 1.56 0 011.56 1.56M67.88 110.87a1.56 1.56 0 11-1.56-1.56 1.56 1.56 0 011.56 1.56" fill="#6b818b"/>
      <path fill="#c2b59b" d="M0 117.76h144v57.33H0z"/>
      <path d="M50.7 125.6s14.81 23 14.25 23.54-23.07 12.11-23.64 11.3-13.25-23.71-13.37-24.83 21.54-11.92 22.76-10" fill="#fff"/>
      <path d="M42 157.69s.42 1.07.58 1 20.63-9.5 20.63-9.79-.5-1.34-.79-1.17-20.57 9.61-20.42 9.96M37.9 150.15s.42 1.08.59 1 20.62-9.5 20.62-9.79-.5-1.33-.79-1.17-20.56 9.58-20.42 9.93M35.4 145.83s.42 1.07.59 1 20.62-9.5 20.62-9.79-.5-1.34-.79-1.17-20.56 9.58-20.42 9.93M31 138s.42 1.07.59 1 20.62-9.5 20.62-9.8-.5-1.33-.79-1.16S30.81 137.6 31 138" fill="#e2e3e4"/>
      <path d="M70.86 63.53c19.28 8.88 35 45.24 20.55 74.47M62.7 63.53c-19.29 8.88-35 45.24-20.56 74.47" fill="none" stroke="#78909c" stroke-miterlimit="10" stroke-width="8.64"/>
      <path d="M51.7 19.06S50.77 49.4 53 51.35 78 54.47 80.15 49s.94-27.61 0-29.95-28.38-3.14-28.45 0" fill="#fff8d5"/>
      <path d="M61.38 59.52S65 86.26 65.86 86.74s1.32-.56 1.74-2S71.08 59 71.08 59s-5.54-2.68-9.7.5" fill="#fff"/>
      <path d="M64.24 65.67a4.77 4.77 0 01.66.9s-2.76 7.08-2.1 9 3 12 3.63 11.82 3.21-12.78 3.21-13-2.82-7.92-2.82-7.92 1-.91 1-1.2-1.19-2.83-1.86-2.76-1.68 3.12-1.68 3.12" fill="#ef4535"/>
      <path d="M61.38 59.52s-5.67 8.26-4.83 10 4.61 1.59 4.61 1.59-2.8 8.45-1.72 9.24 6.64 8.93 7 7.81-5-28.65-5-28.65" fill="#6b818b"/>
      <path d="M61.38 59.52a6.83 6.83 0 01-.25-2.26c.32-.89 8.83-2.08 10.35.41L71 59.29" fill="#fff"/>
      <path d="M64.1 53v4.4c0 .22 1.66 2.3 2.18 2.12a7.24 7.24 0 002.19-2.07c.19-.46.49-4.78.49-4.78" fill="#fff8d5"/>
      <path d="M71.08 59s-5.6 28.52-4.66 29.15 6.94-11.79 6.7-12.27-1.56-3.66-1.56-3.66 3.72-.8 3.84-2.23-2.62-10.19-4.32-11" fill="#6b818b"/>
      <path d="M80.67 141.22s-3.3 16.68-2.58 17.18c1.72 1.22 12.24 2.45 12.55 1.9 1.09-1.94 3.59-15.86 3.17-17.05s-12.76-3.73-13.14-2" fill="#fff"/>
      <path d="M83.25 151.84s-.17 1.84-.37 2.67-2.17.42-2.8.25.17-3.13.17-3.13c.17-.41 3 .21 3 .21M87.21 152.32a25.11 25.11 0 01-.38 2.66c-.2.84-2.16.42-2.79.25s.17-3.12.17-3.12c.17-.42 3 .21 3 .21M91.46 153.06a25.11 25.11 0 01-.38 2.66c-.21.84-2.16.42-2.79.25s.17-3.12.17-3.12c.16-.42 3 .21 3 .21M84.17 147.3a25.54 25.54 0 01-.38 2.67c-.21.83-2.17.41-2.79.25s.17-3.13.17-3.13c.16-.41 3 .21 3 .21M88.13 147.78a25.54 25.54 0 01-.38 2.67c-.21.83-2.17.41-2.79.25s.17-3.13.17-3.13c.16-.42 3 .21 3 .21M92.37 148.52a24.24 24.24 0 01-.37 2.66c-.21.84-2.17.42-2.79.25s.16-3.12.16-3.12c.17-.42 3 .21 3 .21M84.81 142.57a25.11 25.11 0 01-.38 2.66c-.2.84-2.16.42-2.79.25s.17-3.12.17-3.12c.17-.42 3 .21 3 .21M88.77 143a25.18 25.18 0 01-.38 2.67c-.21.83-2.17.42-2.79.25s.17-3.13.17-3.13c.16-.41 3 .21 3 .21M93 143.78a25.54 25.54 0 01-.38 2.67c-.21.83-2.17.41-2.79.25s.17-3.13.17-3.13c.16-.41 3 .21 3 .21" fill="#d1d3d4"/>
      <path d="M46.08 140.65s-.43 3.25-.41 3.42a9.21 9.21 0 00.75 1.63 9.74 9.74 0 001.08-1.7c0-.23.39-3.34.39-3.34" fill="#78909c"/>
      <path d="M95.25 139.59s1.14 5.44-1 7-5.75-2.7-5.75-2.7-.88 5.18-2.75 5.44 1-8.14 1-8.14-1.75 1.29-2.07-.77 2.44-4.46 3.19-4.46M38.25 139.72s.29 2.6 1.92 3.58 5.29-1.92 5.29-1.92 2.67 2 3.87-1.21-3.5-4.29-3.5-4.29" fill="#fff8d5"/>
      <path d="M46.42 138.47a3.89 3.89 0 002 .5s1.07-7.63.75-7.88a5 5 0 00-1.67-.41 71.61 71.61 0 00-1.12 7.79" fill="#78909c"/>
      <path d="M47.75 130.79s0-1.41.44-1.52 1.65.16.73 2.17M47.44 131.06a3.92 3.92 0 00-.89 3.53c.11.48.12-2.5 1.06-3.14" fill="#78909c"/>
      <path d="M79.21 155.76c-.35.41-.29 2.14-.29 2.14.46.34 10.61 2.36 11.2 1.57a2.39 2.39 0 00.38-2.25c-.25-.25-11.06-1.73-11.29-1.46" fill="#9b9da0"/>
      <text transform="rotate(-172.3 50.071 75.913)" font-size="1.91" fill="#fff" font-family="UbuntuTitling-Bold, UbuntuTitling Bold" font-weight="700">
        1412<tspan x="3.93" y="0" letter-spacing=".02em">3</tspan><tspan x="4.94" y="0">456</tspan>
      </text>
      <path d="M58.25 33.57a5.81 5.81 0 11-5.81-5.81 5.81 5.81 0 015.81 5.81M85.63 33.57a5.82 5.82 0 11-5.82-5.81 5.82 5.82 0 015.82 5.81" fill="#fff8d5"/>
      <path d="M76.5 21.26s-4.84 4.25-7.5 4.25 0-4.25 0-4.25-7 3.25-10.08 4.25-2.41-4.25-2.41-4.25-1.09 6.62-5 9.62-1.12-9.62-1.12-9.62a26.78 26.78 0 01-5.88 2c-3.12.62 2.5-12 10-13.88 0 0-5-1.62-4.25-3.75s23.88-2.25 26.88 3c0 0 10.71-3.37 5.25 15.75-1.22 4.25-3 5.13-5.88-3.12" fill="#c2b59b"/>
      <path d="M61.29 43.34S60 50.44 66 51.22s6.24-7.88 6.24-7.88z" fill="#d17751"/>
      <path d="M70.45 49.24A6.2 6.2 0 0066.7 48a6.11 6.11 0 00-4.08 1.51A5.13 5.13 0 0066 51.22a4.44 4.44 0 004.46-2" fill="#f68b5f"/>
      <path d="M64.38 34c0 2.4-1.38 4.34-3.07 4.34s-3.06-1.96-3.06-4.34 1.37-4.35 3.06-4.35 3.07 1.95 3.07 4.35M73.38 34c0 2.4-1.38 4.34-3.07 4.34s-3.06-1.96-3.06-4.34 1.37-4.35 3.06-4.35 3.07 1.95 3.07 4.35" fill="#fff"/>
      <path d="M70.1 34c-.63 0-1.17.57-1.4 1.38a1 1 0 010 1.92c.25.75.76 1.27 1.36 1.27.83 0 1.52-1 1.52-2.29S70.93 34 70.1 34M61.12 34c-.63 0-1.17.57-1.4 1.38a1 1 0 010 1.92c.25.75.76 1.27 1.36 1.27.84 0 1.52-1 1.52-2.29S62 34 61.12 34" fill="#58595b"/>
      <path d="M63.77 27.07c0 .4-1.07.87-2.5 1.06s-2.64 0-2.69-.4 1.07-.87 2.51-1.05 2.63 0 2.68.39M73 27.72c0 .4-1.21.65-2.66.56s-2.58-.5-2.56-.9 1.22-.65 2.66-.56 2.59.5 2.56.9" fill="#c2b59b"/>
      <path d="M64.38 32.88s-.88 8.63-.25 9 3.54.17 3.68-.33-.81-8.67-.81-8.67-2-.62-2.62 0" fill="#fdddc1"/>
    </g>
  </g>
</svg>
