<svg xmlns="http://www.w3.org/2000/svg" viewBox="0 0 144 175.18">
  <g id="Layer_2" data-name="Layer 2">
    <g id="Layer_1-2" data-name="Layer 1">
      <path fill="#b1d681" d="M0 0h144v175H0z"/>
      <path d="M134.53 63.2s7 20 5.62 21.17-36.39 14.22-37.89 11.92S92.75 77 95.18 76s20.7-8.06 21.44-8.19 3.18-8.25 4.24-8.6 10.4-3.34 10.89-2.33 2.78 6.34 2.78 6.34" fill="#6c828d"/>
      <path d="M107.56 82s-15.25 19.27-16.44 17.76-6.94-16.15-6.23-17.9 20.62-.06 20.62-.06M87.67 62.12a10.68 10.68 0 106.57-13.6 10.68 10.68 0 00-6.57 13.6M109.73 54.44a6.19 6.19 0 103.81-7.88 6.2 6.2 0 00-3.81 7.88" fill="#6c828d"/>
      <path fill="none" stroke="#6c828d" stroke-miterlimit="10" stroke-width="3" d="M130.17 175l-10.18-88.6-10.68 88.6"/>
      <path d="M10.44 138.61c-.09.19-9.77 22.71-9 23.41s14.84 6.34 15.87 5.8 10.62-21.17 9.82-23.36-16.2-6.75-16.66-5.85" fill="#fff"/>
      <text transform="rotate(-47.2 191.442 74.399)" fill="#627780" font-weight="700" font-family="sans-serif" font-size="6.8">
        SCRIPT
      </text>
      <path d="M25.55 151.61s-2.22 4.91 1.59 5.82 6.75-8.21 4.31-9.3-5 1.35-5.9 3.48" fill="#fff8d5"/>
      <path d="M63.89 175.15c-.2-8.38-2.16-55.15-20.89-54.55s-20.7 46.27-20.91 54.55z" fill="#6c828d"/>
      <path d="M46.73 125.19c17.18 2.18 21.77 27 49.13 4.69M39.73 125.31c-14.18-2.58-42.87 24-18.88 33.27" fill="none" stroke="#6c818c" stroke-miterlimit="10" stroke-width="7.27"/>
      <path d="M39.07 175.15h8.85c1.07-12.21-1.05-53.53-1.05-53.53l.38-1.37c-1.28-2.09-8.44-1.09-8.71-.34a5.72 5.72 0 00.21 1.9s0 45.11.32 53.34" fill="#fff"/>
      <path d="M41 116.3v3.7c0 .19 1.39 1.93 1.84 1.78a6 6 0 001.84-1.75c.16-.37.41-4 .41-4" fill="#fff8d5"/>
      <path d="M38.75 121.81s-6.17 5.26-5.72 5.53 2.78 1.33 2.78 1.33-3.26 3.85-3 4.1 6 9.93 6 9.93zM47.79 143.59c.25.45 4.61-12.31 4.22-13a25.14 25.14 0 00-3.16-2.89s4.08-1.59 4-2.12-5.91-4.31-5.91-4.31.45 21.64.85 22.33" fill="#627780"/>
      <path d="M42.76 121.81s-2.5 2-2.39 2.28a5.46 5.46 0 00.94 1.1l-1 6.23 2 11.64 2.34-11.59s-1.29-6.08-1.23-6.28 1.52-1.1 1.23-1.42-1.62-2.18-1.89-2" fill="#2cc2e1"/>
      <path d="M30.61 87.76s-.79 25.54 1.05 27.18 21.05 2.62 22.89-2 .79-23.24 0-25.21-23.89-2.64-23.94 0" fill="#fff8d5"/>
      <path d="M34.15 102.24a3.44 3.44 0 11-3.43-3.44 3.43 3.43 0 013.43 3.44" fill="#fff8d5"/>
      <path d="M48 81.69s-13.88-3.79-17.55.49-1.17 19.71.28 18 3-7.3 3-7.3-.14 3.51 2.17 3 6.24-3.23 6.24-3.23-2 2.88 1 2.45 12-3.67 12-3.67-3.58 2.84-2.14 3.42 5.74-2.71 4.68-7.42c-.47-2.1-4.37-4.65-9.73-5.74" fill="#58595b"/>
      <path d="M53.65 102.73c0 2-1.15 3.66-2.58 3.66s-2.57-1.64-2.57-3.66 1.15-3.65 2.57-3.65 2.58 1.63 2.58 3.65" fill="#fff"/>
      <path d="M51.83 100.91c-.5 0-.93.46-1.11 1.11a.76.76 0 010 1.52c.2.6.6 1 1.08 1 .67 0 1.21-.81 1.21-1.82s-.54-1.82-1.21-1.82" fill="#58595b"/>
      <path d="M45.71 102.73c0 2-1.16 3.66-2.58 3.66s-2.58-1.64-2.58-3.66 1.16-3.65 2.58-3.65 2.58 1.63 2.58 3.65" fill="#fff"/>
      <path d="M44.24 100.66c-.5 0-.93.46-1.11 1.11a.76.76 0 010 1.52c.2.6.61 1 1.08 1 .67 0 1.21-.81 1.21-1.82s-.54-1.82-1.21-1.82" fill="#58595b"/>
      <path d="M43.22 110.36s-1 4 2 4.31 2.56-4.58 2.56-4.58z" fill="#d17751"/>
      <path d="M45.26 114.67a1.92 1.92 0 001.84-.8 2.66 2.66 0 00-2.24-1.25 2.62 2.62 0 00-1.6.55 2.15 2.15 0 002 1.5" fill="#f68b5f"/>
      <path d="M47.25 102.07c-.86.18-1.7 6.14-1.2 6.44s2.81.14 2.93-.3-1.22-6.25-1.73-6.14" fill="#fdddc1"/>
      <path d="M45.29 97.18c.1.33-.72.86-1.81 1.18s-2.06.32-2.16 0 .72-.85 1.81-1.17 2.06-.32 2.16 0M52.54 98c-.09.33-1.06.35-2.16 0s-1.92-.81-1.83-1.14 1.05-.35 2.16 0 1.92.82 1.83 1.14" fill="#58595b"/>
      <path d="M93.19 127.5c-.09-.19.21-2.53 1.47-2.6s1.34 3 1.55 3 7-2.88 7.5-1.51-2.8 6.14-6.45 6.7c0 0-1.82-1-4.07-5.61" fill="#fff8d5"/>
    </g>
  </g>
</svg>
