<svg xmlns="http://www.w3.org/2000/svg" viewBox="0 0 144 163.18">
  <g id="Layer_2" data-name="Layer 2">
    <g id="Layer_1-2" data-name="Layer 1">
      <path fill="#8ad5e7" d="M0 0h144v121.32H0z"/>
      <path d="M141.71 96.49V61.84h-3.06V56h-11.21v6.88h-8.66v35.65h-4.08V67.7h-25v46.37h-3.28V56H64.77v28.26h-3.06v-9.17H39v29.55h-3.53V39.42h-2.55v-7.13H20.69v7.64H7.7V96H4.13V56.24H0v65l144-.05v-24.7z" fill="#6aa4b3"/>
      <path fill="#a7a9ac" d="M0 110.06h144v53.12H0z"/>
      <path d="M108.82 100.37a63.13 63.13 0 00-12.38-19.81H20.52v42.9a63.75 63.75 0 00.46 7.35h102.5a38.87 38.87 0 00-14.66-30.44" fill="#f1f2f2"/>
      <path d="M131 130.81a4 4 0 01-4 4h-7a4 4 0 010-8.09h6.88a4 4 0 014 4M28 130.81a4 4 0 01-4 4h-6.92a4 4 0 110-8.09H24a4 4 0 014 4M109.23 130.8a9.11 9.11 0 11-9.11-9.11 9.11 9.11 0 019.11 9.11" fill="#58595b"/>
      <path d="M103.84 130.8a3.72 3.72 0 11-3.72-3.71 3.72 3.72 0 013.72 3.71" fill="#fffef2"/>
      <path d="M56.32 130.8a9.11 9.11 0 11-9.1-9.11 9.1 9.1 0 019.1 9.11" fill="#58595b"/>
      <path d="M50.93 130.8a3.72 3.72 0 11-3.72-3.71 3.71 3.71 0 013.72 3.71" fill="#fffef2"/>
      <path d="M20.52 110.91v7.4h100.89a38.84 38.84 0 00-3.41-7.4z" fill="#ed1c24"/>
      <path fill="#ed1c24" d="M20.52 110.91H43.5v7.4H20.52zM43.02 85.22h4.66V99.7h-4.66z"/>
      <path fill="#ed1c24" d="M38.11 90.13h14.48v4.66H38.11zM91.09 80.56a6.46 6.46 0 00-6.47-6.47v6.47z"/>
      <path d="M94.54 100.37h14.28a63.59 63.59 0 00-9-15.81h-5.28zM69.98 84.56h19.75v15.82H69.98z" fill="#27aae1"/>
      <path d="M124.81 115.45a1.32 1.32 0 00-1.26.94 3 3 0 000 5.89 1.32 1.32 0 002.58-.39v-5.11a1.33 1.33 0 00-1.32-1.33M17 115.45a1.32 1.32 0 011.25.94 3 3 0 010 5.89 1.32 1.32 0 01-1.25.94 1.34 1.34 0 01-1.33-1.33v-5.11a1.34 1.34 0 011.33-1.33" fill="#58595b"/>
      <path d="M99.82 84.56a4.39 4.39 0 002.93-4h-7.56" fill="#f1f2f2"/>
    </g>
  </g>
</svg>
