<svg xmlns="http://www.w3.org/2000/svg" viewBox="0 0 144 175">
  <g id="Layer_2" data-name="Layer 2">
    <g id="Layer_1-2" data-name="Layer 1">
      <path fill="#afe1ef" d="M0 0h144v175H0z"/>
      <path d="M43.67 85c33.46 45.69 61 22.9 68.33 22.31" fill="none" stroke="#748791" stroke-linecap="round" stroke-miterlimit="10" stroke-width="9.39"/>
      <path d="M139.07 175s1.64-78.81-27.07-77.9S82.81 175 82.81 175z" fill="#78909c"/>
      <path d="M108.3 92.84s-.64 4.75-.55 5c.31.83 7.53.72 7.74-.35s-.6-6.55-.6-6.55" fill="#fff8d5"/>
      <path d="M94.84 51.16s-1.18 38.15 1.57 40.6 31.44 3.93 34.19-2.94 1.18-34.72 0-37.66-35.68-3.94-35.76 0" fill="#fff8d5"/>
      <path d="M121.36 60.81a27.71 27.71 0 01-9.93 4.6c-5.35 1.07-1.32-7.44-1.32-7.44s-4.6 5.67-9.69 6.65-2.74-6.55-2.74-6.55-4 5.28-8.9 5.67-.35-22.4 23.13-24.85 25.4 13.6 26.37 23.19-4.41 25.72-7 24.21-1.28-11.2-1.28-11.2-3 11.55-6.41-3.91" fill="#c49a6c"/>
      <path d="M111.57 73c0 3-1.71 5.42-3.82 5.42S103.92 76 103.92 73s1.71-5.43 3.83-5.43 3.82 2.43 3.82 5.43" fill="#fff"/>
      <path d="M106 69c-.74 0-1.38.67-1.65 1.64a1.13 1.13 0 010 2.26c.29.89.89 1.5 1.6 1.5 1 0 1.8-1.21 1.8-2.7S106.94 69 106 69" fill="#58595b"/>
      <path d="M102.33 73c0 2.46-1.41 4.45-3.15 4.45S96 75.49 96 73s1.41-4.46 3.14-4.46 3.15 2 3.15 4.46" fill="#fff"/>
      <path d="M97.71 69.74c-.61 0-1.13.55-1.35 1.34a.93.93 0 010 1.86c.24.73.73 1.23 1.31 1.23.81 0 1.47-1 1.47-2.21s-.66-2.22-1.47-2.22" fill="#58595b"/>
      <path d="M100.28 82s-.46 7.16 4.13 7.33 2.84-8.7 2.84-8.7z" fill="#d17751"/>
      <path d="M104.41 89.32c2.3.09 3-2.11 3.14-4.31h-.52c-2.65 0-4.86 1.19-5.46 2.79a3.49 3.49 0 002.84 1.56" fill="#f68b5f"/>
      <path d="M102.9 74.09c-.84.19-1.67 6.33-1.18 6.63s2.79.15 2.9-.3-1.21-6.44-1.72-6.33" fill="#fdddc1"/>
      <path d="M111.49 66.92c-.11.46-1.63.5-3.4.08s-3.11-1.14-3-1.61 1.64-.49 3.4-.07 3.11 1.14 3 1.6M101 66.14c.16.45-.82 1.2-2.19 1.69s-2.61.51-2.77.06.83-1.2 2.19-1.69 2.61-.51 2.77-.06" fill="#c49a6c"/>
      <path d="M89.41 124.67s13-13.66 15.22-16.69S115 98.65 115.49 97.5s1-2.15.44-2.43-8.81-.4-8.91 0a13.87 13.87 0 00.73 2.77s-12.18 1.83-18.34 26.83" fill="#fff"/>
      <path d="M89.28 125.13s6.56-5.82 7-6.27 4-15.55 4-15.55 2.85.07 3.29-.44 0-3.15-.25-2.94c0 0-8.93 2.63-14 25.2" fill="#f15a29"/>
      <path d="M114.65 97.25s-26.44 27.47-25.37 27.88 14-5.81 14.64-7 .35-5.62.35-5.62 4.86.33 6-.71 5.85-13.33 5.88-14.2-.76-1.18-1.53-.32" fill="#8498a3"/>
      <path d="M5.07 86.07s-.78 72 1.18 74.1S78.73 163 81 160.11c1.69-2.16 2-72.59 0-75.33s-70.48-2.5-76 1.29" fill="#fff"/>
      <path d="M114.48 118.1s-2.85 50.54-66.9 49.56" fill="none" stroke="#8498a3" stroke-linecap="round" stroke-miterlimit="10" stroke-width="9.39"/>
      <path d="M48.81 163.32s-1-4.46-5.14-4.76-2.29 3.44-2.29 3.44l-6-.07s3.07 9.82 9.82 10.7 3.61-9.33 3.61-9.33M38.83 85.62c1.06 1.48 7.19 4.15 9.61 0 .68-1.16-.29-2.67-.29-2.67h2.53s-2-5.62-6.39-5.29-8.32 4-5.46 8" fill="#fff8d5"/>
      <path d="M87.94 56.15S86.42 32.42 116.17 35c26.22 2.27 23.19 22.11 22.22 28.85L121.09 61" fill="#fbb040"/>
      <path d="M121.09 61s-22.24 6.83-39.51 3.25c-7.63-1.59 6.36-8.1 6.36-8.1s22.17-1.81 33.15 4.85" fill="#e19f39"/>
      <path d="M99.18 56s.75-15.83 3.15-20 10.14-2.6 10.38-1.24-4.81 12.55-6.71 21.8" fill="#e19f39"/>
      <path d="M70.23 109.74S35.84 123.51 35.38 124l.81 22.79c1 .32 35.13-14.59 35.13-14.59s-.89-21.71-1.09-22.49-14.08-12.94-15.85-13-22.45 5.61-22.45 5.61" fill="none" stroke="#78909c" stroke-miterlimit="10" stroke-width="1.17"/>
      <path d="M17.21 114.83s14.43-13.06 14.72-12.48S35.38 124 35.38 124s-16.8-8.61-18.17-9.2-.79 22.9 0 23.29 19 8.7 19 8.7" fill="none" stroke="#78909c" stroke-miterlimit="10" stroke-width="1.17"/>
      <path d="M51.62 140.7s-1.27-12.66-.94-13.84 9.58-3.52 9.58-3.52l1.08 13.21" fill="none" stroke="#78909c" stroke-linejoin="round" stroke-width="1.17"/>
      <path d="M128.73 70.12c0 2.67-1.86 4.83-4.15 4.83s-4.14-2.16-4.14-4.83 1.85-4.84 4.14-4.84 4.15 2.17 4.15 4.84" fill="#fff8d5"/>
    </g>
  </g>
</svg>
