<svg xmlns="http://www.w3.org/2000/svg" viewBox="0 0 144.06 175">
  <g id="Layer_2" data-name="Layer 2">
    <g id="Layer_1-2" data-name="Layer 1">
      <path fill="#b1d681" d="M.06 0h144v175H.06z"/>
      <path d="M58.54 56.69s-18.47 2.69-19.87-22.82S60.27-4.78 71.6 12.23c0 0 9.48-8.07 16.71 6.57 4.2 8.5 5.14 33.48-13.44 39.1" fill="#a97c50"/>
      <path d="M89.13 153.45c1.13-14.69 5-85-23.25-84.14-29 .92-23.37 72.55-22.26 84.14z" fill="#78909c"/>
      <path d="M68.74 105.57a2.1 2.1 0 11-2.1-2.1 2.1 2.1 0 012.1 2.1M68.74 121.8a2.1 2.1 0 11-2.1-2.1 2.1 2.1 0 012.1 2.1" fill="#6a808a"/>
      <path d="M58.54 87.34a65 65 0 005.25 7.59c1.92 2.34 1.95-1.19 2.67-2.82A15.48 15.48 0 0173.9 84c-.34-5.53-.62-10.18-.79-13.3l.81-3.55-4.79 2.2-6.28-.5s-3.9-1.26-4.27-1c-.06 0 1.31 3.29 1.31 3.29s-.6 6.6-1.35 16.22" fill="#f5a3c7"/>
      <path d="M47.19 21.07s-5 43.4 19.94 42.84c20.73-.47 17.53-42.84 17.53-42.84" fill="#fff8d5"/>
      <path d="M63.26 62.72s-.61 8.11-.33 8.59 3 3.34 3.37 3.28a18.93 18.93 0 003.45-3.29c0-.31-.51-8.58-.51-8.58M52.82 40.54c0 2.94-2 5.33-4.52 5.33s-4.53-2.39-4.53-5.33 2-5.33 4.53-5.33 4.52 2.38 4.52 5.33M87.38 40.54c0 2.94-2 5.33-4.52 5.33s-4.53-2.39-4.53-5.33 2-5.33 4.53-5.33 4.52 2.38 4.52 5.33" fill="#fff8d5"/>
      <path d="M63.75 43.71c0 3.1-1.77 5.62-4 5.62s-4-2.52-4-5.62 1.78-5.61 4-5.61 4 2.51 4 5.61" fill="#fff"/>
      <path d="M59.71 42.44c-.76 0-1.42.7-1.7 1.69a1.17 1.17 0 01.05 2.34c.3.92.93 1.56 1.65 1.56 1 0 1.86-1.25 1.86-2.8s-.83-2.79-1.86-2.79" fill="#58595b"/>
      <path d="M73.77 43.71c0 3.1-1.77 5.62-4 5.62s-4-2.52-4-5.62 1.77-5.61 4-5.61 4 2.51 4 5.61" fill="#fff"/>
      <path d="M69.74 42.44c-.76 0-1.42.7-1.7 1.69a1.17 1.17 0 010 2.34c.3.92.92 1.56 1.65 1.56 1 0 1.86-1.25 1.86-2.8s-.83-2.79-1.86-2.79" fill="#58595b"/>
      <path d="M62.13 53.73s-1.42 8 3.73 7.26c4.61-.7 3-7.26 3-7.26" fill="#d17751"/>
      <path d="M65.86 61a3.4 3.4 0 002.72-2 4.66 4.66 0 00-6.14 0 2.86 2.86 0 003.42 2" fill="#f68b5f"/>
      <path d="M63.68 50.87c-.27.25.33 1.35 1.3 1.4s1.84-1.13 1.57-1.4a4 4 0 00-2.87 0" fill="#fdddc1"/>
      <path d="M60.24 36.1c.21.47-.72 1.33-2.07 1.92s-2.61.69-2.81.22.71-1.34 2.06-1.93 2.61-.69 2.82-.21M73.94 37.5c-.25.46-1.5.26-2.79-.45S69 35.41 69.26 35s1.49-.26 2.79.45 2.14 1.64 1.89 2.09" fill="#a97c50"/>
      <path fill="#c2b59b" d="M0 142h144v33H0z"/>
      <path d="M76.61 153.71s-1.32 5-1 5.49c1.4 2 21.39 3.34 23.45 2.27.62-.33 1.6-5.81 1.14-6.46-1-1.5-22.72-2.9-23.61-1.3" fill="#fff"/>
      <path d="M40.89 148.81s10.7 13.87 11.16 14.11 7.84-4.58 8.07-6-10-13.56-11.23-13.85-8.73 4.77-8 5.72" fill="#9bcd64"/>
      <path d="M42.13 148.75s9.8 12.63 10.16 12.82 6.64-3.65 6.82-4.76-9.53-12.45-10.46-12.68-7.1 3.87-6.52 4.62z" fill="none" stroke="#568c3f" stroke-miterlimit="10" stroke-width=".94"/>
      <text transform="rotate(52.4 -130.534 125.175)" font-size="7.01" fill="#568c3f" font-weight="700" font-family="sans-serif">
        $
      </text>
      <path d="M51.06 160.12s2-1.72 3.42.18l-2.19 1.27M58.23 155.47s-2.27 1.33-.93 3.3l1.91-1.68M50 145.33s-2 1.73-3.42-.18l2.19-1.27M42.84 150s2.27-1.34.93-3.31l-1.91 1.68" fill="#568c3f"/>
      <path d="M36.19 149.45s6.69 16.18 7.07 16.54 8.77-2.36 9.36-3.66-6.15-15.72-7.21-16.33-9.68 2.32-9.22 3.43" fill="#9bcd64"/>
      <path d="M37.4 149.71s6.15 14.76 6.44 15 7.37-1.78 7.83-2.81-5.92-14.51-6.76-15-7.91 1.94-7.51 2.81z" fill="none" stroke="#568c3f" stroke-miterlimit="10" stroke-width=".94"/>
      <text transform="rotate(67.47 -94.431 108.694)" font-size="7.01" fill="#568c3f" font-weight="700" font-family="sans-serif">
        $
      </text>
      <path d="M43 163s2.37-1.15 3.26 1.07l-2.46.65M51.18 160.41s-2.54.69-1.76 3l2.28-1.12M45.91 148.48s-2.38 1.14-3.26-1.08l2.45-.65M37.77 151.09s2.54-.69 1.76-2.94l-2.28 1.11" fill="#568c3f"/>
      <path d="M32.79 149.63s.86 17.5 1.1 18 9 .72 10-.31-.51-16.87-1.31-17.78-9.9-1.07-9.84.13" fill="#9bcd64"/>
      <path d="M33.85 150.29s.82 16 1 16.32 7.53.8 8.31 0-.7-15.66-1.33-16.38-8.03-.89-7.98.06z" fill="none" stroke="#568c3f" stroke-miterlimit="10" stroke-width=".94"/>
      <text transform="rotate(87.11 -63.717 97.489)" font-size="7.01" fill="#568c3f" font-weight="700" font-family="sans-serif">
        $
      </text>
      <path d="M34.68 164.72s2.62-.28 2.71 2.11l-2.53-.22M43.22 165s-2.62-.2-2.65 2.19l2.53-.29M42.27 152s-2.62.28-2.71-2.11l2.53.22M33.73 151.71s2.62.2 2.64-2.18l-2.52.28" fill="#568c3f"/>
      <path d="M35.21 146.36s2.73 7 5.79 7.16c7.08.42 4.24-5.3 2.59-6.75 0 0 1.84.55 1.63-1s-4.7-3.07-4.7-3.07" fill="#fff8d5"/>
      <path d="M108.62 156.33s-13.19 11.09-13.32 11.26a13.12 13.12 0 00-.69 2.21 12.43 12.43 0 002.52-.7c.24-.18 13-11 13-11" fill="#78909c"/>
      <path d="M108.28 156.66a5 5 0 00-3.92 2.61c-.31.56 2.29-2.29 3.74-2.09M108.7 156.75s1-1.59 1.56-1.55 1.63 1.15 1.12 1.74a4.66 4.66 0 01-1.69 1" fill="#78909c"/>
      <path d="M93.74 142.44s-3.3.4-3.16 1.12 1.76.68 1.76.68-3.52 5.94-2.3 6.91 3-2.86 3-2.86 5.63 4.05 6.6-1.61c0 0-2.44-4.09-6-4.24" fill="#fff8d5"/>
      <path d="M74.4 79.12c13.31 4.68 47 30.65 22.63 65.53M55.42 79.12c-10.76 6.06-35.37 31-16.75 65.53" fill="none" stroke="#788f9b" stroke-miterlimit="10" stroke-width="7.75"/>
      <path d="M59.51 70.65s-10.9 4.42-10.58 5.54S56 78.44 56 78.44 49 83 49.34 84s14.35 15 15.2 13.92-2.17-25.56-5-27.22" fill="#6a808a"/>
      <path d="M73.11 70.65S84.78 74.9 84.44 76s-7.12 2.12-7.12 2.12 7 4.67 6.56 5.63S65.37 99 64.54 97.87s5.68-25.62 8.57-27.22" fill="#6a808a"/>
      <path d="M78.33 24.83s-4.13 5.38-7.79 5.7-.93-5.81-1.32-5.17-5.42 6.36-7.65 6.79S59 24.83 59 24.83s-4.44 7.53-6.2 7.86-2.63-6.57-2.63-6.57L47 35.21s-7.27-16.52 1.3-19.54 33.26-3.87 36.15.54 1.59 19.69 0 19.34-6.12-10.72-6.12-10.72" fill="#a97c50"/>
    </g>
  </g>
</svg>
