<svg xmlns="http://www.w3.org/2000/svg" viewBox="0 0 143.84 175.04">
  <g id="Layer_2" data-name="Layer 2">
    <g id="Layer_1-2" data-name="Layer 1">
      <path fill="#82b1a9" d="M0 0h143.84v175H0z"/>
      <path d="M64.82 95.44s-2.88-4.74-1.91-4.78 8.12 1 8.12 1 7.1-1.09 7.14-.82A24.63 24.63 0 0176.41 95" fill="#fff"/>
      <path d="M72.91 95.15s-.14-1.26 0-1.36 1.13.57 1.19 2.14" fill="#fff"/>
      <path d="M22.92 86.27s25.6-15.14 26.19-14.85-7.69 12.42-21 13.49l-5.78 2.86" fill="#c5ccd2"/>
      <path d="M26.88 91.12c.12-.48 7.7-30.94 7.79-30.84-.54-.54-11 9.66-7.53 22.67l-1.5 7.27" fill="#c5ccd2"/>
      <path d="M124.5 93.71s-7.34 2.1-3 5.89c2.84 2.46 9.83 1.33 9.83 1.33s6.11-2.87 7.11-5.43c.79-2-6.23 1.15-6.23 1.15s9.14-5.28 7.32-6.8c-1.62-1.36-8.39 3.29-8.39 3.29s8.21-5.82 7.61-7.21c-.68-1.57-5.59 1.31-9.17 3.53M14.56 92.66s-2-6.81-4.89-7.18 2.86 9.39 2.86 9.39-3.45-4.65-5.34-4 3.4 6.68 3.4 6.68-4.34-4.45-4.76-2.41 5 8.23 7.77 10.43" fill="#ffeac5"/>
      <path d="M14.07 92.66c-.92.5-7.64 4.53-1.72 12.06l10-1s4.05-2.62 3.29-6.64-7.64 1.29-7.15-4.42" fill="#ffeac5"/>
      <path d="M17.5 104.19s-7.47 33.16 7 30.93S52.38 102.33 67.75 100c21.6-3.29 51.22 56.48 58.74.22" fill="none" stroke="#fff" stroke-miterlimit="10" stroke-width="10.04"/>
      <path d="M112.17 87.9c1.85-.5 6.1-3.5 6.4-2.82a66 66 0 007 10.11c1.42 1.64 3.77 1.21 2.82-.81-4-8.42-20.45-34.37-23.71-36.27-1.73-1-9.47 5.11-9.22 6.45.37 1.86 6-4.71 7.49-2.92S117.22 82.1 117 82.5s-7.66 6.18-4.81 5.4" fill="#78909c"/>
      <path d="M104.18 63.08s-6.58 4.92-6.91 4 6.32-5.89 6.32-5.89M106 65.56s-6.58 4.93-6.9 4 6.31-5.89 6.31-5.89M107.8 68.05s-6.58 4.92-6.9 4 6.31-5.89 6.31-5.89M109.61 70.53s-6.58 4.92-6.9 4 6.29-5.88 6.29-5.88M111.42 73s-6.58 4.92-6.9 4 6.32-5.88 6.32-5.88M113.23 75.5s-6.58 4.92-6.9 4 6.32-5.89 6.32-5.89M115 78s-6.58 4.92-6.9 4 6.32-5.88 6.32-5.88M116.86 80.47s-6.58 4.92-6.91 4 6.32-5.89 6.32-5.89M23.73 88.49c.88-2.16-1.43-4.74-3.67-4.8-3.52-.09-9.12 2.59-7.38 7 2.21 5.55 9.3 2.18 11.05-2.17m-8.43 1.04c-.89-2.24 2-3.6 3.76-3.55 1.14 0 2.31 1.34 1.87 2.44-.9 2.22-4.51 3.94-5.63 1.11M29 90.31c-1.25-2-4.69-1.58-6 .21-2.12 2.81-3.19 8.93 1.38 10C30.1 102 31.47 94.27 29 90.31m-4 7.49c-2.33-.57-1.79-3.69-.71-5.12.69-.91 2.44-1.1 3.08-.1 1.28 2 .59 6-2.37 5.22" fill="#78909c"/>
      <path d="M29 90.31c-1.25-2-4.69-1.58-6 .21-2.12 2.81-3.19 8.92 1.39 10 5.8 1.43 7.17-6.3 4.65-10.26m-4 7.49c-2.33-.57-1.79-3.69-.71-5.12.69-.91 2.44-1.1 3.08-.1 1.28 2 .59 6-2.37 5.22" fill="#78909c"/>
      <path d="M26.57 94.81c-1.16-1.5-3.82-1.76-4.2-.33s1.9 3.46 3.21 3.4 2-1.82 1-3.07M15.64 89.93c.58 1.81 4.41 4.76 5.25 3.55s-2-5.7-3.27-6.09-2.45 1-2 2.54M127 87.19c-1.56 1.07-3.28 5.59-1.88 6.06s4.87-3.59 4.89-4.9-1.71-2-3-1.16" fill="#ffeac5"/>
      <path d="M122.5 95.3c1.88.25 4-1.21 3.23-2.36s-3.78-1-4.67-.21-.12 2.36 1.44 2.57" fill="#ffeac5"/>
      <path d="M121.55 99.6s-2.72-2.3-2.2-4.91 3.37-2.56 3.37-2.56" fill="#ffeac5"/>
      <path d="M90.32 175c1.05-8.62 9.25-82.5-19.34-81.6S49.85 166.52 50.83 175z" fill="#fff"/>
      <path d="M96.68 175A232.63 232.63 0 0093 129.2c-14.33-7.82-10.35-32.34-10.76-33s-5.5-1.88-5.5-1.88-5.15 28.52-6.48 27.16S64.64 95 64.64 95l-5.07 2.59c1.09 17.7-11.18 31.66-11.18 31.66-4.06 18.82-3 41.32-2.79 45.84z" fill="#61757f"/>
      <path d="M70.34 97.45S64.8 94.24 64.18 95s-.83 5.85 0 6 6-1.56 6-1.56S76.13 102 76.7 101s1.4-4.71 1-5.18-7.37 1.66-7.37 1.66" fill="#ef4535"/>
      <path d="M94.85 175c-.46-4.32-2.65-24.48-3.76-25.45S68.54 154 49.91 151c0 0-2.33 15.42-1.49 24z" fill="#c2e7ed"/>
      <path d="M67.52 153.11c-13.8 0-21.88-3.16-22-3.21a.63.63 0 01-.34-.81.62.62 0 01.81-.34c.19.07 19.46 7.58 49.52-.95a.6.6 0 01.76.42.61.61 0 01-.43.77 103.53 103.53 0 01-28.31 4.12" fill="#c2e7ed"/>
      <path d="M55.4 156.1s-.1 12.79 11 13.05c9.49.22 18.45-3.52 17.91-13.05 0 0-11.28 2.49-28.88 0" fill="#b4d6db"/>
      <path d="M52.42 47S51.26 84.66 54 87.08s31 3.92 33.76-2.9 1.17-34.31 0-37.22-35.26-3.89-35.34.04" fill="#fff8d5"/>
      <path d="M67.83 89.1v5.5c0 .28 2 2.85 2.71 2.63a8.93 8.93 0 002.71-2.58c.23-.56.61-5.93.61-5.93" fill="#fff8d5"/>
      <path d="M79.43 67.71c0 2.72-1.56 4.93-3.48 4.93s-3.48-2.21-3.48-4.93S74 62.78 76 62.78s3.48 2.21 3.48 4.93" fill="#fff"/>
      <path d="M75.17 68c-.67 0-1.25.62-1.5 1.49a1 1 0 010 2.06c.27.81.82 1.36 1.46 1.36.9 0 1.63-1.09 1.63-2.45S76.07 68 75.17 68" fill="#58595b"/>
      <path d="M68.71 67.71c0 2.72-1.55 4.93-3.47 4.93s-3.48-2.21-3.48-4.93 1.56-4.93 3.48-4.93 3.47 2.21 3.47 4.93" fill="#fff"/>
      <path d="M65.17 68c-.67 0-1.25.62-1.5 1.49a1 1 0 010 2.06c.27.81.82 1.36 1.46 1.36.9 0 1.63-1.09 1.63-2.45S66.07 68 65.17 68" fill="#58595b"/>
      <path d="M66.26 78.14s-1.94 7.64 3.85 8.14S75 77.64 75 77.64z" fill="#a85f40"/>
      <path d="M70.11 86.28a3.65 3.65 0 003.48-1.51 5 5 0 00-4.24-2.36 4.9 4.9 0 00-3 1 4 4 0 003.77 2.83" fill="#f68b5f"/>
      <path d="M70.79 66.81c-1.16.25-2.28 8.29-1.62 8.69s3.8.2 4-.4-1.65-8.43-2.34-8.29" fill="#fdddc1"/>
      <path d="M56.53 53.3s-2.6 9.9-4.35 10.28-4.75-18.77 1.25-21.25 33.69-4 35.84 2.07 1.62 21.27 0 20.93-6.34-12.13-6.34-12.13-11.23 3.93-12.66 3.93-12.6-2.69-13.74-3.83" fill="#766e5e"/>
      <path d="M71 57.88c3.91-.06 11.49-7.4 11.3-11.74s-4.69-1.3-4.69-1.3.73-8.34-2.32-10.84-4.65 4.12-4.65 4.12-2.4-8.11-7.26-9.59-6.5 12.58-3.9 16a3.28 3.28 0 00-3.56-.43c-2.08.95 2.95 7 4.34 7.11-.44-.16-5.56-.59-5.38 1s3 5.95 16.14 5.75M67.42 60.74c.09.54-1.56 1.26-3.69 1.61s-3.93.21-4-.32 1.56-1.26 3.69-1.62 3.93-.21 4 .33M79.77 61.19c-.12.53-1.92.59-4 .14s-3.72-1.26-3.61-1.8 1.92-.58 4-.13 3.72 1.26 3.61 1.79" fill="#998e7a"/>
    </g>
  </g>
</svg>
