<svg xmlns="http://www.w3.org/2000/svg" viewBox="0 0 144 175">
  <defs>
    <clipPath id="clip-path">
      <path fill="none" d="M24.32 50.32h95.54v41.7H24.32z"/>
    </clipPath>
    <clipPath id="clip-path-2">
      <path fill="none" d="M39.54 56.97h65.09v28.41H39.54z"/>
    </clipPath>
    <clipPath id="clip-path-3">
      <path d="M54.3 51.24C41 52.55 7.58 70 34.55 84.12S109.92 92 118.89 77c4.07-6.81-3.37-26.67-47.2-26.67-5.26 0-11 .29-17.39.92" fill="none"/>
    </clipPath>
  </defs>
  <g id="Layer_2" data-name="Layer 2">
    <g id="Layer_1-2" data-name="Layer 1">
      <path fill="#8dc63f" d="M144 175l-144-.44V0h144v175z"/>
      <path d="M71.83 65.7s10.74 68.38 8.55 69.7a4 4 0 01-4.13 0L63.5 68.55" fill="#414042"/>
      <path d="M18.87 71.63s.9 40.87 42.11 45.73c64.51 7.59 64.51-47.28 64.51-47.28" fill="#58595b"/>
      <path d="M52.21 46.43C37.3 47.9 0 67.44 30.13 83.19s84.24 8.8 94.27-8c5.1-8.52-6-35.35-72.19-28.79" fill="#58595b"/>
      <g clip-path="url(#clip-path)" opacity=".3">
        <path d="M54.3 51.23C41 52.55 7.58 70 34.55 84.12S109.91 92 118.89 77c4.56-7.62-5.32-31.62-64.59-25.76" fill="#ef4136"/>
      </g>
      <g clip-path="url(#clip-path-2)" opacity=".6">
        <path d="M60 57.59c-9.08.9-31.83 12.8-13.46 22.4s51.32 5.37 57.46-4.85c3.11-5.2-3.62-21.55-44-17.55" fill="#ef4136"/>
      </g>
      <g clip-path="url(#clip-path-3)" fill="#d1d3d4">
        <path d="M83.71 113.01l-77.78-61 2.02-1.69 77.78 61-2.02 1.69zM98.24 106.56l-77.78-61 2.01-1.69 77.78 60.99-2.01 1.7zM112.76 100.1L34.98 39.11l2.02-1.7 77.78 61-2.02 1.69zM127.29 93.65l-77.78-61 2.01-1.69 77.78 60.99-2.01 1.7zM139.18 88.72L61.4 27.73l2.02-1.69 77.77 60.99-2.01 1.69z"/>
      </g>
      <path d="M105.79 68.26a9.81 9.81 0 00-1.56-5.26c-6-10-17.1-11.85-25.13-11.88-11.28 0-26.94 2.31-27.95 8.23a36.63 36.63 0 00-.56 4.65 3.76 3.76 0 00.09 1.75 2.32 2.32 0 00.12.42v.12a6.71 6.71 0 00.76 1.4c6 8.63 28.2 1.31 30.54 7.06a.64.64 0 000 .07 7 7 0 00-1.13 2.24c-.09.37-.71 4.94-.42 5.34.46.65 1.92 1.15 5.32 1.62a21.16 21.16 0 005.45 0c6.94-.83 13.14-4.89 13.74-10.37a20.4 20.4 0 00.64-5.49" fill="#ecbca4"/>
      <path d="M80 51.54c-12.33 0-30.34 3-24.81 11s26 1.2 28.18 6.52-6.82 7.13 3.49 8.55 21.86-5.87 16.33-15.07-15.77-10.96-23.19-11" fill="#ef4136"/>
      <path d="M78.17 58.8c0 1.6-3.11 2.89-7 2.89s-6.94-1.29-6.94-2.89 3.11-2.9 6.94-2.9 7 1.3 7 2.9" fill="#fff"/>
      <path d="M87.89 52.55c.19.45-5.65 3.34-13 6.47s-13.55 5.3-13.73 4.85 5.65-3.34 13-6.46 13.54-5.3 13.73-4.86M95.69 56.82c.19.45-3.15 2.29-7.45 4.11s-7.95 2.93-8.14 2.48 3.15-2.28 7.45-4.1 8-2.93 8.14-2.49M101.24 66.46c.19.44-3.14 2.28-7.45 4.1s-8 2.93-8.14 2.48 3.15-2.28 7.46-4.1 8-2.93 8.13-2.48" fill="#972a23"/>
      <path d="M35.16 67c-2 4.54 1.82 17.62 15.37 16.7 3.26-.22 3.37-4.93-3-6.57s-4.29-11.79-8.77-11.79c-3.28 0-3.61 1.66-3.61 1.66" fill="#ec7648"/>
      <path d="M37.68 103.11s-10.74 68.38-8.55 69.7a4 4 0 004.13 0L46 106M108 103.11s10.74 68.38 8.54 69.7a4 4 0 01-4.12 0L99.63 106" fill="#58595b"/>
      <path d="M41.58 71.33c0 .33-1.32.59-3 .59s-2.95-.26-2.95-.59 1.32-.58 2.95-.58 3 .26 3 .58M43.35 75.43c.09.31-1.12.91-2.7 1.34s-2.92.52-3 .21 1.12-.91 2.7-1.34 2.92-.52 3-.21M48.7 78.42c.14.3-.94 1.11-2.41 1.82s-2.77 1.06-2.91.77.94-1.1 2.41-1.82 2.77-1 2.91-.77" fill="#92492b"/>
      <path d="M54.39 76.27c-.36 4.94 7.54 16 20 10.7 3-1.28 1.55-5.77-5-5.22s-7.9-9.75-12.13-8.23c-3.1 1.08-2.87 2.75-2.87 2.75" fill="#ec7648"/>
      <path d="M61.89 78.24c.1.3-1.06 1-2.6 1.52s-2.88.74-3 .43 1.06-1 2.6-1.53 2.88-.73 3-.42M64.91 81.52c.18.26-.76 1.23-2.11 2.15s-2.58 1.47-2.76 1.2.76-1.23 2.1-2.16 2.59-1.46 2.77-1.19M71 82.58c.23.23-.52 1.35-1.67 2.51S67 87 66.78 86.78s.52-1.35 1.67-2.51 2.27-1.92 2.5-1.69" fill="#92492b"/>
    </g>
  </g>
</svg>
