<svg xmlns="http://www.w3.org/2000/svg" viewBox="0 0 144 175">
  <defs>
    <clipPath id="clip-path">
      <path d="M75.44 89.82c-4.85.61-10.28 2.65-17.59 4.33 5 5.53 21.52 19.08 26.25 23.81.54.55 2.71-1.08 8.93-3.24 4.97-1.72 5.41-2.44 10.29-2.72-5.91-5.64-25.4-22.19-27.82-22.19h-.06" fill="none"/>
    </clipPath>
    <clipPath id="clip-path-2">
      <path fill="none" d="M40 93.48h55.62v20.86H40z"/>
    </clipPath>
  </defs>
  <g id="Layer_2" data-name="Layer 2">
    <g id="Layer_1-2" data-name="Layer 1">
      <path fill="#b0e1ec" d="M0 0h144v143.21H0z"/>
      <path d="M14.37 75.54c1.23-4.83 3.75-9.45 4.73-12.54 2.11-6.6 4.46-11.58 7.38-18.71a159.4 159.4 0 016.63-15c.57.4 2.9 1.8 3.17 2.38.81 1.73-.89 4.24-1.64 6.22-1.85 4.92-3.76 9.17-5.09 14.21-2.32 8.9-4.23 17.52-6.29 26.4-3.26.5-6.26.1-8.89-2.77" fill="#c3ae90" fill-rule="evenodd"/>
      <path d="M35.38 33.12c1.79-5.12 3.27-13.83.7-18.93-2.74-5.43-8-9.27-13.24-11.71.36 2.3 2.86 4.32 4.25 6.08-1.49-.65-3.6-.86-5.22-1.41a65 65 0 006.91 5.17 9.81 9.81 0 01-4.26.49c2.16 1.8 4.22 3.7 6.4 5.48-1.26.21-2.66-.05-3.84.31 1.76 1.76 3.79 3.12 5.18 5.12-1.26.77-3.13 0-4.49.44 1.78 1.76 4 2.79 5.29 4.94.77 1.3 1 2.93 1.88 4.16.32-.2.84-.32 1-.68" fill="#b7cd45" fill-rule="evenodd"/>
      <path d="M36 31.28c-1.78-5.13-6-12.87-11.22-15.27-5.51-2.55-12-2.28-17.64-.94 1.71 1.57 4.92 1.6 7.1 2.12-1.56.41-3.35 1.57-5 2.13a63.25 63.25 0 008.62-.24 9.74 9.74 0 01-3 3c2.81.07 5.6.27 8.41.31-.85.95-2.11 1.61-2.81 2.64 2.47.28 4.9.08 7.24.79-.51 1.38-2.48 1.91-3.24 3.14 2.48.25 4.86-.32 7.21.58 1.41.53 2.6 1.66 4.06 2.08a1.28 1.28 0 00-.12-1" fill="#8eb13e" fill-rule="evenodd"/>
      <path d="M36.33 30.54c-4.64-2.82-12.94-5.77-18.47-4.31C12 27.78 7.14 32.14 3.67 36.75c2.32.12 4.81-1.9 6.82-2.89-.94 1.31-1.58 3.35-2.46 4.8A62.23 62.23 0 0014.52 33a9.79 9.79 0 01-.4 4.27c2.21-1.74 4.5-3.36 6.68-5.12-.05 1.27-.6 2.59-.48 3.82 2.08-1.36 3.83-3.06 6.08-4 .49 1.39-.69 3.05-.5 4.48 2.1-1.45 3.43-4.33 5.93-4.17a11.72 11.72 0 005.09-.85c-.14-.35-1-.64-1.35-.81" fill="#b7cd45" fill-rule="evenodd"/>
      <path d="M36.26 30.77c3.12-4.44 9.34-10.71 15-11.59 6-.93 12.2 1.13 17.22 4-2.08 1-5.17.19-7.41.08 1.39.83 2.79 2.43 4.18 3.42-2.86-.74-6.49-1.15-9.15-2.24a26.94 26.94 0 013 3.38c-2.73-.71-5.47-1.29-8.18-2 .57 1.15 1.59 2.13 2 3.31-2.45-.42-4.74-1.28-7.18-1.24.11 1.47 1.86 2.52 2.25 3.91-2.46-.44-4.59-1.64-7.09-1.44-1.5.13-3 .89-4.48.89 0-.38-.92.45-.69.16" fill="#b7cd45" fill-rule="evenodd"/>
      <path d="M36.2 30.85c5.19-1.69 14-3 19.06-.3 5.4 2.86 9.15 8.25 11.48 13.56-2.3-.41-4.28-3-6-4.4.62 1.51.79 3.64 1.32 5.27a63.8 63.8 0 01-5.06-7 9.87 9.87 0 00-.59 4.26C54.66 40 52.89 38.05 51 35.65c-.24 1.26 0 2.67-.4 3.85-1.73-1.81-3-3.87-5-5.32-.8 1.26 0 3.15-.54 4.51-1.72-1.83-2.71-4.09-4.85-5.42-1.29-.81-2.92-1.07-4.14-2a1.23 1.23 0 01.86-.5" fill="#8eb13e" fill-rule="evenodd"/>
      <path d="M35.85 30.32c5 2 13.26 6.61 15.44 11.89 2.33 5.62 1.79 12.12.21 17.67-1.5-1.77-1.4-5-1.82-7.18-.48 1.54-1.68 3.3-2.34 4.87 0-3-.41-6.59 0-9.42a25.6 25.6 0 01-2.57 3.7v-8.41c-1 .81-1.7 2-2.75 2.69-.18-2.47.12-4.9-.49-7.26-1.41.46-2 2.4-3.27 3.11-.16-2.5.51-4.85-.28-7.23-.48-1.43-2.3-.51-2.66-2 .37-.1.25-2.86.59-2.7" fill="#b7cd45" fill-rule="evenodd"/>
      <path d="M34.22 32.1c-.17-.18-.61-.21-.87-.26a3.92 3.92 0 00-1.6 0 4.37 4.37 0 00-2.27.94c-1.24 1.06-.19 2.94.7 3.91a1.81 1.81 0 001.46.82 3.57 3.57 0 002.17-1.11 3.23 3.23 0 001-3.22c-.07-.33-.19-1-.59-1.1" fill="#735f51" fill-rule="evenodd"/>
      <path d="M34.9 32.28c-.24 0-.56.32-.78.47A4.06 4.06 0 0033 33.91a4.23 4.23 0 00-.84 2.31c-.06 1.63 2 2.12 3.36 2.12a1.81 1.81 0 001.59-.52 3.58 3.58 0 00.65-2.35 3.25 3.25 0 00-1.72-2.89c-.29-.17-.9-.57-1.21-.3" fill="#806d5d" fill-rule="evenodd"/>
      <path d="M131.24 79.26c-1-3.72-2.88-7.27-3.64-9.66-1.62-5.08-3.43-8.91-5.68-14.39a123.61 123.61 0 00-5.1-11.51 12.85 12.85 0 00-2.44 1.83c-.62 1.34.69 3.26 1.26 4.79a107.17 107.17 0 013.92 10.93c1.78 6.79 3.25 13.46 4.84 20.29 2.51.38 4.81.07 6.84-2.13" fill="#c3ae90" fill-rule="evenodd"/>
      <path d="M115.08 46.63c-1.38-3.94-2.52-10.65-.54-14.57 2.1-4.18 6.16-7.13 10.18-9-.28 1.76-2.2 3.32-3.27 4.67 1.15-.5 2.77-.66 4-1.09a47.71 47.71 0 01-5.31 4 7.49 7.49 0 003.28.38c-1.66 1.39-3.25 2.85-4.92 4.22a21.74 21.74 0 012.95.24c-1.35 1.35-2.91 2.4-4 3.94 1 .59 2.42 0 3.46.34-1.37 1.34-3.08 2.14-4.07 3.79-.6 1-.77 2.26-1.45 3.2-.24-.15-.65-.24-.73-.52" fill="#b7cd45" fill-rule="evenodd"/>
      <path d="M114.63 45.21c1.36-3.94 4.63-9.9 8.63-11.75 4.24-2 9.26-1.75 13.57-.72-1.31 1.26-3.83 1.26-5.46 1.63 1.2.32 2.57 1.21 3.82 1.64a48.73 48.73 0 01-6.64-.19 7.44 7.44 0 002.33 2.34c-2.17.06-4.32.21-6.47.24a24.62 24.62 0 012.16 2c-1.9.22-3.77.06-5.58.61.4 1.06 1.91 1.47 2.5 2.41-1.91.2-3.74-.24-5.55.45-1.08.41-2 1.28-3.12 1.6a1 1 0 01.09-.76" fill="#8eb13e" fill-rule="evenodd"/>
      <path d="M114.34 44.64c3.57-2.17 10-4.44 14.21-3.32 4.52 1.2 8.25 4.55 10.92 8.1-1.78.09-3.7-1.47-5.25-2.23.73 1 1.22 2.58 1.9 3.7a49 49 0 01-5-4.37 7.42 7.42 0 00.31 3.28c-1.7-1.34-3.46-2.58-5.14-3.94a23.39 23.39 0 01.37 2.94c-1.6-1-3-2.35-4.68-3.08-.38 1.07.53 2.35.38 3.46-1.6-1.07-2.63-3.32-4.55-3.2a9.1 9.1 0 01-3.92-.65c.1-.28.78-.5 1-.63" fill="#b7cd45" fill-rule="evenodd"/>
      <path d="M114.4 44.82c-2.4-3.42-7.19-8.24-11.54-8.92-4.62-.71-9.38.87-13.25 3.06 1.6.79 4 .14 5.71.06-1.07.63-2.15 1.87-3.22 2.63 2.2-.57 5-.89 7-1.72a21.43 21.43 0 00-2.31 2.59c2.1-.54 4.21-1 6.29-1.55a23.15 23.15 0 00-1.52 2.55c1.89-.32 3.65-1 5.53-1-.09 1.14-1.43 1.94-1.74 3 1.89-.33 3.53-1.26 5.46-1.1 1.16.09 2.28.68 3.45.68 0-.29.71.34.52.12" fill="#b7cd45" fill-rule="evenodd"/>
      <path d="M114.44 44.88c-4-1.3-10.75-2.31-14.66-.23-4.16 2.2-7 6.35-8.84 10.43 1.77-.32 3.3-2.28 4.63-3.38-.47 1.16-.6 2.8-1 4a47.6 47.6 0 003.88-5.42 7.38 7.38 0 01.46 3.28c1.33-1.67 2.69-3.19 4.13-5a22 22 0 00.31 3c1.33-1.39 2.35-3 3.88-4.1.61 1 0 2.43.41 3.47 1.32-1.41 2.09-3.14 3.73-4.17 1-.62 2.25-.83 3.19-1.53a1 1 0 00-.66-.39" fill="#8eb13e" fill-rule="evenodd"/>
      <path d="M114.71 44.47c-3.89 1.53-10.2 5.08-11.88 9.15-1.83 4.38-1.37 9.38-.16 13.59 1.15-1.36 1.08-3.83 1.4-5.52.37 1.19 1.31 2.52 1.8 3.75 0-2.27.32-5.07 0-7.25a20.62 20.62 0 002 2.85v-6.48c.76.63 1.31 1.58 2.12 2.08.13-1.91-.09-3.77.37-5.59 1.08.35 1.55 1.84 2.52 2.39.12-1.92-.4-3.73.21-5.56.37-1.1 1.77-.39 2-1.53-.28-.08-.19-2.2-.45-2.08" fill="#b7cd45" fill-rule="evenodd"/>
      <path d="M116 45.84c.14-.14.48-.16.68-.2a3 3 0 011.23 0 3.25 3.25 0 011.74.72c1 .82.15 2.27-.54 3A1.39 1.39 0 01118 50a2.75 2.75 0 01-1.67-.85 2.51 2.51 0 01-.75-2.48c.06-.26.15-.81.46-.84" fill="#735f51" fill-rule="evenodd"/>
      <path d="M115.44 46c.19 0 .44.24.6.36a3 3 0 01.85.9 3.26 3.26 0 01.64 1.77c0 1.25-1.57 1.63-2.58 1.63a1.39 1.39 0 01-1.22-.4 2.73 2.73 0 01-.5-1.81 2.51 2.51 0 011.32-2.22c.23-.13.69-.44.93-.23" fill="#806d5d" fill-rule="evenodd"/>
      <path d="M0 69.16s8.5.5 9 4.34c0 0 7.67-4.86 10.5 2.24a23.34 23.34 0 0117.67 5.92L0 98.07zM144 69.16s-8.5.5-9 4.34c0 0-7.67-4.86-10.5 2.24a23.34 23.34 0 00-17.67 5.92L144 98.07z" fill="#8eb13e"/>
      <path d="M0 95.18S65.66 53 144 92.91v50.29L0 151.08z" fill="#f8d991"/>
      <path d="M144 175H0v-36.12c3-2 13.67-13.38 21-7.38s10-7.34 23 0 15.67-12.34 30 .33 23.91-7.7 34.35 1.59c8.15 7.25 13.66-16.5 35.65 6z" fill="#00b0e4"/>
      <path d="M75.44 89.82c-4.85.61-10.28 2.65-17.58 4.33 5 5.53 21.51 19.08 26.24 23.81.54.55 2.71-1.08 8.93-3.24 4.97-1.72 5.42-2.44 10.29-2.72-6-5.68-25.71-22.46-27.88-22.19" fill="#f1595a"/>
      <g clip-path="url(#clip-path)" fill="#fff">
        <path d="M59.64 91.23l31.85 28.25 3.08-1.28-32.1-28.76-2.83 1.79zM66.83 89.18l30.56 26.71 4.11-1.85-30.56-25.89-4.11 1.03z"/>
      </g>
      <path d="M65.63 61.09l-18 41.45a1.69 1.69 0 002.48 1.12l17.72-42.19s.37-1.42-2.2-.38" fill="#39393d"/>
      <path d="M31.6 48.29h.4c3.7 1.62 7.65 3.05 11 5.33 1.89 1.39 5.66 4.92 6.2 5.4.84.75 8.6-1.22 18.88 3.23 3.61 1.56 11.78 5.62 14.3 11 9.82-.45 10.2-1.25 17.12 4.09C93.25 49.12 54 31.88 31.6 48.29" fill="#f1595a"/>
      <path d="M50 58.41s12.39-11.66 22.89-12.47c0 0 6.78 5.89 10 25.5 0 0-12.45-16.92-32.85-13" fill="#fff"/>
      <path d="M71.52 46.12l2.37.88c.15-.27 2.1-4.64 1-5 0 0-1.5-.53-3.34 4.17" fill="#39393d"/>
      <g clip-path="url(#clip-path-2)" opacity=".2">
        <path d="M95.63 103.91c0 5.77-12.46 10.44-27.82 10.44S40 109.68 40 103.91s12.45-10.43 27.81-10.43 27.82 4.67 27.82 10.43" fill="#65593a"/>
      </g>
    </g>
  </g>
</svg>
