<svg xmlns="http://www.w3.org/2000/svg" viewBox="0 0 144.02 175.04">
  <g id="Layer_2" data-name="Layer 2">
    <g id="Layer_1-2" data-name="Layer 1">
      <path fill="#27aae1" d="M.02 0h144v117.48H.02z"/>
      <path d="M0 101.08s12.5-8.9 29 0 40.5-8.31 53.5-4S119 88.1 144 100v75H0z" fill="#ffcb6b"/>
      <path d="M121.34 85.69a47.5 47.5 0 10-47.5 47.5 47.5 47.5 0 0047.5-47.5" fill="#f1f2f2"/>
      <path d="M112.79 58.52a71.28 71.28 0 00-10.6-4.09C93.59 51.76 79.05 51 70.81 53c-6.25 1.48-15.15 6.31-15.15 6.31L52.52 68l1.44.28a.2.2 0 010 .05c3.44.78 12.64 3.52 24.23 12.07 14.81 10.87 24.24 19.11 30.54 28.07a54.36 54.36 0 013.3 5.46 47.47 47.47 0 00.76-55.41" fill="#f15a29"/>
      <path d="M54 68.29c-1-.22-1.49-.29-1.49-.29l-7.28-1.41s-10.66 10.9-14.3 23a54.75 54.75 0 00-2.17 11.12 47.51 47.51 0 0045.07 32.5c.67 0 1.34 0 2-.05-2.78-4.37-13.6-22-16.55-34.6-2.17-9.4-5.17-29.37-5.28-30.27" fill="#f7941d"/>
      <path d="M52.75 59.76a82.48 82.48 0 016.06-12.6 48 48 0 017.19-8.3 47.46 47.46 0 00-32 21l12.21 4.53z" fill="#ef4136"/>
      <path d="M58.12 67.68c2-4.1.65-8.81-2.91-10.51s-8 .25-10 4.36-.66 8.82 2.91 10.52 8-.26 10-4.37" fill="#f1f2f2"/>
      <path d="M41.81 134.26s41-19.22 70-4.21-10.33 44-27 42.34" fill="#ffcb6b"/>
    </g>
  </g>
</svg>
