<svg xmlns="http://www.w3.org/2000/svg" viewBox="0 0 144 175">
  <g id="Layer_2" data-name="Layer 2">
    <g id="Layer_1-2" data-name="Layer 1">
      <path fill="#fff" d="M0 0h144v175H0z"/>
      <path d="M18.35 92.3c-.47-4.09 20.22-8.73 51.72-8.58s55 2 55.59 8.58l-4.47 12.56S86.78 97.33 71.7 97a285.53 285.53 0 00-31.53 1.37l-16.42 5.3z" fill="#464038"/>
      <path d="M105 97.62c6.1-.55 19.11-.65 20.71-5.32 0 0-.1 15-1.7 16.83s-19.82 5.43-22.53 5.86" fill="#6b6358"/>
      <path d="M18.35 92.3s.5 14.35 2 16.35S30.26 115 41.87 116s17.72 3.15 17.72 3.15a42.44 42.44 0 0013.32 1c8-.54 12.91-1.84 18.21-2.06s25.33-3.47 28.53-5.43 5.91-7.38 5.31-9.88-5.31-6.08-9.61-5.86l-4.31.21s-29.1 2.72-40.38 2.72-30.79-2.06-38.3-3.15l-7.5-1.09s-5.11-.87-6.51-3.25" fill="#9e8f78"/>
      <path d="M85.55 108.87c.07-7.56.8-13.06-6.14-12.92a130.66 130.66 0 01-15-.79c-3.27-.22-8.94-3-8.74 11.36.08 5.79.13 11.28 1 13.39s2.54 3.12 9.08 2.32 16.5-.23 18.25-1.16c2.27-1.23 1.54-4.65 1.6-12.2m-3.45 8c-.29 2.45-9.79 2.25-11.78 2.25S60.16 120 59.6 117s-.47-11.64 0-15.21 7.91-3.27 10.73-3.27 9.2.11 11 2.08c1.29 1.39 1 13.85.76 16.3" fill="#cdcfd0"/>
      <path d="M63.4 109.87a1.77 1.77 0 11-1.74-2.11 2 2 0 011.74 2.11M76.36 109.9a1.77 1.77 0 11-1.74-2.11 1.95 1.95 0 011.74 2.11M45.92 108.65a1.78 1.78 0 11-1.75-2.11 1.95 1.95 0 011.75 2.11M28.83 104.86a2 2 0 01-1.74 2.1 2.14 2.14 0 010-4.21 2 2 0 011.74 2.11" fill="#6b6358"/>
      <path d="M62.22 108.39c.55.4.47 2.7.07 3-2.29 1.54-5.35-.62-5.35-1.4 0-1.3 3.73-2.7 5.28-1.56" fill="#e4e5e6"/>
    </g>
  </g>
</svg>
