<svg xmlns="http://www.w3.org/2000/svg" viewBox="0 0 144 163.18">
  <g id="Layer_2" data-name="Layer 2">
    <g id="Layer_1-2" data-name="Layer 1">
      <path fill="#8ad5e7" d="M0 0h144v121.32H0z"/>
      <path d="M141.71 96.49V61.84h-3.06V56h-11.21v6.88h-8.66v35.65h-4.08V67.7h-25v46.37h-3.28V56H64.77v28.26h-3.06v-9.17H39v29.55h-3.53V39.42h-2.55v-7.13H20.69v7.64H7.7V96H4.13V56.24H0v65l144-.05v-24.7z" fill="#6aa4b3"/>
      <path fill="#a7a9ac" d="M0 110.06h144v53.12H0z"/>
      <path fill="none" stroke="#fff" stroke-miterlimit="10" stroke-width=".63" d="M41.39 125.36l-12.45-6.09M41.39 125.36l-13.11 4.5M41.39 125.36l-6.09 12.45M41.39 125.36l4.5 13.11M41.39 125.36l12.45 6.09M41.39 125.36l13.11-4.5M41.39 125.36l6.09-12.46M41.39 125.36l-4.5-13.12M102.61 125.36l-7.27-11.8M102.61 125.36l-13.49-3.2M102.61 125.36l-11.8 7.28M102.61 125.36l-3.19 13.49M102.61 125.36l7.28 11.8M102.61 125.36l13.49 3.2M102.61 125.36l11.8-7.28M102.61 125.36l3.2-13.49"/>
      <path fill="none" stroke="#fff" stroke-linecap="round" stroke-miterlimit="10" stroke-width=".95" d="M63.99 127.29l9.48 8.64"/>
      <path d="M41.39 122.81a2.55 2.55 0 102.55 2.55 2.55 2.55 0 00-2.55-2.55m0 3.65a1.1 1.1 0 111.1-1.1 1.1 1.1 0 01-1.1 1.1M64 122a5.3 5.3 0 105.3 5.3A5.3 5.3 0 0064 122m0 7.44a2.15 2.15 0 112.15-2.14 2.14 2.14 0 01-2.15 2.13" fill="#f1f2f2"/>
      <path d="M41.39 112.37a13 13 0 11-13 13 13 13 0 0113-13m0-3.17a16.16 16.16 0 1016.16 16.16 16.18 16.18 0 00-16.16-16.16M102.61 112.37a13 13 0 11-13 13 13 13 0 0113-13m0-3.17a16.16 16.16 0 1016.17 16.16 16.18 16.18 0 00-16.17-16.16" fill="#414042"/>
      <path d="M65.64 126.94H41.39a1.58 1.58 0 01-1.09-2.73l22.76-21.55a1.59 1.59 0 011-.43l32.48-.85a1.58 1.58 0 011 2.87l-31 22.39a1.53 1.53 0 01-.92.3m-20.27-3.17h19.77l26.43-19.09-26.75.7z" fill="#ed1c24"/>
      <path d="M102.61 126.94a1.58 1.58 0 01-1.53-1.17l-6-22.4a1.67 1.67 0 010-.86l1.8-6.12a1.6 1.6 0 011.52-1.14h8.13a1.59 1.59 0 110 3.17h-6.91L98.28 103l5.86 22a1.58 1.58 0 01-1.12 1.94 1.4 1.4 0 01-.41 0" fill="#ed1c24"/>
      <path d="M106.56 103.7a1.58 1.58 0 010-3.16 1.06 1.06 0 000-2.12 1.59 1.59 0 010-3.17 4.23 4.23 0 110 8.45" fill="#414042"/>
      <path d="M66.74 98.63h3.59A3.6 3.6 0 0066.74 95h-5.15a3.08 3.08 0 00-.61.06 4 4 0 00-.79.22A3.6 3.6 0 0058 98.63h4.57v5.29l1.48 21.55a1.59 1.59 0 001.58 1.47h.11a1.59 1.59 0 001.48-1.69l-1.48-21.49v-5.13z" fill="#ed1c24"/>
      <path fill="#f1f2f2" d="M63.95 132.58l-22.56-4.67.04-.31 22.56 4.67-.04.31z"/>
      <path d="M68.54 95.53a3.54 3.54 0 00-1.8-.49h-5.15a3.08 3.08 0 00-.61.06 4 4 0 00-.79.22A3.6 3.6 0 0058 98.63h12.33a3.57 3.57 0 00-1.79-3.1" fill="#414042"/>
      <path d="M64 118.3l-22.26 4a5.27 5.27 0 00-4.61 5H73a9 9 0 00-9-9M70.99 135.24h4.96v1.39h-4.96z" fill="#ed1c24"/>
      <path fill="#414042" d="M58 95.04h3.59v3.59H58z"/>
    </g>
  </g>
</svg>
