<svg xmlns="http://www.w3.org/2000/svg" viewBox="0 0 144.02 175.04">
  <defs>
    <clipPath id="clip-path">
      <path fill="none" d="M0 0h28.8v28.8H0z"/>
    </clipPath>
    <clipPath id="clip-path-2">
      <path fill="none" d="M26.14 52.1h90.12v33.32H26.14z"/>
    </clipPath>
    <clipPath id="clip-path-3">
      <path fill="none" d="M26.72 96.9h88.39v48.15H26.72z"/>
    </clipPath>
    <pattern id="Unnamed_Pattern_2" data-name="Unnamed Pattern 2" width="28.8" height="28.8" patternTransform="matrix(1.3 0 0 -1.3 -57.46 21335.48)" patternUnits="userSpaceOnUse" viewBox="0 0 28.8 28.8">
      <path fill="none" d="M0 0h28.8v28.8H0z"/>
      <g clip-path="url(#clip-path)" fill="#fbb040">
        <path d="M28.8-2.16A2.16 2.16 0 0131 0a2.16 2.16 0 01-2.2 2.16A2.16 2.16 0 0126.64 0a2.16 2.16 0 012.16-2.16M14.4-2.16A2.16 2.16 0 0116.56 0a2.16 2.16 0 01-2.16 2.16A2.16 2.16 0 0112.24 0a2.16 2.16 0 012.16-2.16M28.8 12.24a2.16 2.16 0 11-2.16 2.16 2.16 2.16 0 012.16-2.16M14.4 12.24a2.16 2.16 0 11-2.16 2.16 2.16 2.16 0 012.16-2.16M7.2 5A2.16 2.16 0 115 7.2 2.16 2.16 0 017.2 5M21.6 5a2.16 2.16 0 11-2.16 2.2A2.16 2.16 0 0121.6 5M7.2 19.44A2.16 2.16 0 115 21.6a2.16 2.16 0 012.2-2.16M21.6 19.44a2.16 2.16 0 11-2.16 2.16 2.16 2.16 0 012.16-2.16M0-2.16A2.16 2.16 0 012.16 0 2.16 2.16 0 010 2.16 2.16 2.16 0 01-2.16 0 2.16 2.16 0 010-2.16M0 12.24a2.16 2.16 0 012.16 2.16A2.16 2.16 0 010 16.56a2.16 2.16 0 110-4.32M28.8 26.64a2.16 2.16 0 11-2.16 2.16 2.16 2.16 0 012.16-2.16M14.4 26.64a2.16 2.16 0 11-2.16 2.16 2.16 2.16 0 012.16-2.16M0 26.64a2.16 2.16 0 012.16 2.16A2.16 2.16 0 010 31a2.16 2.16 0 010-4.32"/>
      </g>
    </pattern>
    <pattern id="Unnamed_Pattern_2-3" data-name="Unnamed Pattern 2" width="28.8" height="28.8" patternTransform="matrix(1.3 0 0 -1.3 -55.44 21324.11)" patternUnits="userSpaceOnUse" viewBox="0 0 28.8 28.8">
      <path fill="none" d="M0 0h28.8v28.8H0z"/>
      <g clip-path="url(#clip-path)" fill="#fbb040">
        <path d="M28.8-2.16A2.16 2.16 0 0131 0a2.16 2.16 0 01-2.2 2.16A2.16 2.16 0 0126.64 0a2.16 2.16 0 012.16-2.16M14.4-2.16A2.16 2.16 0 0116.56 0a2.16 2.16 0 01-2.16 2.16A2.16 2.16 0 0112.24 0a2.16 2.16 0 012.16-2.16M28.8 12.24a2.16 2.16 0 11-2.16 2.16 2.16 2.16 0 012.16-2.16M14.4 12.24a2.16 2.16 0 11-2.16 2.16 2.16 2.16 0 012.16-2.16M7.2 5A2.16 2.16 0 115 7.2 2.16 2.16 0 017.2 5M21.6 5a2.16 2.16 0 11-2.16 2.2A2.16 2.16 0 0121.6 5M7.2 19.44A2.16 2.16 0 115 21.6a2.16 2.16 0 012.2-2.16M21.6 19.44a2.16 2.16 0 11-2.16 2.16 2.16 2.16 0 012.16-2.16M0-2.16A2.16 2.16 0 012.16 0 2.16 2.16 0 010 2.16 2.16 2.16 0 01-2.16 0 2.16 2.16 0 010-2.16M0 12.24a2.16 2.16 0 012.16 2.16A2.16 2.16 0 010 16.56a2.16 2.16 0 110-4.32M28.8 26.64a2.16 2.16 0 11-2.16 2.16 2.16 2.16 0 012.16-2.16M14.4 26.64a2.16 2.16 0 11-2.16 2.16 2.16 2.16 0 012.16-2.16M0 26.64a2.16 2.16 0 012.16 2.16A2.16 2.16 0 010 31a2.16 2.16 0 010-4.32"/>
      </g>
    </pattern>
  </defs>
  <g id="Layer_2" data-name="Layer 2">
    <g id="Layer_1-2" data-name="Layer 1">
      <path fill="#f8d991" d="M.01 0h144v175.04H.01z"/>
      <path d="M110.37 52.19C94.59 50.71 77.3 67 71.19 75.34 65.09 67 47.8 50.71 32 52.19c-1.34.13-7.46 10.34-5.5 25C28.22 90 62 85 71.19 81.3c9.18 3.66 43 8.67 44.68-4.1 2-14.67-4.16-24.88-5.5-25" fill="#f15a29"/>
      <path d="M30.9 53.23c4.42-8.2 33.19-34.4 38-34.94s40.79 32.31 42.2 34.44-3.15 1-3.15 1-32.85-31.52-38-33.91S41 48.29 35.22 53.29" fill="#f15a29"/>
      <path d="M74.38 12.59c-1.06-.57-4.71 5.93-5.22 5.3 0 0-4.16-3.5-6.2-4.16s-3.8 4.92-1.79 5.79 7.09-1.22 7.09-1.22-4 4.73-3.18 5.54.82 1.63 1.31 0a15.67 15.67 0 012.77-4.61c.49-.44.49 5.68 1 5.55s1.3-.2 1.38-1.1-1.58-4.74-1.58-4.74 6.07-1.13 6.64-2.52-1.14-3.26-2.2-3.83m-12.35 5.54c-.85-2 .92-3.4 1.69-2.92.35.21 3.25 1.77 3.13 2.3-.07.34-4.62 1.09-4.82.62m12.69-1.5c-1 .51-4.78 1.75-4.38 1.2s2.9-3.72 3.53-3.61c1.64.29 1.87 1.89.85 2.41" fill="#f15a29"/>
      <g clip-path="url(#clip-path-2)" opacity=".3">
        <path d="M110.37 52.19C94.59 50.71 77.3 67 71.19 75.34 65.09 67 47.8 50.71 32 52.19c-1.34.13-7.46 10.34-5.5 25C28.22 90 62 85 71.19 81.3c9.18 3.66 43 8.67 44.68-4.1 2-14.67-4.16-24.88-5.5-25" fill="url(#Unnamed_Pattern_2)"/>
      </g>
      <path d="M29.76 97c-1.14-.56-5.74 5.34-.8 10.27 1.38 1.39 14 5 25 19.65s11.64 17.32 13.52 17.73 8.64 1.31 10.56-1.72 14.84-25.13 33.34-33.54c3.32-1.51 3.52-2.22 3.72-4.84s-1-8.26-2.51-7.55l-1.51.7s-36.87 21-81.3-.7" fill="#f15a29"/>
      <g clip-path="url(#clip-path-3)" opacity=".3">
        <path d="M29.76 97c-1.14-.56-5.74 5.34-.8 10.27 1.38 1.39 14 5 25 19.65s11.64 17.32 13.52 17.73 8.64 1.31 10.56-1.72 14.84-25.13 33.34-33.54c3.32-1.51 3.52-2.22 3.72-4.84s-1-8.26-2.51-7.55l-1.51.7s-36.87 21-81.3-.7" fill="url(#Unnamed_Pattern_2-3)"/>
      </g>
      <path d="M75.92 79.31c-1.2.37-3.43 1.22-4.68 1.71-1.6-1.18-4.58-3.1-5.75-1.42-1.52 2.17-.76 7.06 1 6.52 1.2-.38 3.43-1.23 4.68-1.71 1.6 1.18 4.58 3.09 5.75 1.42 1.52-2.17.76-7.07-1-6.52M34.94 90.82c-1.06-.57-4.71 5.92-5.22 5.3 0 0-4.15-3.51-6.19-4.16s-3.81 4.92-1.8 5.79 7.1-1.22 7.1-1.22-4 4.72-3.18 5.54.81 1.63 1.3 0a15.53 15.53 0 012.77-4.61c.49-.44.49 5.68 1 5.55s1.31-.21 1.39-1.1-1.59-4.75-1.59-4.75 6.07-1.12 6.64-2.51-1.14-3.26-2.2-3.83m-12.35 5.53c-.85-2 .93-3.39 1.7-2.91.34.21 3.25 1.76 3.13 2.3-.08.34-4.63 1.09-4.83.61m12.7-1.49c-1 .51-4.78 1.75-4.38 1.19s2.89-3.71 3.52-3.6c1.65.29 1.87 1.89.86 2.41" fill="#f7941d"/>
    </g>
  </g>
</svg>
