<svg xmlns="http://www.w3.org/2000/svg" viewBox="0 0 144 163.18">
  <g id="Layer_2" data-name="Layer 2">
    <g id="Layer_1-2" data-name="Layer 1">
      <path fill="#8ad5e7" d="M0 0h144v121.32H0z"/>
      <path d="M141.71 96.49V61.84h-3.06V56h-11.21v6.88h-8.66v35.65h-4.08V67.7h-25v46.37h-3.28V56H64.77v28.26h-3.06v-9.17H39v29.55h-3.53V39.42h-2.55v-7.13H20.69v7.64H7.7V96H4.13V56.24H0v65l144-.05v-24.7z" fill="#6aa4b3"/>
      <path fill="#a7a9ac" d="M0 110.06h144v53.12H0z"/>
      <path d="M112.89 84.81H31.11a19.6 19.6 0 00-19.59 19.6v30.49h121v-30.49a19.61 19.61 0 00-19.6-19.6" fill="#1c75bc"/>
      <path fill="#f1f2f2" d="M14.51 134.9H132.49v-16.05H11.52v16.05h2.99z"/>
      <path d="M136.4 134.9a2.52 2.52 0 01-2.52 2.52h-2.78a2.52 2.52 0 110-5h2.78a2.52 2.52 0 012.52 2.52M18.86 134.9a2.52 2.52 0 01-2.53 2.52h-6.2a2.52 2.52 0 010-5h6.2a2.52 2.52 0 012.53 2.52M127.48 134.9a6.79 6.79 0 11-6.79-6.79 6.79 6.79 0 016.79 6.79" fill="#58595b"/>
      <path d="M123.46 134.9a2.77 2.77 0 11-2.77-2.77 2.77 2.77 0 012.77 2.77" fill="#fffef2"/>
      <path d="M38.59 134.9a6.79 6.79 0 11-6.78-6.79 6.79 6.79 0 016.78 6.79" fill="#58595b"/>
      <path d="M34.57 134.9a2.77 2.77 0 11-2.76-2.77 2.77 2.77 0 012.76 2.77" fill="#fffef2"/>
      <path d="M53.43 134.9a6.79 6.79 0 11-6.79-6.79 6.79 6.79 0 016.79 6.79" fill="#58595b"/>
      <path d="M49.41 134.9a2.77 2.77 0 11-2.77-2.77 2.77 2.77 0 012.77 2.77" fill="#fffef2"/>
      <path d="M134.44 122.38a1.14 1.14 0 00-1.11.82 2.62 2.62 0 000 5.22 1.16 1.16 0 001.11.82 1.18 1.18 0 001.17-1.17v-4.52a1.17 1.17 0 00-1.17-1.17M9.72 122.38a1.14 1.14 0 011.11.82 2.62 2.62 0 010 5.22 1.16 1.16 0 01-1.11.82 1.18 1.18 0 01-1.17-1.17v-4.52a1.17 1.17 0 011.17-1.17" fill="#58595b"/>
      <path fill="#00aeef" d="M91.62 95.94h18.79v39.98H91.62z"/>
      <path d="M112.06 134.9a2.23 2.23 0 01-2.23 2.23H92.21a2.24 2.24 0 110-4.47h17.62a2.23 2.23 0 012.23 2.24" fill="#58595b"/>
      <path fill="#00aeef" d="M55.77 95.94h14.3v10.18h-14.3zM19.07 95.94h-.2a14.8 14.8 0 00-2.65 8.47v1.71h2.85zM22.21 95.94h12.93v10.18H22.21zM37.96 95.94h14.67v10.18H37.96zM73.21 95.94h15.08v10.18H73.21zM132.46 110.94v-6.53c0-.65 0-1.29-.1-1.93 0-.26-.07-.51-.11-.76s-.1-.74-.17-1.1-.15-.65-.23-1-.13-.54-.21-.8-.24-.75-.38-1.12l-.2-.57c-.17-.41-.35-.82-.55-1.22h-3.06v20a5 5 0 015-5M113.41 95.87h10.86v10.18h-10.86z"/>
      <path d="M132.46 110.94a5 5 0 000 10v-10" fill="#00aeef"/>
    </g>
  </g>
</svg>
