<svg xmlns="http://www.w3.org/2000/svg" viewBox="0 0 144 174.97">
  <g id="Layer_2" data-name="Layer 2">
    <g id="Layer_1-2" data-name="Layer 1">
      <path fill="#addedc" d="M0 0h144v174.97H0z"/>
      <path d="M144 175v-64.43C69.52 78.62 16.25 113.26 0 126.26V175z" fill="#afd24d"/>
      <path d="M108.38 128c0 6-15 10.87-33.44 10.87S41.49 134 41.49 128s15-10.88 33.45-10.88S108.38 122 108.38 128" fill="#7ba541"/>
      <path d="M61.69 98.13c-.11-1.72-.1-7.51-2.79-7.5-1.87 0-2.62 1.68-2.92 3.53-2.76 6.19-2.49 13.29-3.36 20-.34 2.6-.56 5.81 1.37 7.78 1.65 1.68 4.93.26 6.62-.24s1.57-7.8 1.68-9.35c.31-4.67-.31-9.55-.6-14.22M92.07 98.34c-.11-1.72-.1-7.51-2.79-7.5-1.87 0-2.62 1.68-2.92 3.53-2.76 6.19-2.49 13.29-3.36 20-.34 2.61-.56 5.82 1.37 7.79 1.65 1.68 4.93.26 6.62-.25s1.58-7.79 1.68-9.34c.31-4.67-.3-9.56-.6-14.22" fill="#cfd1d2"/>
      <path d="M48 83.84s.93 16.79 11.43 21.21 30.4-5 36.07-4.21 8.31-12.77 2.32-18.29S58.21 81 53.19 73.74" fill="#fff"/>
      <path d="M59.9 115.62a20.15 20.15 0 01-5.37.21c-.69-.12-1.37-.28-2.05-.45-.22 2.33-.13 4.89 1.51 6.56s4.93.26 6.62-.24c1.22-.37 1.51-3.75 1.6-6.4-.77.12-1.53.24-2.31.32M87.42 118.28a10 10 0 01-4.62-.28 6.22 6.22 0 001.57 4.12c1.65 1.68 4.93.26 6.62-.25 1-.29 1.36-2.54 1.52-4.79a29.08 29.08 0 01-5.09 1.17" fill="#816f65"/>
      <path d="M114.17 95.41c-.18-.66-.86-.45-.8.19.17 1.8-3.87 1.25-4.64 1-1.65-.63-2.52-2.47-4-3.32-3-1.71-4.81 0-7.51 1.4-.41.26-.62 1.49.16 1.49a4.35 4.35 0 002.21-.8 4.37 4.37 0 015.28.31c1.52 1.17 2.52 2.89 4.6 3.14 1.76.21 5.38-.87 4.72-3.38M68.27 103.07c-.11-1.72-.1-7.51-2.79-7.5-1.87 0-2.62 1.68-2.92 3.53-2.76 6.19-2.49 13.29-3.36 20-.34 2.6-.56 5.81 1.37 7.78 1.65 1.68 4.93.26 6.62-.25s1.58-7.79 1.68-9.34c.31-4.67-.3-9.55-.6-14.22" fill="#fff"/>
      <path d="M67.13 121.46c-.62.2-1.25.39-1.87.56a18 18 0 01-3.79.54 9.54 9.54 0 01-2.49-.21 6.51 6.51 0 001.59 4.53c1.65 1.68 4.93.26 6.62-.25 1-.31 1.4-2.77 1.54-5.13a2.17 2.17 0 00-1.6 0" fill="#9b8579"/>
      <path d="M97.14 103.28c-.11-1.72-.1-7.51-2.8-7.5-1.87 0-2.62 1.68-2.92 3.53-2.76 6.19-2.49 13.28-3.36 20-.34 2.61-.56 5.82 1.38 7.79 1.64 1.68 4.93.26 6.61-.25s1.58-7.8 1.68-9.34c.31-4.67-.3-9.56-.59-14.22" fill="#fff"/>
      <path d="M93.38 122.62a12.36 12.36 0 01-5.54-.26 6.62 6.62 0 001.6 4.73c1.64 1.68 4.93.26 6.61-.25 1-.31 1.4-2.75 1.54-5.1a24.08 24.08 0 01-4.21.88" fill="#9b8579"/>
      <path d="M108.74 91.73v0" fill="#f3bdbc"/>
      <path d="M109.75 97.26c0 .07 0 .08 0 0M109.75 97zM109.75 97.26zM109.75 97.16" fill="#414042"/>
      <path d="M56.7 76.12a7.45 7.45 0 01-3.51-2.38L48 83.84a37.16 37.16 0 004 14l.13-.16c2.87-4.12 5.79-15.56 4.57-21.56" fill="#cfd1d2"/>
      <path d="M73.63 87.49c-1.75.18-2.77 3.89-5.88 6.06S68.5 97.29 72 97s11.75-5.56 9.88-7.68-8.25-1.81-8.25-1.81M86.31 79.57q-1.71-.16-3.54-.3c-2.06 1.47 2 2.5 3.54.3" fill="#58595b"/>
      <path d="M35.48 72.21a10.11 10.11 0 00-2.51-3c-1.54-1.26-4.58-2.59-6.24-.84-2.11 2.21-.83 6.33 1.4 7.94 1.83 1.33 4.75 1.56 6.94 1.29s2.33-4.5.41-5.4M60 69.73c-2.18-5.16-14.27 1.43-13.14 5.68.14.51.45 1 1 .86a1.15 1.15 0 00.32-.15c.83 1.87 3.47 1.83 5.2.94 2.91-1.5 8-3.87 6.57-7.33" fill="#fff"/>
      <path d="M32.91 72c-1.13-1.51-2.85-3.42-4.52-1.41-1.45 1.76 0 4.78 2.05 5.26.44.1.67-.18.84-.55a8.93 8.93 0 011.09-2 1.25 1.25 0 00.26-.6l.25-.27a.39.39 0 000-.47M55.57 69.39a3.21 3.21 0 00-3 .7 2 2 0 00-.54.39 1 1 0 00-.07 1.2 18.58 18.58 0 011.43 1.85c.18.29.71 1.38 1.22 1.15s1.11-.33 1.59-.92a3.38 3.38 0 00.67-1.61 2.45 2.45 0 00-1.26-2.76" fill="#f3bdbc"/>
      <path d="M53.77 72.74a12.49 12.49 0 00-8.29-5.62 2.69 2.69 0 00-.56-2.81.83.83 0 00-1.11-.16 4.9 4.9 0 00-1.65 1.61c-.92-1.28-2.15-2.58-3.91-2.59-.61 0-.77.67-.79 1A5.34 5.34 0 0038.91 68a11.81 11.81 0 00-5.62 4.5.65.65 0 00-.47.53l-.09.46a8.85 8.85 0 00-.84 3.33 1.63 1.63 0 00.06.55c-1.06 5.36 2.61 13 4.61 18.26 2.61 6.86 11.35 4 13.47 1 3.4-4.77 6.75-19.34 3.74-24" fill="#fff"/>
      <path d="M45.17 94.35c-2.47-.49-7-.43-7.94 2.56a.63.63 0 000 .25 3.16 3.16 0 00.53 3.28 5.94 5.94 0 004.51 2.09c2.69.25 6.74-.49 7.4-3.64.6-2.89-2.08-4.06-4.48-4.54" fill="#f3bdbc"/>
      <path d="M41.74 101.32a2 2 0 00.26-1.93.63.63 0 00-.56-.47c-.29 0-.44.26-.55.49a2 2 0 00-.13 1 1.72 1.72 0 00.16.63.76.76 0 00.23.33c.17.11.2.13.09 0a.37.37 0 00.51 0M45 101.32a2.05 2.05 0 00.21-1.91.64.64 0 00-.57-.47c-.29 0-.44.26-.54.49a2 2 0 00-.13 1 1.71 1.71 0 00.15.63.86.86 0 00.23.33c.17.11.2.13.1 0a.37.37 0 00.51 0" fill="#e09d9e"/>
      <path d="M39.72 81.24c-1.92-.6-3.78 1.92-3.78 4.17 0 1 .81 1.72 1.23.59A3.3 3.3 0 0139 84.1a1 1 0 011.23.2c.29.26.38.64.67.93s.53.12.7-.2c.77-1.47-.85-3.46-1.92-3.79M44.93 81.24c1.92-.6 3.78 1.92 3.78 4.17 0 1-.81 1.72-1.23.59a3.3 3.3 0 00-1.87-1.9 1 1 0 00-1.23.2c-.29.26-.38.64-.67.93s-.53.12-.7-.2c-.77-1.47.85-3.46 1.92-3.79" fill="#58595b"/>
    </g>
  </g>
</svg>
