<svg xmlns="http://www.w3.org/2000/svg" viewBox="0 0 144.02 175.04">
  <defs>
    <clipPath id="clip-path">
      <path fill="none" d="M4.85 82.84h14.47v28.18H4.85z"/>
    </clipPath>
    <clipPath id="clip-path-2">
      <path fill="none" d="M131.92 100.3h9.01v17.54h-9.01z"/>
    </clipPath>
  </defs>
  <g id="Layer_2" data-name="Layer 2">
    <g id="Layer_1-2" data-name="Layer 1">
      <path fill="#fdc05d" d="M.02 0h144v140.19H.02z"/>
      <path d="M142.78 98.84a61.54 61.54 0 11-61.53-61.53 61.53 61.53 0 0161.53 61.53" fill="#ffd861"/>
      <g clip-path="url(#clip-path)" opacity=".6">
        <path d="M19.32 106.26c0-.83-2.4-5.7-4.76-8.63 2-.06 3.5-.27 3.5-.69 0-.7-2-4.86-4-7.27 1.49 0 2.65-.21 2.65-.53 0-.86-3.8-6.56-4.59-6.29 0 0-5.22 5.72-4.53 6.29a7.72 7.72 0 002.57.44c-1.56 2.23-4.6 6.8-3.93 7.36a10.31 10.31 0 003.41.57c-1.94 2.75-5.48 8.09-4.64 8.75.4.34 2.48.61 5 .75v4h3.8v-3.91c3 0 5.6-.25 5.6-.85" fill="#d18749"/>
      </g>
      <path d="M45.69 96.55c0-1.49-4.31-10.23-8.54-15.5 3.53-.11 6.28-.49 6.28-1.24 0-1.25-3.69-8.71-7.25-13 2.69-.09 4.77-.38 4.77-1C41 64.28 34.13 54 32.7 54.53c0 0-9.35 10.26-8.11 11.29.4.34 2.26.61 4.6.79-2.79 4-8.26 12.2-7 13.2.53.44 3 .81 6.11 1-3.42 4.93-9.76 14.5-8.33 15.7.73.6 4.47 1.09 8.89 1.34v7.21h6.82v-7c5.38 0 10.06-.46 10.06-1.53M131.79 109.37c0-1-3-7.19-6-10.9 2.49-.07 4.42-.34 4.42-.87 0-.88-2.6-6.13-5.1-9.17 1.89-.06 3.35-.27 3.35-.67 0-1.08-4.79-8.29-5.8-7.94 0 0-6.58 7.22-5.71 7.94a9.6 9.6 0 003.24.55c-2 2.82-5.81 8.59-5 9.29a12.94 12.94 0 004.3.73c-2.41 3.47-6.87 10.2-5.86 11 .51.43 3.15.77 6.25.95v5.07h4.8v-4.94c3.79 0 7.08-.32 7.08-1.08" fill="#d18749"/>
      <g clip-path="url(#clip-path-2)" opacity=".4">
        <path d="M140.92 114.87a18.41 18.41 0 00-3-5.37c1.23 0 2.18-.17 2.18-.43a15.35 15.35 0 00-2.51-4.52c.93 0 1.65-.13 1.65-.33 0-.53-2.36-4.08-2.86-3.91 0 0-3.24 3.56-2.81 3.91a4.64 4.64 0 001.59.27c-1 1.39-2.86 4.23-2.44 4.58a6.14 6.14 0 002.12.36c-1.19 1.71-3.39 5-2.89 5.44a9.51 9.51 0 003.08.47v2.5h2.37v-2.44c1.86 0 3.48-.15 3.48-.53" fill="#d18749"/>
      </g>
      <path d="M57.77 53.89c11.25 1.75 55 17.86 57.25 22a70.12 70.12 0 0016.75 35.75c1.2 1.35-66.5-7.25-66.5-7.25" fill="#c54a20"/>
      <path d="M15.27 107.89c14.5-11 39.65-52.3 42.5-54 1.51-.9 27 44 38.25 51.5" fill="#f15a29"/>
      <path d="M52.19 71.48s-12.5 31.66-11.33 32.33S64.52 103 65.69 102c.57-.5-2.51-6.7-5.6-14.07-3.18-7.55-6.38-16.26-7.9-16.43" fill="#c54a20"/>
      <path d="M52.09 71.74c.1-.26-8.56 23-17 22.49-1.8-.11 4 9.42 5.75 9.58M53 72c-.1-.26 10.6 20.56 19 20.06 1.8-.1-5 11.57-6.77 11.73" fill="#f26c49"/>
      <path d="M0 109.14s74-23.75 144 5.5v60.4H0z" fill="#8dc63f"/>
      <path d="M60.62 143.67s-14.93 5.47-14 7 1.83 4 2.83 3.25 12.83-9.7 12.83-10.22-.35-.49-1.65 0" fill="#8b5e3c"/>
      <path d="M59.68 144.91s8.15 13.66 9.46 12.48 3.59-2.54 2.67-3.39-11.92-10.81-12.43-10.71-.41.44.3 1.62M61.14 143.86s13.77 7.95 14.34 6.28 1.89-4 .68-4.25-15.68-3.63-16.08-3.29-.15.58 1.06 1.26" fill="#8b5e3c"/>
      <path d="M58.43 142.56s-15.43-3.64-15.55-1.89-.67 4.35.58 4.28 16.06-1 16.34-1.48 0-.6-1.37-.91" fill="#8b5e3c"/>
      <path d="M58.17 145c-2.17-1.5-9.5-6.17-9.34-10.33s10-14.34 9.34-19.5.28-2.28 3 .86 12 16 9.36 22a12.32 12.32 0 01-8.5 7" fill="#f15a29"/>
      <path d="M59.76 145.45c-1-.72-4.56-3-4.48-5s4.8-6.87 4.48-9.35.13-1.09 1.43.41 5.76 7.67 4.48 10.54a5.88 5.88 0 01-4.07 3.36" fill="#fbb040"/>
    </g>
  </g>
</svg>
