<svg xmlns="http://www.w3.org/2000/svg" viewBox="0 0 144 163.18">
  <g id="Layer_2" data-name="Layer 2">
    <g id="Layer_1-2" data-name="Layer 1">
      <path fill="#8ad5e7" d="M0 0h144v121.32H0z"/>
      <path d="M141.71 96.49V61.84h-3.06V56h-11.21v6.88h-8.66v35.65h-4.08V67.7h-25v46.37h-3.28V56H64.77v28.26h-3.06v-9.17H39v29.56h-3.53V39.42h-2.55v-7.13H20.69v7.64H7.7V96H4.13V56.24H0v65l144-.05v-24.7z" fill="#6aa4b3"/>
      <path fill="#a7a9ac" d="M0 110.06h144v53.12H0z"/>
      <path d="M109 102.19h-6.64A19.33 19.33 0 0083 82.85H57.66a19.34 19.34 0 00-19.34 19.34H35a19.33 19.33 0 00-19.33 19.33h112.66A19.32 19.32 0 00109 102.19" fill="#594a42"/>
      <path d="M48.52 121.52a9.63 9.63 0 11-9.63-9.63 9.63 9.63 0 019.63 9.63" fill="#414042"/>
      <path d="M42.82 121.52a3.93 3.93 0 11-3.93-3.93 3.93 3.93 0 013.93 3.93" fill="#fffef2"/>
      <path d="M112.79 121.52a9.63 9.63 0 11-9.63-9.63 9.63 9.63 0 019.63 9.63" fill="#414042"/>
      <path d="M107.09 121.52a3.93 3.93 0 11-3.93-3.93 3.93 3.93 0 013.93 3.93" fill="#fffef2"/>
      <path d="M21.44 121.52a2.3 2.3 0 01-2.3 2.3H12.8a2.3 2.3 0 010-4.6h6.34a2.3 2.3 0 012.3 2.3M133.8 121.52a2.3 2.3 0 01-2.3 2.3h-6.34a2.3 2.3 0 110-4.6h6.34a2.3 2.3 0 012.3 2.3" fill="#414042"/>
      <path d="M76 102.19h24.45a17.41 17.41 0 00-9.26-15.38H76zM49.89 86.81h-.38a17.43 17.43 0 00-9.26 15.38h9.64zM51.4 86.81h23.07v15.37H51.4z" fill="#27aae1"/>
      <path d="M101.4 102.19h1a19.29 19.29 0 00-7.62-15.38h-1.72a18.38 18.38 0 018.34 15.38" fill="#27aae1"/>
      <path d="M93.06 86.81h-1.89a17.41 17.41 0 019.26 15.38h1a18.36 18.36 0 00-8.34-15.38" fill="#27aae1"/>
      <path d="M127.86 105.59a1.41 1.41 0 00-1.35 1 3.18 3.18 0 000 6.33 1.41 1.41 0 001.35 1 1.43 1.43 0 001.42-1.42V107a1.42 1.42 0 00-1.42-1.41M15.86 105.59a1.42 1.42 0 011.35 1 3.18 3.18 0 010 6.33 1.42 1.42 0 01-2.77-.42V107a1.42 1.42 0 011.42-1.41" fill="#414042"/>
      <path d="M94.74 86.81a4.48 4.48 0 004.33-4h-18.5" fill="#594a42"/>
    </g>
  </g>
</svg>
