<svg xmlns="http://www.w3.org/2000/svg" viewBox="0 0 144 175">
  <g id="Layer_2" data-name="Layer 2">
    <g id="Layer_1-2" data-name="Layer 1">
      <path fill="#726658" d="M0 0h144v175H0z"/>
      <path d="M62.35 51.17a5.26 5.26 0 11-5.26-5.25 5.26 5.26 0 015.26 5.25M97.67 51.17a5.25 5.25 0 11-5.25-5.25 5.25 5.25 0 015.25 5.25" fill="#fff8d5"/>
      <path d="M67.17 77.47S63.81 72.9 65 72.8s9.31 1.25 10.12 1 9.54-2.52 9.93-1.46-4.16 4.33-4.16 4.33" fill="#fbb040"/>
      <path d="M104.41 157.34s-.49-81.14-30-80.21-30.11 80.21-30.11 80.21z" fill="#fbb040"/>
      <path d="M56.56 30s-1.13 36.69 1.51 39S88.31 72.78 91 66.18 92.08 32.79 91 30s-34.31-3.79-34.39 0" fill="#fff8d5"/>
      <path d="M46.25 130.37s8.89-3 12.52-13.76c0 0 29.82-1.07 30.83 0s4.27 15 13.22 16.19c0 0 2.29 15.5 1.59 16.41S44.3 147.3 44.3 147.3z" fill="#1c75bc"/>
      <path d="M64.92 119.89a1.72 1.72 0 11-1.72-1.71 1.72 1.72 0 011.72 1.71M86.37 119.89a1.71 1.71 0 11-1.71-1.71 1.71 1.71 0 011.71 1.71" fill="#d2eef9"/>
      <path d="M45.56 136.32s37.55 4.26 57.62-1c0 0 1.41 3.79.72 5.52 0 0-14.13 6.8-58.94.73 0 0 .29-2.52.6-5.25" fill="#a99e88"/>
      <path d="M48.9 133.8s-1.44 9.78-.53 10.29 15 1.27 15.29.74 1.18-9.3.65-10.2-14.51-1.36-15.41-.83" fill="#c2b59b"/>
      <path d="M48.9 133.8s5.44 4.76 6.87 4.76 8.84-3.25 8.54-3.93-12.16-1.52-15.41-.83" fill="#a99e88"/>
      <path d="M97.72 134s1.79 9.73.9 10.27-15 1.81-15.26 1.29-1.51-9.24-1-10.16 14.45-1.89 15.38-1.4" fill="#c2b59b"/>
      <path d="M97.72 134s-5.27 5-6.7 5-9-2.92-8.68-3.61 12.11-2 15.38-1.4" fill="#a99e88"/>
      <path d="M77 82.87c24.69 3.13 68.46 24.18 28.72 46.13" fill="none" stroke="#fff8d5" stroke-miterlimit="10" stroke-width="10.47"/>
      <path d="M144 146.85c-7.66-.69-123-.18-133.2 2.64v13.33l133.2-1.2z" fill="#c49a6c"/>
      <path fill="#c49a6c" d="M0 149.49h144v25.47H0z"/>
      <path d="M69.07 84c-23.31 10.74-43.75 37.71-32.72 65.21" fill="none" stroke="#fff8d5" stroke-miterlimit="10" stroke-width="10.47"/>
      <path d="M40.74 94.81s8.75 7.85 11 8.46S77 90.88 77 90.88s15.76 5 17.78 5.31 7.76-11.36 7.31-12.19S89 75.77 74.22 75.92 40.74 94.81 40.74 94.81" fill="#fbb040"/>
      <path d="M59.63 118.38s1.22-38.51 1.52-38.66 4.35-3.43 5.85-2.48 0 40.69 0 40.69M81.84 118.38s-1.18-41.88-.88-42 4.35.13 5.87 1.08 2.41 40.5 2.41 40.5" fill="#1c75bc"/>
      <path d="M62.5 127.45s-2 6.85 10.78 7.25 12.39-7.65 12.39-7.65z" fill="#1967a6"/>
      <path d="M90.55 132.21s-47 30.57-47.38 32.41 5.26 6.07 6.27 6-.1-3 .61-3.22 4 .6 4.63-.1.3-2.92.61-3.33 4 1 4.29.68-.26-4.1.44-4.21 5 2.82 5.24 2 .76-5.94 1.59-5.94 2.94 2.41 3.55 2.31 1.21-5.89 1.21-5.89 3 3.07 3.82 3.17.06-4.88.58-5.24c.71-.47 5.85 3.33 6.45 3s.3-6.88.76-6.85 5.51 3.44 5.81 2.69.53-6.24 1.06-6.36 4.84 2.93 5.29 2.91.68-5.42.68-5.42" fill="#d0d6da"/>
      <path d="M105.68 120.68c-1.74-.15-16.2 11-15.66 11.86 0 0 5.65 8.66 6.4 8.73s11.18 1.34 12.09.93 7.52-5.54 7.67-6.5-8.76-14.87-10.5-15m.94 17.88c-1.11.22-8.36-6.58-8.9-8.11s4.39-4.61 4.39-4.61c.77-.51 9.15 9.57 9.15 10.21s-3.53 2.28-4.64 2.51" fill="#f15a29"/>
      <path d="M107.83 121.61s-5.49 2.21-5.72 4.23 4 8.44 7.48 8.88 6.2-3.39 6.25-6.06" fill="#fff8d5"/>
      <path d="M107.63 122.11s-4-2.25-6.44-1.13.45 4.3 3.67 4M71.55 71v5.35c0 .27 2 2.77 2.64 2.55a8.55 8.55 0 002.64-2.5c.23-.54.59-5.77.59-5.77M30.76 146.58s-2.21 3.23-.7 6.26 15.28 4.62 13.85-2.2c-.3-1.43-2.86-3.09-2.86-3.09l3.25-.1s-1-3.38-5.08-2.44" fill="#fff8d5"/>
      <path d="M61.74 40s-3.36 13.68-5.42 13-1.91-13.9.59-15.72M87 40s3.36 13.68 5.42 13 1.9-13.9-.59-15.72" fill="#9b8579"/>
      <path d="M56.32 36.08S49.4 40 55.24 43.43s46.35 2.62 36.58-7.35c0 0 7.53-18.24-18.71-19.25S56.32 36.08 56.32 36.08" fill="#fbb040"/>
      <path d="M55.24 43.43c5.85 3.42 46.35 2.62 36.58-7.35l-14.4-.51L75.84 17c-.87-.08-1.77-.15-2.73-.19h-1.56c0 .23-2.1 15.31-2.1 18.76l-13.13.51S49.4 40 55.24 43.43" fill="#eaa43c"/>
      <path d="M82.84 53.34c0 2.65-1.52 4.8-3.38 4.8s-3.39-2.15-3.39-4.8 1.52-4.8 3.39-4.8 3.38 2.15 3.38 4.8" fill="#fff"/>
      <path d="M78.7 53.65c-.66 0-1.22.6-1.46 1.45a1 1 0 010 2c.26.79.79 1.33 1.42 1.33.87 0 1.58-1.07 1.58-2.39s-.71-2.39-1.58-2.39" fill="#58595b"/>
      <path d="M72.41 53.34c0 2.65-1.51 4.8-3.38 4.8s-3.38-2.15-3.38-4.8 1.51-4.8 3.38-4.8 3.38 2.15 3.38 4.8" fill="#fff"/>
      <path d="M69 53.65c-.66 0-1.22.6-1.46 1.45a1 1 0 010 2c.26.79.79 1.33 1.42 1.33.87 0 1.58-1.07 1.58-2.39s-.71-2.39-1.58-2.39" fill="#58595b"/>
      <path d="M73.77 61.1s-6-.29-6.26.46 0 9.15 1 9.41 11.15.43 11.49-.37.32-9.16-.54-9.55-5.69.05-5.69.05" fill="#9b8579"/>
      <path d="M71.2 63.34s-1.35 5.32 2.68 5.66 3.36-6 3.36-6z" fill="#a85f40"/>
      <path d="M73.88 69a2.55 2.55 0 002.41-1 3.49 3.49 0 00-2.94-1.65 3.45 3.45 0 00-2.1.73 2.83 2.83 0 002.63 2" fill="#f68b5f"/>
      <path d="M74.43 52.46c-1.12.24-2.22 8.07-1.57 8.46s3.7.19 3.85-.39-1.6-8.21-2.28-8.07" fill="#fdddc1"/>
      <path d="M71.87 46.06c.12.42-.94 1.11-2.38 1.53s-2.71.42-2.83 0 .93-1.12 2.37-1.54 2.71-.42 2.84 0M81.38 47.14c-.12.43-1.39.46-2.83.06s-2.55-1.06-2.41-1.49 1.39-.46 2.83-.06 2.53 1.06 2.41 1.49" fill="#9b8579"/>
    </g>
  </g>
</svg>
