<svg xmlns="http://www.w3.org/2000/svg" viewBox="0 0 144 175">
  <g id="Layer_2" data-name="Layer 2">
    <g id="Layer_1-2" data-name="Layer 1">
      <path fill="#b1d681" d="M0 0h144v175H0z"/>
      <path d="M86.89 23.12C70.87 11.68 49.37 15 45.28 34.94s3.47 67.49 6 69 43.13 2.11 44.65.47 21.74-86.53-9-81.25" fill="#c49a6c"/>
      <path d="M73.8 93c-14.73 0-50.8 38.14-20.51 62.45M76 93c14.72 0 46.1 36.77 1.39 62.42" fill="none" stroke="#8dc63f" stroke-miterlimit="10" stroke-width="7.01"/>
      <path d="M98.72 175c1.21-30.38-.15-83.76-24.7-83-27.24.86-26.35 59.07-24.83 83z" fill="#8dc63f"/>
      <path d="M53.73 39.61s-5.39 46 21.64 46.51c23.25.42 19-46.51 19-46.51" fill="#fff8d5"/>
      <path d="M74.79 98.7s-4.27 9.18-5.49 8-2.46-14.55-1.41-16a5.71 5.71 0 013.25-1.76s8.59-.79 9.73.88-.26 17.45-1 17.62-5.11-8.74-5.11-8.74" fill="#fff"/>
      <path d="M71.18 84.82s-.67 7-.37 7.54l.31.52s3.28 5.88 3.67 5.82 3.4-6 3.43-6.36-.56-7.52-.56-7.52M73 112.61a1.49 1.49 0 101.49-1.49 1.48 1.48 0 00-1.49 1.49M73 121.12a1.49 1.49 0 101.49-1.49 1.49 1.49 0 00-1.49 1.49" fill="#fff8d5"/>
      <path d="M98.74 175a172.8 172.8 0 00-.8-39.47c-8.61.45-10.23-41-10.76-41.9s-2.8-1.83-2.8-1.83 1.4 23.83 0 25.06-18.24.88-19.82-.17-.21-24-.21-24c-.77-.13-4.46 2.44-4.46 2.44-.24 38.51-10.38 39.72-10.38 39.72-2.46 15.46-.61 37.09-.33 40.1z" fill="#f15a29"/>
      <path d="M100.33 121.12c1.06 11.07-4.37 23.66-23 34.33" fill="none" stroke="#8dc63f" stroke-miterlimit="10" stroke-width="7.01"/>
      <path d="M88.07 175c-.62-5.24-3.09-25.53-4.62-29-1.75-4-53.3-2.63-56.63-1.76-2.93.77-4.23 25-4.5 30.79z" fill="#78909c"/>
      <path d="M99.1 175c-1.08-3.33-4-12.29-4.73-13.43-.88-1.4-9.82-1.58-11.05-1.83L81.46 175zM29.45 124.32s-.84 12.18.33 12.38 39.19.58 39.73-1.07 1-11.37-.32-11.81-39.06-.34-39.74.5" fill="#78909c"/>
      <path fill="#78909c" d="M34.84 134.88h1.93v10.87h-1.93zM61.67 134.88h1.93v10.87h-1.93z"/>
      <path d="M78.84 144.33a4.13 4.13 0 00-4-2.32c-4.46 0-7 1.93-7 8.83 0 9-3.16 10.78-3.16 10.78s7.2 1.84 9.83.7S78 151.93 76 144z" fill="#fff"/>
      <path d="M31.25 126.05s-.35 9.18 0 9.3 36.47.06 36.59-.47.4-9.47 0-9.82-36 .35-36.59 1" fill="#6a808a"/>
      <path d="M53.89 59.13c3.16-1.62 4.24-10.63 4.24-10.63S56 59 60.47 57.85s11.69-13.21 11.69-13.21S82.8 58.9 86.77 58.08 88.52 51 88.52 51s3.56 6.65 5.75 6.66 6.18-21.38 1.85-25.47-22.79-10.69-31.56-8.7-15.43 11.89-15.08 17.63 1.46 19.52 4.41 18" fill="#c49a6c"/>
      <path d="M71.79 64.51c0 3.37-1.92 6.1-4.3 6.1s-4.29-2.73-4.29-6.1 1.92-6.09 4.29-6.09 4.3 2.73 4.3 6.09" fill="#fff"/>
      <path d="M67.43 66c-.63 0-1.17.58-1.4 1.4a1 1 0 010 1.93c.25.76.76 1.28 1.36 1.28.85 0 1.53-1 1.53-2.3S68.28 66 67.43 66" fill="#58595b"/>
      <path d="M83.07 64.51c0 3.37-1.93 6.1-4.3 6.1s-4.29-2.73-4.29-6.1 1.92-6.09 4.29-6.09 4.3 2.73 4.3 6.09" fill="#fff"/>
      <path d="M78.16 66c-.64 0-1.18.58-1.41 1.4a1 1 0 010 1.93c.25.76.76 1.28 1.37 1.28.84 0 1.53-1 1.53-2.3S79 66 78.16 66" fill="#58595b"/>
      <path d="M70 75.25s-1.54 8.74 4 7.89c5-.76 3.26-7.89 3.26-7.89" fill="#d17751"/>
      <path d="M74.07 83.14A3.7 3.7 0 0077 81a5.14 5.14 0 00-3.3-1.23 5.09 5.09 0 00-3.37 1.29 3.11 3.11 0 003.71 2.07" fill="#f68b5f"/>
      <path d="M71.71 72.15c-.3.28.36 1.47 1.41 1.53s2-1.23 1.7-1.53-2.6-.46-3.11 0" fill="#fdddc1"/>
      <path d="M69.49 54.53c.26.55-1 1.72-2.88 2.61s-3.57 1.19-3.83.64 1-1.71 2.87-2.61 3.57-1.18 3.84-.64M82.13 56.71c-.16.58-1.9.62-3.88.08s-3.47-1.45-3.31-2 1.9-.62 3.88-.08 3.47 1.44 3.31 2" fill="#c49a6c"/>
      <path d="M49.74 44.68s18.45-17.73 46.73 0c0 0-9.21-30.19-22.78-30s-24.61 23.88-23.95 30" fill="#f15a29"/>
      <text transform="rotate(.22 -34480.69 8678.817)" font-size="6.76" fill="#fff" font-weight="700" font-family="sans-serif">
        $
      </text>
    </g>
  </g>
</svg>
