<svg xmlns="http://www.w3.org/2000/svg" viewBox="0 0 144 174.97">
  <g id="Layer_2" data-name="Layer 2">
    <g id="Layer_1-2" data-name="Layer 1">
      <path fill="#addedc" d="M0 0h144v174.97H0z"/>
      <path d="M144 175v-64.41C69.52 78.64 16.25 113.28 0 126.28V175z" fill="#afd24d"/>
      <path d="M104.23 122.51c0 3.72-11.62 6.73-26 6.73s-26-3-26-6.73 11.63-6.73 26-6.73 26 3 26 6.73" fill="#7ba541"/>
      <path d="M95 104.34c-.3-2-.06-4.72-.93-6.73v-.12c-.48-1.82-2.31-2.66-3.16-.54-.05.14-.09.29-.14.44a10.58 10.58 0 00-1.17 4.74c-2 6.11-1.77 14.72.76 19.73.34.69 1.13 1.75 2.06 1.21 3.15-1.84 2.7-7.86 2.79-10.94a46 46 0 00-.19-7.79M62.07 102.75c-.3-2-.06-4.72-.93-6.73v-.11c-.49-1.83-2.31-2.66-3.16-.55-.05.14-.09.3-.14.44a10.61 10.61 0 00-1.17 4.74c-2 6.11-1.78 14.72.75 19.74.35.68 1.14 1.74 2.07 1.21 3.15-1.84 2.7-7.87 2.78-10.95a45 45 0 00-.18-7.79" fill="#6d6e71"/>
      <path d="M89.36 119.44a15.64 15.64 0 001 2.42c.34.68 1.13 1.75 2.06 1.21a5.13 5.13 0 002.15-3.13c-1.72-.19-3.45-.36-5.17-.5M56.64 118.44a17.22 17.22 0 00.76 1.84c.35.68 1.14 1.74 2.07 1.21a5.29 5.29 0 002.2-3.31 26.39 26.39 0 00-5 .26" fill="#58595b"/>
      <path d="M105.68 89.22c-3.13-7.56-13.83-5.28-19.93-4.72-9.83.9-16.64-6.83-25.26-1.53a9.13 9.13 0 00-8.18 6.74c-2.14 7.6-.61 15 5.37 20.36 10.51 9.5 34.85 7.32 43.52-3.67 3.53-4.48 6.86-11.4 4.48-17.18" fill="#939598"/>
      <path d="M68.05 94.94c3.16-3.52 5.42-8.25 5.18-12.69C69 81 65 80.2 60.49 83a9.13 9.13 0 00-8.18 6.74 21.53 21.53 0 00-.46 10.53 17.62 17.62 0 0016.2-5.3" fill="#7b7c7f"/>
      <path d="M71.35 73.32a2.52 2.52 0 00.53-1.71 24.13 24.13 0 00-.88-6.55c-.46-1.55-1.13-4-3.12-4.35-.88-.18-1.34.31-1.67 1a27.82 27.82 0 00-1.86 5.45 9.19 9.19 0 01-.34 1A32.72 32.72 0 0052.84 67a9.5 9.5 0 00-6.39 3.3 17.74 17.74 0 00-7.29-5.62c-1.36-.41-1.76 1.45-1.56 2.29.55 2.21.23 4.67.5 6.93A27.47 27.47 0 0039 78c-1.22 4.35.57 9 3.2 12.64 6.06 8.43 19.08 8 25.69.64 4.46-5 7.16-12.37 3.5-17.92" fill="#a6a8ab"/>
      <path d="M43.89 72A3.88 3.88 0 0042 69.21c-1.1-.61-1.52 1.06-1.45 1.86a7.65 7.65 0 00.82 2.93.76.76 0 000 .16c0 .37.26 1.07.61.56a.41.41 0 00.51-.13c.37-.45.78-.86 1.13-1.33a1.36 1.36 0 00.27-.84 1.2 1.2 0 000-.38M69.46 68.75c0-.91-.37-2-1.33-2.08-.44 0-.81.57-1 .92a7.39 7.39 0 00-.38 1.47.86.86 0 00.22.71.65.65 0 000 .14c.08.48.51.74.88 1s.88.5 1.22.28c.63-.4.39-1.76.35-2.41" fill="#e09d9e"/>
      <path d="M55.49 84.44c-3.87.19-10.69 1.88-13.5 5.93l.16.23c6.07 8.43 19.09 8 25.7.64a21 21 0 001.91-2.46 23.42 23.42 0 00-14.27-4.34" fill="#f1f2f2"/>
      <path d="M56.51 87.38c-.13 0-.11.24-.07.32.37.66-.74.9-1.11.78a1.92 1.92 0 01-1.12-1.13 5.78 5.78 0 000-1.11c-.05-.43-.55-.62-.68-.13a3.24 3.24 0 000 1.35 1.78 1.78 0 01-.36.76c-.57.67-1.31.11-1.17-.7 0-.32-.32-.77-.46-.3-.28 1 0 2.55 1.21 2.46a1.47 1.47 0 001.23-1 2.21 2.21 0 001.8 1.09c1 0 2.07-2.3.78-2.35" fill="#58595b"/>
      <path d="M100.9 107.22c-.3-2-.06-4.71-.93-6.73v-.11c-.49-1.82-2.31-2.66-3.16-.55-.06.14-.09.3-.14.45a10.54 10.54 0 00-1.19 4.72c-2 6.11-1.78 14.73.75 19.74.35.68 1.14 1.75 2.07 1.21 3.15-1.84 2.7-7.87 2.78-10.94a46.16 46.16 0 00-.18-7.8" fill="#939598"/>
      <path d="M49.53 71.79c.23.13.33-.27.33-.4a8.87 8.87 0 00-.11-3.39l-.07-.21a10.2 10.2 0 00-2.12 1.39 5.33 5.33 0 00.31.83 3.73 3.73 0 001.66 1.76M52.89 69.67a4.06 4.06 0 001.32 2.79.69.69 0 00.92 0l.09-.09.06-.08a1.31 1.31 0 00.12-.27V72a2 2 0 00.13-.31 13.6 13.6 0 00.47-1.75 10.79 10.79 0 00.09-3H52.7a20.09 20.09 0 00.15 2.7M58.46 70.24c.12.3.52.62.81.3a6.65 6.65 0 001.67-2.11 9.17 9.17 0 00.32-.92c-1-.19-2-.34-3-.44a5.69 5.69 0 00.24 3.17M77.1 90.24c0 .28.32.69.54.32 1.13-1.88 2.14-4.13 1.62-6.38a1.6 1.6 0 00-.05-.21c-1-.22-1.93-.49-2.87-.77l.17.34c1 2 .7 4.52.59 6.7M83.73 88.73c0 .23.17.73.52.57 1.69-.78 2.52-2.93 2.39-4.89l-.89.09a20 20 0 01-2.18.06 30.61 30.61 0 00.16 4.17" fill="#f1f2f2"/>
      <path d="M116.54 96.08c-2.29-6.1-8.45-5.44-13.81-5.75-.39 0-.37.62-.29.84 1.24 3.47 3.57 3 6.81 3.15 2.15.1 6.16 2.12 5.38 5-.57 2.07-3.13 2.88-4.94 3.46s-1.58 5.31.59 5.17c5.43-.35 8-7.14 6.26-11.84" fill="#939598"/>
      <path d="M55.33 83.76a1.62 1.62 0 00-.81-.2c-.62 0-1.67-.28-2.11.26-.21.07-.27.41-.23.59a1.07 1.07 0 00.07.53.59.59 0 00.25.3 2.1 2.1 0 001.5 1.23c.77.14 1.65-.88 1.73-1.58a1.2 1.2 0 00-.4-1.13M74.7 87.37c-1.27-2.23-5-4.19-7.4-2.65-.11.07-.15.46 0 .43 2.41-.36 5.36 1.12 7.18 2.57.2.16.23-.24.17-.35M71.13 93c-1-2.33-2.37-4.39-4.93-5.17-.23-.12-.31.43-.13.54a13.22 13.22 0 012.93 2.3c.69.83 1.26 1.74 2 2.54.13.14.2-.18.16-.26M75.92 80.67c-2.81-1.29-5-.42-7.66.73-.19.09-.18.59.07.58a12 12 0 002.67-.86 10.28 10.28 0 014.88-.12c.15 0 .16-.24 0-.29M41.41 85.22a.08.08 0 00-.07 0c.62-.24-1.63-1.08-1.75-1.12-1.52-.49-3.38 0-4.86.45-.12 0-.1.34 0 .33a22.18 22.18 0 013.36 0 18 18 0 013.2.89c.25.06.27-.41.08-.5M42.54 87.82C42 87 40.79 87.3 40 87.51a14.7 14.7 0 00-6.45 3.58c-.07.06 0 .32.07.25a25.16 25.16 0 014.84-2.42c1-.36 3-1.14 4-.76.18.06.18-.26.12-.34M43.53 90.05c-1.74 0-3.69 2.54-4.74 3.75a9.34 9.34 0 00-2.36 5c0 .11.1.18.13 0 .79-3.48 4.13-6.35 7-8.19.17-.11.2-.57-.06-.57M51.44 81.07C51.14 80.1 50 79 49 79.9a2.24 2.24 0 00-.62 1.29c0 .37-.07 1 .37 1.22.14 0 .24 0 .3-.17h.05a.67.67 0 01.14-.15c.34-.32 0 0 .16-.18l.06-.06c.18-.06 0 0 .16 0-.12 0 .17.1 0 0a1 1 0 01.15.14l.27.3a.82.82 0 001.28-.1c.28-.34.16-.66 0-1M58.56 81.07c-.29-1-1.45-2.11-2.41-1.17a2.24 2.24 0 00-.62 1.29c-.05.37-.06 1 .37 1.22.14 0 .25 0 .31-.17a1.06 1.06 0 01.15-.15c.34-.32 0 0 .15-.18l.07-.06c.17-.06 0 0 .15 0-.12 0 .17.1 0 0a1.07 1.07 0 01.16.14s.31.34.26.3a.83.83 0 001.29-.1c.27-.34.15-.66 0-1M95.9 124l.33.72c.35.68 1.14 1.75 2.07 1.21A4.42 4.42 0 00100 124z" fill="#58595b"/>
      <path d="M82.56 109a31.92 31.92 0 00-10.71.9 21.27 21.27 0 00-5.56 2.35c-.29.19-1.47 1.16-2.3 1.62 8.81 3.49 21 2.74 29.66-1.59A25.82 25.82 0 0082.56 109" fill="#e6e7e8"/>
      <path d="M66.11 107.22c-.29-2 0-4.71-.92-6.73v-.11c-.48-1.82-2.31-2.66-3.15-.55-.06.14-.09.3-.15.45A10.53 10.53 0 0060.7 105c-2 6.11-1.78 14.73.75 19.74.34.68 1.14 1.75 2.06 1.21 3.16-1.84 2.71-7.87 2.79-10.94a45.14 45.14 0 00-.19-7.8" fill="#939598"/>
      <path d="M61 123.71c.15.36.3.71.47 1 .34.68 1.14 1.75 2.06 1.21a4.56 4.56 0 001.83-2.23 19.86 19.86 0 01-4.36 0" fill="#58595b"/>
    </g>
  </g>
</svg>
