<svg xmlns="http://www.w3.org/2000/svg" viewBox="0 0 144 175">
  <g id="Layer_2" data-name="Layer 2">
    <g id="Layer_1-2" data-name="Layer 1">
      <path fill="#f9a049" d="M0 0h144v175H0z"/>
      <path d="M85.57 175s-.46-77-28.51-76.13S28.52 175 28.52 175z" fill="#fff"/>
      <path d="M62.14 105.08c23.43 3 28.86 56.36 46.84 2.22M52.78 105.08c-22.14 10.19-19.31 36.35-36.52-3.61" fill="none" stroke="#fff" stroke-miterlimit="10" stroke-width="9.92"/>
      <path d="M40.16 54.05s-1.07 34.82 1.44 37.06 28.69 3.58 31.2-2.68 1.08-31.69 0-34.38-32.56-3.59-32.64 0" fill="#fff8d5"/>
      <path d="M51.27 100.48A7.71 7.71 0 0151 97.9c.37-1 10.13-2.39 11.88.46l-.53 1.86" fill="#fff"/>
      <path d="M54.39 93v5.07c0 .26 1.9 2.64 2.5 2.43a8.18 8.18 0 002.51-2.4c.21-.51.56-5.47.56-5.47M47.67 70.71A6.67 6.67 0 1141 64a6.67 6.67 0 016.67 6.67M79.09 70.71A6.67 6.67 0 1172.42 64a6.67 6.67 0 016.67 6.67" fill="#fff8d5"/>
      <path d="M54.7 71.17c0 2.76-1.57 5-3.51 5s-3.51-2.23-3.51-5 1.57-5 3.51-5 3.51 2.23 3.51 5M65 71.17c0 2.76-1.57 5-3.52 5s-3.48-2.24-3.48-5 1.57-5 3.51-5 3.52 2.23 3.52 5" fill="#fff"/>
      <path d="M61.27 70c-.68 0-1.26.62-1.52 1.51a1 1 0 010 2.08c.27.81.82 1.38 1.47 1.38.91 0 1.65-1.11 1.65-2.48S62.18 70 61.27 70M51.12 70c-.68 0-1.26.62-1.51 1.51a1 1 0 010 2.08c.27.81.82 1.38 1.47 1.38.91 0 1.65-1.11 1.65-2.48S52 70 51.12 70" fill="#58595b"/>
      <path d="M54 63.25c.06.46-1.23 1-2.87 1.21s-3 0-3.08-.45 1.22-1 2.87-1.21 3 0 3.08.45M64.63 64c0 .46-1.39.75-3 .64s-3-.57-2.94-1 1.39-.75 3-.64 3 .57 2.94 1" fill="#a97c50"/>
      <path d="M56.14 71.82c-1.23.24-2.44 8-1.73 8.38s4.07.19 4.24-.38-1.77-8.15-2.51-8" fill="#fdddc1"/>
      <path d="M104.1 106.34s-2-3.66-1.1-4.37 6.41 4.87 7.56 4.37 9.39-5.67 10.82-5.16-4.55 8.21-8 8.28-9.29-3.12-9.29-3.12" fill="#fff8d5"/>
      <path d="M53.13 82.38s-1.63 7.56 3.54 7.84 3.51-8.07 3.51-8.07z" fill="#d17751"/>
      <path d="M56.67 90.22a3 3 0 003.26-2.14 6.94 6.94 0 00-6.47 0 3.47 3.47 0 003.21 2.18" fill="#f68b5f"/>
      <path d="M51.6 111.67a1.87 1.87 0 11-1.87-1.87 1.87 1.87 0 011.87 1.87M65.87 111.67A1.87 1.87 0 1164 109.8a1.86 1.86 0 011.86 1.87M51.6 131a1.87 1.87 0 11-1.87-1.87A1.87 1.87 0 0151.6 131M65.87 131a1.87 1.87 0 11-1.87-1.84 1.86 1.86 0 011.87 1.84M51.6 150.54a1.87 1.87 0 11-1.87-1.87 1.87 1.87 0 011.87 1.87M65.87 150.54a1.87 1.87 0 11-1.87-1.87 1.86 1.86 0 011.86 1.87M140.78 99.36c0 2-12.8 3.66-28.59 3.66s-28.59-1.64-28.59-3.66 12.8-3.66 28.59-3.66 28.59 1.64 28.59 3.66" fill="#78909c"/>
      <path d="M89.17 99.36s28 1.39 46 0c0 0 3.56-26.16-23.67-26.35-24.5-.16-22.33 26.35-22.33 26.35" fill="#889ba6"/>
      <path d="M108.24 73.17s2 1.44 6.46 0c0 0-3.16-4.87-6.46 0" fill="#889ba6"/>
      <path d="M20.78 100.21s1.63-4.87 0-6.21-3.25 2.2-3.25 2.2-16.06-1.44-14.15 1.43 7.83 6.31 9 6.31a12 12 0 008.42-3.73" fill="#fff8d5"/>
      <path d="M40.05 58.64s22.17 2.22 33.32-1.32c0 0 1.3-12.59.4-13.31s-34.14-1.29-34.57-.43.87 13.92.85 15.06" fill="#fff"/>
      <path d="M41.31 45.31s-13.51-6.24-8.61-16 12.59-1.59 12.59-1.59 2.09-4.16 6.18-4.52 8 3.91 8 3.91A5.63 5.63 0 0165.23 24c4.28.37 6 4.41 6 4.41s2.2-5.63 7.46-2.82 2.21 16.76-7.83 19.57" fill="#fff"/>
      <path d="M56.66 80.37s-2.62-1.22-4.77-.43-4.66 2.8-5.59 1-2.52 3.8 10.39 3.23" fill="#f47633"/>
      <path d="M56.05 80.37s2.61-1.22 4.77-.43 4.66 2.8 5.59 1 2.51 3.8-10.4 3.23" fill="#f47633"/>
    </g>
  </g>
</svg>
