<svg xmlns="http://www.w3.org/2000/svg" viewBox="0 0 144 174.97">
  <g id="Layer_2" data-name="Layer 2">
    <g id="Layer_1-2" data-name="Layer 1">
      <path fill="#addedc" d="M0 0h144v174.97H0z"/>
      <path d="M144 175v-64.41C69.52 78.64 16.25 113.28 0 126.28V175z" fill="#afd24d"/>
      <path d="M87.56 126.4c0 2.12-6.61 3.84-14.77 3.84S58 128.52 58 126.4s6.61-3.83 14.77-3.83 14.77 1.72 14.77 3.83" fill="#7ba541"/>
      <path d="M77.53 126.57a.87.87 0 00-.08-.14v-.06a4.81 4.81 0 01-.45-.75h-.05v.2a3.49 3.49 0 00-4-.28c-.15.11-.1.4 0 .51a6.85 6.85 0 002.05 1.1 5.66 5.66 0 002.27.52c.46-.07.39-.73.24-1.1" fill="#9b8579"/>
      <path d="M77.31 126.5a4.93 4.93 0 00-5.77 1.5c-.1.14 0 .44.18.42 1-.08 2-.19 3-.31a6.93 6.93 0 002.76-.49c.38-.21.12-1-.18-1.12" fill="#9b8579"/>
      <path d="M77.61 126.73l-.14-.22a.55.55 0 00-.51-.26 6.84 6.84 0 00-4.85 2.95c-.06.09 0 .4.15.34 1.34-.5 2.68-.95 4-1.39.48-.16 1.87-.6 1.32-1.42" fill="#9b8579"/>
      <path d="M76.34 117.23c-.28-.21-.73-.35-1 0-.67 1.21.09 3 .37 4.26.45 1.94.71 4.33 1.75 6.06.07.12.27.15.31 0a12.36 12.36 0 00.28-5.34c-.26-1.3-.6-4.13-1.75-5" fill="#9b8579"/>
      <path d="M72.23 125.76a1.55 1.55 0 000-.15v-.08a6.23 6.23 0 01-.28-.83s-.07.12-.09.18a3.53 3.53 0 00-3.8-1.13.38.38 0 00-.08.51 7.08 7.08 0 001.8 1.61 5.44 5.44 0 002.11 1c.46 0 .54-.63.47-1" fill="#726658"/>
      <path d="M72 125.65a4.93 4.93 0 00-6 .23c-.12.11-.1.41.09.44 1 .14 2 .25 3 .35a7.11 7.11 0 002.79.11c.42-.13.33-.91.07-1.13" fill="#726658"/>
      <path d="M72.28 125.94l-.1-.25a.53.53 0 00-.43-.36 6.78 6.78 0 00-5.37 1.84c-.08.07-.09.38.07.36 1.41-.21 2.81-.35 4.23-.49.51-.05 1.95-.18 1.6-1.1" fill="#726658"/>
      <path d="M73.27 118c-.21-.43-.73-.51-.89 0a23.76 23.76 0 00-.65 5 4.73 4.73 0 00.89 3.8c.14.14.26-.13.26-.24a31.66 31.66 0 01.45-4.21c.09-1.42.6-3-.06-4.35" fill="#726658"/>
      <path d="M90.35 100.54a1.66 1.66 0 00-.29-.85 1.9 1.9 0 00-.12-.91c-.18-.44-.79-1-1.22-.46a2 2 0 00-.17.23 6.73 6.73 0 00-.4.63c-.32.43-.75.82-1.16.67s-.88.2-1 .74c-1.94.32-3.87 1.69-5.76 2.11a10.84 10.84 0 01-4.33 0 12.39 12.39 0 01-1.16-.67A25.15 25.15 0 0171 99.37c.92-1.82 1.57-7.26.36-9.42-.06-.11-.13-.21-.2-.32-1-2.06-3-3.18-5.12-3.91a5 5 0 00-1-.23.85.85 0 00-.22-.37c-.64-.56-.37-1.58-1.24-2a.52.52 0 00-.63.27 2.06 2.06 0 00-.12.26c-.3-.71-.8-1.71-1.68-1.73-.28 0-.45.28-.55.5-.63 1.54.29 2.73 1.4 3.73a7.55 7.55 0 00-2 1.68 10.86 10.86 0 00-3 6.28c-.07 1.48.07 3.71 1.34 4.74.34.48 2.41 2.58 3.47 3.61a34.89 34.89 0 00-.27 4.63c-.3 5.36 1.54 12.59 12.47 13.81a1 1 0 00.23.72c.52.5 1.1.95 1.63 1.45.41.34.66-.12.68-.61a.76.76 0 00.31-.35.35.35 0 00.34.24c.37.49.71 0 .79-.41l.16-.11a.45.45 0 00.17-.13 4.79 4.79 0 001-1.07 21.06 21.06 0 004.4-2.73A15.69 15.69 0 0090 107.14a9.78 9.78 0 00-.23-4.12 7.81 7.81 0 00.58-2.48" fill="#c49a6c"/>
      <path d="M86.43 107.92c.36-3.63-4.52-2-5.92-1.31-2.58 1.18-4.79.52-7.28-.48-1-.42-2.68-1.71-3.82-1.11-1.54.83-1.45 2.74-.83 4.47a6.16 6.16 0 00.23 1.45 15.42 15.42 0 001.53 3.32c1.14 2 2.68 3.48 4.8 3.55a2.56 2.56 0 002.92-2.49c2.41 0 5.11-.8 6.18-3.1a2.62 2.62 0 00.32-1.69 3.25 3.25 0 001.87-2.61" fill="#a97c50"/>
      <path d="M58.48 93.34a9.68 9.68 0 00-1.62.18 7.82 7.82 0 00-1.57.93c-.48.27-.64 1.55.05 1.72 1 .22 1.84.92 2.82.8 4.42-.56 1.77-3.81.32-3.63" fill="#fbb040"/>
      <path d="M58.18 90.38a1.5 1.5 0 00-1.11 1.82.67.67 0 00.33.48c.26.1.42-.14.51-.33-.09.2.15-.31.1-.22a.35.35 0 01.21-.15c.18-.07.28.11.3.18a1.74 1.74 0 00.21.55.93.93 0 00.21.27c.32.27.58-.68.58-.87 0-.74-.45-1.84-1.34-1.73M62.54 91.24a1.15 1.15 0 00-1-.74 1.5 1.5 0 00-1.2 2c.1.39.55.62.72.12.12-.35 0-.59.42-.66.17 0 .33-.08.39.06s.1.41.18.61a.33.33 0 00.64 0 2 2 0 00-.1-1.37" fill="#414042"/>
    </g>
  </g>
</svg>
