<svg xmlns="http://www.w3.org/2000/svg" viewBox="0 0 144 175.18">
  <g id="Layer_2" data-name="Layer 2">
    <g id="Layer_1-2" data-name="Layer 1">
      <path fill="#c2b59b" d="M0 0h144v175.18H0z"/>
      <path d="M56.59 62.12c-1.69.37-6.87-1.08-7-3.85s2.78-2 2.78-2-5.74-4-5.39-6.59 4.82-1 4.82-1-5.51-5.91-3.43-7.94 4.34 0 4.34 0-2.87-8.19-.91-9.82 4 2.24 4 2.24 1.22-6.83 3.3-7.57 1.9 2.58 1.9 2.58 3.14-4.62 5.65-5 1.51 3.32 1.51 3.32a7 7 0 014.46-3.35c3-.52 4.19 3.17 4.19 3.17s.12-3.85 3-3.22 3.94 4 3.94 4S85 22.26 87 25.58a14.16 14.16 0 012.19 5.33s2.6-3.11 3.47-1.26-.69 7.94-.69 7.94 4.17-3.14 3 1.84a42.64 42.64 0 01-2.26 7.2s4.34-2.4 5 .56-4 6.28-4 6.28 4.31 0 4.07 2.21-12.88 9.74-12.88 9.74" fill="#fff"/>
      <path d="M62.6 61.94c-2.48-3.16-11.46-5.19-9.52-14.81s13.53-17.86 19.74-18.55S91.73 39 91.87 51s-9 8.22-11.46 14.69c0 0 .28 18.8-6.9 14.41" fill="#6e2f18"/>
      <path d="M81.26 60.66c-3.81 10.68-10.54 20.55-15.52 21.77s-5.27 62.36-4.1 69.63 38.65 8.74 39.82 0S95.6 94.72 94.72 88s8.49 48.42 10.83 49.35 10.64-2.09 11.71-5.48c3.23-10.19-15.8-64.53-18.73-69.77s-15.81-4.68-17.27-1.46" fill="#923e20"/>
      <path d="M82.32 59.57c1-1.48 7.32 5.39 6 5.85s-6 2.77-6 2.77 5.68 3.14 3.61 4.41-17.85 18.53-16.85 17.17S74 72 82.32 59.57" fill="#d4592b"/>
      <path d="M63.8 60.3C67.6 71 76 81.08 81 82.3s4.2 62.49 3 69.76-38.64 8.74-39.82 0S50 94.72 50.91 88s-11 50.78-13.33 51.71-10.64-2.09-11.71-5.48c-3.22-10.19 18.3-66.89 21.23-72.13s15.24-5 16.7-1.82" fill="#b84d26"/>
      <path d="M63.3 59.57c-1-1.48-7.32 5.39-5.95 5.85s5.95 2.77 5.95 2.77-5.66 3.14-3.61 4.41S82 83.66 81 82.3a248.18 248.18 0 01-17.7-22.73" fill="#f26b3b"/>
      <path d="M80.44 93.17a1.71 1.71 0 11-1.69-1.94 1.83 1.83 0 011.69 1.94M80.44 108a1.71 1.71 0 11-1.69-1.94 1.83 1.83 0 011.69 1.94M80.44 122.92a1.71 1.71 0 11-1.69-1.92 1.83 1.83 0 011.69 1.94M80.44 137.8a1.71 1.71 0 11-1.69-2 1.83 1.83 0 011.69 2M69 93.17a1.71 1.71 0 11-1.69-1.94A1.82 1.82 0 0169 93.17M69 108a1.71 1.71 0 11-1.69-1.94A1.82 1.82 0 0169 108M69 122.92a1.71 1.71 0 11-1.66-1.92 1.82 1.82 0 011.66 1.92M69 137.8a1.71 1.71 0 11-1.69-2 1.82 1.82 0 011.69 2" fill="#80361b"/>
      <path d="M46.11 124.86c0 .26-3.4 3.48-1.49 4.64s10.83 3.64 11.26 1.6a7.18 7.18 0 00-.68-4.22z" fill="#f26b3b"/>
      <path d="M90.84 127.31c.1.24-1.15 4.71 1.08 4.75s11.19-2.32 10.53-4.3a7.35 7.35 0 00-2.74-3.29z" fill="#d4592b"/>
      <path d="M24.17 128.27c-1 1.26-3.12 7.2 0 9.53s13.27 5.62 15 1.94 1.37-5.44-2-6.6-11.32-7-13.08-4.87M102.48 134.63c.08 1.61 2.48 7.44 6.37 7.12s13.68-4.56 12.53-8.48-2.61-5-5.87-3.64-13.15 2.23-13 5" fill="#fff"/>
    </g>
  </g>
</svg>
