<svg xmlns="http://www.w3.org/2000/svg" viewBox="0 0 144.34 174.97">
  <g id="Layer_2" data-name="Layer 2">
    <g id="Layer_1-2" data-name="Layer 1">
      <path fill="#addedc" d="M.34 0h144v174.97H.34z"/>
      <path d="M144.34 175v-64.41c-74.48-31.95-127.75 2.69-144 15.69V175z" fill="#99cb51"/>
      <path d="M124.5 130.43c0 11.17-23.35 20.22-52.16 20.22s-52.17-9.05-52.17-20.22 23.36-20.22 52.17-20.22 52.16 9.05 52.16 20.22" fill="#7ba541"/>
      <path d="M144 174.63v-64.37C69.52 78.3 16.25 113 0 126v48.68z" fill="#afd24d"/>
      <path d="M124.16 130.09c0 11.17-23.35 20.22-52.16 20.22s-52.16-9.05-52.16-20.22S43.19 109.87 72 109.87s52.16 9 52.16 20.22" fill="#7ba541"/>
      <path d="M44.48 92.11c-.18-2.83-.16-12.31-4.57-12.29-3.06 0-4.29 2.75-4.78 5.78-4.53 10.14-4.08 21.76-5.51 32.75-.56 4.26-.91 9.52 2.25 12.75 2.7 2.75 8.07.43 10.84-.4 3-.9 2.58-12.78 2.75-15.31.51-7.64-.5-15.65-1-23.28M108.18 92.11c-.18-2.83-.18-12.31-4.58-12.29-3.06 0-4.29 2.75-4.78 5.78-4.53 10.14-4.08 21.76-5.51 32.75-.55 4.26-.91 9.52 2.25 12.75 2.7 2.75 8.08.43 10.84-.4 3-.9 2.58-12.78 2.75-15.31.51-7.64-.49-15.65-1-23.28" fill="#cfd1d2"/>
      <path d="M41.55 120.75c-2.85.32-5.93.81-8.79.34-1.14-.19-2.25-.46-3.37-.74-.35 3.81-.2 8 2.48 10.75s8.07.43 10.84-.4c2-.6 2.47-6.14 2.62-10.48-1.25.2-2.51.39-3.78.53" fill="#816f65"/>
      <path d="M65 115.4l-.73.16a23.58 23.58 0 004.42 3.16c.26.16.54.3.81.45a8.51 8.51 0 00-.14 6.24c.64 2 3.15 2.74 4.31.74a11.13 11.13 0 00.87-1.89c.09-.24.17-.49.27-.74s.08-.33.13-.49a3.17 3.17 0 01-.24.49 7.17 7.17 0 00.3-.71 5.18 5.18 0 00.14-.53 3 3 0 01-.1.43 5.85 5.85 0 00.25-.91 18.28 18.28 0 006.14 1.06c.5.92.58 1.08.24.47.19.38.4.76.61 1.13.59 1 1.76 2.28 3 2 1.55-.3 2.28-1.59 2.52-3.08a7.61 7.61 0 000-2.19 18.84 18.84 0 002.34-1.36 21.44 21.44 0 002.48-1.83c.21.13.43.25.65.37l.16.09.31.21a8.44 8.44 0 001.75.82 2.68 2.68 0 001.87-.09c.29-.19.77-.75 1.14-.73.72 0 1-.88 1-1.42a2.89 2.89 0 00-.16-1.09c-.05-.18-.11-1.88-.1-1.8a6 6 0 00-1.41-3.11 36.79 36.79 0 002.28-5.08 109.91 109.91 0 01-21 6.9A124.71 124.71 0 0165 115.4" fill="#f3bdbc"/>
      <path d="M47.24 105c.81-3-.27-6.34-3.71-6.91a3.75 3.75 0 00-3.3 1.27c-.58.54-.95 1.08-1.69 1.08a4.11 4.11 0 00-.06-.92c-.59-3.11-3.31-3.28-5.36-1.48.35.61.72 1.21 1.1 1.81 1.27-.32 1.42-1.16 1-.12a2.49 2.49 0 00-.82.43 36.58 36.58 0 009.36 9.72 3.86 3.86 0 00.79-.55 9.24 9.24 0 002.69-4.33" fill="#414042"/>
      <path d="M55.26 100.2c-.17-2.83-.16-12.31-4.57-12.29-3.06 0-4.29 2.74-4.78 5.78-4.53 10.13-4.08 21.76-5.51 32.75-.55 4.26-.91 9.52 2.25 12.75 2.7 2.75 8.08.43 10.84-.4 3-.9 2.58-12.78 2.75-15.31.51-7.64-.5-15.65-1-23.28" fill="#fff"/>
      <path d="M51.78 123.75v-.09a4.67 4.67 0 00.38-3 2.92 2.92 0 00-1.53-2.21c-1.54-.56-2.71 1-3.17 2.24a6.72 6.72 0 00.3 5.6 1.74 1.74 0 002.16.86c1-.48 1.41-1.77 1.64-2.79-.28 1.22-.07.36 0-.23a.33.33 0 010-.06l.09-.32c.27-.55.27-.57 0 0M44.57 117.26c-.94.12-1.34 1.25-1.26 2.09a1.54 1.54 0 00.45 1.1.66.66 0 001-.22 3.53 3.53 0 00.28-.67 2.74 2.74 0 00.16-.53c.2-.44.06-1.78-.68-1.69" fill="#414042"/>
      <path d="M100.55 124.76c-2.41.29-5.23.48-7.57-.4a10.25 10.25 0 002.58 6.74c2.7 2.75 8.08.43 10.84-.4 1.61-.49 2.23-4.16 2.49-7.85a46.4 46.4 0 01-8.34 1.91" fill="#816f65"/>
      <path d="M116.47 100.2c-.18-2.83-.16-12.31-4.57-12.29-3.07 0-4.29 2.74-4.79 5.78-4.52 10.13-4.08 21.76-5.5 32.75-.56 4.26-.92 9.52 2.25 12.75 2.7 2.75 8.07.43 10.84-.4 3-.9 2.58-12.78 2.75-15.31.51-7.64-.5-15.65-1-23.28" fill="#fff"/>
      <path d="M110.32 131.87c-2.87.35-6.25.61-9.08-.42 0 2.88.63 5.71 2.62 7.74 2.7 2.75 8.07.43 10.84-.4 1.68-.51 2.28-4.51 2.52-8.36a38.53 38.53 0 01-6.9 1.44" fill="#9b8579"/>
      <path d="M120.2 56.54c-3.65-4.51-8.89-5.51-14.49-5.7-14.47-.46-28.58-2-42.93-3.87-10.72-1.39-27-4.32-34.4 6.09a38.4 38.4 0 00-2.25 3.55v-.4c0-.93-1-.89-1 0v2.36c-.31.65-.59 1.32-.84 2s.3 1.94.87 1.65c.38 19.23 4.33 40.53 22.82 50.24 9.77 5.13 21.77 4.11 32.16 1.78s20.58-6.6 28.35-14C116.7 92.47 121.1 81 122.36 70c.46-4 .59-10-2.16-13.42" fill="#fff"/>
      <path d="M28.38 53.06a38.4 38.4 0 00-2.25 3.55v-.4c0-.93-1-.89-1 0v2.36c-.31.65-.59 1.32-.84 2s.3 1.94.87 1.65c0 1.17.06 2.35.11 3.54a47.53 47.53 0 0115.73.45c5.54 1.11 11.47 3.16 14.85 7 .07-.73.13-1.45.17-2.15a59.26 59.26 0 00-3.75-25.36c-9-.71-18.68 0-23.88 7.34M47.58 93.17a19.84 19.84 0 01-10.65 4.63c9.26-.72 19.36-4.52 21.36-14.08.93-4.48-.18-7.89-2.45-10.49-.68 7.08-2.79 15.33-8.26 19.94" fill="#cfd1d2"/>
      <path d="M41 66.21a47.52 47.52 0 00-15.73-.43c.49 11.15 2.39 22.7 7.74 32.09q.57 0 1.14.06c.91 0 1.85-.06 2.79-.13a19.84 19.84 0 0010.65-4.63c5.47-4.61 7.58-12.86 8.26-19.94-3.38-3.86-9.3-5.91-14.85-7" fill="#cfd1d2"/>
      <path d="M46.2 36.31C43.31 30.92 38.55 26.25 32.73 25a3.94 3.94 0 00.54-3.9c-.12-.3-.46-.66-.81-.47a4 4 0 00-1.53 1.53 4.2 4.2 0 00-.11-.45c-.71-2.44-2.7-4.1-4.76-5.42-1.46-1-2.24.83-2.26 2.08a7.49 7.49 0 00.32 2.34 10.38 10.38 0 00-6.56.46c-1.43.68-1.29 3.18-.25 4.12a6.56 6.56 0 004 1.56 21.27 21.27 0 00-6.24 4.82 6.48 6.48 0 00-2.15-1.89 14.49 14.49 0 00-3.82-1.12c-3.8-.8-5.63 2.42-5.1 5.86.14.88.84 2.12 1.88 2.07a16.46 16.46 0 004.84-1.39c.84-.3 1.15 0 1.72.18-.09.16-.18.31-.26.47a1.19 1.19 0 00-.77 1.06c-.05.32-.1.63-.16 1a21 21 0 00-1.4 6.72A4 4 0 0010 45.7c-1.77 10.85-3.11 22 .21 32.64 4.33 13.89 22 20.41 33.71 10.51 6-5.08 8-14.61 8.43-22.09.62-10.51-1.1-21.11-6.11-30.45" fill="#fff"/>
      <path d="M37.29 61.89c-9.52-1.9-27-1.67-30.62 9.85a2.74 2.74 0 00-.08 1c-1.61 4-1.31 8 2 12.64 4.11 5.62 10.89 7.47 17.46 8.07 10.37.94 26-1.89 28.54-14 2.33-11.16-8-15.66-17.3-17.51" fill="#f3bdbc"/>
      <path d="M22.7 75.79l.06-.07c1.73-1.87 1.57-5.18.83-7.39a2.52 2.52 0 00-2.19-1.82c-1.12 0-1.69 1-2.1 1.92a7.5 7.5 0 00-.51 3.72 7 7 0 00.6 2.44 3.29 3.29 0 00.89 1.29c.65.42.77.48.37.19a1.4 1.4 0 002-.18l.13-.15M35.38 75.79l.06-.07c1.73-1.87 1.57-5.18.82-7.39a2.52 2.52 0 00-2.19-1.82c-1.12 0-1.69 1-2.09 1.92a7.51 7.51 0 00-.52 3.72 7.23 7.23 0 00.6 2.44 3.51 3.51 0 00.94 1.29c.65.42.77.48.37.19a1.41 1.41 0 002-.18l.13-.15" fill="#e09d9e"/>
      <path d="M134.42 50.25c-3-.83-5.55 1.27-7.72 3a8.64 8.64 0 01-8 1.76c-1.22-.31-3-1.26-4.26-.5a10.18 10.18 0 00-4.9 7.19c0 .22.24.74.43.37 1.15-2.29 4.24-4.71 6.92-4 2 .49 3.36 1.33 5.47.85a12.11 12.11 0 005.48-2.92c1.67-1.42 7.14-5.75 8.67-1.64.23.6.87.35.92-.2.23-2.3-.75-3.33-3-4M47.23 28.8a9.48 9.48 0 00-6.1 1.48c-1.86.61-3 2.87-3.07 4.69 0 .25.12.69.41.77a35 35 0 003.53.56c1.43.22 2.85-.26 4.18.4 2.36 1.17 7.08 2.54 6.92-1.85a7 7 0 00-5.87-6.05" fill="#fff"/>
      <path d="M84.77 118.79a1.06 1.06 0 00.06-.19.14.14 0 000 .06.93.93 0 010 .13" fill="#f3bdbc"/>
      <path d="M105.71 50.84c-.59 0-1.18-.05-1.78-.07C91 50.27 78.32 49 65.49 47.32L62.78 47l-1.28-.2c1.53 3.4 1.2 8.42 5.78 9a27.76 27.76 0 003.16.18c2.93.06 2.29 1.5 2.82 3.72a10.34 10.34 0 004 6.39 7 7 0 006.83.72c3.2-1.18 3-4.86 7-3.74 2.75.76 4.64-.19 6.93-1.63 2.69-1.68 5.3-2.24 8.13-3.5 2.66-1.19 3.42-4 3.3-6.82-1.23-.17-2.49-.25-3.78-.3M102.38 84.2c-1.13-3-3.94-2.2-6.48-1.37-2.85.94-4.5.74-7.28-.4a8.2 8.2 0 00-2.62-.77c-.9 0-.86-1-1.69-1.34-2.08-.95-4.92.21-5.28 2.55-.2.22-.39.44-.55.64-1.21 1.5-.39 2.86.69 4-2 2.2-3.25 4.11-1.63 7.78 1.53 3.48 6.38 2.26 8.74.58 1.93-1.37 3.85-4.49 6.22-4.89s4.26.25 6.55-.54 4.3-3.64 3.34-6.22M122.55 67.68a32.15 32.15 0 000-4.27 6.47 6.47 0 00-3.75 2.29 5 5 0 00-.65 4.23 4 4 0 00.64 1.28 3.93 3.93 0 00-2.35 2.08 6.24 6.24 0 00.67 5.4 11.66 11.66 0 002.89 2.36A59.12 59.12 0 00122.36 70c.08-.71.15-1.48.19-2.28M114.39 107.57a2 2 0 00-1.72-1.43c-.87 0-1.35.81-1.65 1.51a5.77 5.77 0 000 4.34 5.3 5.3 0 00.92 1.32c.49.3.55.34.19.11a1.23 1.23 0 00.86.27c.63-.07.89-.61 1.12-1.11-.15.31-.17.37-.07.18s.29-.57.43-.86a6.1 6.1 0 00-.09-4.33M114.6 104.34a2.78 2.78 0 00-.25-1 1.81 1.81 0 00-.88-.91 1 1 0 00-1.28 1.29 2.33 2.33 0 00.73 1.4c.15.11.5.35.7.32a.49.49 0 01.24 0c.27 0 .41-.25.61-.37a.49.49 0 00.19-.54l-.06-.2" fill="#414042"/>
      <path d="M53.38 130.31c-1 .33-2 .63-3.06.93a30.79 30.79 0 01-6.2.88 15.2 15.2 0 01-4.08-.35c.08 2.77.7 5.47 2.61 7.42 2.7 2.75 8.08.43 10.84-.4 1.69-.51 2.29-4.55 2.53-8.41a3.57 3.57 0 00-2.64-.07" fill="#9b8579"/>
      <path d="M45.11 32.2c-.41 0-.67.31-.79.74a.74.74 0 00-.21.58c0 .79.54 2.09 1.41 2.25a8.31 8.31 0 001.32 0 5 5 0 011.74.47c.36.15.63-.2.74-.48 1-2.57-2.41-3.48-4.21-3.57M13.26 32.51a6.73 6.73 0 00-2.2-1.08 2.77 2.77 0 00-2.18.63c-.41.37-.48 1.7.21 1.85s1.13.21 1.71.29a5.16 5.16 0 011 .25c.31.09.52.31.82.39.67.19 1-.55 1-1.23a1.09 1.09 0 00-.35-1.1" fill="#f3bdbc"/>
      <path d="M25 54.81a1.84 1.84 0 00-.59-1c-1.34-1.06-2.1-2.38-3.82-3a5.22 5.22 0 00-5.06 1.25 7.38 7.38 0 00-2 4.37c-.07.7.45 3.46 1.72 2.4a8.51 8.51 0 001.11-1.65 4.23 4.23 0 012.19-1.72c2.32-.86 3.09 1.91 4.84 2a.87.87 0 00.8.07l.26-.11c.9-.38 1-1.8.58-2.69M35 48.55c-3.7-.23-6.06 4.34-5.69 7.45.07.56.66 1.15 1.19.69 1.54-1.33 2.88-3.36 5.09-3.48 2.37-.11 2.2 3.1 3.81 3.84.48.22.81-.42.86-.78.48-3.31-1.55-7.5-5.26-7.72" fill="#58595b"/>
    </g>
  </g>
</svg>
