<svg xmlns="http://www.w3.org/2000/svg" viewBox="0 0 144 175.33">
  <g id="Layer_2" data-name="Layer 2">
    <g id="Layer_1-2" data-name="Layer 1">
      <path fill="#85d0ca" d="M0 0h144v175H0z"/>
      <path d="M10.5 95s19.11 43.24 22.61 46.41 73.06 4.8 76.28 5.49 15 17.87 15 17.87" fill="none" stroke="#76b8b3" stroke-linecap="round" stroke-miterlimit="10" stroke-width="12"/>
      <path d="M133.5 84.64a15.88 15.88 0 003.33 1.36c1.65 0 2.14-1.91-3.33-3.75" fill="#78909c"/>
      <path d="M83.82 39.52s-8.23-8.45-13.32-7 0 5.09 0 5.09-15.5-.87-19.28 14.55 3 34.58-8.55 34.36 11.5 26.32 33.83 24.91" fill="#f68b5f"/>
      <path d="M80.25 38.66s-8.91 6.71-3.82 8.12 4-9.21 4-9.21 15.49-.83 19.28 14.59-3 34.58 8.55 34.36-9.42 26.32-31.76 24.91" fill="#f68b5f"/>
      <path d="M81.83 107.77c26.54 3.37 24.2 50.78 44.56-10.54M71.22 107.77c-25.06 11.54-23.45 37.53-42.95-7.72" fill="none" stroke="#fff" stroke-miterlimit="10" stroke-width="11.23"/>
      <path d="M99.68 175.33c.95-28.45-.82-75.35-23-74.65-24.43.78-24.44 51.32-23.14 74.65z" fill="#fff"/>
      <path d="M79.58 141.38a2.11 2.11 0 11-2.11-2.11 2.1 2.1 0 012.11 2.11M79.58 161.36a2.11 2.11 0 11-2.11-2.11 2.1 2.1 0 012.11 2.11" fill="#ebebec"/>
      <path d="M57.91 52.16s-5 42.63 20 43.09c21.54.4 17.64-43.09 17.64-43.09" fill="#fff8d5"/>
      <path d="M73.67 100.17S71 101.74 70.61 102c-.56.43 6.22 30 6.52 29.68S84 102 84 102l-4.11-2.27" fill="#c8dd6e"/>
      <path d="M70.61 102s-9.1 7.56-8.45 8.54 7.47 0 7.47 0-5.36 6.49-4.71 7.31 12 15.75 12.51 14.46-3.56-29.56-6.82-30.31" fill="#ebebec"/>
      <path d="M84 102s9.11 7.56 8.46 8.54-7.48 0-7.48 0 5.37 6.49 4.72 7.31-12 15.75-12.51 14.46S80.73 102.75 84 102" fill="#ebebec"/>
      <path d="M74.07 94.05s-.61 6.5-.33 7l.28.48s2.75 2.87 3.11 2.82A18.87 18.87 0 0080.6 101c0-.31-.51-7-.51-7" fill="#fff8d5"/>
      <path d="M59.67 56.42s1.52 10.07 3.9 10.93S67.14 58 67.14 58s3.86 11.25 7.47 9S79 57.39 79 57.39s3.9 10.33 7.36 10S92.48 57 92.48 57s1.39 8.8 3.15 9.89 6.6-22-11.16-23.43-27.4.87-28.81 10.94 1.5 12.56 2.05 12.24 2-10.18 2-10.18" fill="#f68b5f"/>
      <path d="M63.57 71.74c0 3-2 5.36-4.55 5.36s-4.55-2.4-4.55-5.36 2-5.36 4.55-5.36 4.55 2.4 4.55 5.36M98.33 71.74c0 3-2 5.36-4.55 5.36s-4.55-2.4-4.55-5.36 2-5.36 4.55-5.36 4.55 2.4 4.55 5.36" fill="#fff8d5"/>
      <path d="M74.56 74.94c0 3.11-1.78 5.64-4 5.64s-4-2.53-4-5.64 1.78-5.65 4-5.65 4 2.53 4 5.65" fill="#fff"/>
      <path d="M70.5 73.65c-.77 0-1.43.71-1.71 1.71a1.18 1.18 0 010 2.35c.3.93.93 1.57 1.66 1.57 1 0 1.87-1.26 1.87-2.81s-.83-2.82-1.87-2.82" fill="#58595b"/>
      <path d="M84.65 74.94c0 3.11-1.78 5.64-4 5.64s-4-2.53-4-5.64 1.78-5.65 4-5.65 4 2.53 4 5.65" fill="#fff"/>
      <path d="M80.59 73.65c-.77 0-1.43.71-1.71 1.71a1.18 1.18 0 01.05 2.35c.3.93.93 1.57 1.66 1.57 1 0 1.87-1.26 1.87-2.81s-.84-2.82-1.87-2.82" fill="#58595b"/>
      <path d="M72.94 85s-1.44 8.09 3.75 7.31c4.64-.71 3-7.31 3-7.31" fill="#d17751"/>
      <path d="M76.69 92.32a3.43 3.43 0 002.73-2 4.64 4.64 0 00-6.17.05 2.89 2.89 0 003.44 1.92" fill="#f68b5f"/>
      <path d="M74.5 82.14c-.28.25.33 1.35 1.31 1.41s1.84-1.14 1.57-1.41a4 4 0 00-2.88 0" fill="#fdddc1"/>
      <path d="M71 67.27c.21.48-.72 1.35-2.07 1.94s-2.63.69-2.84.21.72-1.34 2.08-1.93 2.62-.69 2.83-.22M84.82 68.69c-.25.45-1.51.25-2.81-.46s-2.15-1.65-1.9-2.1 1.5-.26 2.8.45 2.15 1.65 1.91 2.11" fill="#f68b5f"/>
      <path d="M133.42 86.9s-.09 12.92-1.22 14-11.13-1.62-12.43-3.16S125 86 125 86s-2-1.51-2-2.87 2.6-7.77 4.79-7 13.48 6.66 5.61 10.8" fill="#c8dd6e"/>
      <path d="M126.33 81.62l-7.54-4.3.81-.82 7.83 3.33s.57 1.36-1.1 1.79" fill="#78909c"/>
      <path d="M120.66 74.47a4.79 4.79 0 11-4.79-4.79 4.79 4.79 0 014.79 4.79" fill="#78909c"/>
      <path d="M119.22 74.47a3.35 3.35 0 11-3.35-3.34 3.35 3.35 0 013.35 3.34" fill="#d9efec"/>
      <path d="M21.36 96.62s1.46 9.58 3.25 11.4 12.5-5.09 12.5-5.7-7.87-12.57-7.87-12.57 2.13-5.29.67-7.15-3.52 3.27-3.52 3.27-8.92-5.21-9.9-.78-1 11.31 4.87 11.53" fill="#c8dd6e"/>
    </g>
  </g>
</svg>
