<svg xmlns="http://www.w3.org/2000/svg" viewBox="0 0 144 175">
  <g id="Layer_2" data-name="Layer 2">
    <g id="Layer_1-2" data-name="Layer 1">
      <path fill="#85d0ca" d="M0 0h144v175H0z"/>
      <path d="M48.49 36s-6-6.93-9.65-7.13 1.43 7 1.43 7-17.7-1.11-21.6 6.13S22 85 13.81 81.52s2.88 11.15 27.54 10.76S72 81.67 70.06 81.52s-10.86 3-10.47-1.31 8.49-44.43-6-42.68c0 0 4.09-2.66 4.09-4.19 0-2.82-6.72.9-9.15 2.65" fill="#c49a6c"/>
      <path d="M65.86 175c-.41-1.78-.82-3.57-1.2-5.36-2.09-9.81-4.08-19.64-5.37-29.64-1.49-11.46-2.87-13.19-4.68-24.61-1.21-7.66-3.1-12.76-4-20.59-1.74-.85-3.78-3.4-6-4.44-1.13-.54-2.3-.1-3.47 0a18.13 18.13 0 00-10.41 3.87c-.14 8.31-1 16.63-1.17 24.93-.21 9.46-.24 9.17-.48 18.62-.31 12.38-.45 24.85-1.46 37.23z" fill="#7eb6cf"/>
      <path d="M61.88 175l-3.31-12.94c-11.36 2.17-29.53.87-29.53.87L24.71 175z" fill="#5b8293"/>
      <path d="M35.27 175c-.36-9-2.31-63.46 3-84.28 0 0-17.79-.35-19.1 34.68-.94 25.34-1.5 22.13-2.84 49.6z" fill="#fff"/>
      <path d="M19.31 125s1.51 26.75 2.44 27.33 20.34 1.82 21.17.43 0-25.66-1.22-27.31-22.53-1.6-22.39-.45" fill="#97daf8"/>
      <path d="M38.12 150.5s5.5 2.19 6.86-.24-.19-15.72-6.86-9.1" fill="#fff8d5"/>
      <path d="M37.45 141.46s.55-4.17 2.44-4.06 1.25 3.95-.25 5.37" fill="#fff8d5"/>
      <path d="M23.7 123.37a11.08 11.08 0 00.63 3.12c.44.68 11.64-.15 11.74-.73s-.11-2.73-.44-2.92-11.64-.34-11.93.53" fill="#78909c"/>
      <path d="M52 175h18c-1.86-23.82-3.58-30.72-5.39-47.65-2.15-20.17-7.18-29.43-12-33.6a13.3 13.3 0 00-7.88-3.38s8 43.22 7.33 84.63" fill="#fff"/>
      <path d="M32.38 98.33c-19.76 13.6-34 49.06 5.94 47.53" fill="none" stroke="#fff" stroke-miterlimit="10" stroke-width="9.14"/>
      <path d="M38.32 90.72s-10.62 11-10.51 12.57 3.48 5.43 3.48 5.43-7.5 5.45-6.41 7.19S35 123.19 35 121.23s1.52-25.2 3.3-30.51" fill="#efeff0"/>
      <path d="M50 97.64c16.18 0 23.45 47.05 41.77 3.06" fill="none" stroke="#fff" stroke-miterlimit="10" stroke-width="9.14"/>
      <path d="M44.69 90.37s4.31 29.94 4.36 30.48 7.31-8.37 7.53-9.41-6.9-3.45-6.93-4.75 4.75-5.22 4.1-6.31-9.06-10-9.06-10" fill="#efeff0"/>
      <path d="M24.44 111s-1.19 4.54-1.85 8c-.19 1 5 4.16 5 4.16" fill="none" stroke="#78909c" stroke-linecap="round" stroke-linejoin="round" stroke-width=".98"/>
      <path d="M31.55 111.61c-.18 2.2-2.24 8.08-2.88 8.32s-5.59 2.12-5.61 2" fill="none" stroke="#78909c" stroke-linecap="round" stroke-linejoin="round" stroke-width=".98"/>
      <path d="M38.32 89.78s-7-.29-9.65 17.1c0 0-3.25-.65-4.39 4.73M28.67 106.88s3.7.87 2.63 5.65M44.39 89.63s9.69.48 10.83 23.15" fill="none" stroke="#99daf8" stroke-miterlimit="10" stroke-width="1.3"/>
      <path d="M59 115.5a3.42 3.42 0 11-3.42-3.42A3.42 3.42 0 0159 115.5" fill="#d1d3d4"/>
      <path d="M57 115.5a1.46 1.46 0 11-1.46-1.5 1.46 1.46 0 011.46 1.5" fill="#bec0c2"/>
      <path d="M54.08 151.17a4.15 4.15 0 002.5 2.11c1.79.5 5.86-1.79 6.36-3.74s-.65-2.15-.65-2.15z" fill="#efeff0"/>
      <path d="M24.06 47.1s-4.49 38.35 18 38.76C61.47 86.22 58 47.1 58 47.1" fill="#fff8d5"/>
      <path d="M38.6 84.78s-.55 5.85-.3 6.29 2.7 5.13 3.05 5.08 3.1-4.82 3.12-5.1-.47-6.27-.47-6.27" fill="#fff8d5"/>
      <path d="M39 67.59c0 2.8-1.6 5.08-3.58 5.08s-3.58-2.28-3.58-5.08 1.6-5.08 3.58-5.08S39 64.79 39 67.59" fill="#fff"/>
      <path d="M35.39 66.44c-.69 0-1.28.63-1.54 1.53a1.06 1.06 0 010 2.12c.28.83.84 1.4 1.5 1.4.93 0 1.68-1.13 1.68-2.52s-.75-2.53-1.68-2.53" fill="#58595b"/>
      <path d="M48.11 67.59c0 2.8-1.6 5.08-3.57 5.08S41 70.39 41 67.59s1.6-5.08 3.58-5.08 3.57 2.28 3.57 5.08" fill="#fff"/>
      <path d="M44.47 66.44c-.7 0-1.29.63-1.55 1.53a1.06 1.06 0 010 2.12 1.76 1.76 0 001.5 1.4c.92 0 1.68-1.13 1.68-2.52s-.76-2.53-1.68-2.53" fill="#58595b"/>
      <path d="M37.58 76.65s-1.29 7.28 3.42 6.58c4.17-.64 2.71-6.58 2.71-6.58" fill="#d17751"/>
      <path d="M41 83.23a3.11 3.11 0 002.46-1.78 4.19 4.19 0 00-5.56 0 2.6 2.6 0 003.1 1.78" fill="#f68b5f"/>
      <path d="M39 74.07c-.25.23.31 1.22 1.18 1.27s1.66-1 1.41-1.27a3.6 3.6 0 00-2.59 0" fill="#fdddc1"/>
      <path d="M57.49 46.57a176.73 176.73 0 00-19.12-.33c-5.53.22-11.32-1-16.85-.77-.9 6.22.79 15.32 2.18 15.83 2.39.88 7.54-9.84 7.54-9.84s-3 9.74 6.43 7.7A33.06 33.06 0 0053.06 51s3.31 10.42 4.75 11.53c1.21.93 3.14-9.77 3-15.67-1.12-.09-2.24-.19-3.37-.27" fill="#c49a6c"/>
      <path d="M27.06 65.67c0 2.44-1.5 4.42-3.36 4.42s-3.36-2-3.36-4.42 1.5-4.42 3.36-4.42 3.36 2 3.36 4.42M60.3 66.44c0 2.44-1.5 4.42-3.36 4.42s-3.36-2-3.36-4.42S55.08 62 56.94 62s3.36 2 3.36 4.42M87.67 99.39s-3.58-3.73-1.9-4.82 3.43.73 3.43.73 1.17-5.77 3.66-6.65 10.47 8.42 2.92 14c0 0-3.36.07-8.11-3.29" fill="#fff8d5"/>
      <path d="M75.75 43.8s.25 48.81 2 50.9 33.53 1.23 37.25 0c2.61-.85 3-51.15 1.25-52.4s-40.51-.5-40.5 1.5" fill="#78909c"/>
      <path d="M90 96.17s-.5-2.75-2.46-2.75-4.25 2.24 0 5.79" fill="#fff8d5"/>
      <path d="M94.5 70.86s-2 2.8 0 3.72 5.75-1.72 5-3.09-3.62-1.66-5-.63" fill="#fff"/>
      <path d="M93.61 75.34c.17 0 2 1.92 4.14.67s3.88-1.35 4.13-.11-2.49 3-2.93 5.23-.08 14.76-.08 14.76l-4.12.11s1-14.75.25-15.55-5.53-5.75-1.39-5.08M100.23 69.55c-.17 0-2-1.92-4.14-.67S92.21 70.23 92 69s2.49-4.45 2.93-6.7.07-20.46.07-20.46h4.12s-1 21.83-.25 22.62 5.53 5.76 1.39 5.09" fill="#fff"/>
      <path fill="#78909c" d="M93.79 58.96l2.74 1.05.08-1.05 4.23 3.21-4.63-4.54-.37 1.19-2.23-1.19"/>
    </g>
  </g>
</svg>
