<svg xmlns="http://www.w3.org/2000/svg" viewBox="0 0 144 174.97">
  <g id="Layer_2" data-name="Layer 2">
    <g id="Layer_1-2" data-name="Layer 1">
      <path fill="#addedc" d="M0 0h144v174.97H0z"/>
      <path d="M144 175v-64.4c-74.48-32-127.75 2.69-144 15.68V175z" fill="#afd24d"/>
      <path d="M104.52 123.43c0 3.94-12.32 7.14-27.53 7.14s-27.52-3.2-27.52-7.14 12.32-7.14 27.52-7.14 27.53 3.2 27.53 7.14" fill="#7ba541"/>
      <path d="M60.21 124.63c.2.49.41 1 .64 1.43.47.93 1.56 2.39 2.83 1.65a6.24 6.24 0 002.5-3.06 26.49 26.49 0 01-6 0" fill="#58595b"/>
      <path d="M94.22 101c-.35-2.33-.07-5.5-1.08-7.84v-.13c-.56-2.12-2.69-3.1-3.67-.64-.07.16-.11.35-.17.52a12.26 12.26 0 00-1.36 5.51c-2.34 7.11-2.07 17.14.88 23 .4.79 1.32 2 2.4 1.41 3.67-2.14 3.15-9.16 3.24-12.74a52.8 52.8 0 00-.21-9.07M62 100.72c-.34-2.32-.06-5.49-1.07-7.83v-.13c-.57-2.12-2.69-3.1-3.68-.64-.06.16-.1.35-.16.51a12.21 12.21 0 00-1.36 5.52c-2.34 7.11-2.07 17.14.87 23 .4.79 1.33 2 2.41 1.41 3.67-2.15 3.14-9.16 3.24-12.74a52.9 52.9 0 00-.22-9.08" fill="#9b8579"/>
      <path d="M87.67 118.61a19.49 19.49 0 001.12 2.82c.4.79 1.32 2 2.4 1.41a6 6 0 002.5-3.65q-3-.34-6-.58M55.65 119a19.1 19.1 0 00.89 2.14c.4.79 1.33 2 2.41 1.41a6.16 6.16 0 002.56-3.85 31 31 0 00-5.86.3" fill="#58595b"/>
      <path d="M99.17 79.52c-5.64-3.1-15.92-.28-22.18-1-1.44-.17-26.13-6.29-30.74-4.66a21.43 21.43 0 00.19 18.5c7 14.91 33.93 23.07 48.4 15.57 17.8-9.22 8.28-26.23 4.33-28.41" fill="#c2b59b"/>
      <path d="M105.34 62.43c-.21-.08-.4.15-.42.36-.32 2.66.26 5.58-.59 8.11-1.17 3.49-4.47 6.88-7 9.4-.21.2-.24 1 .19.94A11.17 11.17 0 00108 74c1.41-3.3 1.13-10-2.67-11.6" fill="#c2b59b"/>
      <path d="M80.4 101a35.63 35.63 0 00-11.86 2.24c-2.08.7-4.53 1.55-5.83 3.33 10.59 4.72 23.54 5.78 32.13 1.33l.45-.25c-3.35-4.25-9.94-6.57-14.89-6.65" fill="#d3c5a8"/>
      <path d="M66.69 105.93c-.35-2.32-.07-5.49-1.08-7.83v-.14c-.56-2.12-2.69-3.09-3.68-.63-.06.16-.1.34-.16.51a12.34 12.34 0 00-1.36 5.52c-2.34 7.11-2.07 17.14.87 23 .41.8 1.33 2 2.41 1.41 3.67-2.14 3.15-9.16 3.24-12.74a53.83 53.83 0 00-.21-9.07M101.11 104.39c-.35-2.33-.07-5.5-1.08-7.84v-.13c-.56-2.12-2.69-3.1-3.68-.64-.06.16-.1.35-.16.52a12.17 12.17 0 00-1.36 5.51c-2.34 7.11-2.07 17.14.87 23 .4.79 1.33 2 2.41 1.41 3.67-2.14 3.15-9.16 3.24-12.74a53.81 53.81 0 00-.21-9.07" fill="#c2b59b"/>
      <path d="M95.29 124c.13.28.25.57.38.84.4.79 1.33 2 2.41 1.41a5.07 5.07 0 002-2.25z" fill="#58595b"/>
      <path d="M108.28 66.12a5.49 5.49 0 00-2.94-3.69c-.21-.08-.4.15-.42.36a24.78 24.78 0 00-.1 3.12 3 3 0 001.55.68 2.51 2.51 0 001.91-.49" fill="#9b8579"/>
      <path d="M60.32 124.07a17.2 17.2 0 00.93 2.26c.4.8 1.33 2 2.41 1.41a6.42 6.42 0 002.67-4.3 28.2 28.2 0 00-6 .63" fill="#58595b"/>
      <path d="M37.83 63.71s4.28 2 .09 13-4.16 15.15-10.49 12.86-5.32-12.1 1-19.34c0 0 4.5-8.75 9.38-6.52" fill="#b2a192"/>
      <path d="M43.06 62.48s-10.76 1.84-11.6 14.28c0 0-15.59.95-14 8.15s9.05 13.45 22.21 12S60.08 90.2 60.8 76.07 49.32 62.29 43.06 62.48" fill="#d9c6b5"/>
      <path d="M57.64 68.69s4.58-1.14 8.28 10 6.34 14.37 0 16.6-11.78-6-11.44-15.64c0 0-2-9.62 3.16-11" fill="#b2a192"/>
      <path d="M21.11 78.66c-7.13 0-6.2 3.89-3 7.37s5.92-.14 6.59-2 3.75-5.4-3.62-5.36" fill="#9b8579"/>
      <path d="M34.46 75.38a4.26 4.26 0 00-.57-1.84 2.26 2.26 0 00-2.66-1.27c-1 .33-1.39 1.63-1.45 2.54s-.05 2.8 1.14 2.9c.31 0 .48-.34.55-.6 0 0 .08-.57.08-.55v-.36-.39a2.24 2.24 0 000-.26v-.27a1.67 1.67 0 00.08-.24c.05-.15 0-.14.24-.22 1.22-.52 1.13 1.81 1.84 2.18a.39.39 0 00.42-.09c.41-.35.35-1 .33-1.49M40.54 76.34a4.48 4.48 0 000-1.93 2.26 2.26 0 00-2.12-2c-1 0-1.83 1.11-2.18 1.95s-.94 2.64.17 3.11c.28.12.55-.17.7-.39 0 0 .26-.52.26-.5a3.37 3.37 0 01.1-.34c0-.13.06-.26.09-.38a2.3 2.3 0 00.09-.25c0-.08.08-.16.12-.24s.14-.2.15-.2.08-.12.3-.14c1.32-.1.52 2.09 1.06 2.62a.4.4 0 00.43 0c.5-.21.65-.84.79-1.31" fill="#58595b"/>
    </g>
  </g>
</svg>
