<svg xmlns="http://www.w3.org/2000/svg" viewBox="0 0 144 174.97">
  <g id="Layer_2" data-name="Layer 2">
    <g id="Layer_1-2" data-name="Layer 1">
      <path fill="#addedc" d="M0 0h144v174.97H0z"/>
      <path d="M144 175v-64.4c-74.48-32-127.75 2.69-144 15.68V175z" fill="#afd24d"/>
      <path d="M115.11 124.53c0 5.78-18.11 10.47-40.38 10.47s-40.38-4.69-40.38-10.47 18.08-10.48 40.38-10.48 40.38 4.69 40.38 10.48" fill="#7ba541"/>
      <path d="M45.32 53.41s3.8-3.2 6.6-12 3-16.61 1.4-17.21-14.81 15-12.61 26.42M16.6 53.41s-3.8-3.2-6.6-12-3-16.62-1.4-17.22 14.81 15 12.6 26.42" fill="#c7c8ca"/>
      <path d="M42 47.56s1.81-.6 2.86 3.15c0 0 2.31-4.65 2.58-7.36s-2.58-3-5.44 4.21M20.78 47.56S19 47 17.93 50.71c0 0-2.31-4.65-2.58-7.36s2.58-3 5.43 4.21" fill="#f3bdbc"/>
      <path d="M50.84 90.62C50.7 88.4 50.71 81 47.25 81c-2.41 0-3.37 2.16-3.76 4.54-3.55 8-3.2 17.09-4.32 25.71-.44 3.35-.72 7.48 1.76 10 2.12 2.16 6.34.34 8.51-.31 2.34-.7 2-10 2.16-12 .4-6-.39-12.28-.76-18.28M100.84 90.62c-.14-2.22-.13-9.66-3.59-9.65-2.4 0-3.37 2.16-3.75 4.54-3.56 8-3.2 17.09-4.33 25.71-.43 3.35-.71 7.48 1.77 10 2.12 2.16 6.34.34 8.51-.31 2.34-.7 2-10 2.16-12 .4-6-.39-12.28-.77-18.28" fill="#939598"/>
      <path d="M48.54 113.11a25.83 25.83 0 01-6.91.26c-.89-.15-1.76-.36-2.64-.58-.28 3-.16 6.29 1.94 8.44s6.34.34 8.51-.31c1.57-.47 2-4.82 2.07-8.23q-1.48.24-3 .42M94.86 116.25a13 13 0 01-6-.31 8.06 8.06 0 002 5.29c2.12 2.17 6.34.34 8.51-.31 1.26-.38 1.75-3.27 2-6.16a36.19 36.19 0 01-6.54 1.49" fill="#816f65"/>
      <path d="M115.72 77.58c-4.44-2.68-11-.77-14.76-4.34-.22-.22-.36.24-.32.4.86 3.38 4.82 5.21 8 5.81a23.89 23.89 0 015.89 1.48c2.91 1.33 1.46 4.87 1.71 7.34.11 1.12 1.48 1.76 1.6.31 1-3.82 1.94-8.54-2.1-11" fill="#bcbec0"/>
      <path d="M120.14 90.3c-.37-.9-1.9-2.84-2.92-2.56a2.57 2.57 0 00-1.44 1c-2.41.3-3.61 3-3.69 5.21-.15 3.69 3.84 6.58 5.12 9.79.58 1.45 1.75.28 1.76-.78 0-4.1 2.89-8.46 1.17-12.63" fill="#939598"/>
      <path d="M40 58.27s-8 33.45 13.62 41.9 23.3-5.31 43.58 2.18c9.43 3.48 13.46-13.63 9.8-23.13s-17.67-20.15-35-15.7C42.83 71 44.21 58.27 44.21 58.27" fill="#bcbec0"/>
      <path d="M49.28 64.79c-5.54-2.11-5.06-6.52-5.06-6.52H40s-4.35 18.25 2.08 31.19c1.62-3.61 2.48-7.58 3.7-10.42a42.91 42.91 0 003.5-14.25" fill="#a3a5a8"/>
      <path d="M107.35 97c-.14-2.22-.12-9.66-3.59-9.64-2.4 0-3.37 2.15-3.75 4.53-3.55 8-3.2 17.09-4.32 25.72-.44 3.34-.72 7.47 1.76 10 2.12 2.17 6.34.34 8.51-.31 2.34-.7 2-10 2.16-12 .4-6-.39-12.28-.77-18.28" fill="#bcbec0"/>
      <path d="M102.53 121.84c-2.26.27-4.91.48-7.13-.33a8.49 8.49 0 002 6.07c2.12 2.17 6.34.34 8.51-.31 1.32-.4 1.8-3.54 2-6.56a31.58 31.58 0 01-5.41 1.13" fill="#9b8579"/>
      <path d="M59.3 97c-.14-2.22-.13-9.66-3.59-9.64-2.4 0-3.37 2.15-3.75 4.53-3.56 8-3.21 17.09-4.33 25.72-.43 3.34-.72 7.47 1.77 10 2.12 2.17 6.34.34 8.51-.31 2.33-.7 2-10 2.16-12 .4-6-.39-12.28-.77-18.28" fill="#bcbec0"/>
      <path d="M57.82 120.61c-.79.26-1.59.5-2.4.73a22.78 22.78 0 01-4.86.69 12 12 0 01-3.21-.27 8.37 8.37 0 002 5.82c2.12 2.17 6.34.34 8.51-.31 1.32-.4 1.8-3.57 2-6.6a2.83 2.83 0 00-2.07-.06" fill="#9b8579"/>
      <path d="M31.11 44.88c-7.11 0-18.77 3.46-16.82 17.71s7.1 23.56 7.63 27.17 3 8.15 11.37 5.12 9.3-13 11.71-18.65c4.62-10.74 8.46-31.42-13.89-31.35" fill="#d3d3d3"/>
      <path d="M24.38 68.06c-1.7.39-2.58 2.69-1.94 4.2a1.39 1.39 0 00.83.95c.57.15.86-.39 1-.84-.16.46.25-.7.15-.48.08-.18.2-.26.43-.39s.63.18.68.32a3.7 3.7 0 00.6 1.18 2.38 2.38 0 00.52.53c.76.51 1.08-1.59 1-2-.14-1.59-1.42-3.86-3.31-3.41M31.5 67.26c-1.7.39-2.58 2.69-1.94 4.2a1.39 1.39 0 00.83 1c.57.15.86-.39 1-.84-.15.46.25-.7.16-.48.07-.19.19-.27.42-.39s.63.17.68.32a3.7 3.7 0 00.59 1.13 2.38 2.38 0 00.52.53c.77.51 1.08-1.6 1-2-.14-1.59-1.42-3.86-3.31-3.41" fill="#414042"/>
      <path d="M35.6 83.4c-1.19-.78-10 0-10 0-2.8-.4-6.31 4.47-4.16 9.84s16.88 1.71 18-1.68-2.66-7.4-3.84-8.18" fill="#939598"/>
      <path d="M27.81 88.33a1.83 1.83 0 00-1.8-1.8 1.81 1.81 0 00-1.8 1.8c0 .5.08 1 .1 1.5a1.8 1.8 0 003.6 0c0-.5-.09-1-.1-1.5M33.06 88.33a1.8 1.8 0 00-3.6 0c0 .5.08 1 .1 1.5a1.8 1.8 0 103.6 0c0-.5-.09-1-.1-1.5" fill="#414042"/>
    </g>
  </g>
</svg>
