<svg xmlns="http://www.w3.org/2000/svg" viewBox="0 0 144 175">
  <g id="Layer_2" data-name="Layer 2">
    <g id="Layer_1-2" data-name="Layer 1">
      <path fill="#fff" d="M0 0h144v175H0z"/>
      <path d="M58.06 19.94S76 35.81 76.84 35.81s17.62-15.87 17.62-15.87-2.79 36.45-17.62 38.49-23.73-25.61-23.73-25.61" fill="#bd5468"/>
      <path d="M51.86 20.15s2 13.59 1.3 22.5 4.57 19.08 5.66 29.66S31 153.4 35.54 155.48s8.9.41 11.41 3.52 6.27 5.19 11.9 3.53 5.41-4.36 5.62-1.66 1.52 3.25 8.27 2.24 4.78-5.56 11.09-3.28 13 4.56 16.32 1 0-3.32 7.83-3.32 10.65-2.7 10.65-2.7a514.08 514.08 0 00-22.84-74.62c-4.56-11.61 2-18.87 3-24.47a178.09 178.09 0 002.61-23.85c.65-11.2.65-11.72.65-11.72s-7.39-3.42-7.39-2.38S92.32 42 78.26 42.58c-16 .69-19.66-25-19.66-25s-6.92 1.25-6.74 2.58" fill="#cf606e"/>
      <path d="M108 157.55c-3.16.16-11.36-39.2-15.75-50.51s9.54 51.6 7.92 53.83c3.26-3.53 0-3.32 7.83-3.32M52.57 117.93c1-4.82-6.89 16.36-9.93 39A6.16 6.16 0 0147 159c-3.94-3.78 5.62-41.07 5.62-41.07M60.84 161.8c2.44-1.42 7.44-76.13 8.09-65s-4.64 63-4.64 63M77.72 114.16c-2-8.78 1.15 45.53-.87 47.41 2.19-1.55 2.53-3.35 7-1.74 1.09.4 2.2.79 3.3 1.15-3.43-1-7.43-38-9.41-46.82" fill="#bd5468"/>
    </g>
  </g>
</svg>
