<svg xmlns="http://www.w3.org/2000/svg" viewBox="0 0 144 174.97">
  <g id="Layer_2" data-name="Layer 2">
    <g id="Layer_1-2" data-name="Layer 1">
      <path fill="#addedc" d="M0 0h144v174.97H0z"/>
      <path d="M144 175v-64.4c-74.48-32-127.75 2.69-144 15.68V175z" fill="#afd24d"/>
      <path d="M97.93 125.56c0 3.24-10.13 5.87-22.64 5.87s-22.64-2.63-22.64-5.87 10.14-5.87 22.64-5.87 22.64 2.63 22.64 5.87" fill="#7ba541"/>
      <path d="M78.36 118.47c-.17-1.79-.2-3.59-.37-5.37-.18-1.95-.84-4.09-.75-6 0-.31-.28-.91-.58-.45-1.89 2.86-1 7.48-.9 10.69 0 1.12.1 2.23.19 3.35s-2.47 0-3-.18a16 16 0 00-5.58-.65c-1.52.16-1.2 2.69-.36 3.4a4.2 4.2 0 00.51.35c-.62.07-1.23.14-1.84.17-1.52.08-1.29 3.48.24 3.41 3.5-.16 7-.35 10.45-.85a1.23 1.23 0 001-1.3 1.34 1.34 0 00.59-.59c1-1.93.6-3.85.4-6" fill="#ce7c29"/>
      <path d="M87.12 121.05c-.17-1.78-.2-3.58-.37-5.37-.19-1.94-.84-4.09-.75-6 0-.31-.29-.91-.59-.45-1.88 2.87-1 7.48-.9 10.69 0 1.12.1 2.23.2 3.35s-2.48 0-3-.18a16 16 0 00-5.58-.65c-1.51.16-1.19 2.69-.35 3.4a4.2 4.2 0 00.51.35c-.62.07-1.24.14-1.84.17-1.52.08-1.29 3.49.24 3.41 3.5-.16 7-.35 10.45-.84a1.24 1.24 0 001-1.31 1.28 1.28 0 00.59-.58c1-1.94.61-3.86.41-6" fill="#f7941d"/>
      <path d="M104.6 89.45a.71.71 0 00-.85-.32c-3.62 1.19-4.94 3.89-9.3 2.73-3.9-1-7.78-3.07-11.39-4.83-5-2.47-9.91-4.5-15.17-5.17-3.22-1.53-6.17-3.25-8.29-6.26-2.33-3.31-.77-6.72-1.71-10.25a4.57 4.57 0 00-4.14-3.21C51.29 72.51 49.1 83 49.45 93.66a2.25 2.25 0 00.08.24c1.08 8 4.44 15.08 12 19.18a30.71 30.71 0 0021.39 3.22 4.59 4.59 0 002 2.26 1.38 1.38 0 001.59-.34 1.71 1.71 0 00.32-.29 7.35 7.35 0 001.5-2.62 2.77 2.77 0 00.23-.82 31.29 31.29 0 0010.69-7.82c1.1-1.2 6.56-15.35 5.33-17.22" fill="#fff"/>
      <path d="M91.35 85.67c-2.43.52-4.68 1.42-7.18 1.66a30.73 30.73 0 01-7.72-.39 14.41 14.41 0 00-7.22.26c-1.19-.69-3.24.73-4.32 1.65-2.75 2.33-2.37 6.32-1.15 9.31 3.65 9 17.67 4 23-.2 2.57-2 6-5.38 7.2-8.56.89-2.41.24-4.35-2.63-3.73M58.51 73.2c-.63-2.55.1-5.17-.62-7.85a4.57 4.57 0 00-4.14-3.21c-1.08 4.58-2.11 9.16-2.9 13.78-.08.51-.17 1-.25 1.53a17.14 17.14 0 008.93-2 7.11 7.11 0 01-1-2.29" fill="#e6e7e8"/>
      <path d="M59.44 51.58a9.91 9.91 0 00-1.75-1.12 3.69 3.69 0 000-.89c-.31-1.83-1-3.88-.44-5.69.08-.26.1-.74-.25-.81-2.11-.45-3.27 2.25-3.45 3.89a8.29 8.29 0 00.18 2.64 10.8 10.8 0 00-7.91 4.4 20 20 0 00-4.24 11.5A3.09 3.09 0 0042 67a7.62 7.62 0 006.67 8.6 9.42 9.42 0 006.71-1.73l.54-.39c3.3-1.86 5.9-6.24 7-9a10.77 10.77 0 00-3.48-12.82" fill="#fff"/>
      <path d="M47.35 57.83a2.71 2.71 0 00-2.58 2.87 1.21 1.21 0 00.43 1c.42.26.78-.1 1-.42-.24.32.37-.5.24-.35a.62.62 0 01.43-.2c.34-.07.46.29.47.42a2.82 2.82 0 00.19 1 2 2 0 00.28.55c.49.6 1.25-1 1.33-1.34.28-1.3-.19-3.42-1.8-3.53M53.21 58.94a2.7 2.7 0 00-2.57 2.87 1.17 1.17 0 00.42 1c.42.26.78-.1 1-.42-.23.32.37-.5.25-.35a.62.62 0 01.43-.2c.34-.07.46.29.46.42a3.42 3.42 0 00.19 1.05 1.88 1.88 0 00.29.54c.48.6 1.25-1 1.32-1.34.28-1.3-.18-3.42-1.8-3.53" fill="#414042"/>
      <path d="M56 50.25c0-2.29-3-3.71-4.79-4.77a1.28 1.28 0 00-.16-.27.42.42 0 00-.58-.09c-2.32 1.5-2 5.44.13 6.89 1.52 1 5.36.55 5.4-1.76" fill="#fff"/>
      <path d="M40 68.08c2.12-3.33 5.92-1.73 7 0s6.63 1.63 4.08 4.14-15.08 5.43-21.27.88 8.83-2.95 10.15-5" fill="#f7941d"/>
    </g>
  </g>
</svg>
