<svg xmlns="http://www.w3.org/2000/svg" viewBox="0 0 144 174.97">
  <g id="Layer_2" data-name="Layer 2">
    <g id="Layer_1-2" data-name="Layer 1">
      <path fill="#addedc" d="M0 0h144v174.97H0z"/>
      <path d="M144 175v-64.4c-74.48-32-127.75 2.69-144 15.68V175z" fill="#afd24d"/>
      <path d="M86.54 125.56c0 2-5 3.6-11.25 3.6s-11.24-1.61-11.24-3.6 5-3.6 11.24-3.6 11.25 1.61 11.25 3.6" fill="#7ba541"/>
      <path d="M79.41 121.7v-2.35a19.4 19.4 0 01-.2-2.63c0-.13-.11-.4-.25-.21-.87 1.21-.59 3.23-.6 4.63v1.46c0 .46-1.07-.07-1.3-.14a7.19 7.19 0 00-2.42-.4c-.66 0-.57 1.15-.22 1.47a1.84 1.84 0 00.22.17h-.81c-.66 0-.63 1.49 0 1.49 1.52 0 3 0 4.56-.16.29 0 .43-.26.46-.54a.64.64 0 00.27-.24 4.54 4.54 0 00.29-2.58" fill="#ce7c29"/>
      <path d="M91.19 104.7c-3 .13-3.59.45-6.69-1.35-6.47-3.77-14.55-2.31-17 .8a.92.92 0 00-.16.41q-.2-.53-.36-1a3.36 3.36 0 00-.15-.45.51.51 0 000-.48c-.84-1.13-2.23-.43-3 .5a7.8 7.8 0 00-1.53 3.66c.08.3.17.59.28.89-1 4.2 2.67 8.59 6.21 10.61a15.25 15.25 0 004.27 2c.79.18 2 .81 2.74.63.43-.11.83-.2 1.22-.28 4.14-.4 7.68-2.48 10.8-5.54 1-1 9-10.59 3.36-10.34" fill="#dfca44"/>
      <path d="M72.4 104.05a15.45 15.45 0 00.48-2.64 9 9 0 00-5.35 2.74.92.92 0 00-.16.41q-.2-.53-.36-1a2.75 2.75 0 00-.15-.44.53.53 0 000-.49c-.84-1.13-2.23-.43-3 .5a7.8 7.8 0 00-1.53 3.66c.08.3.17.59.28.89a7.06 7.06 0 00.59 4.66c4.53.13 8.15-4.46 9.22-8.24" fill="#c5b33d"/>
      <path d="M67.09 87.43c-3.91-2.27-8.36-.45-10.53 3.06a12.36 12.36 0 00-1.39 3.36 13.73 13.73 0 00-1.59 3.44c-1.65 6.07 2.74 11.71 9 12.58 4.87.67 8.82-4.21 9.94-8.19 1.57-5.6-.25-11.21-5.46-14.25" fill="#f5dd4a"/>
      <path d="M56 96.3a1.85 1.85 0 00-1.37 2.26.82.82 0 00.41.59c.31.12.51-.17.62-.41-.11.25.19-.38.12-.26a.48.48 0 01.27-.2c.22-.08.34.14.37.23a1.88 1.88 0 00.26.68 1.19 1.19 0 00.26.33c.4.34.71-.84.71-1.07 0-.91-.55-2.28-1.65-2.15M61.4 97.38a1.41 1.41 0 00-1.3-.93 1.85 1.85 0 00-1.48 2.46c.12.49.67.78.88.16.15-.44 0-.74.53-.83.21 0 .4-.09.48.08s.12.51.21.76a.41.41 0 00.81 0 2.49 2.49 0 00-.13-1.68" fill="#414042"/>
      <path d="M62.86 87.33c-.35 0-1.42-.23-1.54-.64a10.38 10.38 0 01-.55-2.23c-.07-1.17-1.49-1.74-1.61-.29a15.51 15.51 0 00-.08 1.83 8.81 8.81 0 00-2.66-.76c-.83-.08-1 1.35-.89 1.88a2.62 2.62 0 002.34 2.17 4.05 4.05 0 001.47-.29l1 .51c.48.25.76 0 .92-.39.67 0 1.37-.91 1.73-1.43.07-.11.05-.36-.11-.37M85.74 107.93c-1.8.68-2.64 2.71-4.83 1-1.24-1-2.36-2.27-4-2.49a6.11 6.11 0 00-1.2 0c-2.13-.54-3.57.5-4.3 3.22a5.23 5.23 0 002.68 6.11c4.67 2.61 11.12-.67 12.94-5.3.37-.94.29-3.1-1.27-2.51" fill="#f5dd4a"/>
      <path d="M82.07 123c-.07-.77-.09-1.56-.16-2.34a19.32 19.32 0 01-.32-2.62c0-.13-.13-.39-.26-.19-.82 1.24-.44 3.25-.39 4.64 0 .49 0 1 .08 1.46s-1.07 0-1.31-.08a6.87 6.87 0 00-2.42-.28c-.66.07-.52 1.17-.16 1.48.07.06.15.1.22.15l-.8.08c-.66 0-.56 1.51.11 1.48 1.52-.07 3-.15 4.54-.37.3 0 .42-.28.44-.56a.72.72 0 00.26-.26 4.55 4.55 0 00.17-2.59M55 103c1.44-3.26 4-1.69 4.79 0s4.5 1.6 2.77 4-10.25 5.32-14.46.87 6-2.87 6.9-4.87" fill="#f7941d"/>
    </g>
  </g>
</svg>
