<svg xmlns="http://www.w3.org/2000/svg" viewBox="0 0 144.02 175.04">
  <defs>
    <clipPath id="clip-path">
      <path fill="none" d="M17.17 16.1h107.18v107.18H17.17z"/>
    </clipPath>
  </defs>
  <g id="Layer_2" data-name="Layer 2">
    <g id="Layer_1-2" data-name="Layer 1">
      <path fill="#ffcb6b" d="M.01 0h144v175.04H.01z"/>
      <path d="M38.73 146.83c1.63-5.73 24.39-28.63 27.19-28.76s33.58-2.84 37.46-.6c2.27 1.3 20.12 27.8 15.17 34.24-1.91 2.49-83.28 7.3-79.82-4.88" fill="#42b649"/>
      <path d="M73.88 83.34s-4.79 40.66-2.49 43.47 16.11 1.8 20.12.6-4-48.07-4.61-53.48" fill="#9ccb3b"/>
      <path d="M71.36 54.73c1.88 0 26.7-2.31 28.59-1.24s6.25 14 5.64 17.19-23.45 15.45-35.94 15.5" fill="#359b3e"/>
      <path d="M59.19 59.71c-3 3-7.4 15.13 0 22.23s18.83 4 23.46 0 7.72-17.29 1.54-22.23-20.06-4.93-25 0" fill="#42b649"/>
      <path d="M116.31 83.38c-.68-3.51-31.09-15.49-39.23-17.79 1.92-8.1 6.74-29.74 5.45-37.33-1.61-9.41-21.44-6.81-24.44-4.21-2.7 2.34 2.13 34.67 4.21 42.87-8 2.4-29.13 9-35 14-7.35 6.1 4.82 22 8.57 23.27 3.38 1.17 29-19.18 35-25.09 6.06 5.72 22.39 20.71 29.61 23.39 9 3.32 16.61-15.16 15.86-19.06" fill="#359b3e"/>
      <path d="M92.21 143.43c2 0 4.15-.14 4.15-.55s-.7-2.85-1.45-3-2.65.35-2.7 3.6" fill="#f15a29"/>
      <path d="M97.57 143.43c2 0 4.15-.14 4.15-.55s-.7-2.85-1.45-3-2.66.35-2.7 3.6M103.07 143.18c2 0 4.16-.14 4.16-.55s-.7-2.85-1.45-3-2.66.35-2.71 3.6" fill="#f1f2f2"/>
      <path d="M80.06 71.1a10.42 10.42 0 11-10.41-10.42A10.41 10.41 0 0180.06 71.1" fill="#9ccb3b"/>
      <g clip-path="url(#clip-path)" opacity=".3">
        <path d="M124.36 69.7a53.6 53.6 0 11-53.6-53.6 53.6 53.6 0 0153.6 53.6" fill="#fff"/>
      </g>
    </g>
  </g>
</svg>
