<svg xmlns="http://www.w3.org/2000/svg" viewBox="0 0 144 175">
  <g id="Layer_2" data-name="Layer 2">
    <g id="Layer_1-2" data-name="Layer 1">
      <path fill="#ffd28c" d="M0 0h144v175H0z"/>
      <path d="M63.4 91.58a4.29 4.29 0 11-4.28-4.12 4.21 4.21 0 014.28 4.12M96.1 91.58a4.29 4.29 0 11-4.29-4.12 4.21 4.21 0 014.29 4.12M24.65 132.2s.62-5.33-1.09-6.34-2.45 3.26-1.89 4.85" fill="#fff8d5"/>
      <path d="M112.21 109.55s-.46 2.84.92 3.33-.18-6.74-.92-3.33M113.5 106.44s-.46 2.84.92 3.32-.18-6.74-.92-3.32M114.79 103.33s-.46 2.83.92 3.32-.18-6.74-.92-3.32M116.08 100.22s-.46 2.83.92 3.32-.18-6.74-.92-3.32M117.37 97.1s-.46 2.84.92 3.32-.18-6.74-.92-3.32" fill="#fbb040"/>
      <path d="M116 111.82s-1.69 2.32-3 1.68 4.92-4.61 3-1.68M117.26 108.71s-1.69 2.32-3 1.68 4.92-4.61 3-1.68M118.56 105.61s-1.68 2.32-3 1.67 4.91-4.61 3-1.67M119.87 102.5s-1.69 2.32-3 1.67 4.92-4.61 3-1.67M121.18 99.39s-1.69 2.32-3 1.68 4.91-4.61 3-1.68M128.69 118.27s-1.92 2.14-1 3.29 3.48-5.77 1-3.29M131.45 116.34s-1.92 2.14-1 3.3 3.48-5.78 1-3.3M134.22 114.42s-1.92 2.14-1 3.29 3.48-5.77 1-3.29M137 112.49s-1.92 2.14-1 3.3 3.48-5.77 1-3.3M139.75 110.57s-1.92 2.14-1 3.29 3.49-5.77 1-3.29" fill="#fbb040"/>
      <path d="M130.62 122.2s-2.67 1-3.44-.21 6.63-1.23 3.44.21M133.39 120.29s-2.67 1-3.43-.22 6.62-1.22 3.43.22M136.17 118.37s-2.67 1-3.44-.21 6.63-1.23 3.44.21M139 116.46s-2.68 1-3.44-.21 6.62-1.23 3.44.21M141.72 114.55s-2.68 1-3.44-.21 6.63-1.23 3.44.21M121.17 113.48s-1.47 2.46-.37 3.42 2.33-6.33.37-3.42M123.53 111.06s-1.48 2.46-.37 3.43 2.32-6.33.37-3.43M125.88 108.65s-1.48 2.46-.37 3.42 2.32-6.32.37-3.42M128.23 106.24s-1.48 2.45-.37 3.42 2.33-6.32.37-3.42M130.58 103.82s-1.48 2.46-.37 3.43 2.32-6.33.37-3.43" fill="#fbb040"/>
      <path d="M123.82 117s-2.43 1.53-3.42.44 6.28-2.46 3.42-.44M126.18 114.57s-2.43 1.53-3.41.44 6.27-2.46 3.41-.44M128.54 112.16s-2.42 1.53-3.41.45 6.27-2.47 3.41-.45M130.91 109.76s-2.43 1.53-3.42.44 6.28-2.46 3.42-.44M133.27 107.36s-2.43 1.53-3.42.44 6.28-2.46 3.42-.44" fill="#fbb040"/>
      <path d="M68.7 115.71s-3.11-4.23-2-4.32 8.61 1.16 9.36 1 8.83-2.39 9.19-1.39-3.85 4-3.85 4" fill="#f15a29"/>
      <path d="M102.42 175c-1.69-21.77-7.46-60.22-27.07-59.6S50 153.58 48.29 175z" fill="#f15a29"/>
      <path d="M58.89 71.78s-1 33.92 1.4 36.1 27.95 3.49 30.4-2.61 1-30.87 0-33.49-31.73-3.51-31.8 0" fill="#fff8d5"/>
      <path d="M102.74 175c-.47-4-1.08-8.13-1.08-8.13-8.27-1.11-11.29-14-12.23-15s-28.5 0-28.5 0a20.2 20.2 0 01-11.58 12.72L48.16 175z" fill="#726658"/>
      <path d="M77.79 120.7c22.83 2.9 67.31 43 11.31 37.39M70.46 121.75C48.9 131.67 40 151.46 21 134.43" fill="none" stroke="#fff8d5" stroke-miterlimit="10" stroke-width="9.68"/>
      <path d="M44.26 131.74s8.09 7.26 10.19 7.82 23.34-11.45 23.34-11.45 14.57 4.65 16.44 4.91 7.17-10.5 6.76-11.27-12.14-7.62-25.77-7.48-31 17.47-31 17.47" fill="#f15a29"/>
      <path d="M61.72 153.54s1.14-35.61 1.41-35.75 4-3.18 5.43-2.3 0 37.63 0 37.63M82.26 153.54s-1.09-38.73-.81-38.87a12.45 12.45 0 015.42 1c1.41.88 2.23 37.45 2.23 37.45" fill="#726658"/>
      <path d="M72.75 109.7v4.94c0 .25 1.85 2.57 2.44 2.37a7.86 7.86 0 002.44-2.32c.21-.5.54-5.33.54-5.33" fill="#fff8d5"/>
      <path d="M103.17 175l7.64-23.54s26.46-23.73 25.53-24.53-11.74 4.76-11.74 4.76 11.18-10.3 10.25-11-13.32 6.23-13.32 6.23 10-11.69 8.66-12.66-14 6.43-14 6.43 9.32-13.47 5.78-12.54-11.2 11.85-11.2 11.85 1.69-9.19 0-11.78c-2-3.17-20.63 45.37-20.63 45.37L79.07 175z" fill="#fbb040"/>
      <path d="M114 155.2c-6.23 5.14-17.58 3.63-24.87 2.89" fill="none" stroke="#fff8d5" stroke-miterlimit="10" stroke-width="9.68"/>
      <path d="M91.07 153.54s1.39-3.55-1.4-3.55-1.54 3.55-1.54 3.55-3.31-4.19-5.92-1.78-1.34 14 9.84 10.94" fill="#fff8d5"/>
      <path d="M25.24 175L23.58 62l-2.89 1s-.38 100.13.18 112z" fill="#a97c50"/>
      <path d="M21.49 130.15s2.05 10.52 0 12.11-6.9-3.54-5.32-8.48 4.73-7.37 5.32-3.63" fill="#fff8d5"/>
      <path d="M24.06 63.81c14.26-.63 14.66-14.87 13.83-20.68-2.37-16.76.7-15.23 1.54-14.25s13 39.68-15.14 40.24S3.57 39.9 5.2 28.88c.56-3.77 4.19-3.07 2.79 8.38S5.2 64.65 24.06 63.81" fill="#78909c"/>
      <path d="M20.39 66.39s-.8-39.17 3.15-39.56.78 38.33 1 39.89M19.85 68.28s-1.81 7.55 0 8.39 5.41 1 6.62-.84S25.3 67 25.3 67" fill="#78909c"/>
      <path d="M73.51 92.22c0 2.45-1.4 4.44-3.13 4.44s-3.12-2-3.12-4.44 1.4-4.44 3.12-4.44 3.13 2 3.13 4.44" fill="#fff"/>
      <path d="M71.17 92.51c-.61 0-1.13.55-1.35 1.34a.93.93 0 010 1.85c.25.73.74 1.23 1.32 1.23.81 0 1.46-1 1.46-2.21s-.65-2.21-1.46-2.21" fill="#58595b"/>
      <path d="M83.61 92.22c0 2.45-1.4 4.44-3.13 4.44s-3.13-2-3.13-4.44 1.4-4.44 3.13-4.44 3.13 2 3.13 4.44" fill="#fff"/>
      <path d="M81.37 92.85c-.61 0-1.13.56-1.35 1.34a.93.93 0 010 1.85c.24.73.73 1.23 1.31 1.23.81 0 1.47-1 1.47-2.21s-.66-2.21-1.47-2.21" fill="#58595b"/>
      <path d="M72.39 102.4s-1.25 4.92 2.47 5.24 3.14-5.56 3.14-5.56z" fill="#a85f40"/>
      <path d="M74.86 107.64a2.34 2.34 0 002.24-1 3.23 3.23 0 00-2.72-1.52 3.14 3.14 0 00-1.94.67 2.6 2.6 0 002.42 1.82" fill="#f68b5f"/>
      <path d="M91.81 82.33s-1.87 4.92-4.93 5.45-.43-4.8-.43-4.8-6.14 9.16-13.13 9.58 0-5.31 0-5.31S67 92 63.68 90.6s3.85-7.6 3.85-7.6-9.89 4.5-12.14 3.39 3.28-4 3.28-4" fill="#fbb040"/>
      <path d="M58.67 85.9s-.48 14.67.45 15.25 2.79-.44 3-1.46 0-15 0-15M88.55 84.69s-1.58 14.44 0 15.37 3.21.39 3.26-.93.65-14.71 0-17.5" fill="#fbb040"/>
      <path d="M111.27 77.61c0 3.09-15.34 5.59-34.27 5.59s-34.28-2.5-34.28-5.59S58.07 72 77 72s34.27 2.5 34.27 5.59" fill="#a97c50"/>
      <path d="M58.75 77.61s29.34 1.68 34 .66c0 0 5.78-27.86-20-26.56-22.29 1.13-14 25.9-14 25.9" fill="#c49a6c"/>
      <path d="M75.1 101.32s-2.27 2.51-5.28 1.81 1.6-3 5.28-2.84 9.45 1.79 4.7 2.95c-2 .48-4.7-1.92-4.7-1.92" fill="#fbb040"/>
      <path d="M75.38 92.66c-1 .22-2.06 7.45-1.45 7.81s3.41.18 3.55-.36-1.48-7.59-2.1-7.45" fill="#fdddc1"/>
    </g>
  </g>
</svg>
