<svg xmlns="http://www.w3.org/2000/svg" viewBox="0 0 144 163.18">
  <g id="Layer_2" data-name="Layer 2">
    <g id="Layer_1-2" data-name="Layer 1">
      <path fill="#8ad5e7" d="M0 0h144v121.32H0z"/>
      <path d="M141.71 96.49V61.84h-3.06V56h-11.21v6.88h-8.66v35.65h-4.08V67.7h-25v46.37h-3.28V56H64.77v28.26h-3.06v-9.17H39v29.56h-3.53V39.42h-2.55v-7.13H20.69v7.64H7.7V96H4.13V56.24H0v65l144-.05v-24.7z" fill="#6aa4b3"/>
      <path fill="#a7a9ac" d="M0 110.06h144v53.12H0z"/>
      <path fill="#414042" d="M35.56 82.47h46.8v26.76h-46.8z"/>
      <path d="M76.87 91.73a7 7 0 11-8.36-5.28 7 7 0 018.36 5.28" fill="#e6e7e8"/>
      <path d="M127.69 111.47c-.57-.26-.91-2.49-1.53-2.64l-6.42-28.9H90.08L84.6 93.27v35h43.09z" fill="#ed1c24"/>
      <path d="M125.52 106.54v21.68h3.1v-14.7a9.41 9.41 0 00-3.1-7" fill="#ed1c24"/>
      <path d="M72.56 92.71a2.57 2.57 0 11-3.08-1.95 2.57 2.57 0 013.08 1.95" fill="#58595b"/>
      <path fill="#ed1c24" d="M14.44 93.27v34.95h70.15V93.27H14.44zM118 80a4.88 4.88 0 00-4.89-4.89V80z"/>
      <path d="M19.23 128.22a3.06 3.06 0 01-3.06 3.06h-3.45a3.06 3.06 0 110-6.12h3.45a3.06 3.06 0 013.06 3.06M134.42 128.22a3.06 3.06 0 01-3.06 3.06h-3.45a3.06 3.06 0 010-6.12h3.45a3.06 3.06 0 013.06 3.06M48 128.22a10.64 10.64 0 11-10.64-10.64A10.64 10.64 0 0148 128.22" fill="#414042"/>
      <path d="M41.7 128.22a4.34 4.34 0 11-4.34-4.34 4.34 4.34 0 014.34 4.34" fill="#fffef2"/>
      <path d="M121.75 128.22a10.64 10.64 0 11-10.64-10.64 10.64 10.64 0 0110.64 10.64" fill="#414042"/>
      <path d="M115.45 128.22a4.34 4.34 0 11-4.34-4.34 4.34 4.34 0 014.34 4.34" fill="#fffef2"/>
      <path d="M131.33 114.5a1.41 1.41 0 00-1.35 1 3.17 3.17 0 000 6.32 1.41 1.41 0 002.76-.42v-5.49a1.41 1.41 0 00-1.41-1.41" fill="#414042"/>
      <path d="M80.78 98.88h-67a1.32 1.32 0 000 2.64h67a1.32 1.32 0 000-2.64M80.78 111.85h-67a1.33 1.33 0 000 2.65h67a1.33 1.33 0 000-2.65" fill="#f1f2f2"/>
      <path fill="#f1f2f2" d="M15.76 100.2h2.65v12.97h-2.65zM25.9 100.2h2.64v12.97H25.9zM36.04 100.2h2.65v12.97h-2.65zM46.18 100.2h2.64v12.97h-2.64zM56.32 100.2h2.65v12.97h-2.65zM66.46 100.2h2.64v12.97h-2.64zM76.6 100.2h2.65v12.97H76.6z"/>
      <path fill="#27aae1" d="M113.56 102.74h7.4l-4.14-18.93h-3.26v18.93zM111.19 83.81H92.57l-4.19 10.21v8.72h22.81V83.81z"/>
      <path d="M11 115.83a1.41 1.41 0 011.35 1 3.18 3.18 0 010 6.33 1.42 1.42 0 01-2.77-.42v-5.49a1.43 1.43 0 011.42-1.42" fill="#414042"/>
      <path transform="rotate(-12.7 63.048 89.074)" fill="#e6e7e8" d="M57.14 87.72h11.81v2.65H57.14z"/>
      <path fill="#ed1c24" d="M53.21 91.84l4.36-.21-.58-2.58-4.03 1.68.25 1.11z"/>
    </g>
  </g>
</svg>
