<svg xmlns="http://www.w3.org/2000/svg" viewBox="0 0 144 175.08">
  <g id="Layer_2" data-name="Layer 2">
    <g id="Layer_1-2" data-name="Layer 1">
      <path fill="#afe1ef" d="M.17 0h143.84v175H.17z"/>
      <path d="M144 19h-25.15S114.5 80 115 83.52 89.14 86 89.14 86V5.46s-45.77-2.58-48.2 0-1.44 79.29-3.44 79.18-37.5 0-37.5 0v90.44h144z" fill="#98c4d1"/>
      <path fill="#78909c" d="M0 167.06h144v8.02H0z"/>
      <path d="M42.26 102.35s-3.07-5-2.7-5.18 8.16 2.16 9.87 1.91 9.21-1.92 9.3-1-3.38 3.92-3.38 3.92" fill="#fcf063"/>
      <path d="M29.69 57c.25-1 4.11-13 5.6-15S45.37 37.51 47 37.69s13.65 3.25 14.79 4.75 5.41 19.13 5.41 19.13" fill="#f15a29"/>
      <path d="M39.46 52.58s.58-15.68 1-16.21a23.57 23.57 0 015.45-2.55c.53 0 6 2.2 6.69 2.9s1.29 15.56 1.29 15.56-7.62 5.4-10.26 5.12" fill="#d34f23"/>
      <path d="M49 51.7c-11.46-.7-30.76 6.6-26.84 16.69S43.61 90 51.54 87.61s25.38-15.13 23.92-22.13S61.15 52.46 49 51.7" fill="#bd461e"/>
      <path d="M22.45 156.24s-8.83-15.8-5.71-25c3.6-10.56 18-23.38 31.09-24.81 30.47-3.31 32.53 49.78 59.58 21.05" fill="none" stroke="#ffeac5" stroke-miterlimit="10" stroke-width="8.53"/>
      <path d="M74.35 175c.81-8.79 5.8-73.71-24.94-74.06-20.76-.24-22.71 40.15-22 74.06z" fill="#f15a29"/>
      <path d="M61.89 60.43c-2.12-.93-4.22-2-6.35-3l-22.95 2.75S31.83 93.25 34 95.33c1.69 1.65 26.53 2.79 28.51.24C64.73 92.67 64.58 69 64.73 64c-1.63-1.49-1.35-1.82-2.84-3.56" fill="#fff8d5"/>
      <path d="M38 73.55a5.38 5.38 0 11-5.38-5.47A5.42 5.42 0 0138 73.55M70.07 73.55a5.38 5.38 0 11-5.37-5.47 5.42 5.42 0 015.37 5.47" fill="#fff8d5"/>
      <path d="M47 76c0 3.12-1.68 5.65-3.75 5.65s-3.79-2.51-3.79-5.65 1.68-5.66 3.76-5.66S47 72.89 47 76M57.66 76c0 3.12-1.68 5.65-3.75 5.65s-3.76-2.51-3.76-5.65 1.68-5.66 3.76-5.66 3.75 2.53 3.75 5.66" fill="#fff"/>
      <path d="M52.62 86.86s.46 6.66-3.57 6.63c-4.48 0-4.5-6.07-4.5-6.07z" fill="#bb725c"/>
      <path d="M49.05 93.49a2.94 2.94 0 002.73-1.75 4.58 4.58 0 00-3.09-1.13 4.67 4.67 0 00-3 1 3.82 3.82 0 003.33 1.86" fill="#e28a6e"/>
      <path d="M48.28 77.14c-.85.15-3 6.89-.69 7.82s3.08 0 3-2-1.07-6-2.33-5.82" fill="#fdcba4"/>
      <path d="M47.07 101.42c-2.47.37-32.72 4.41-38.51 33.36-.71 3.52 3.51 19.17 5.62 18.82s12-7.91 11.61-8.79S23 134.25 23 132.32s4.3-12.14 16.48-15.66M52.55 101.72c20.67 0 30.36 19.69 34.06 23.91s13.59 1.93 15.56-1c1.1-1.65 6.34 9.89 6.47 10.42s-4.22 9.1-16.1 8.57-22.27-20.91-22.27-20.91" fill="#f15a29"/>
      <path d="M61.85 151.55s-.89 9.53-.27 10.14 7.4 1.14 8-.7 1.14-9 0-9.44-7.67-1.07-7.74 0" fill="#d34f23"/>
      <path d="M61.85 151.55s3 4 3.43 4 5-3.81 4.31-4-7-1.43-7.74 0" fill="#bd461e"/>
      <path d="M39.73 151.75s.43 9.56-.22 10.14-7.44.78-8-1.09-.7-9.06.46-9.42 7.71-.7 7.73.37" fill="#d34f23"/>
      <path d="M39.73 151.75s-3.18 3.83-3.62 3.81-4.78-4.05-4.11-4.18 7-1.09 7.73.37" fill="#bd461e"/>
      <path d="M14.92 119.73c3 2.67 7.37 6.49 9.79 8.19a23.47 23.47 0 014-5.1c-2-1.7-6.62-5.13-10.06-7.62a36.55 36.55 0 00-3.75 4.53M9.46 142.3c.43 1.9 1 3.87 1.56 5.62 3.44-1.57 10.84-5 13.75-6.86-.46-1.84-1-4-1.34-5.79a1.32 1.32 0 00-.77-.25c-1 .06-8.64 4.56-13.2 7.28M86.61 125.63c-.78-.89-1.83-2.47-3.19-4.41-2.33 2.92-6.36 8.57-8.44 11.51a42.51 42.51 0 003.83 4.1c1.49-1.67 6-6.7 8.81-10.32a5.28 5.28 0 01-1-.88M93.79 127.92c.56 2.78 3.22 11.08 4.54 15.13a16.86 16.86 0 005.24-2.25c-.82-3.93-2.44-11.45-3.55-14.51a15.75 15.75 0 01-6.23 1.63M28.56 136.81c-.2 1.79-.37 3.61-.52 5.46 7.29.22 36.7 1.08 46.58.84-.17-2.15-.39-4.32-.67-6.49-9.69-.19-36.7.09-45.39.19M74.35 175c.07-.81.18-2.09.3-3.77-9.51-.23-40.24.12-47.35.2q0 1.8.06 3.57z" fill="#fcf063"/>
      <path d="M49.56 102.51c-.14 24.35-.14 48.35 0 72.22" fill="none" stroke="#cd4d22" stroke-miterlimit="10" stroke-width="1.05"/>
      <path d="M46.77 116.25c0 .2-.46 1.85.3 2.12s5.7.33 5.77-.39.48-1.55-.29-1.73-5.69-.49-5.78 0M46.77 131.3c0 .21-.46 1.86.3 2.12s5.7.34 5.77-.39.48-1.55-.29-1.73-5.69-.48-5.78 0M46.77 146.36c0 .21-.46 1.86.3 2.12s5.7.34 5.77-.39.48-1.55-.29-1.73-5.69-.48-5.78 0M46.77 161.42c0 .21-.46 1.85.3 2.12s5.7.33 5.77-.39.48-1.55-.29-1.73-5.69-.49-5.78 0" fill="#fff"/>
      <path d="M14.48 175c7-25 54-14.19 89.09-41.43-.86-2.61-4.59-3.14-5.55-5.8-37.4 26.34-81 16-94.13 47.23z" fill="#6e848f"/>
      <path d="M18.41 157.29s1 6.12 3.12 7.83 8.16-2.19 9.28-4.79-4-7.83-6-7.12" fill="#ffeac5"/>
      <path d="M27.25 154.33l1.82-.78a2.51 2.51 0 00-3.47-1.2c-2.55 1-2 4.78-1.78 5.15" fill="#ffeac5"/>
      <path d="M98 126.17c-.26 1.43 4.57 8.29 7.41 7.21s14.5-16.08 14.33-16.44-1.79-2.35-2.31-2.38S98.62 123 98 126.17" fill="#78909c"/>
      <path d="M108.47 129.91a3.68 3.68 0 012.56-4.86c3.89-1.23 5.12 0 5.36.85s1.15 4.07-7.54 5.19M105 120.85s1.44 1.72 3 .77-.18-4.25-2.93-3-1.92 3.17-1.92 3.17" fill="#ffeac5"/>
      <path d="M119.77 116.94s1.55.74 2-.6-2.89-4.67-4-3.65-.38 1.87-.38 1.87M98.45 125.38a2.1 2.1 0 00-2.79 1.14c-1 2 7.48 9.14 9.42 8.62a1.67 1.67 0 001.24-2.3" fill="#78909c"/>
      <path d="M38.72 41.07c0 1.45 3.52 8.75 8 9.68a13.88 13.88 0 007.69-9.68s-6.64-.92-8.14-4.61c0 0-1.76 3.69-7.52 4.61" fill="#fbb040"/>
      <path d="M27.9 66.8s21.84-13.06 40.64.66c0 0-4-13.59-22.82-14.52S26.74 65.87 27.9 66.8" fill="#bd461e"/>
      <path d="M45.87 67.87c.11.45-1 1.08-2.47 1.41s-2.74.24-2.84-.21 1-1.08 2.47-1.42 2.74-.23 2.84.22M56.58 69c-.09.45-1.36.58-2.83.3s-2.6-.89-2.51-1.34 1.35-.59 2.83-.3 2.6.89 2.51 1.34" fill="#d59636"/>
      <path d="M42.26 102.35c.53.61 8.84 5 13.22-.49 0 0-2.92-2.71-10.93-1.9" fill="#fcf063"/>
      <path d="M33.13 60.09c-2.63-3 4.06-2.25 4.06-2.25s-2.74-5.75-1-7.87 12.61 6.41 12.61 6.41.83-4.88 3.29-.92c8.81 14.14-16.29 7.59-18.92 4.63M29.4 66s-.55 5.41 1.7 7.16 3.18-9.24 3.18-9.24M61.71 63.62s.29 9.71 2.39 10.84 3.09-7.93 3.09-7.93" fill="#fbb040"/>
      <path d="M55.55 72c-.58 0-1.08.53-1.3 1.29a.89.89 0 010 1.77c.23.7.71 1.19 1.26 1.19.78 0 1.41-1 1.41-2.12S56.33 72 55.55 72M44.83 72c-.58 0-1.08.53-1.29 1.29a.89.89 0 010 1.77c.24.7.71 1.19 1.26 1.19.78 0 1.41-1 1.41-2.12S45.61 72 44.83 72" fill="#58595b"/>
      <path d="M121.87 110.92s2-10.5 5.36-12.5 3 3.31 3 3.31 6-8.31 9.83-9.65-1.5 10.3-8.33 14.23c0 0 4.5-1.6 6.5 0s-19 11.11-16.36 4.61" fill="#27aae1"/>
      <path d="M46.62 95.82s.2 4.77.2 5.14v.36c0 .27 1.92 2.68 2.54 2.47a8.37 8.37 0 002.54-2.41c.22-.53.57-5.56.57-5.56" fill="#fff8d5"/>
    </g>
  </g>
</svg>
