<svg xmlns="http://www.w3.org/2000/svg" viewBox="0 0 144 175">
  <g id="Layer_2" data-name="Layer 2">
    <g id="Layer_1-2" data-name="Layer 1">
      <path fill="#ffcb6b" d="M0 0h144v175H0z"/>
      <path d="M94.79 39.08c-4-.06-7.46 3.35-9.18 5.28-3.6 4-5 9-5.9 14.22a60.52 60.52 0 00.12 19.78 91.28 91.28 0 01.84 18.09 36.4 36.4 0 01-.84 5.79c-.41 1.91-4.29 13.55-5.26 17.69-1.53 6.46 1 13.08 8.23 15.57 6.77 2.31 13.13.74 17.45-5.67 3.14-4.66 4.47-10.63 5.42-16 1.21-6.92 3.6-12.9 6.21-19.39 3-7.34 7.47-14.18 8.61-22.17.55-3.81 1-7-.22-11.21a36.94 36.94 0 00-3.39-8.2 28.11 28.11 0 00-11.26-11 18.05 18.05 0 00-10.83-2.72" fill="#ef4136"/>
      <path d="M93.49 51.42c.18 1.1 1.44 2.31 1.77 3.54.49 1.79 0 2.31-1.53 3.18a41.42 41.42 0 00-10.87 8.44c-3.45 3.88-5.71 7.68-6.57 12.85-.82 4.9 1.37 10 3.43 14.24a18 18 0 011.83 6.21c.17 1.63-.44 3.44 0 5 2.86.07 4.67-3.74 4.74-6.11a15 15 0 00-1.38-6 34.65 34.65 0 01-2-7.81 19.62 19.62 0 016.81-17.15c1.82-1.55 4.84-4.27 7.28-4.63 3-.45 4.63 2.88 5.75 5.09 2.3 4.57 3.53 7.75 5.4 12 1.43 3.2 2.55 8.13 2 11.65s-1.26 4.85-4.12 6.74a6.91 6.91 0 00-3.33 6.34c0 1 .68 3.69 1.88 3.36.63-.16 1.35-2.34 1.66-2.87a29.76 29.76 0 013.41-4.11c2.25-2.67 4.92-5.38 6.1-8.74 1.41-4.07.63-9-.37-13-1.17-4.71-3.86-8.28-6.17-12.51a32.34 32.34 0 00-6.09-8.13c-.76-.65-1.68-1-2.46-1.59A7.28 7.28 0 0198.8 55c-1-1.49-3.28-4.16-5.31-3.53" fill="#8dc63f"/>
      <path d="M45.76 35.13c4-.06 7.46 3.36 9.18 5.28 3.6 4 5 9 5.9 14.23a60.46 60.46 0 01-.12 19.77 91.38 91.38 0 00-.84 18.1 35.61 35.61 0 00.84 5.79c.41 1.9 4.28 13.54 5.28 17.7 1.53 6.46-1 13.09-8.23 15.58-6.78 2.31-13.13.73-17.45-5.68-3.14-4.66-4.47-10.62-5.42-16-1.21-6.93-3.6-12.91-6.21-19.4-3-7.33-7.47-14.17-8.61-22.17-.55-3.81-1-7 .22-11.2a37.19 37.19 0 013.38-8.2 28.29 28.29 0 0111.27-11 18.05 18.05 0 0110.83-2.72" fill="#ef4136"/>
      <path d="M47.06 47.47c-.18 1.11-1.44 2.31-1.77 3.54-.49 1.79 0 2.31 1.53 3.19a41.59 41.59 0 0110.87 8.43c3.45 3.88 5.71 7.69 6.57 12.85.82 4.9-1.37 10-3.43 14.24A18.1 18.1 0 0059 95.94c-.17 1.62.43 3.43 0 5-2.86.07-4.67-3.73-4.75-6.1a15.17 15.17 0 011.39-6A34.19 34.19 0 0057.62 81a19.62 19.62 0 00-6.8-17.15C49 62.3 46 59.58 43.54 59.21c-3-.45-4.63 2.89-5.75 5.1-2.3 4.57-3.53 7.74-5.4 12-1.43 3.21-2.55 8.13-2 11.65.48 3.37 1.26 4.86 4.11 6.75a6.9 6.9 0 013.39 6.38c-.05 1-.68 3.68-1.88 3.36-.63-.17-1.35-2.35-1.66-2.88a29.76 29.76 0 00-3.41-4.11c-2.25-2.66-4.92-5.37-6.1-8.74-1.41-4.06-.63-9 .37-13C26.33 71 29 67.4 31.34 63.17A32.34 32.34 0 0137.43 55c.76-.64 1.68-1 2.46-1.59A7.28 7.28 0 0041.75 51c1-1.48 3.28-4.16 5.31-3.53" fill="#8dc63f"/>
    </g>
  </g>
</svg>
