<svg xmlns="http://www.w3.org/2000/svg" viewBox="0 0 144 175">
  <g id="Layer_2" data-name="Layer 2">
    <g id="Layer_1-2" data-name="Layer 1">
      <path fill="#fff" d="M0 0h144v175H0z"/>
      <path d="M66.09 122.19c7.62-13.26 4.24-19.59 1.41-29.39s-3.3-11.47-5.09-16.89-5.47-6.69-4.06-9.56 5.57-2.87 9.81 3.27 5.57 9.4 7.26 11.55 2.55-1.28 3.77-5.5 5.85-21 7.55-25.25 5.94-3.67 7.35-1.36S93.24 57 91.73 62s-3.2 9.4-1.6 6.53 7.73-17.21 9.52-20.16 7.36-3.42 6.8.41-4.72 17.36-5.66 20.71-1 3.26 1.22.08 3.42-9.82 7-14.84 6.67-3.71 7.52-1.88-2.13 7.9-5.08 16c-2.35 6.32-6.45 12.8-2.45 9.05s3.43-12.92 6.16-15.55 4.17-2.56 5-1.13-.38 3.51-1.76 12c-1.33 8.23-5.65 10.22-9.23 17.39s-3.49 7.65-6.88 12.9-1.89 7.81-3 10.68-2.83 6.93-2.83 10.19-.66 8-14 4.15-17.41-4.53-16.37-6.34" fill="#6d6e71"/>
      <path d="M87 119.49c-9.88-2.89-15.15-4.19-17.27-5.32a39.11 39.11 0 01-3.6 8c-1 1.8 2.92 2.48 16.31 6.38s14-.88 14-4.15a14.76 14.76 0 01.45-3.32 31.26 31.26 0 01-9.89-1.59" fill="#58595b"/>
      <path d="M77.92 130.13c-7.63-13.27-4.25-19.6-1.42-29.4s3.3-11.47 5.09-16.89 5.47-6.69 4.06-9.56-5.56-2.86-9.81 3.27S70.28 87 68.58 89.1s-2.58-1.28-3.77-5.49-5.85-21-7.54-25.26-5.94-3.66-7.36-1.35.85 8 2.36 12.9 3.21 9.4 1.6 6.53-7.73-17.2-9.52-20.15-7.35-3.43-6.79.4S42.27 74 43.22 77.39s.94 3.27-1.23.08-3.41-9.82-7-14.84-6.67-3.71-7.52-1.88 2.13 7.9 5.09 16C34.9 83.11 39 89.58 35 85.83s-3.42-12.92-6.16-15.55-4.17-2.56-5-1.13.37 3.51 1.75 12c1.33 8.23 5.65 10.22 9.23 17.39s3.49 7.65 6.89 12.91 1.88 7.8 3 10.67 2.83 6.93 2.83 10.2.65 8 14 4.14 17.35-4.57 16.32-6.37" fill="#808285"/>
      <path d="M57 127.42c9.88-2.88 15.16-4.19 17.27-5.32a39 39 0 003.61 8c1 1.8-2.93 2.47-16.32 6.37s-14-.88-14-4.14a14.32 14.32 0 00-.46-3.33 31.26 31.26 0 009.9-1.58" fill="#6d6e71"/>
    </g>
  </g>
</svg>
