<svg xmlns="http://www.w3.org/2000/svg" viewBox="0 0 144 174.97">
  <g id="Layer_2" data-name="Layer 2">
    <g id="Layer_1-2" data-name="Layer 1">
      <path fill="#addedc" d="M0 0h144v174.97H0z"/>
      <path d="M144 175v-64.4c-74.48-32-127.75 2.69-144 15.68V175z" fill="#afd24d"/>
      <path d="M121.46 125.56c0 6.61-20.67 12-46.17 12s-46.16-5.36-46.16-12 20.66-12 46.16-12 46.17 5.36 46.17 12" fill="#7ba541"/>
      <path d="M93.58 100.18c-.11-1.64-.1-7.16-2.67-7.15-1.78 0-2.5 1.6-2.78 3.37-2.64 5.89-2.38 12.67-3.21 19.06-.32 2.48-.53 5.54 1.31 7.43 1.57 1.6 4.7.25 6.31-.24s1.51-7.44 1.6-8.91c.3-4.45-.28-9.11-.56-13.56" fill="#a29287"/>
      <path d="M90 118.62a11.68 11.68 0 01-5.29-.24 6.34 6.34 0 001.52 4.51c1.57 1.6 4.7.25 6.31-.24 1-.29 1.33-2.63 1.47-4.87a22 22 0 01-4 .84" fill="#8f7b70"/>
      <path d="M57.94 100.18c-.11-1.64-.1-7.16-2.66-7.15-1.79 0-2.5 1.6-2.79 3.37-2.63 5.89-2.37 12.67-3.2 19.06-.33 2.48-.54 5.54 1.3 7.43 1.58 1.6 4.71.25 6.32-.24s1.5-7.44 1.6-8.91c.29-4.45-.29-9.11-.57-13.56" fill="#a29287"/>
      <path d="M56.84 117.72l-1.78.53a16.91 16.91 0 01-3.61.52 9 9 0 01-2.37-.2 6.21 6.21 0 001.51 4.32c1.58 1.6 4.71.25 6.32-.24 1-.29 1.33-2.64 1.47-4.89a2.06 2.06 0 00-1.54 0" fill="#8f7b70"/>
      <path d="M100.22 104.57c-.1-1.65-.1-7.16-2.66-7.15-1.79 0-2.5 1.59-2.79 3.36-2.63 5.9-2.37 12.67-3.2 19.07-.33 2.48-.54 5.54 1.31 7.42 1.57 1.61 4.7.25 6.31-.23s1.5-7.44 1.6-8.91c.3-4.46-.29-9.11-.57-13.56" fill="#c7b2a4"/>
      <path d="M96.64 123a11.69 11.69 0 01-5.29-.24 6.32 6.32 0 001.53 4.5c1.57 1.61 4.7.25 6.31-.23 1-.3 1.33-2.63 1.47-4.87a23.21 23.21 0 01-4 .84" fill="#9b8579"/>
      <path d="M64.58 104.57c-.1-1.65-.09-7.16-2.66-7.15-1.78 0-2.5 1.59-2.78 3.36-2.64 5.9-2.38 12.67-3.21 19.07-.32 2.48-.53 5.54 1.31 7.42 1.57 1.61 4.7.25 6.31-.23s1.5-7.44 1.6-8.91c.3-4.46-.29-9.11-.57-13.56" fill="#c7b2a4"/>
      <path d="M63.49 122.1c-.59.19-1.19.37-1.78.54a17.66 17.66 0 01-3.61.52 8.69 8.69 0 01-2.38-.21 6.2 6.2 0 001.52 4.32c1.57 1.61 4.7.25 6.31-.23 1-.3 1.33-2.65 1.47-4.9a2.08 2.08 0 00-1.53 0" fill="#9b8579"/>
      <path d="M117.46 87.35c.51-2.23 1.14-4.46 1.66-6.71.13-2.37.15-4.75.29-7.09a24.69 24.69 0 00-.32-6.57c-1.38-3.93-4.21-7.2-8.5-8.13a28.51 28.51 0 00-6.25-.13 50.47 50.47 0 00-9 2.35c-4.49 1.5-9.06 3.37-13.8 3.87-4.28.45-8.33-.83-12.34-2.23-6.46-2.24-14.67-5.73-21-3.32a2.65 2.65 0 00-.37.65 1.68 1.68 0 00-.37-.34 11.49 11.49 0 00-2.28 1.42c-1.3 2.26-1.39 5-1.57 7.69-.17 2.45-.67 6.36.24 9a19.83 19.83 0 000 3.79 19.25 19.25 0 003.4 9.25 53.18 53.18 0 001.41 7.06c.5 2 1.93 7.31 5 6.44a5.81 5.81 0 003.44-3c.58 4.3 1 9.67 4.58 10.39 2.89.58 4.45-2.25 5.5-4.9 2 3.13 2.82 7.52 7.18 8 3.13.35 5.58-2.94 7.33-6.34h1.23c.76 2.58 2.08 4.84 4.28 4.78 3.08-.09 4.42-3.55 6.32-5.87l.39-.07c.53 2.78 1.44 5.44 4.75 5.58 1.61.07 2.5-1.89 3-3.06.92-2.08 1.75-4.21 2.59-6.34l.74-.51a5.54 5.54 0 002 2.79c.76.56 1.44 0 1.74-.75.75-1.89 1.43-3.81 2.06-5.74a15.55 15.55 0 005.71-7c.26-1.69.58-3.38 1-5.07" fill="#b5a296"/>
      <path d="M48 90.92h.23c0 .52 0 1 .1 1.54s.23 1.19.85 1.24c1 .08 1.74-.67 2.32-1.57.29.46.69.68 1.15.12A12.81 12.81 0 0054.74 88a17.87 17.87 0 005.72-8.75c1.9-6 1.67-12.89 1-19.12-4.59-1.38-9.34-2.21-13.35-.69a2.65 2.65 0 00-.37.65 1.68 1.68 0 00-.37-.34 11.49 11.49 0 00-2.28 1.42c-1.3 2.26-1.39 5-1.57 7.69-.17 2.45-.67 6.36.24 9a19.83 19.83 0 000 3.79 19.29 19.29 0 003.4 9.25l.12.92.12-.4.53-.46" fill="#a29287"/>
      <path d="M65.49 45.23c.12-2.4-2-4-3.91-4.69-1.29-.43-3 .34-4.59 1.44a14.65 14.65 0 00-5.13-6.16c-5.31-3.53-12.7-4.19-18.2-.54a12.06 12.06 0 00-2.42 2.24c-.14-.08-3.16 4.81-3.54 7.31a2.19 2.19 0 00-.67-.22 5.72 5.72 0 00-1.49-.39 4 4 0 00-4.18 3.29c-.3 1.63.62 4.78 2.52 4.15.66-.22 1.28-1.18 1.85-1.63a3.84 3.84 0 011.56-.67.48.48 0 000 .12 89 89 0 00.31 10c.54 6.86 2.15 14.28 5.67 19.89a13 13 0 004.24 4.46A23.8 23.8 0 0039 89.15c.42 1 1-.23.94-1a10.45 10.45 0 00-.18-1.15 10.84 10.84 0 001.61 2.8c.66.7.82-1 .69-1.66v-.16a10.89 10.89 0 011.74 2.16c.26.43.65 0 .75-.49.3-1.36.48-2.72.83-4l.37-.46h.16v1.54c0 .54.1 1.18.51 1.23.68.09 1.19-.66 1.63-1.56.17.45.42.67.76.12a18 18 0 001.79-4.26 23.8 23.8 0 005-8.75c2.25-6.12 2.95-13.07 3.2-19.37a36.39 36.39 0 00-.45-7.59A3.67 3.67 0 0161.09 48c1.82 2.21 4.25 0 4.4-2.78" fill="#c7b2a4"/>
      <path d="M29.87 72.26c.51 2.37 4.05 13.71 13.49 12 6.07-1.08 9.75-3.89 11.31-8.16a48.21 48.21 0 002.17-6.78c-8.7-3.64-19.51-3-27 2.92" fill="#eebcb4"/>
      <path d="M35.66 39.94A2.85 2.85 0 0034 37.8a7.07 7.07 0 01-1.16-.6 2 2 0 01-.25-.25c-.16-.38-.29-.75-.42-1.05a13.44 13.44 0 00-1.21-3.15.53.53 0 00-.63-.23c-1.51.55-1.08 3.47-.93 4.67.27 2.06.95 3.87 2.76 5s3.86.09 3.53-2.21M47.13 38.32a2.83 2.83 0 00-1.69-2.14 8 8 0 01-1.16-.6 3.19 3.19 0 01-.26-.26l-.41-1a13 13 0 00-1.22-3.14.53.53 0 00-.62-.24c-1.51.56-1.08 3.48-.93 4.67.27 2.06.95 3.87 2.76 5s3.86.09 3.53-2.2" fill="#e6e7e8"/>
      <path d="M44 66.84c-.18-.44-.61-1-1.16-1a7.88 7.88 0 00-2.93.77.9.9 0 00-1 .13 2.2 2.2 0 00-.55 1.59c-.05.69 0-.47 0 .28a4.24 4.24 0 00.24 1.87 4.53 4.53 0 001.17 1.63 2.71 2.71 0 001.73.76 1.35 1.35 0 001.23-.64 3.28 3.28 0 001-1.58 8.43 8.43 0 00.3-1.3c0-.16.21-1.1.06-.53a3 3 0 000-2" fill="#9b8579"/>
      <path d="M45.59 70.31c-.18-.13-.26.16-.23.29.26 1.21.36 2.82-1.23 2.87a2.25 2.25 0 01-2-1.61v-.55c-.12-.85-1.1-1.39-1.22-.22s-.07 2.56-1.15 3.17a1.64 1.64 0 01-2.56-.86c-.37-1.48-1.72-.56-1.45.64.4 1.75 1.33 3.27 3.45 2.72a3.63 3.63 0 002.64-2.6 3.33 3.33 0 002.64 1.41c2.56.08 2.73-4.06 1.11-5.26" fill="#9b8579"/>
      <path d="M38.56 55.44c-2.13.08-1.73 3.23-1.5 4.59 0 .3.28.71.63.7s.55-.4.6-.74a.17.17 0 000-.07 1.28 1.28 0 000-.19v-.14-1.07a3.64 3.64 0 010-.61.78.78 0 010-.09c.36-.23.7 0 .93.29a2.88 2.88 0 01.36.61l.07.22a1.33 1.33 0 00.37 1.16.64.64 0 001-.43c.42-1.49-.7-4.27-2.53-4.2M48.4 56.83a9.49 9.49 0 00-.9-2.16c-.4-.74-.92-.78-1.71-.77-1.43 0-1.87 1.34-2.11 2.58-.17.89-.06 3.2 1.19 3.26.57 0 .52-.83.37-1.23v-.09a3.59 3.59 0 01.12-.47c.09-.33.17-.67.26-1s0-.07.17-.15a3.84 3.84 0 01.65-.22 4.26 4.26 0 01.84 3.36c0 .15.06.51.28.41 1.27-.54 1.1-2.46.83-3.52" fill="#58595b"/>
      <path d="M124.94 63.74c-4.62-2.42-9.73 1.09-12.47 4.57-.1.14 0 .63.22.52 3.78-1.77 7.55-1.24 11.43.21 2 .75 4.1 2.22 4.47 4.5a2.87 2.87 0 001.65 2.13c.79.38 1.2-.9 1.17-1.43-.27-4.77-2.08-8.21-6.47-10.5" fill="#b5a296"/>
      <path d="M130.79 75c-.37-1.69-2-2.82-2.81-4.32-.25-.46-.55-.38-.79-.13v-.09c-.62-1.3-1.7-3.3-3.41-3a1.06 1.06 0 00-.79.8s-.07-.11-.11-.15c-.61-.68-1.56-1.14-2-.18 0 .07 0 .28.11.19 1.23-1 1.68 5.26 1.75 5.86s.77 1.37 1.34.79a3.42 3.42 0 001-2.23c.06.47.09.89.14 1.12.26 1.43.42 2.84.76 4.26.18.77.78 1.82 1.74 1.43l.25-.1c1.05-.47 1.05-2.07.71-3v-.11c-.08-.47-.2-.93-.3-1.42v-.42c.62.85 1.37 1.54 2.2 1.44.32 0 .4-.47.34-.74" fill="#b5a296"/>
    </g>
  </g>
</svg>
