<svg xmlns="http://www.w3.org/2000/svg" viewBox="0 0 144 174.97">
  <g id="Layer_2" data-name="Layer 2">
    <g id="Layer_1-2" data-name="Layer 1">
      <path fill="#addedc" d="M0 0h144v174.97H0z"/>
      <path d="M144 175v-64.4c-74.48-32-127.75 2.69-144 15.68V175z" fill="#afd24d"/>
      <path d="M110.12 125.56c0 5-15.59 9-34.83 9s-34.83-4-34.83-9 15.6-9 34.83-9 34.83 4 34.83 9" fill="#7ba541"/>
      <path d="M81 117.32c-.16-1.68-.19-3.37-.35-5-.17-1.83-.79-3.84-.7-5.66 0-.29-.27-.85-.55-.42-1.77 2.69-1 7-.85 10 0 1.06.1 2.1.19 3.15s-2.32-.05-2.83-.17a15 15 0 00-5.23-.61c-1.42.15-1.12 2.52-.34 3.19.16.13.32.22.48.33-.58.06-1.15.12-1.72.15-1.43.08-1.21 3.27.22 3.2 3.28-.15 6.55-.33 9.8-.79a1.14 1.14 0 00.94-1.22 1.22 1.22 0 00.55-.55c.9-1.82.57-3.62.39-5.58" fill="#f7941d"/>
      <path d="M89.24 119.74c-.15-1.68-.18-3.37-.34-5-.17-1.82-.79-3.83-.7-5.65 0-.29-.27-.85-.56-.42-1.76 2.68-.94 7-.84 10 0 1 .1 2.09.18 3.14s-2.32-.05-2.82-.17a15 15 0 00-5.23-.61c-1.43.15-1.12 2.53-.34 3.19a5.11 5.11 0 00.48.33c-.58.06-1.16.13-1.73.16-1.42.07-1.2 3.26.23 3.2 3.28-.16 6.55-.34 9.8-.8a1.15 1.15 0 00.94-1.22 1.24 1.24 0 00.56-.55c.89-1.82.56-3.62.37-5.58" fill="#f7941d"/>
      <path d="M105.64 90.11a.65.65 0 00-.8-.3c-3.39 1.11-4.63 3.64-8.72 2.55a61.75 61.75 0 01-10.68-4.52c-4.73-2.32-9.3-4.23-14.23-4.85a23.92 23.92 0 01-5.54-3.43c-.07-.24-.14-.48-.22-.72-3.63 1-7.24 2.07-10.87 3.06a75.78 75.78 0 00-.66 12.15c0 .08 0 .16.08.23 1 7.48 4.17 14.14 11.24 18a28.82 28.82 0 0020.06 3 4.3 4.3 0 001.91 2.12 1.28 1.28 0 001.49-.32 1.82 1.82 0 00.29-.27 7 7 0 001.41-2.45 3.06 3.06 0 00.22-.77 29.42 29.42 0 0010-7.34c1-1.13 6.15-14.39 5-16.14" fill="#fff"/>
      <path d="M93.21 86.56a59.17 59.17 0 01-6.73 1.56 28.8 28.8 0 01-7.24-.37 13.63 13.63 0 00-6.76.24c-1.12-.65-3 .69-4.06 1.55-2.57 2.19-2.22 5.93-1.08 8.74 3.43 8.42 16.57 3.74 21.59-.2 2.41-1.88 5.64-5 6.75-8 .83-2.25.23-4.07-2.47-3.49" fill="#e6e7e8"/>
      <path d="M76.1 55.2c1-8.5-3.29-19.81-15-18.5C47.75 38.2 49.55 50.37 47.12 54c-1.12 1.68.78 9.22 11.22 4 15.88-7.89 3.5 4.83-.17 11.67a32.93 32.93 0 00-3.76 13.63l11.26-3.77c-4.33-5.36 15-19.49 9.46-28.49s-17.79-2.21-17.79-2.21" fill="#fff"/>
      <path d="M47.12 54c1.58-3.26 4.4-1.69 5.25 0s4.93 1.6 3 4-11.22 5.32-15.83.87S46.14 56 47.12 54" fill="#f7941d"/>
      <path d="M53.62 46.73a4.54 4.54 0 000-2 2.37 2.37 0 00-2.26-2.1c-1.07 0-1.89 1.2-2.23 2.08s-.94 2.78.22 3.25c.31.13.58-.18.74-.42l.25-.53c-.01.02.07-.24.11-.35s.06-.27.09-.4l.08-.26.12-.26a1.64 1.64 0 00.15-.22c.1-.13.09-.12.32-.14 1.37-.14.58 2.17 1.16 2.72a.41.41 0 00.44 0c.53-.22.67-.89.8-1.39M59.59 46.62a4.41 4.41 0 00-.13-2 2.36 2.36 0 00-2.39-2C56 42.77 55.26 44 55 44.89s-.75 2.83.44 3.23c.31.1.57-.23.7-.48 0 0 .23-.56.22-.54s0-.24.08-.36 0-.27.07-.41l.06-.26a2 2 0 01.11-.26 2.09 2.09 0 00.13-.23c.09-.14.08-.13.31-.16 1.36-.23.72 2.13 1.34 2.63a.39.39 0 00.44 0c.51-.25.61-.93.71-1.43" fill="#58595b"/>
    </g>
  </g>
</svg>
