<svg xmlns="http://www.w3.org/2000/svg" viewBox="0 0 144 175">
  <g id="Layer_2" data-name="Layer 2">
    <g id="Layer_1-2" data-name="Layer 1">
      <path fill="#fff" d="M0 0h144v175H0z"/>
      <path d="M40.8 110.71S29.5 78.44 54.59 65.27s46.2 11.4 49 30.74c0 0-15 17.53-62.83 14.7" fill="#9b8579"/>
      <path d="M40.8 110.71C88.67 113.54 103.63 96 103.63 96a42.89 42.89 0 00-5.3-14.75c-31.38-2.7-60 13.31-60.07 13.32a54.73 54.73 0 002.54 16.13" fill="#f7941d"/>
      <path d="M125.16 92.12c2 8.52-20.25 20.9-49.61 27.65s-54.75 5.31-56.71-3.22 20.26-20.9 49.62-27.64 54.74-5.31 56.7 3.21" fill="#c2b59b"/>
      <path d="M100.89 97.7c1.06 4.63-11 11.36-27 15s-29.71 2.91-30.77-1.7 11-11.35 26.95-15 29.75-2.88 30.82 1.75" fill="#9b8579"/>
    </g>
  </g>
</svg>
