<svg xmlns="http://www.w3.org/2000/svg" viewBox="0 0 144 163.18">
  <defs>
    <clipPath id="clip-path">
      <path fill="none" d="M49.93 52.06h74.31V83.6H49.93z"/>
    </clipPath>
    <clipPath id="clip-path-2">
      <path fill="none" d="M20.31 75.98h20.76v20.76H20.31z"/>
    </clipPath>
  </defs>
  <g id="Layer_2" data-name="Layer 2">
    <g id="Layer_1-2" data-name="Layer 1">
      <path fill="#8ad5e7" d="M0 0h144v163.18H0z"/>
      <path d="M43.88 63.44v-.64a8.62 8.62 0 00-13.22-7.3A11.82 11.82 0 009.16 57a6 6 0 00-3.08-.85A6.08 6.08 0 000 62.19v9.87h52.5a8.62 8.62 0 00-8.62-8.62M99.79 23.66v-.64A8.61 8.61 0 01113 15.73a11.81 11.81 0 0121.49 1.46 6 6 0 013.09-.85 6.07 6.07 0 016.07 6.07v9.88H91.16a8.63 8.63 0 018.63-8.63M99.79 119.86v-.65a8.62 8.62 0 0113.21-7.28 11.81 11.81 0 0121.49 1.46 6 6 0 013.09-.85 6.08 6.08 0 016.07 6.08v9.87H91.16a8.63 8.63 0 018.63-8.63" fill="#fff"/>
      <g clip-path="url(#clip-path)" opacity=".5">
        <path d="M124.21 63.92c.88 8.44-15 17-35.52 19.18S50.86 80.17 50 71.73s15-17 35.51-19.18 37.84 2.93 38.73 11.37" fill="#009ada"/>
      </g>
      <path d="M86.57 64.74a1.7 1.7 0 00-1.7 1.7v4.47h3.4v-4.47a1.7 1.7 0 00-1.7-1.7" fill="#1c75bc"/>
      <path d="M118 105.61a1.61 1.61 0 00-1.62 1.62v.65h-10.85V98h-22.3v9.92H69.84v3.25h45.93a3.9 3.9 0 003.89-3.9 1.61 1.61 0 00-1.62-1.62m-31.86-4.7h16.4v7h-16.4z" fill="#ed1c24"/>
      <path d="M92.69 69.06l-25.63 5.27L70 101.09h44.91a23.7 23.7 0 00-22.18-32" fill="#ed1c24"/>
      <path d="M54.34 67.51a3.45 3.45 0 000 6.89l31.78-5.56v-1.33zM119.66 67.83a3.45 3.45 0 000-6.89L87.88 66.5v1.33z" fill="#1c75bc"/>
      <path d="M90.24 86.67h25.35A23.72 23.72 0 0099.9 70.19l-9.66 2zM87.78 72.67l-8.04 1.66 1.34 12.34h6.7v-14z" fill="#f1f2f2"/>
      <path d="M31.24 85.28a1.16 1.16 0 000 2.32L82 97.68l-6.23-12.4z" fill="#ed1c24"/>
      <path d="M31.32 84.73V77A1.67 1.67 0 0028 77l2.45 7.73zM29.16 85.92h-7.73a1.67 1.67 0 100 3.34l7.73-2.45zM30.35 88.08v7.73a1.67 1.67 0 103.34 0l-2.45-7.73zM32.51 86.89h7.73a1.67 1.67 0 000-3.34L32.51 86z" fill="#1c75bc"/>
      <g clip-path="url(#clip-path-2)" opacity=".3">
        <path d="M41.07 86.36A10.38 10.38 0 1130.69 76a10.38 10.38 0 0110.38 10.36" fill="#009ada"/>
      </g>
    </g>
  </g>
</svg>
