<svg xmlns="http://www.w3.org/2000/svg" viewBox="0 0 144 174.97">
  <g id="Layer_2" data-name="Layer 2">
    <g id="Layer_1-2" data-name="Layer 1">
      <path fill="#addedc" d="M0 0h144v174.97H0z"/>
      <path d="M144 175v-64.4c-74.48-32-127.75 2.69-144 15.68V175z" fill="#afd24d"/>
      <path d="M128.63 130.89c0 10-21 18.15-46.83 18.15S35 140.91 35 130.89s21-18.16 46.83-18.16 46.83 8.13 46.83 18.16" fill="#7ba541"/>
      <path d="M110.34 98c-.15-2.32-.14-10.11-3.76-10.09a3.58 3.58 0 00-.9.11c-5.36-3.13-13.38.79-13.38.79a19.52 19.52 0 007.34 15.41c-.68 5.07-.85 10.28-1.51 15.33-.45 3.5-.75 7.82 1.85 10.47 2.21 2.26 6.63.35 8.9-.33 2.44-.73 2.12-10.49 2.26-12.57.42-6.28-.41-12.85-.8-19.12" fill="#939598"/>
      <path d="M105.29 124c-2.36.29-5.13.5-7.46-.34A8.93 8.93 0 00100 130c2.22 2.26 6.63.35 8.9-.33 1.38-.41 1.88-3.7 2.08-6.86a32.88 32.88 0 01-5.67 1.18" fill="#9b8579"/>
      <path d="M137.18 98.5c-1.22-4-.38-8.53.17-12.62.82-6.08 2.85-11.41.84-17.52-1.62-5-7.93-7.07-12.6-5.55-6 2-8.76 7.68-12.11 12.55-.2.29 0 1.18.4 1A16.21 16.21 0 00118 73c3.77-.15 9.47-.88 8.24 4.87a38.66 38.66 0 00-.23 12.24c.32 3.15 2.48 6.2 4.44 8.56 2.14 2.57 4.75 5.68 7.93 6.93.66.26 1.05-.53 1.15-1 .39-2.12-1.81-4.16-2.39-6.1M60.08 95.28c-.15-2.32-.14-10.1-3.76-10.09-2.52 0-3.52 2.25-3.93 4.75-3.72 8.32-3.35 17.87-4.52 26.89-.46 3.51-.75 7.82 1.85 10.47 2.21 2.27 6.63.36 8.9-.33 2.44-.73 2.12-10.49 2.26-12.57.42-6.27-.41-12.85-.8-19.12" fill="#939598"/>
      <path d="M57.67 118.81a26.9 26.9 0 01-7.22.27c-.93-.15-1.85-.38-2.77-.61-.29 3.14-.17 6.58 2 8.83s6.63.36 8.9-.33c1.64-.49 2-5 2.16-8.6-1 .16-2.07.32-3.11.44" fill="#816f65"/>
      <path d="M77.92 104.53c4.5-.65 11.26-4.1 15.74-5.25s9.38 1.12 13.75 2c2.8.57 5.69 1.32 8.33.58a23.2 23.2 0 004.41-10.32c.77-3.88 1-3.2 1-7.14 0-8.45-11.7-14.6-16.4-14.16-1.82.17-20-7.19-34.54-7.44a4.28 4.28 0 00-3.07-1.48c-3.77-.2-6.55.61-9.76-2s-5.58-6.68-7.24-10.46c-1.21-2.76-3.8-.76-3.6 1.59.28 3.39.22 6.21 1.47 9.43.49 1.27 1 2.52 1.6 3.77-.47 1.95-.76 4-1.34 5.9-.08.28-.17.55-.26.83a4.35 4.35 0 00-1.34-.52c-1.6-.31-2.52 1.2-2.6 2.66a3.24 3.24 0 00-.42 1.78v1a5.63 5.63 0 01-.65-2.37c0-.16-.22-.33-.28-.1a7.63 7.63 0 000 3.74c.47 3 .45 6 1.27 9 1.2 4.31 2.49 23.57 33.93 19" fill="#bcbec0"/>
      <path d="M50.33 50.4l.36-.44c-.18-.37-.35-.75-.52-1.13-1.21-2.76-3.79-.76-3.6 1.59.28 3.39.22 6.21 1.47 9.43.49 1.27 1 2.52 1.6 3.77-.47 1.95-.76 4-1.34 5.9-.08.28-.17.55-.26.83a4.11 4.11 0 00-1.34-.52c-1.6-.31-2.52 1.2-2.6 2.66a3.24 3.24 0 00-.42 1.78v1a5.79 5.79 0 01-.68-2.34c0-.16-.22-.33-.28-.1a7.63 7.63 0 000 3.74c.48 3 .45 6 1.27 9a28.53 28.53 0 002.47 6c.33-.93.68-1.84 1.06-2.71 5.7-12.62 10.31-26.59 2.81-38.38" fill="#a1a3a6"/>
      <path d="M68.93 101.92c-.14-2.32-.13-10.1-3.76-10.09-2.51 0-3.52 2.26-3.92 4.75-3.72 8.32-3.35 17.87-4.53 26.9-.45 3.52-.72 7.82 1.85 10.52 2.22 2.26 6.63.35 8.91-.33 2.44-.74 2.11-10.49 2.25-12.57.42-6.28-.4-12.85-.8-19.13" fill="#bcbec0"/>
      <path d="M67.39 126.66c-.84.27-1.67.52-2.52.76a25 25 0 01-5.09.72 12.62 12.62 0 01-3.35-.28 8.76 8.76 0 002.14 6.14c2.22 2.26 6.63.35 8.91-.33 1.38-.42 1.88-3.73 2.07-6.91a3 3 0 00-2.16 0" fill="#9b8579"/>
      <path d="M77.68 67.38c-1.09-4.44-5.11-7.71-9.26-9.69-2.34-2.15-6.15-4.06-9.24-4.08a16.5 16.5 0 00-3-2.71 12.27 12.27 0 00-2.47-4.19c-2.31-2.5-4.26-5-7.82-5.59-1.94-.31-1.84 3.54-1.09 4.44 1.24 1.52 2.77 2.72 4.05 4.19.19.22.37.45.54.68a19.59 19.59 0 001.81 6.3 52.63 52.63 0 002.48 9.17c.88 2.26 2.74.44 2.73-1.2a9.54 9.54 0 00-.13-1.52 15 15 0 002 3.89c1.56 2.05 3-.07 3.14-2 .09.13.18.27.26.41.46 1.08.86 2.12 1.2 3 1.07 2.88 3 .71 3.25-1.47a19.57 19.57 0 004.37 3.06c1 .48 1.56-.47 1.79-1.47.59.46 1.16.88 1.68 1.26a1.12 1.12 0 001.81-.36 1 1 0 001.79.14l.06-.08a2.3 2.3 0 00.08-2.21" fill="#939598"/>
      <path d="M54.67 26.42c-.31-1.17-1.36-3.25-3-2.43-4.83 2.49-8.07 7.64-9 13.09-5.27-4-12.62-5.19-18.06-1.07a17.11 17.11 0 00-2.69 2.53 38.46 38.46 0 00-3.25-5.92c-2.13-3.42-5.85-6.78-9.91-7.29-2-.26-2.44 3.31-2.14 4.56A23.1 23.1 0 0012 40.56C13.29 42 15.13 44 17.16 45c-2.71 5.49 0 28.37 8.79 40.2 4.5 6.07 2.38 10.54 9.56 10.94 6.85.38 4.91-9.59 7.65-15.68 5.7-12.61 12.81-25 5.32-36.78 4.09-4.89 8-10.6 6.19-17.25" fill="#d1d3d4"/>
      <path d="M27.92 61.52a4.67 4.67 0 00-.59-1.92 2.38 2.38 0 00-2.79-1.33c-1 .35-1.45 1.71-1.51 2.66s-.06 2.93 1.19 3c.32 0 .5-.35.57-.62a5.81 5.81 0 01.09-.58v-.37V61.7a2.51 2.51 0 010-.27 2.08 2.08 0 00.08-.26c.05-.16 0-.14.25-.23 1.28-.54 1.21 1.9 1.92 2.24a.4.4 0 00.44-.09c.43-.37.37-1.05.35-1.57M25.94 64.53a.54.54 0 010 .1v-.1M41.11 62.79a4.4 4.4 0 000-2 2.36 2.36 0 00-2.22-2.14c-1.07 0-1.92 1.15-2.27 2s-1 2.76.16 3.25c.31.13.59-.17.75-.41l.26-.52c-.01.02.07-.24.11-.36s.06-.26.1-.39l.08-.26c0-.09.09-.17.13-.25s.15-.21.16-.22.09-.12.31-.14c1.38-.11.55 2.18 1.12 2.74a.41.41 0 00.44 0c.53-.21.68-.87.82-1.37M35.55 64.21v.09-.09" fill="#58595b"/>
      <path d="M48.7 34.57c-1.45-.24-2.3.51-3 1.76a4.41 4.41 0 00-.26 4 .37.37 0 00.47.18 1.64 1.64 0 00.74.67.75.75 0 00.91-.39c.39-.66.59-1.41 1-2a5.74 5.74 0 001-2.42c.1-.72-.13-1.62-.93-1.75M20.26 39.85A3.41 3.41 0 0119 38.37a13.15 13.15 0 00-1.68-2.43 1.1 1.1 0 00-1.18-.21 2.19 2.19 0 00-1 1.65 6.21 6.21 0 001.2 4.79 11.66 11.66 0 001.28 1.6 1 1 0 001.22.32c1.92 1.5 3.17-3.13 1.44-4.24" fill="#e6e7e8"/>
      <path d="M39.51 36.68l-.22-.33a3.17 3.17 0 00-.26-2.5 21.72 21.72 0 00-2.65-2.93c-.11-.16-.23-.33-.36-.49a1.66 1.66 0 00-1-1 4.4 4.4 0 00-.41-.31l-.36-.23c-.75-.43-1.23 0-1.5.68a20.68 20.68 0 00-2.84 1.17 7.15 7.15 0 01-2.21.76 21 21 0 01-3-.49c-2-.48-2 3.09-.6 3.85a2.31 2.31 0 00.68.25 16.37 16.37 0 003.27.78 14.42 14.42 0 01-1.21 1.54c-1 1.1-.8 5.87 1.39 4.61a15.39 15.39 0 003.67-2.75 6.47 6.47 0 00.82 3.06c1 1.77 2.19-.53 2.25-1.5.1-1.72.31-3.42.48-5.12 1.1 1.89 2.3 3.89 4.06 1.65a.66.66 0 000-.7" fill="#939598"/>
      <path d="M26.35 85.54c1.78 3.15 3.87.78 3.13-6.84a74.49 74.49 0 01-.15-12.26c.13-1.58-1.58-10.27-3.42-12.43C21.62 49 28 46.89 32 47c3.22 0 6.44 1 5.28 5-1.07 3.62-3.28 12-3.13 14.32.31 6.83.31 15.61 2.46 16.5 3.64 1.5 3.71 3.94 5 1 0 0-3.81 8.13-7.78 8.88s-7.53-7.16-7.53-7.16" fill="#e6e7e8"/>
      <path d="M41.39 83c-1.48-2.59-5.3-2.47-7.84-2.46-2.34 0-4.59.32-6.23 1.89-.12-.12-.26-.14-.42.1a7 7 0 00-.6 1.19 4.93 4.93 0 00-.64 2.4 14.7 14.7 0 000 4.78 11.2 11.2 0 004.4 7.43c5.55 3.64 11.73.22 12.72-6A15.06 15.06 0 0041.39 83" fill="#939598"/>
      <path d="M31.91 86.52c-.13-.58-.51-1.36-1.22-1.35s-1.06.82-1.16 1.41a4.11 4.11 0 00.11 1.71 3.78 3.78 0 00.62 1.44.82.82 0 001.48 0 4.26 4.26 0 00.17-3.18M36.48 86.83a2.74 2.74 0 00-.29-2.29 1 1 0 00-1.83 0 4 4 0 00-.48 2.17 4.08 4.08 0 00.54 2.3 1 1 0 001.69 0 3.73 3.73 0 00.37-2v-.17" fill="#58595b"/>
      <path d="M119.2 101.92c-.15-2.32-.13-10.1-3.76-10.09a4.25 4.25 0 00-.9.12c-5.36-3.13-13.37.79-13.37.79a19.49 19.49 0 007.33 15.41c-.68 5.07-.85 10.28-1.51 15.33-.45 3.5-.75 7.82 1.85 10.47 2.22 2.26 6.63.35 8.9-.33 2.45-.74 2.12-10.49 2.26-12.57.42-6.28-.4-12.85-.8-19.13" fill="#bcbec0"/>
      <path d="M114.15 127.94c-2.35.29-5.13.5-7.46-.34a9 9 0 002.15 6.35c2.22 2.26 6.63.35 8.9-.33 1.38-.42 1.88-3.71 2.08-6.87a32.92 32.92 0 01-5.67 1.19" fill="#9b8579"/>
    </g>
  </g>
</svg>
