<svg xmlns="http://www.w3.org/2000/svg" viewBox="0 0 144.02 175">
  <g id="Layer_2" data-name="Layer 2">
    <g id="Layer_1-2" data-name="Layer 1">
      <path fill="#f47e50" d="M.01 0h144v175H.01z"/>
      <path d="M86.87 175c-6.88-5.65-14.77-6.65-23.67 0M35.65 96S32 151.29 56.94 160.34s45.82-1.69 55.34-20.94 4-61.57 4-61.57C112.17 65.3 41.05 43.4 35.65 96" fill="#fed8ad"/>
      <path d="M46 110.08c4.32 5.92 3.54 13.83-1.72 17.67s-13 2.16-17.36-3.76-3.54-13.84 1.73-17.68 13-2.15 17.35 3.77M128.57 103.48c4.32 5.91 3.54 13.83-1.73 17.67s-13 2.16-17.35-3.76-3.54-13.84 1.73-17.68 13-2.15 17.35 3.77M85.23 175L83 148.87l-17.08 1.46L68.03 175" fill="#fed8ad"/>
      <path d="M42.51 92.65s5.7 7.93 18.48 4.62-.48-9.27-.48-9.27 13.92 9.26 24.5 7.1-1.64-13-1.64-13S93.71 94.56 102 95.31s-.34-14.7-.34-14.7 12 26.37 17.18 25.27 9.78-19.77-3.22-32.15c0 0 17.38-3.35 19.28-13.06s-23.47-13.52-38.34 3.2c0 0 23.35-17.37 20.63-24.16S85.62 38.08 75.3 55.35c0 0 9.22-24.29-.11-31.86S34.85 40.08 39.58 65.74c0 0-18.14-12.2-22.6-5.67S31 75.65 31 75.65s-5 10.5-1.23 24.9 9.37 21.39 13 22 1.07-22.56-.25-29.89" fill="#cd6a43"/>
      <path d="M102.12 125.54c-1.29 1.15-13.45 1.12-14.23 0s-4.31-21.33 7-22.21 8.42 21.13 7.23 22.18M67.93 128.86c1.51.83 13.37-1.89 13.88-3.13s-.54-21.75-11.76-20.1-3.52 22.47-2.12 23.23" fill="#fff"/>
      <path d="M94.63 112.86c2 .33 3.49 2.23 3.81 4.61-.24-.06-.49-.12-.74-.16-2.45-.41-4.64.56-4.9 2.15s1.51 3.21 4 3.61h.2a4.61 4.61 0 01-4.36 1.93c-2.64-.43-4.33-3.51-3.78-6.86s3.14-5.74 5.77-5.3M76.12 114.38c2 .57 3.2 2.59 3.25 5-2.39-.68-4.67 0-5.11 1.58s.92 3.09 3 3.86a4.63 4.63 0 01-4.53 1.45c-2.58-.73-3.9-4-3-7.26s3.78-5.33 6.36-4.61" fill="#726658"/>
      <path d="M92.49 147.92c4.57-3.12-5.91-14.8-14.68-12.36s-7.52 13-7.52 13c.66 2.89 22.2-.66 22.2-.66" fill="#f8a88e"/>
      <path d="M79.44 149.54l4.15-.3s.43 5.3 3.51 8.14 9.75-2.84 4.33-10.67-12.41-2.93-12 2.83" fill="#de8178"/>
      <path d="M110 108.59s-2.46 7.1 1.09 8.56.6-10.66-1.09-8.56M108.21 130.06s-2.46 7.1 1.1 8.55.59-10.65-1.1-8.55M114.18 93.44s-2.46 7.1 1.09 8.55.6-10.65-1.09-8.55M53.18 119s-2.46 7.1 1.09 8.55.6-10.65-1.09-8.55M44.34 102.78s-2.46 7.11 1.1 8.56.59-10.65-1.1-8.56M40.75 131s-2.46 7.11 1.09 8.56.6-10.65-1.09-8.56" fill="#00b0e4"/>
    </g>
  </g>
</svg>
