<svg xmlns="http://www.w3.org/2000/svg" viewBox="0 0 144.02 175">
  <g id="Layer_2" data-name="Layer 2">
    <g id="Layer_1-2" data-name="Layer 1">
      <path fill="#88d5ee" d="M.01 0h144v175H.01z"/>
      <path d="M58.79 47.27c-5.19-3.53-4.64-8.08 1-14s-6.63-14.5 3.87-11.74S87 43.33 76.93 49.54" fill="#eda27e"/>
      <path d="M51.63 58.77c-3.86-1.93-5-13.11 5-16s25.28-5.93 29.14 0-2.34 17-5.94 17" fill="#e98273"/>
      <path d="M47.39 75.39c-7-1.39-9.94-13.12-2.49-17.27s39.5-7.73 44.2-1.79 3.73 18.78-3 20.3" fill="#e86f6d"/>
      <path d="M41.17 82.15c2.22 13.26 14.71 80.65 20.89 77.34s30.49-71.81 27.73-77.34" fill="#f6f098"/>
      <path d="M69.31 130c-.68-.76-1.36-1.54-2-2.33l.31-.27 4.24-3.91c1.42-1.26 2.71-2.63 4-3.89 1-.91 1.82-1.83 2.68-2.73l1.83 1.75c.28-.79.55-1.57.82-2.35l-1-1.15c.79-.84 1.53-1.67 2.23-2.46.43-1.3.86-2.58 1.27-3.85l-5.11 4.51c-1.1-1.23-2.23-2.49-3.46-3.75-1.5-1.55-3-3.2-4.62-4.78l-2.71-2.69.27-.26c1.5-1.42 2.87-2.93 4.25-4.33s2.65-2.83 3.87-4.17 2.34-2.63 3.37-3.84c2.06-2.4 3.69-4.5 4.81-6 .42-.54.76-1 1-1.4h-.85l-19 17.74-4.9-4.58c-1.63-1.57-3.35-3-5-4.44s-3.22-2.77-4.74-4-3-2.45-4.35-3.51L45 82.15h-2.54l20.58 20-1.8 1.69-9.12 8.67c-1.07-1-2.14-1.92-3.16-2.8s-2.12-1.81-3.12-2.63c.26 1.26.52 2.53.78 3.82l3.44 3.57-2.24 2.14q.28 1.32.57 2.67c.5-.4 1-.79 1.52-1.21.66-.54 1.35-1.08 2-1.65l7.09 7.32 3.63 3.68-10.2 9.2c.21.86.43 1.7.65 2.52.53-.39 1.08-.78 1.63-1.2 1.33-1 2.75-2 4.15-3.2s2.9-2.27 4.33-3.53l1.71-1.48 8.19 8.27c.31-.77.62-1.56.94-2.35-.4-.5-.8-1-1.23-1.51-1.1-1.32-2.23-2.73-3.49-4.11M65 125.28l-3.64-3.85-4.22-4.19c-.94-1-1.93-1.87-2.9-2.76 1.48-1.3 3.07-2.58 4.58-4l4.63-4.22 1.89-1.84 11.18 10.67L65.37 125l-.34.31" fill="#f3da91"/>
      <path d="M38.57 73.87c-.72 3.37-1.23 16.2 3.25 17s46.7 3.52 49.05 0 4.07-14.39 1.78-17-52.92-5.44-54.08 0" fill="#f3da91"/>
    </g>
  </g>
</svg>
