<svg xmlns="http://www.w3.org/2000/svg" viewBox="0 0 144.17 174.97">
  <g id="Layer_2" data-name="Layer 2">
    <g id="Layer_1-2" data-name="Layer 1">
      <path fill="#addedc" d="M.17 0h144v174.97H.17z"/>
      <path d="M144 175v-64.4c-74.48-32-127.75 2.69-144 15.68V175z" fill="#afd24d"/>
      <path d="M112.37 124.91c0 5-15.74 9.12-35.16 9.12s-35.15-4.03-35.15-9.12 15.74-9.11 35.15-9.11 35.16 4.08 35.16 9.11" fill="#7ba541"/>
      <path d="M97.15 101.2c-.11-1.73-.1-7.52-2.8-7.51-1.87 0-2.62 1.68-2.92 3.54-2.77 6.19-2.49 13.3-3.37 20-.34 2.61-.56 5.82 1.38 7.79 1.65 1.69 4.93.27 6.62-.24s1.58-7.81 1.68-9.36c.32-4.67-.3-9.56-.59-14.23" fill="#c2b59b"/>
      <path d="M93.39 120.56a12.55 12.55 0 01-5.55-.25 6.59 6.59 0 001.6 4.72c1.65 1.69 4.93.27 6.62-.24 1-.31 1.4-2.76 1.55-5.11a24.38 24.38 0 01-4.22.88" fill="#816f65"/>
      <path d="M59.74 101.2c-.11-1.73-.1-7.52-2.8-7.51-1.87 0-2.62 1.68-2.92 3.54-2.76 6.19-2.49 13.3-3.36 20-.34 2.61-.56 5.82 1.37 7.79 1.65 1.69 4.94.27 6.63-.24s1.57-7.81 1.68-9.36c.31-4.67-.31-9.56-.6-14.23" fill="#c2b59b"/>
      <path d="M58.59 119.61l-1.87.56a18 18 0 01-3.79.54 9.46 9.46 0 01-2.49-.21A6.47 6.47 0 0052 125c1.65 1.68 4.94.26 6.63-.24 1-.31 1.4-2.78 1.54-5.14a2.19 2.19 0 00-1.61 0" fill="#816f65"/>
      <path d="M106.16 81.7a5.81 5.81 0 00-1.84-1.85c-.46-.52-1-1-1.5-1.56-1.17-1.16-2.56-.52-3.79.13-2.31-3.42-7.13-3.15-10.65-1.08-2-2.46-5.52-2.2-8.47-.8a3.77 3.77 0 00-3.41-2.27 6.12 6.12 0 00-3.67.73c-1.92-2.25-5.18-2.23-7.6-.33-1.83-1.24-4.82-.59-6.74 1a4.09 4.09 0 00-6 1A18.83 18.83 0 0051 79.2c-.37-.2-.8-.1-1.27.5-1.45 1.86-1.51 4.22-1.68 6.58-.13 1.89-.52 4.9.19 6.94a12.8 12.8 0 00-.07 1.41.59.59 0 00-.16.1c-1.91 1.94-1.61 4.24.18 5.24a4.38 4.38 0 002.13 5.29 3.34 3.34 0 00.5 2.94 3.6 3.6 0 004.37 1 4.68 4.68 0 001.44 3.34c1.47 1.22 2.6.72 3.63-.18a4.24 4.24 0 002.43 2.46 7 7 0 004.81 0l.2.07a4 4 0 001.5 1.75 4.92 4.92 0 005.22-.16c.42.06.83.12 1.24.16a5.67 5.67 0 003 2.16c1.72.48 2.85-.9 3.88-2.09h.39c.78 1.16 1.62 2.27 3.23 1.85a4.38 4.38 0 003.11-2.56c1.09.81 2.44 1.72 3.67 1 2.18-1.2 2.85-2.54 3.72-4.55 3.65 1.44 6.55-1.33 6.77-4.88a18.55 18.55 0 003.57-8.13c.63-3.1.52-6.37.71-9.51.17-2.91.07-5.68-1.51-8.23" fill="#e0d5c1"/>
      <path d="M55.82 94.86c5.75-1.37 8.79-5.68 10.08-10.45A29 29 0 0066.27 74a6.81 6.81 0 00-1 .67c-1.83-1.24-4.82-.59-6.74 1a4.09 4.09 0 00-6 1A18.83 18.83 0 0051 79.2c-.37-.2-.8-.1-1.27.5-1.45 1.86-1.51 4.22-1.68 6.58-.13 1.89-.52 4.9.19 6.94a12.68 12.68 0 00-.07 1.41.59.59 0 00-.16.1 5.08 5.08 0 00-.78 1 30.28 30.28 0 008.6-.92" fill="#b2a78f"/>
      <path d="M103.31 106.05c-.11-1.73-.1-7.52-2.79-7.51-1.88 0-2.63 1.68-2.93 3.53-2.76 6.19-2.49 13.3-3.36 20-.34 2.6-.56 5.81 1.37 7.79 1.65 1.68 4.94.26 6.63-.25s1.57-7.8 1.68-9.35c.31-4.67-.3-9.56-.6-14.23" fill="#e0d5c1"/>
      <path d="M99.55 125.41a12.41 12.41 0 01-5.55-.26 6.66 6.66 0 001.6 4.73c1.65 1.68 4.94.26 6.63-.25 1-.31 1.39-2.75 1.54-5.11a23.52 23.52 0 01-4.22.89" fill="#9b8579"/>
      <path d="M65.9 106.05c-.1-1.73-.1-7.52-2.79-7.51-1.87 0-2.62 1.68-2.92 3.53-2.77 6.19-2.5 13.3-3.37 20-.34 2.6-.56 5.81 1.38 7.79 1.65 1.68 4.93.26 6.62-.25s1.58-7.8 1.68-9.35c.31-4.67-.3-9.56-.6-14.23" fill="#e0d5c1"/>
      <path d="M64.75 124.45q-.93.3-1.86.57a18.72 18.72 0 01-3.79.54 9.17 9.17 0 01-2.5-.22 6.59 6.59 0 001.59 4.54c1.66 1.68 4.94.26 6.63-.25 1-.31 1.4-2.77 1.54-5.14a2.24 2.24 0 00-1.61 0" fill="#9b8579"/>
      <path d="M66.74 61.76a3.78 3.78 0 00.88-5.09c-1.11-1.52-3.19-1-4.7-.28a6.47 6.47 0 00-2.28 1.78c-.09-.08-.18-.17-.27-.24-5-4-12.88-3-17.68.69a5.16 5.16 0 00-2.06-2.38 8.43 8.43 0 00-6.26-.9c-1.48.46-1.42 3.11-.27 3.81 1.35.8 2.24 2 3.59 2.82a5.94 5.94 0 001.56.58 1 1 0 000 .17 8.39 8.39 0 00-.73 2.47c-.33 1.19-.62 2.39-.94 3.56a38.66 38.66 0 00-1.69 9.18 16.46 16.46 0 004.9 12.46c3.52 3.34 10.59 2.43 15 1.38 5.75-1.37 8.79-5.68 10.08-10.45 1.07-4 .64-8.63.09-12.64A18.78 18.78 0 0064.34 63c.35 0 .7-.09 1-.15a1.64 1.64 0 001.37-1.09" fill="#c2b59b"/>
      <path d="M116 77.19c-4.12-1.06-10.22 2.31-11.6 6.53a4.59 4.59 0 00-1 0c-.89.11-1 1.72-.33 2.17.32.23.69.45 1.07.67a3.05 3.05 0 001.69 2.56 1.86 1.86 0 002.28-1.08 6.48 6.48 0 003.4-.2 9.55 9.55 0 005.66-6.63c.29-1.14.38-3.63-1.19-4M51.58 55c-.24-1.26-1.51-2.81-2.81-1.65a2 2 0 00-.25.25.94.94 0 01-.09.12 4.62 4.62 0 00-.65.07 4.32 4.32 0 00-2 .86 5.59 5.59 0 00-1.53 3.12 4.63 4.63 0 001.47 4.38 3 3 0 003.43.11c2.3-1.51 2.92-4.7 2.43-7.26" fill="#e0d5c1"/>
      <path d="M54.76 59.76c-.27-2.06-1.5-6.14-4.16-5.41-1.58.43-1.67 3.26-.86 4.69a29.7 29.7 0 00-.27 3.79c-.1 2 1.11 5.43 3.63 3.67 1.9-1.35 1.9-4.72 1.66-6.74" fill="#e0d5c1"/>
      <path d="M58.11 54.82a4.06 4.06 0 00.21-1.16c.08-2.34-2.8-2.63-5.25-2.31-1.07-1.55-2.91-1.51-4.41-.35-2 1.51-1.46 4.42-.82 6.5a.58.58 0 001.13 0c.11-.44.2-.88.29-1.32.37 1 1.08 1.75 2 1.12a.86.86 0 00.78.43h.45c.25 0 .5 0 .76-.07a5 5 0 01.26 1.06c.15.51.58 1.64 1.33 1.47 1.66-.38 3.27.59 5 .29.71-.13.93-.87.94-1.51 0-2.43-1.12-3.56-2.7-4.06" fill="#e0d5c1"/>
      <path d="M64 58.9a1.66 1.66 0 00-2 .38 1 1 0 000 1 .4.4 0 00.18.29c.27.16.26.46.36.71a1.35 1.35 0 00.74.85c.79.23 1.3-.71 1.47-1.23a1.69 1.69 0 00-.73-2M40.78 60.38c-.39-.65-1.51-1.79-2.39-1a.91.91 0 000 1.28 1.47 1.47 0 00.94.6.44.44 0 00.08.15v-.08l.06.1a.31.31 0 00.45.07 3 3 0 01.69-.29.61.61 0 00.23-.81" fill="#fcd4d4"/>
      <path d="M54.9 81.76c-.08-.07-.17 0-.2.08a5.32 5.32 0 01-.86 2.16c-.59.7-1.57.32-2.15-.11s-.39-1.73-.43-2.36c0-1.15-1.28-1.13-1.23 0a3.25 3.25 0 01-.85 2.51c-1.08 1.15-2.85.1-3-1.23-.1-.78-1-.74-1.08 0a3 3 0 003.36 3.56 2.67 2.67 0 002-1.46 3.37 3.37 0 00.29.37 2.78 2.78 0 003 .78c1.39-.44 2.41-3.34 1.19-4.35" fill="#9b8579"/>
      <path d="M52.34 78.3c-.06-.35-.29-.75-.68-.76a12.36 12.36 0 00-3.92.9.57.57 0 00-.34.43c-.51 1.52 1.06 2.94 2.41 3.16 1.92.31 2.82-2.29 2.55-3.76" fill="#fcd4d4"/>
      <path d="M47.21 70.45c-.74-.39-1.48.32-1.81.9a4.48 4.48 0 00-.4 2.77c0 .31.11.7.44.83s.66-.31.69-.62.07-2.06.74-1.9c.2 0 .27.27.33.5a1.89 1.89 0 01.05.23v.22a.76.76 0 010 .15c-.06.37 0 .94.44 1.1s.64-.34.71-.65c.28-1.18-.15-3-1.27-3.57M52.05 69.72c-1-.37-1.45 1-1.55 1.76v.97a.35.35 0 000 .06 2.88 2.88 0 00.21 1.36.3.3 0 00.57.06 3.59 3.59 0 00.51-1.25 2.37 2.37 0 01.29-.91h.09c.11 0 .2.21.25.31a2.35 2.35 0 01.25 1.19c0 .55.71 1.11.91.35.33-1.24-.16-3.44-1.52-3.92" fill="#58595b"/>
    </g>
  </g>
</svg>
