<svg xmlns="http://www.w3.org/2000/svg" viewBox="0 0 144 175">
  <g id="Layer_2" data-name="Layer 2">
    <g id="Layer_1-2" data-name="Layer 1">
      <path fill="#98c4d1" d="M0 0h144v175H0z"/>
      <path d="M109.14 96.81s-1.88-1.58-.82-2.85 2.91 0 3.52 1.43-1.27 2.42-1.27 2.42" fill="#fff8d5"/>
      <path d="M82.37 175c-.22-11.17-2.87-86.42-32.5-85.48S17.56 163.92 17.32 175z" fill="#6c828d"/>
      <path d="M19.74 130.53s2 36.46 4 36.9 25.44-1.53 26.16-3.93-1.35-18.9-1.13-20.2 2.73-3.59 2.51-6.76-1-10-2.52-10.58-27.5-.11-29 4.57" fill="#c49a6c"/>
      <path d="M55.66 96.62c26.74 3.39 41.45 65.21 62 3.44M42.86 98.13C17.61 109.75-21.58 159 48.36 153" fill="none" stroke="#6c818c" stroke-miterlimit="10" stroke-width="11.31"/>
      <path d="M55.88 91.06l.6-2.12c-2-3.25-13.14-1.69-13.55-.53a8.6 8.6 0 00.32 3s4.89 32.51 5.54 33.06 7.09-33.36 7.09-33.36" fill="#fff"/>
      <path d="M46.82 82.8v5.79c0 .3 2.16 3 2.85 2.77a9.17 9.17 0 002.86-2.71c.25-.59.64-6.25.64-6.25" fill="#fff8d5"/>
      <path d="M43.25 91.36s-8.31 9.5-7.55 9.82 4.58 1.42 4.58 1.42-4.14 6.65-3.71 7 12.22 14.84 12.22 14.84z" fill="#627780"/>
      <path d="M48.79 124.42c.21.76 11.68-16.81 11.35-18s-3.66-5.56-3.66-5.56 6.76-.83 6.85-1.67-7.27-8.75-7.27-8.75-7.59 32.79-7.27 34" fill="#627780"/>
      <path d="M49.49 91.36s-3.89 3.06-3.72 3.55a8.38 8.38 0 001.47 1.71l-1.48 9.7 3 18.1 3.64-18s-2-9.45-1.92-9.77 2.37-1.71 1.92-2.2-2.52-3.4-2.94-3.06" fill="#2cc2e1"/>
      <path d="M30.58 38.39s-1.23 39.73 1.64 42.28 32.78 4.09 35.6-3.06 1.23-36.16 0-39.22-37.16-4.11-37.24 0" fill="#fff8d5"/>
      <path d="M144 106.92c-10.12-1.61-52.18-2.23-54 .51 0 0-4.57 44.26-2.29 44.92 1.77.51 39 1.53 56.25-.75z" fill="#c49a6c"/>
      <path d="M144 106.7c-10.06-2-54.35-3.69-54 .73 0 0 2 13.93 3.38 14.59s47.35 1.42 48.11 0a75.34 75.34 0 002.47-7.14z" fill="#b28d62"/>
      <path d="M116.22 120.38s-.87 6.38 2.07 7.88 3.5-5.53 3.39-7.88z" fill="#ffc846"/>
      <path d="M127.35 105.09s-1.56-7.89-2.21-8.47-15.38-.16-15.87 0-1.4 8-1.4 8c.5.49 2.13 1.06 2.7.45s.66-6.09 1.15-6.34 10.47-.65 11.21-.33 1 6.88 1.56 7.12 3 .44 2.86-.45" fill="#b28d62"/>
      <path d="M111.83 94.9c-.21.34-1.65 4.54.85 5.45s8.92 3.13 10.34 1.59 2.61-5.85 0-7-10.18-1.73-11.19 0M46.94 147.5s.44-4.12 2.91-3.8-.18 3.19-.18 3.19 1.33-.73 2.62 1.23 1.82 12.63-3.93 10.56c0 0-2-2.67-1.42-11.18M36.1 60.92a5.35 5.35 0 11-5.34-5.34 5.34 5.34 0 015.34 5.34M74 61.69a5.35 5.35 0 11-5.34-5.35A5.35 5.35 0 0174 61.69" fill="#fff8d5"/>
      <path d="M62.32 45S54.57 49.14 50 49.79 48.47 46 48.47 46s-6.11 4.26-9.71 5-3.39-4.69-3.39-4.69-2.37 8.61-4.61 11.34-6.15-21.28-.44-27.94S57.63 29 57.63 29s3.71-4 9.38 1.75 3.74 28.22 1.67 28.54S62.32 45 62.32 45" fill="#58595b"/>
      <path d="M60.62 61.69c0 3.14-1.8 5.68-4 5.68s-4-2.54-4-5.68 1.79-5.69 4-5.69 4 2.55 4 5.69" fill="#fff"/>
      <path d="M55.71 60.92c-.78 0-1.44.71-1.73 1.72A1.19 1.19 0 0154 65c.31.93.94 1.58 1.68 1.58 1 0 1.88-1.27 1.88-2.83s-.84-2.84-1.88-2.84" fill="#58595b"/>
      <path d="M48.26 61.69c0 3.14-1.8 5.68-4 5.68s-4-2.54-4-5.68S42 56 44.25 56s4 2.55 4 5.69" fill="#fff"/>
      <path d="M44.17 60.92c-.77 0-1.44.71-1.73 1.72a1.19 1.19 0 01.05 2.36c.31.93.94 1.58 1.68 1.58 1 0 1.89-1.27 1.89-2.83s-.85-2.84-1.89-2.84" fill="#58595b"/>
      <path d="M46.82 73.55s-1.6 6.3 3.17 6.71 4-7.12 4-7.12z" fill="#d17751"/>
      <path d="M50 80.26A3.05 3.05 0 0052.86 79a4.15 4.15 0 00-3.49-2 4 4 0 00-2.49.86 3.35 3.35 0 003.12 2.4" fill="#f68b5f"/>
      <path d="M50.65 60.65c-1.33.29-2.63 9.56-1.86 10s4.38.23 4.56-.46-1.9-9.73-2.7-9.56" fill="#fdddc1"/>
      <path d="M47.61 53.06c.15.5-1.11 1.32-2.82 1.82s-3.21.5-3.36 0 1.12-1.32 2.82-1.82 3.21-.5 3.36 0M58.89 54.34c-.14.51-1.65.54-3.36.07s-3-1.26-2.85-1.77 1.64-.54 3.35-.07 3 1.27 2.86 1.77" fill="#58595b"/>
      <text transform="rotate(-5.99 1325.839 -135.126)" font-size="5.5" fill="#fff" font-family="sans-serif" font-weight="700">
        EVIDENCE
      </text>
    </g>
  </g>
</svg>
