<svg xmlns="http://www.w3.org/2000/svg" viewBox="0 0 144.02 175.04">
  <defs>
    <clipPath id="clip-path">
      <path fill="none" d="M40.88 62.19h67.25v92.6H40.88z"/>
    </clipPath>
    <clipPath id="clip-path-2">
      <path fill="none" d="M63.16 122.42H80.3v18.84H63.16z"/>
    </clipPath>
    <clipPath id="clip-path-3">
      <path fill="none" d="M77.49 107.97h20.39v16.39H77.49z"/>
    </clipPath>
    <clipPath id="clip-path-4">
      <path fill="none" d="M56.41 103.59h17.14v18.65H56.41z"/>
    </clipPath>
  </defs>
  <g id="Layer_2" data-name="Layer 2">
    <g id="Layer_1-2" data-name="Layer 1">
      <path fill="#27aae1" d="M.01 0h144v175.04H.01z"/>
      <path d="M48.17 95.67c-.15-2.46.72-5.07 7.67-5.93s44.58-5.36 46 3-16.14 26.85-22.94 22.22" fill="#facc75"/>
      <path d="M70.05 118s14.14-93.88 9.87-96c-6.61-3.3-28.53-5.31-29.24-3.38s-1.28 5.6.84 6.37 21.22 1.54 21.22 3.86-6.73 81-6.16 84.78M83.64 57.66s28.18 38.6 33.58 39.75 11.58-25.27 1.54-38.2-39.11-6.94-35.12-1.55" fill="#f9ed32"/>
      <path d="M115.28 63c-7.28-9.41-25.38-8-31.09-4.59 3.69 5 25.61 34.61 32.1 38.57 4-5.23 6.76-24-1-34" fill="#fff9b6"/>
      <path d="M85.59 60.3S90 58.43 91 59.64s4.58 12.41 4.24 13.56c-.41 1.39-10.32-12.63-9.63-12.9M95.75 58.87c-.24.78.48 15.39 1.79 15s11.67-8.34 11.46-10.32-12.45-7.24-13.22-4.68M111.38 67.26s-12.25 8.42-11.14 9.13 14.18 6.69 16.4 4.23-1-16.36-5.26-13.36M100.53 79.7c2.51-.18 13.53 7.57 13.53 8.47s-.22 5.6-1.3 5.6-13.82-14-12.23-14.07" fill="#f9ed32"/>
      <g clip-path="url(#clip-path)" opacity=".8">
        <path d="M40.93 66.15c0 4.63-1.15 83.36 8.11 86.25s46.89 3.48 51.52 0 9.26-82.2 7-86.25-66.54-6.37-66.58 0" fill="#88d5ee"/>
      </g>
      <path d="M48.17 95.67c.25 3.77 3.18 51.23 4.92 52.68s41.68 4.34 43.42 0 6.65-54.56 4.92-56.59-12.88 8.83-19.25 4.78c-3.16-2-12.34-.85-20-.44s-14.33-4.77-14-.43" fill="#f8ef67"/>
      <g clip-path="url(#clip-path-2)" opacity=".5">
        <path d="M63.22 133.3c.83 3.56 4 7.67 5.07 8s11.86-5.65 12-8-2-10.42-4.2-10.86S62.21 129 63.22 133.3" fill="#fff"/>
      </g>
      <g clip-path="url(#clip-path-3)" opacity=".5">
        <path d="M83 108.45c-3 2.09-5.62 6.61-5.51 7.66s9.64 8.93 11.85 8.2 8.92-5.75 8.52-7.92-11.2-10.49-14.86-7.94" fill="#fff"/>
      </g>
      <g clip-path="url(#clip-path-4)" opacity=".5">
        <path d="M56.46 114.14c.74 3.58 3.86 7.77 4.86 8.09s12-5.35 12.21-7.66-1.76-10.47-3.92-11-14 6.17-13.15 10.53" fill="#fff"/>
      </g>
    </g>
  </g>
</svg>
