<svg xmlns="http://www.w3.org/2000/svg" viewBox="0 0 144 163.18">
  <g id="Layer_2" data-name="Layer 2">
    <g id="Layer_1-2" data-name="Layer 1">
      <path fill="#8ad5e7" d="M0 0h144v121.32H0z"/>
      <path d="M141.71 96.49V61.84h-3.06V56h-11.21v6.88h-8.66v35.65h-4.08V67.7h-25v46.37h-3.28V56H64.77v28.26h-3.06v-9.17H39v29.55h-3.53V39.42h-2.55v-7.13H20.69v7.64H7.7V96H4.13V56.24H0v65l144-.05v-24.7z" fill="#6aa4b3"/>
      <path fill="#a7a9ac" d="M0 110.06h144v53.12H0z"/>
      <path d="M26.5 117.57c-12.08 0-16.28 9.46-16.28 16.42h24.41l-.75-16.42zM107.93 117.57c24.19-.74 25.74 9.46 25.74 16.42h-30.48v-16.42z" fill="#58595b"/>
      <path d="M137.1 134a2.21 2.21 0 01-2.21 2.22h-2.44a2.22 2.22 0 110-4.43h2.44a2.21 2.21 0 012.21 2.21M12.5 134a2.21 2.21 0 01-2.22 2.22H7.84a2.22 2.22 0 010-4.43h2.44A2.21 2.21 0 0112.5 134" fill="#414042"/>
      <path d="M99.59 107.42H34a42.32 42.32 0 00-6.6 22.77c0 1.28.06 2.55.17 3.8H106c.11-1.25.17-2.52.17-3.8a42.32 42.32 0 00-6.6-22.77" fill="#58595b"/>
      <path d="M92 111.66v5.91h12.26a41.48 41.48 0 00-2.33-5.91zM39.59 111.66h-5.1a41.48 41.48 0 00-2.33 5.91h7.43z" fill="#f1f2f2"/>
      <path fill="#6d6e71" d="M41.28 111.65h48.5v5.92h-48.5z"/>
      <path fill="#f1f2f2" d="M42.36 113.03h.33v3.17h-.33zM88.36 113.03h.33v3.17h-.33z"/>
      <path d="M35.6 134a7.73 7.73 0 11-7.73-7.72A7.73 7.73 0 0135.6 134" fill="#414042"/>
      <path d="M31 134a3.16 3.16 0 11-3.15-3.15A3.15 3.15 0 0131 134" fill="#fffef2"/>
      <path d="M118.64 134a7.73 7.73 0 11-7.73-7.72 7.73 7.73 0 017.73 7.72" fill="#414042"/>
      <path d="M114.06 134a3.15 3.15 0 11-3.15-3.15 3.15 3.15 0 013.15 3.15" fill="#fffef2"/>
      <path d="M129.85 122.52H14c-.35.47-.68 1-1 1.46h117.84c-.31-.5-.63-1-1-1.46" fill="#f1f2f2"/>
    </g>
  </g>
</svg>
