<svg class="logo" width="159" height="27" viewBox="0 0 159 27" xmlns="http://www.w3.org/2000/svg">
  <defs>
    <linearGradient id="header-shape-gradient" x2=".35" y2="1">
      <stop offset="0%" stop-color="#7E07A9"/>
      <stop offset="30%" stop-color="#7E07A9"/>
      <stop offset="100%" stop-color="#D30068"/>
    </linearGradient>
  </defs>
  <path fill="url(#header-shape-gradient)" d="M16.625.117a.48.48 0 010 .211.54.54 0 01-.047.188c-.062.187-.11.312-.14.375a.288.288 0 00-.047.164.715.715 0 000 .258c.015.078.023.164.023.257 0 .094-.016.196-.047.305-.015.11-.039.219-.07.328a4.749 4.749 0 00-.094.656 8.045 8.045 0 01-.07.61c-.031.14-.07.289-.117.445a.792.792 0 00-.024.422.772.772 0 01-.023.187l-.047.188c-.031.172-.063.36-.094.562-.015.188-.039.391-.07.61-.016.125-.031.242-.047.351a.886.886 0 01-.047.282l-.117.398c-.016.078-.04.172-.07.281-.032.094-.102.157-.211.188.03-.281.015-.508-.047-.68a6.09 6.09 0 01-.117-.516 1.264 1.264 0 01-.165-.398 3.996 3.996 0 01-.117-.281 2.2 2.2 0 00-.047-.164.378.378 0 01-.046-.164.381.381 0 000-.188.252.252 0 00-.047-.14.443.443 0 01-.024-.141.292.292 0 010-.164.477.477 0 000-.211.54.54 0 01-.07-.211.373.373 0 000-.188c-.063-.171-.11-.273-.14-.304l-.094-.14a.593.593 0 01-.07-.141.426.426 0 01-.188-.141.628.628 0 00-.281-.281.817.817 0 01-.165-.164c-.14-.047-.234-.11-.28-.188-.126-.062-.204-.086-.235-.07-.031.015-.063.008-.094-.024-.219-.093-.375-.132-.469-.117-.093 0-.18-.008-.258-.023l-.14-.047a.907.907 0 01-.117-.047 3.661 3.661 0 00-.282-.07l-.234-.047A5.961 5.961 0 0011 2.109a2.84 2.84 0 00-.516 0c-.078 0-.156.008-.234.024-.078 0-.156.008-.234.023-.313.047-.618.102-.914.164-.282.047-.579.102-.891.164a3.017 3.017 0 01-.399.07c-.14.016-.296.04-.468.071-.172.047-.282.07-.328.07-.032-.015-.086-.007-.164.024a2.88 2.88 0 00-.446.187c-.078.047-.156.11-.234.188-.016.047-.055.078-.117.094-.047.015-.078.039-.094.07.031.172.031.336 0 .492-.031.156-.055.32-.07.492a6.781 6.781 0 000 .797c.03.25.03.5 0 .75a.443.443 0 01-.024.14.26.26 0 00-.023.118.52.52 0 00-.024.164.442.442 0 01.024.14 8.266 8.266 0 01-.047.329c0 .093-.008.187-.024.28.032.188.04.306.024.353a.208.208 0 00-.024.093c.016.282.016.57 0 .867 0 .188-.007.375-.023.563l-.047.586c.078.078.18.11.305.094s.258-.008.398.023c.25 0 .477.008.68.024.219.015.437-.016.656-.094h.305c.14 0 .297.008.469.023.187.016.343 0 .468-.047.094-.03.196-.086.305-.164l.328-.234c.11-.125.172-.203.188-.235a.91.91 0 00.047-.117c.093-.14.14-.234.14-.28 0-.048.008-.095.024-.142.093-.234.14-.39.14-.468.016-.094.04-.18.07-.258.094-.156.141-.266.141-.328 0-.078.031-.133.094-.164.094-.203.14-.297.14-.282.016-.046.055-.148.118-.304a.443.443 0 00.023-.14c.016-.063.031-.118.047-.165.078-.11.11-.172.094-.187a.18.18 0 01.023-.07c.031-.095.063-.196.094-.305.047-.11.094-.204.14-.282a1.13 1.13 0 00.07-.117.768.768 0 01.095-.117c.078-.125.117-.18.117-.164h.117a.46.46 0 01-.047.351 2.31 2.31 0 00-.117.352c-.031.125-.047.25-.047.375s-.008.258-.023.398l-.047.375c0 .11-.008.227-.024.352a47.52 47.52 0 01-.093.586 3.546 3.546 0 01-.094.539 1.322 1.322 0 01-.047.305c-.016.015-.023.039-.023.07a.767.767 0 00-.024.188c0 .062-.008.132-.023.21l-.047.493v.492c0 .14-.008.234-.024.281a.443.443 0 00-.023.14 2.848 2.848 0 00-.024.352c.016.094.024.196.024.305-.016.11-.016.226 0 .351.016.141.023.329.023.563.016.234.024.46.024.68 0 .234-.016.468-.047.703a5.287 5.287 0 000 .703c-.125.094-.203.11-.234.047a.918.918 0 01-.07-.188.226.226 0 01-.095-.117.592.592 0 00-.07-.14 2.374 2.374 0 01-.187-.563.443.443 0 01-.024-.14.29.29 0 00-.047-.165 2.45 2.45 0 01-.117-.398c0-.094-.008-.18-.023-.258a1.708 1.708 0 01-.024-.281.688.688 0 00-.047-.258c-.078-.172-.132-.273-.164-.305-.03-.047-.062-.093-.093-.14a.802.802 0 00-.164-.164 2.338 2.338 0 00-.188-.164 3.7 3.7 0 01-.281-.188c0-.016-.008-.023-.024-.023a5.147 5.147 0 00-.562-.235.593.593 0 00-.235 0H6.899c-.312.016-.554.031-.726.047-.156 0-.328-.008-.516-.023-.015.312-.039.617-.07.914a8.464 8.464 0 000 .89v.305c0 .094.008.195.023.305.016.078.032.164.047.258a.82.82 0 01.047.257.77.77 0 01-.023.188 4.584 4.584 0 00-.047.21c-.016.329.023.634.117.915.11.281.188.578.234.89.11.126.172.188.188.188.016 0 .039.016.07.047a.64.64 0 00.305.164c.156.094.258.148.305.164.046 0 .085.016.117.047.25.14.46.242.633.305a.155.155 0 00.14.023.155.155 0 01.14.023l.141.047c.047.016.11.032.188.047h.164c.063 0 .133.008.21.024.063 0 .118.007.165.023a.772.772 0 00.188.023.715.715 0 00.257 0c.11-.03.22-.046.328-.046.282-.016.57-.024.868-.024.296 0 .593-.008.89-.023.125-.016.235-.024.328-.024.11-.015.22-.03.329-.047.171-.03.335-.039.492-.023.172 0 .32-.04.445-.117.078-.031.172-.055.281-.07a.485.485 0 00.281-.141c.126-.156.204-.266.235-.328a.353.353 0 01.117-.14c.016-.048.031-.102.047-.165.016-.062.031-.117.047-.164a.995.995 0 00.14-.305l.094-.28a1.13 1.13 0 01.07-.118.59.59 0 00.07-.14.575.575 0 00.048-.212c0-.078.015-.156.047-.234a1.17 1.17 0 00.093-.211.37.37 0 01.07-.094.587.587 0 00.07-.14c.032-.047.063-.102.095-.164.015-.172.047-.282.093-.329a.649.649 0 01.07-.257c.048-.063.087-.125.118-.188a.227.227 0 00.047-.117c0-.047.015-.102.047-.164.11-.156.156-.242.14-.258 0-.031.008-.062.024-.094.047-.078.101-.187.164-.328.047-.156.078-.25.094-.281.03-.047.054-.086.07-.117.203-.11.297-.14.281-.094-.015.031-.008.063.024.094 0 .078.03.164.093.258.032.046.04.101.024.164-.016.046-.008.101.023.164.063.156.094.242.094.258a.956.956 0 01.047.304c0 .11.008.219.023.328l.047.282.047.28c0 .095-.008.188-.023.282 0 .094-.008.18-.024.258a.583.583 0 010 .234c-.015.094-.023.18-.023.258.03.266.039.469.023.61 0 .124.016.25.047.374a.52.52 0 00.023.165l.047.14c.047.11.063.18.047.211a.18.18 0 00.024.07c.047.157.078.274.093.352.032.062.063.133.094.21.031.11.047.212.047.306.016.093.04.195.07.304.016.094.04.196.07.305a.433.433 0 010 .281c-.078.078-.163.11-.257.094a.622.622 0 00-.305-.023 6.378 6.378 0 01-1.008-.07 4.283 4.283 0 00-.633 0 1.786 1.786 0 01-.515-.024.685.685 0 00-.164-.024.376.376 0 00-.188 0 1.57 1.57 0 00-.258.024h-.234a8.838 8.838 0 00-.914 0c-.266 0-.516-.008-.75-.024h-.187a.52.52 0 00-.165-.023.216.216 0 00-.14 0 .443.443 0 01-.14.023c-.079 0-.165-.008-.259-.023a5.13 5.13 0 00-.28-.047h-.4a.61.61 0 00-.187-.023.468.468 0 01-.21 0 .477.477 0 00-.212 0c-.328.109-.625.171-.89.187-.25.016-.485.04-.703.07l-.235.047h-.21c-.141.032-.282.055-.423.07a8.26 8.26 0 00-.328.047c-.11.032-.203.055-.28.07a1.251 1.251 0 01-.282.024.824.824 0 00-.235.024.443.443 0 01-.14.023c-.11.016-.211.023-.305.023l-.281.047-.281.047c-.079.016-.172.04-.282.07-.125.032-.25.047-.375.047-.109.016-.234.055-.375.118-.171.062-.28.093-.328.093a.261.261 0 00-.117.024 5.667 5.667 0 00-.398.07c-.047.016-.102.008-.164-.023.03-.235.054-.375.07-.422.11-.14.187-.227.234-.258a.626.626 0 00.117-.164c.094-.14.172-.234.235-.281a2.56 2.56 0 00.187-.211.295.295 0 00.07-.117c.032-.047.063-.102.094-.165a.762.762 0 01.118-.093.931.931 0 00.117-.14c.062-.095.117-.188.164-.282.094-.14.148-.227.164-.258l.047-.094c.047-.25.07-.383.07-.398a1.303 1.303 0 000-.492l-.047-.47a.685.685 0 00-.023-.233.52.52 0 01-.024-.165 4.475 4.475 0 01-.047-.632 5.275 5.275 0 000-.703c-.015-.172-.015-.274 0-.305a.1.1 0 000-.094c0-.125-.015-.234-.046-.328a1.857 1.857 0 01-.024-.305 4.636 4.636 0 01-.047-.656c.016-.234.032-.437.047-.61v-.234c.016-.093.024-.172.024-.234a1.84 1.84 0 00-.047-.399c-.032-.14-.063-.296-.094-.468a1.94 1.94 0 01-.047-.422 1.232 1.232 0 00-.023-.422 2.046 2.046 0 00-.094-.422 2.046 2.046 0 01-.094-.422 5.446 5.446 0 01-.023-.492c.015-.172.023-.344.023-.516v-.632c0-.282-.008-.532-.023-.75a1.707 1.707 0 01-.024-.282v-.28a8.143 8.143 0 01-.047-.259 8.199 8.199 0 00-.046-.258 8.199 8.199 0 01-.047-.257c0-.11-.008-.203-.024-.282V3.47a.757.757 0 00-.164-.492 2.471 2.471 0 01-.14-.211 1.64 1.64 0 00-.118-.235 1.04 1.04 0 00-.093-.187 1.06 1.06 0 00-.188-.188.427.427 0 01-.14-.187 1.198 1.198 0 00-.305-.164.768.768 0 01-.117-.094c-.157-.14-.258-.211-.305-.211a.294.294 0 01-.117-.07 3.838 3.838 0 01-.399-.235 1.642 1.642 0 00-.234-.117 3.06 3.06 0 01-.469-.14 1.336 1.336 0 00-.234-.07A.284.284 0 01.43.68C.508.57.617.53.758.562l.398.047c.235.016.477.016.727 0 .25-.03.484-.03.703 0h1.313c.14-.015.28-.039.421-.07.063-.016.11-.016.14 0a.987.987 0 00.165-.023c.156-.032.234-.04.234-.024.016.016.04.024.07.024A.442.442 0 005.07.492.386.386 0 015.187.47c.157.062.274.101.352.117.078.016.14.023.188.023a.341.341 0 01.21.024.771.771 0 00.235.047h.21c0-.016.016-.024.048-.024.203.063.32.086.351.07.032-.015.086-.015.164 0h.985c.156-.015.25-.015.28 0l.095.047c.062.016.156.024.28.024.08.015.15.039.212.07.078.016.156.024.234.024h.211a1.317 1.317 0 01.492 0h.375a.385.385 0 01.118-.024l.492.047c.219.047.367.063.445.047.094-.016.18-.031.258-.047.062 0 .11.008.14.023a.442.442 0 00.141-.023c.156-.031.235-.039.235-.023H12.148a.48.48 0 01.211 0c.094 0 .18.007.258.023.094.016.18.023.258.023h.14a.443.443 0 01.141-.023c.078 0 .149.008.211.023.078 0 .164-.007.258-.023a.479.479 0 01.21 0c.095.016.18.016.259 0a.443.443 0 00.14-.023.77.77 0 01.188-.024c.25-.031.43-.062.539-.094.078-.03.14-.062.187-.093a.975.975 0 01.188-.14c.062-.048.125-.087.187-.118a.343.343 0 00.165-.117c.187-.016.304-.04.351-.07.063-.047.117-.087.164-.118.063-.031.18-.047.352-.047l.07.047zM29.75 18.422a.922.922 0 00-.14.117 1.533 1.533 0 01-.094.164 2.78 2.78 0 00-.118.328.523.523 0 00.094.352l.164.187c.016 0 .024.008.024.024a.204.204 0 00.21-.024c.063-.03.126-.062.188-.093a1.29 1.29 0 01.164-.07c.047-.016.11-.009.188.023-.016.172-.047.25-.094.234a.159.159 0 00-.117.047 2.05 2.05 0 01-.492.258.701.701 0 01-.61-.047 4.697 4.697 0 01-.094-.258.405.405 0 01.024-.234c0-.063.015-.172.047-.328a.593.593 0 000-.235c0-.062.015-.133.047-.21l.187-.282c.047-.078.086-.156.117-.234a.283.283 0 01.164-.164.538.538 0 01.352.023c.125.031.242.063.352.094l.328.093c.109.047.203.102.28.165a.265.265 0 01.095.093c.047.063.086.11.117.14.062.08.11.142.14.188a.907.907 0 01.094.258.69.69 0 01.047.258v.375c.016.125.023.234.023.328a.781.781 0 01-.023.328c0 .032-.016.063-.047.094-.015.047-.039.102-.07.164l-.094.235c0 .015-.008.023-.023.023a1.763 1.763 0 01-.164.187l-.188.188c-.094.094-.156.14-.187.14a.18.18 0 00-.07.024c-.173.125-.29.195-.352.21a.945.945 0 01-.282.095.327.327 0 01-.14.023.92.92 0 00-.117.047l-.282-.023a1.37 1.37 0 01-.375-.047 3.503 3.503 0 01-.351-.07 2.968 2.968 0 01-.328-.165 1.032 1.032 0 01-.188-.093 2.473 2.473 0 01-.21-.141l-.188-.188a3.793 3.793 0 01-.258-.304c-.094-.14-.14-.235-.14-.282a.207.207 0 00-.024-.093 1.12 1.12 0 00-.07-.117 3.507 3.507 0 00-.07-.188 1.536 1.536 0 00-.094-.164 2.206 2.206 0 01-.047-.164 2.43 2.43 0 01-.094-.305c-.016-.11-.031-.21-.047-.304a17.93 17.93 0 01-.21-.586 1.475 1.475 0 01-.071-.47 2.847 2.847 0 010-.515c.031-.187.047-.367.047-.539a2.039 2.039 0 01-.024-.281c.016-.078.024-.156.024-.234v-.54a.386.386 0 00.023-.117l.047-.14c.016-.157.023-.29.023-.399 0-.125.008-.25.024-.375.015-.156.039-.344.07-.562a1.71 1.71 0 00-.023-.281c0-.094.008-.188.023-.282a.26.26 0 01.024-.117.444.444 0 00.023-.14 1.565 1.565 0 01-.023-.446 1.58 1.58 0 00.023-.258 3.22 3.22 0 00.023-.398v-.399l.094-.656c.032-.234.055-.46.07-.68a1.325 1.325 0 000-.351 2.828 2.828 0 01-.023-.352V9.82a.767.767 0 00.024-.187 1.904 1.904 0 00-.024-.516 51.472 51.472 0 00-.047-.492c-.031-.047-.039-.078-.023-.094.031-.031.039-.086.023-.164-.125-.36-.25-.601-.375-.726a2.69 2.69 0 00-.492-.375 1.402 1.402 0 01-.234-.118 2.51 2.51 0 00-.54-.14 1.67 1.67 0 00-.468.023 2.17 2.17 0 01-.258.07c-.078.016-.156.04-.234.07-.094.032-.188.071-.282.118a4.495 4.495 0 01-.328.094 2.837 2.837 0 01-.234.21l-.211.212c-.156.11-.25.195-.281.258a.598.598 0 01-.14.14 1.635 1.635 0 00-.212.188c-.031.046-.078.109-.14.187a1.763 1.763 0 00-.165.188.77.77 0 01-.117.093c-.03.032-.062.063-.093.094a1.645 1.645 0 01-.188.211c-.094.11-.187.211-.281.305a.592.592 0 00-.07.14c0 .032-.016.063-.047.094a.465.465 0 01-.141.164 1.522 1.522 0 00-.14.164 8.814 8.814 0 00-.282.399c-.094.14-.18.273-.258.398.032.125.04.25.024.375-.016.11-.024.242-.024.399 0 .062.008.125.024.187.015.063.031.133.047.211a.873.873 0 01-.024.21c0 .063.008.134.024.212 0 .125.015.265.047.422.03.203.054.406.07.61l.047.585c0 .14-.008.29-.024.445 0 .157.008.305.024.446 0 .125.015.258.047.398a.671.671 0 010 .352c.03.156.054.265.07.328.015.062.031.133.047.21.062.063.133.11.21.141.094.032.188.07.282.118.047.046.117.101.21.164a.377.377 0 00.165.047c.047 0 .086.015.117.046.094.078.172.133.235.164a.21.21 0 01.117.141c.14.11.226.18.258.211.03.031.03.063 0 .094a.412.412 0 01-.329.093 2.322 2.322 0 00-.328-.023.766.766 0 00-.187-.023h-.188a7.558 7.558 0 00-.843 0c-.313 0-.61.007-.891.023a3.925 3.925 0 00-.61 0 5.453 5.453 0 01-.492.023h-.21c-.016-.015-.04-.023-.07-.023-.08 0-.157.008-.235.023a1.252 1.252 0 01-.282.024c-.171.016-.312.039-.421.07-.094.016-.18-.015-.258-.093-.016-.094.008-.141.07-.141a.323.323 0 00.164-.07c.14-.063.235-.094.281-.094.172-.063.305-.133.399-.211a.857.857 0 01.351-.188c.22-.125.336-.21.352-.257.187-.094.312-.165.375-.211l.164-.164c.016-.079.023-.157.023-.235.016-.078.032-.164.047-.258.016-.203.024-.445.024-.726 0-.281-.008-.555-.024-.82a77.193 77.193 0 00-.047-.141.69.69 0 01-.023-.164c0-.11.016-.211.047-.305.031-.11.055-.21.07-.305a1.382 1.382 0 01-.164-.562c0-.203.008-.43.024-.68a4.503 4.503 0 01-.024-.281.517.517 0 000-.305.69.69 0 01-.023-.164 1.625 1.625 0 01-.024-.469c.016-.156.024-.351.024-.585l-.047-.47v-.444a.505.505 0 000-.305c0-.328-.047-.633-.14-.914-.079-.157-.118-.258-.118-.305a.159.159 0 00-.047-.117.426.426 0 00-.14-.188.918.918 0 01-.118-.21 3.315 3.315 0 00-.375-.258.976.976 0 00-.187-.141 2.196 2.196 0 00-.281-.188.9.9 0 00-.399-.21.825.825 0 01-.328-.188c-.11-.187-.117-.273-.023-.258.078.016.148.024.21.024h.211a.871.871 0 01.211-.024c.328-.015.664-.015 1.008 0h.164c.047 0 .11-.008.188-.023a.78.78 0 01.328-.024c.11.016.219.024.328.024a.871.871 0 00.21-.024c.063-.015.134-.03.212-.046a2.35 2.35 0 01.469 0c.172.015.343.015.515 0 .032.078.032.14 0 .187a.524.524 0 00-.07.164.628.628 0 00-.047.234c0 .063-.008.133-.023.211-.047.172-.07.282-.07.329a.208.208 0 01.023.093 4.712 4.712 0 01-.047.211 1.58 1.58 0 00-.07.445.593.593 0 010 .235l-.047.187c-.016.063-.04.133-.07.211a5.181 5.181 0 00-.07.446c-.017.14-.017.28 0 .421.062-.015.1-.039.116-.07A.774.774 0 0121.125 9a2.86 2.86 0 01.21-.234 2.84 2.84 0 00.212-.235c.078-.094.125-.14.14-.14l.07-.07a.768.768 0 00.095-.118c.046-.062.093-.117.14-.164l.328-.375c.125-.125.242-.258.352-.398.11-.157.18-.25.21-.282a.294.294 0 01.118-.07.294.294 0 00.117-.07c.063-.063.11-.117.14-.164a2.04 2.04 0 01.188-.211c.11-.063.172-.102.188-.117.031-.016.07-.04.117-.07.156-.11.242-.165.258-.165a.208.208 0 00.094-.023.917.917 0 00.21-.117.734.734 0 01.188-.141c.031-.016.07-.016.117 0a.442.442 0 00.14-.024c.079-.015.157-.023.235-.023h.164c.063 0 .125.008.188.024a.77.77 0 00.187.023.772.772 0 00.188.023.77.77 0 01.187-.023c.047.016.094.039.14.07a.916.916 0 00.188.07c.11.063.211.102.305.118.11.047.211.093.305.14.11.047.21.11.304.188a.95.95 0 01.422.164l.094.094c.047.03.094.062.14.093.094.079.173.157.235.235.078.078.148.156.211.234.031.047.055.086.07.117a.509.509 0 01.094.188c.094.172.133.297.117.375 0 .062.016.133.047.21.031.095.063.18.094.259.047.078.086.156.117.234.016.156.023.258.023.305a.208.208 0 01.024.093c.031.204.031.422 0 .657a9.366 9.366 0 00-.07.656 3.222 3.222 0 00-.024.398c.016.125.024.25.024.375-.032.344-.078.68-.141 1.008a9.718 9.718 0 00-.094 1.031c.016.157.016.243 0 .258v.258a.516.516 0 01.024.164c0 .125-.008.242-.024.352a1.859 1.859 0 00-.023.304 1.087 1.087 0 00-.024.211.772.772 0 01.024.188l-.047.14a.443.443 0 00-.023.141v.188a.873.873 0 01.023.21v.211c0 .047-.008.11-.023.188v.351c0 .079-.008.157-.024.235a.867.867 0 00-.023.21v.259c.015.093.023.187.023.28 0 .095-.008.196-.023.306v.444a.69.69 0 01.023.165 4.233 4.233 0 000 .89c.016.126.008.266-.023.422-.016.157-.008.29.023.399l.047.14.094.141c.03.063.054.117.07.164.016.047.04.102.07.164.25.297.649.414 1.196.352.187-.016.336-.055.445-.117.11-.047.227-.125.352-.235a.406.406 0 01.023-.234c.047-.078.086-.156.117-.235a.325.325 0 00.024-.14v-.14c.046-.345.015-.634-.094-.868-.078-.172-.156-.281-.235-.328a1.16 1.16 0 00-.351-.117c-.11 0-.25-.016-.422-.047zM43.133 6c0 .14-.04.234-.117.281a.918.918 0 01-.211.117l-.422.211a2.626 2.626 0 00-.281.164c0 .016-.008.032-.024.047a2.314 2.314 0 00-.328.117 2.797 2.797 0 01-.21.094.77.77 0 01-.118.094.545.545 0 01-.14.094c-.126.078-.25.148-.376.21a.768.768 0 01-.117.094.592.592 0 00-.14.07c-.094.079-.18.196-.258.352-.078.157-.133.29-.164.399a.517.517 0 00-.024.164.29.29 0 010 .164 2.202 2.202 0 01-.047.164v.094a.851.851 0 000 .28c.016.095.024.204.024.33 0 .077-.008.155-.024.233v.961l.047.75v.422c.016.125.024.25.024.375.03.344.054.688.07 1.031a1.47 1.47 0 01-.234.891c.062.219.093.367.093.445.016.063.032.133.047.211.031.157.063.383.094.68.016.219.031.453.047.703.031.235.062.485.093.75v.235c0 .078.008.156.024.234 0 .078.008.156.023.234a.466.466 0 01.047.211c.016.078.024.157.024.235 0 .093.008.18.023.257v.211c.016.063.031.133.047.211.047.297.078.61.094.938.031.328.054.656.07.984a.593.593 0 010 .235v.234c0 .172-.008.336-.023.492-.016.156-.024.32-.024.492 0 .078.008.14.024.188a.48.48 0 010 .21.74.74 0 01-.118.259c-.062.109-.117.203-.164.28-.093.141-.164.227-.21.259a.775.775 0 00-.118.093l-.093.094a.77.77 0 01-.094.117l-.188.188a2.544 2.544 0 01-.21.187l-.094.094-.094.094a1.446 1.446 0 01-.258.164c-.078.047-.156.11-.234.187-.203.141-.344.227-.422.258a3.12 3.12 0 00-.516.328.615.615 0 01-.305.14 4.667 4.667 0 01-.257.095c-.078.03-.157.07-.235.117-.156.062-.32.148-.492.258l-.187.093c-.047.032-.11.063-.188.094a2.957 2.957 0 01-.281.094 2.15 2.15 0 00-.281.117.917.917 0 00-.188-.07c-.062 0-.133-.008-.21-.024a1.037 1.037 0 00-.329-.047c-.125 0-.242-.015-.352-.046l-.586-.047a4.311 4.311 0 01-.398-.07l-.422-.094a3.458 3.458 0 01-.375-.117 2.061 2.061 0 01-.351-.141 5.177 5.177 0 01-.47-.328.897.897 0 01-.21-.188l-.094-.14c-.11-.094-.164-.149-.164-.164.016 0 .008-.016-.023-.047a.77.77 0 00-.117-.094.364.364 0 01-.094-.07 1.053 1.053 0 00-.094-.235.274.274 0 01-.047-.07 2.606 2.606 0 01-.164-.281 1.601 1.601 0 01-.117-.328 2.146 2.146 0 01-.094-.352 2.596 2.596 0 01-.117-.727c0-.203.016-.414.047-.632.031-.203.055-.414.07-.633a.873.873 0 00-.023-.211c0-.063.008-.133.023-.211.016-.172.055-.328.117-.469.063-.14.11-.297.14-.469a1.08 1.08 0 00.259-.351c.078-.156.18-.281.304-.375.188-.094.305-.156.352-.188.063-.03.133-.062.21-.093.204-.078.345-.11.423-.094a.593.593 0 00.234 0l.281-.047c.094-.016.196-.031.305-.047.11 0 .234-.008.375-.023.156-.016.281-.016.375 0 .078.015.172.047.281.093a1.9 1.9 0 01.305.141c.188.11.336.227.445.352.11.14.22.289.328.445.094.14.165.242.211.305.047.078.086.156.118.234a.83.83 0 01.07.234c.016.11.023.196.023.258a.72.72 0 01-.093.281c-.063.11-.102.196-.118.258a.727.727 0 01-.046.14.295.295 0 01-.07.118.293.293 0 01-.071.117 2.52 2.52 0 00-.258.352.765.765 0 01-.117.094l-.117.117c-.078.125-.14.21-.188.258-.14.109-.25.187-.328.234a1.226 1.226 0 01-.187.117.856.856 0 01-.399 0 1.125 1.125 0 01-.304-.117 2.303 2.303 0 01-.305-.234c-.125-.094-.203-.18-.235-.258-.03-.032-.054-.102-.07-.211a2.65 2.65 0 00-.047-.258 1.845 1.845 0 01.024-.516c.03-.156.07-.297.117-.422.062-.156.101-.242.117-.257a.501.501 0 00.117-.094c.032-.031.078-.047.14-.047.079 0 .157-.008.235-.023.078-.016.149-.032.211-.047a.34.34 0 01.211.023c.078.11.133.242.164.399.031.172 0 .32-.094.445a4.597 4.597 0 00-.046.21c0 .079-.032.126-.094.142a.296.296 0 01-.164-.141.868.868 0 01-.024-.211.405.405 0 01.024-.234c.047-.063.039-.118-.024-.165-.093-.03-.172-.015-.234.047a1.637 1.637 0 00-.117.235.91.91 0 00-.07.281.985.985 0 000 .305.516.516 0 00.093.21c.063.079.125.141.188.188.156.156.36.149.61-.023.155-.14.25-.242.28-.305a2.78 2.78 0 01.164-.21 1.41 1.41 0 01.164-.282.542.542 0 00.164-.258c.016-.063.008-.195-.023-.398a1.095 1.095 0 00-.164-.47 1.017 1.017 0 00-.328-.28 1.042 1.042 0 00-.188-.094.8.8 0 01-.21-.094.892.892 0 01-.258-.21.494.494 0 00-.235-.165.473.473 0 00-.258-.023 5.227 5.227 0 01-.28.047.587.587 0 01-.235 0c-.094 0-.18.007-.258.023a.83.83 0 00-.258.14.57.57 0 01-.281.118c-.11.156-.195.312-.258.468a.69.69 0 00-.023.165.685.685 0 01-.024.164c-.031.093-.054.18-.07.257a8.278 8.278 0 00-.047.329c.016.171.008.312-.023.421l-.07.282v.164c.015.062.03.133.046.21 0 .11-.008.212-.023.305 0 .094.015.203.047.328.062.22.093.368.093.446 0 .078.024.164.07.258.063.093.094.156.094.187s.016.063.047.094c.032.047.07.101.117.164.047.078.094.148.141.21.125.11.195.165.211.165l.094.047c.078.094.14.148.187.164.063.031.133.062.211.094.172.078.29.117.352.117.078 0 .148.008.21.023.126.032.25.047.376.047.125.016.25.04.375.07.078.016.14.032.187.047a.59.59 0 00.14.07c.079.016.165.024.259.024H35.516c.093 0 .18-.008.257-.023a.833.833 0 00.211-.07l.188-.094c.125-.047.21-.086.258-.118.047-.03.093-.062.14-.093a1.03 1.03 0 00.305-.188 2.56 2.56 0 00.21-.187c.08-.063.173-.133.282-.211.11-.063.211-.133.305-.211l.328-.282c.063-.046.11-.078.14-.093a.294.294 0 00.118-.07c.11-.11.187-.212.234-.305a.989.989 0 00.094-.305 1.3 1.3 0 01.094-.328.491.491 0 00.07-.258c.031-.125.063-.281.094-.469a2.99 2.99 0 00.093-.515c0-.125-.007-.25-.023-.375a3.635 3.635 0 01-.023-.446c.03-.125.047-.21.047-.257a4.582 4.582 0 00-.047-.211.873.873 0 01-.024-.211c0-.11.008-.211.024-.305a.985.985 0 000-.305.703.703 0 010-.257c.015-.047.03-.094.047-.141a2.846 2.846 0 000-.516v-.515a5.453 5.453 0 01-.024-.492l.047-.47c.031-.343.055-.671.07-.984l.047-.96c-.047-.016-.086.007-.117.07l-.094.14a2.086 2.086 0 00-.234.375l-.094.188a2.266 2.266 0 00-.117.187.506.506 0 01-.094.118c-.11.203-.226.382-.351.539-.032.03-.063.062-.094.093l-.094.094a.91.91 0 01-.21.328.294.294 0 01-.118.07.228.228 0 00-.117.047c-.14.094-.219.149-.235.165l-.047.023c-.14.078-.242.14-.304.187a1.226 1.226 0 01-.188.118c-.25.093-.453.164-.61.21-.14.032-.312.04-.515.024-.14 0-.265-.016-.375-.047a1.605 1.605 0 00-.328-.117 12.433 12.433 0 01-.539-.117 2.98 2.98 0 01-.281-.094c-.031-.031-.078-.04-.14-.023-.063 0-.11-.016-.141-.047a6.89 6.89 0 00-.282-.164.366.366 0 01-.093-.07c-.141-.094-.22-.141-.235-.141a1.403 1.403 0 01-.281-.188 1.544 1.544 0 00-.14-.164 3.712 3.712 0 00-.165-.117 1.534 1.534 0 00-.164-.14 5.413 5.413 0 01-.304-.282.818.818 0 00-.305-.258.628.628 0 00-.117-.164l-.14-.187a.815.815 0 01-.188-.258.73.73 0 00-.094-.258 1.986 1.986 0 00-.188-.281.208.208 0 01-.023-.094c-.031-.172-.055-.266-.07-.281-.016-.016-.024-.04-.024-.07a2.494 2.494 0 01-.023-.352 3.29 3.29 0 00.023-.352c-.015-.25-.031-.445-.047-.586a4.714 4.714 0 01-.023-.468c.015-.078.031-.14.047-.188a.466.466 0 00.023-.351v-.164c0-.407.031-.743.094-1.008v-.117c0-.063.008-.11.023-.141.063-.219.102-.352.117-.399.016-.062.032-.132.047-.21a.217.217 0 000-.141c0-.047.008-.094.024-.14a4.02 4.02 0 00.164-.352.529.529 0 01.094-.188.655.655 0 00.093-.164.365.365 0 01.07-.094c.094-.125.141-.195.141-.21l.07-.07c.204-.173.376-.337.516-.493.14-.156.297-.297.469-.422l.21-.117.095-.094a.252.252 0 01.14-.047.294.294 0 00.117-.07c.126-.078.196-.11.211-.094a.18.18 0 00.07-.023c.094-.031.18-.07.259-.117a.932.932 0 01.234-.141.252.252 0 01.14-.047.378.378 0 00.165-.047l.093-.047c.047-.015.102-.03.164-.046.125-.063.22-.102.282-.118.047-.015.093-.03.14-.047l.14-.046h.188a.77.77 0 00.188-.024l.234-.047a.583.583 0 01.328 0c.032 0 .063.008.094.024a.52.52 0 00.164.023h.235c.109 0 .195.008.257.024.172.156.29.25.352.28l.234.118c.032.016.063.04.094.07a.927.927 0 01.117.14.77.77 0 01.117.095c.094.11.149.18.165.21.03.032.062.07.093.118.078.125.125.203.14.234.032.016.063.04.095.07.156.141.28.274.375.399.047.078.086.156.117.234.047.063.11.117.187.164a.366.366 0 000-.257 1.71 1.71 0 01-.023-.282v-.164a.589.589 0 00-.047-.375l-.047-.14a.443.443 0 01-.023-.141.52.52 0 00-.024-.164 77.221 77.221 0 00-.047-.14.52.52 0 00-.023-.165.728.728 0 00-.094-.258c-.031-.093.016-.18.14-.257a.91.91 0 00.587.164c.203-.032.398-.055.586-.07.125 0 .242.007.351.023.125.015.25.023.375.023.094 0 .188-.008.282-.023l.28-.047c.126-.016.235-.024.329-.024.11 0 .219-.007.328-.023l.281-.047c.094-.031.196-.054.305-.07.11-.016.219-.016.328 0 .11 0 .211-.016.305-.047zm-7.242.96a.843.843 0 00-.282 0 .989.989 0 01-.164.024h-.28a.473.473 0 00-.259.024c-.047.015-.101.039-.164.07a.59.59 0 00-.14.07.836.836 0 01-.211.07.52.52 0 00-.164.071c-.157.11-.25.164-.282.164-.11.125-.18.195-.21.211-.032 0-.055.008-.07.024-.11.156-.18.25-.212.28a2.16 2.16 0 01-.234.47l-.188.328a.524.524 0 00-.07.164.912.912 0 01-.07.187 1.532 1.532 0 01-.094.164.52.52 0 00-.07.164.687.687 0 00-.047.258c0 .078-.008.156-.024.235-.015.156-.031.304-.047.445 0 .14.008.289.024.445.015.25.015.43 0 .54v.35c.015.126.031.243.047.352l.047.352c0 .11-.008.21-.024.305 0 .093.008.18.024.257a.52.52 0 00.023.164c.031.047.063.11.094.188a.873.873 0 01.023.21c0 .063.008.134.024.212.015.062.03.125.047.187a1.623 1.623 0 01.07.399c0 .062.008.133.023.21.078.157.125.274.14.352.017.063.04.133.071.211l.14.281c.032.157.063.258.095.305.125.172.21.274.257.305.094.094.22.18.375.258l.235.187c.078.047.14.078.187.094.125.047.242.07.352.07h.304c.157-.015.258-.039.305-.07.063-.031.156-.086.281-.164l.282-.14c.093-.063.172-.118.234-.165.094-.078.18-.148.258-.21.094-.079.18-.141.258-.188.187-.125.328-.235.422-.328l.28-.329a1.05 1.05 0 00.165-.257l.14-.188a.412.412 0 01.165-.164 2.13 2.13 0 00.187-.281c.047-.063.086-.125.117-.188.078-.11.149-.218.211-.328.078-.125.14-.242.188-.351.11-.141.18-.282.21-.422a.465.465 0 00.047-.211c0-.078.008-.156.024-.235.031-.187.047-.39.047-.609 0-.219-.016-.414-.047-.586a2.241 2.241 0 00-.047-.164c0-.047-.008-.11-.023-.187a1.157 1.157 0 010-.329.875.875 0 00-.024-.351.515.515 0 00-.094-.211 2.796 2.796 0 01-.093-.211.918.918 0 00-.117-.21 1.642 1.642 0 01-.118-.235 1.057 1.057 0 01-.304-.282 1.72 1.72 0 00-.235-.351l-.281-.281-.188-.188a1.53 1.53 0 00-.14-.164 6.194 6.194 0 00-.164-.187c0-.032-.008-.055-.024-.07a1.234 1.234 0 00-.117-.188l-.094-.188a.714.714 0 00-.234-.164.792.792 0 01-.21-.187.959.959 0 01-.306-.047.688.688 0 00-.257-.047zm9.75-4.265c.03.157.03.313 0 .47a3.73 3.73 0 00-.07.468c-.048.36-.071.71-.071 1.054v.774a6.01 6.01 0 010 .75v.562l.047.282c.016.093.023.18.023.258 0 .078-.008.156-.023.234l-.047.187v.375c0 .11-.008.227-.023.352l-.047.351v.609c.015.095.023.188.023.282a.52.52 0 01-.023.164c-.016.047-.04.102-.07.164 0 .078.007.149.023.211a.265.265 0 01-.024.188c-.015.172-.039.328-.07.468a4.76 4.76 0 00-.023.516 4.304 4.304 0 01-.047.445c0 .063-.008.133-.024.211.016.266.016.43 0 .492-.047.204-.07.329-.07.376a4.67 4.67 0 00-.07.492c0 .156-.008.32-.024.492a1.087 1.087 0 00-.023.21v.212c.015.172.015.32 0 .445 0 .125.008.242.023.352 0 .046.008.093.024.14a.443.443 0 01.023.14c.016.126.024.243.024.352 0 .11.015.204.046.282.032.093.102.18.211.258.11.062.22.132.328.21.079.063.165.133.258.211.094.063.188.133.282.211.125.11.195.164.21.164.016 0 .024.008.024.024.016.14 0 .226-.047.258a.294.294 0 00-.117.07c-.266.062-.484.07-.656.023-.203-.015-.328-.007-.375.024a.917.917 0 00-.118.047h-.164a.292.292 0 00-.164 0 1.58 1.58 0 00-.258.023 1.187 1.187 0 01-.234.024h-.492a.772.772 0 00-.188.023h-.187a1.48 1.48 0 00-.211.047l-.094.047a.442.442 0 01-.14.023.442.442 0 00-.141-.023c-.156 0-.273-.055-.352-.164a.315.315 0 01.118-.211 2.46 2.46 0 01.21-.14c.141-.079.212-.126.212-.142.015-.03.03-.046.046-.046.157-.094.235-.133.235-.118l.023-.023a.92.92 0 01.117-.047.294.294 0 00.118-.07c.14-.125.226-.203.257-.235.047-.046.086-.14.118-.28l.046-.188.047-.235v-.679c-.03-.36-.07-.727-.117-1.102l-.094-1.148a.867.867 0 00-.023-.211 1.319 1.319 0 01-.023-.258.703.703 0 000-.258.69.69 0 01-.024-.164c.016-.219.016-.39 0-.516-.016-.14-.031-.273-.047-.398a10.357 10.357 0 010-.984c.031-.344.055-.696.07-1.055v-.235c0-.093.008-.18.024-.257.016-.078.023-.149.023-.211.016-.078.024-.156.024-.235.015-.062.008-.171-.024-.328.032-.125.04-.203.024-.234a.261.261 0 01-.024-.117c0-.172-.007-.36-.023-.563a9.223 9.223 0 01-.023-.656 3.074 3.074 0 010-.54 4.601 4.601 0 000-.655 8.167 8.167 0 01-.047-.258c-.016-.11-.032-.227-.047-.352a3.269 3.269 0 01-.024-.351.442.442 0 00-.023-.258.343.343 0 00-.164-.117 2.473 2.473 0 00-.211-.14c-.203-.157-.477-.29-.82-.4-.329-.124-.586-.273-.774-.445a.294.294 0 01-.117-.07c-.047-.031-.063-.094-.047-.188.047-.046.148-.054.305-.023.11.078.18.11.21.094a.155.155 0 01.141.023c.078.016.164.031.258.047s.18.031.258.047a.52.52 0 00.164-.023.77.77 0 01.188-.024c.062 0 .109.008.14.024a.52.52 0 00.164.023c.188-.016.383-.04.586-.07.203-.047.43-.055.68-.024.078.016.148.04.21.07l.235.047c.11.016.211.016.305 0 .094-.015.18 0 .258.047zm4.054.446c.047-.032.125-.032.235 0 .11.015.203.03.28.046.095.032.188.055.282.07.11 0 .203.016.281.048a.662.662 0 01.211.21l.094.094a.266.266 0 01.094.094l.14.352a.735.735 0 01.094.234c-.093.281-.187.453-.281.516-.156.14-.266.258-.328.351-.047.094-.133.157-.258.188a.944.944 0 01-.258.023c-.172.047-.281.07-.328.07a.217.217 0 00-.14 0c-.235.016-.399 0-.493-.046a.93.93 0 00-.234-.141l-.14-.281c-.032-.11-.063-.227-.094-.352a1.402 1.402 0 01-.024-.21v-.235c.031-.203.086-.344.164-.422a.954.954 0 00.211-.234c.094-.11.14-.172.14-.188a.271.271 0 01.071-.047.297.297 0 01.14-.07.297.297 0 00.141-.07zm1.5 3.609c.016.078.008.14-.023.188a.607.607 0 00-.024.187c0 .11.008.219.024.328.031.11.039.219.023.328 0 .078-.008.157-.023.235 0 .062-.008.132-.024.21a16.23 16.23 0 00-.07 1.008c0 .36-.016.711-.047 1.055a5.81 5.81 0 01-.07.516c-.031.156-.055.32-.07.492 0 .172.007.328.023.469.016.14.023.289.023.445l-.046.351c0 .11-.016.227-.047.352-.032.172-.04.367-.024.586l.047.61.047.562c.016.187.04.367.07.539.032.11.07.219.118.328.062.11.117.211.164.305.062.172.101.265.117.281.015 0 .031.008.047.023.062.125.125.22.187.282l.094.14.117.117a.54.54 0 00.188.188c.078.047.156.11.234.188.125.14.203.226.234.257.047.016.063.047.047.094a4.59 4.59 0 00-.21.047 1.435 1.435 0 00-.516.117c-.11.016-.22.024-.328.024-.11 0-.227.007-.352.023-.14.047-.219.063-.234.047 0-.016-.016-.024-.047-.024-.219.047-.414.086-.586.118-.172.03-.336.062-.492.093a4.31 4.31 0 01-.399.07c-.11.016-.226.04-.351.071a.92.92 0 01-.118.047 1.137 1.137 0 01-.117.07.781.781 0 01-.328.024.69.69 0 00-.305.023c.094-.187.157-.297.188-.328l.094-.094c.093-.156.164-.265.21-.328a.736.736 0 01.188-.14.602.602 0 01.188-.352c.062-.078.117-.172.164-.281.062-.11.117-.22.164-.328.093-.172.148-.313.164-.422.031-.11.047-.22.047-.329a1.325 1.325 0 000-.351 3.025 3.025 0 01-.024-.375l.047-.281c.016-.11.031-.211.047-.305.016-.125.023-.25.023-.375v-.352a.61.61 0 00-.023-.187.873.873 0 01-.023-.211c0-.172-.016-.297-.047-.375a.285.285 0 00-.188-.164c-.078-.188-.117-.305-.117-.352a.4.4 0 01.07-.187c.125-.203.211-.328.258-.375a.55.55 0 00.117-.188 1.847 1.847 0 01.094-.586l.023-.28v-.212c.016-.078.024-.156.024-.234v-.235a.846.846 0 000-.28 1.275 1.275 0 00-.07-.165.912.912 0 00-.07-.187c-.048-.235-.133-.414-.258-.54a3.116 3.116 0 00-.516-.492 1.536 1.536 0 00-.164-.093l-.14-.094a1.042 1.042 0 01-.188-.094.502.502 0 00-.117-.094.265.265 0 00-.188-.023.378.378 0 01-.164-.047c-.188-.078-.305-.117-.352-.117a.14.14 0 01-.093-.094.465.465 0 01-.211-.047l-.188-.14c-.187-.11-.265-.211-.234-.305s.148-.133.351-.117c.203.015.375.008.516-.024.14-.03.21-.039.21-.023H48.173a.208.208 0 01.094-.024.442.442 0 00.14-.023.873.873 0 01.211-.023c.078-.016.14-.024.188-.024.062-.015.117-.031.164-.047.156.016.242.016.258 0a.208.208 0 01.093-.023c.172.016.305.023.399.023.093-.015.18-.023.258-.023.171 0 .359-.008.562-.024.219-.03.438-.039.656-.023zm11.602-1.664a.697.697 0 01-.094.351 1.764 1.764 0 00-.117.305 1.338 1.338 0 00-.07.235 1.65 1.65 0 01-.07.21c-.079.11-.118.18-.118.211.016.016.016.04 0 .07a1.03 1.03 0 01-.094.188c-.03.063-.062.125-.093.188a.322.322 0 00-.07.164c0 .078-.016.14-.048.187a1.292 1.292 0 01-.117.328 4.73 4.73 0 00-.164.422c-.047.14-.094.29-.14.446a1.685 1.685 0 00-.094.351 1.556 1.556 0 01-.117.281.52.52 0 00-.024.165.52.52 0 01-.023.164.918.918 0 01-.07.187 2.255 2.255 0 00-.047.164l-.094.281a.472.472 0 01-.14.235c-.063.265-.126.46-.188.586a.296.296 0 00-.07.14c-.016.047-.063.063-.141.047-.016-.187-.008-.312.023-.375a.728.728 0 00.094-.258.856.856 0 000-.398 6.178 6.178 0 00-.07-.492 13 13 0 00-.258-1.149c-.094-.406-.227-.742-.399-1.008l-.117-.117-.094-.14a7.096 7.096 0 01-.187-.258.928.928 0 01-.188-.094c0-.016-.015-.031-.046-.047a8.989 8.989 0 00-.258-.093A68.319 68.319 0 0159 6.516a.783.783 0 00-.352-.07.575.575 0 00-.21.046.986.986 0 01-.235.024c-.219.015-.43.023-.633.023s-.375.024-.515.07c-.047.032-.102.07-.164.118-.047.03-.11.07-.188.117-.11.093-.18.14-.21.14a.18.18 0 00-.071.024 3.686 3.686 0 01-.164.117.367.367 0 00-.094.07 3.884 3.884 0 01-.305.422c-.047.031-.086.11-.117.235a.832.832 0 00-.094.375v.375a.443.443 0 01-.023.14v.14c0 .11.008.22.023.329.032.11.063.234.094.375 0 .156.008.258.024.305a.59.59 0 01.07.14.59.59 0 01.07.14.926.926 0 00.047.118l.117.117a.466.466 0 01.164.14c.141.095.22.157.235.188l.047.047c.047.031.101.063.164.094.078.016.14.04.187.07.188.094.336.157.446.188.109.031.203.062.28.094.157.093.25.148.282.164.031 0 .063.015.094.046.125.126.203.196.234.211a.207.207 0 00.094.024.378.378 0 00.164.047c.062 0 .125.015.187.047.079.03.157.062.235.093.094.016.187.04.281.07.047.016.133.04.258.071.062.016.125.04.187.07.078.016.157.04.235.07.187.032.289.063.304.094.016.016.04.032.07.047l.352.14c.11.017.18.04.211.071l.14.094.259.117c.156.094.234.133.234.117.094.14.148.242.164.305.016.047.04.094.07.14.094.172.133.305.118.4 0 .093.007.187.023.28.031.094.055.188.07.282a.689.689 0 01.047.257c.016.125.024.243.024.352v.328c.015.563-.04 1.04-.164 1.43-.078.234-.157.39-.235.468a2.19 2.19 0 00-.187.282c-.063.093-.14.187-.235.281a.738.738 0 01-.14.188 1.764 1.764 0 01-.188.164c-.11.062-.18.109-.21.14a.368.368 0 01-.071.094c-.156.062-.258.094-.305.094-.03 0-.062.015-.093.047-.188.14-.329.218-.422.234a1.948 1.948 0 01-.258.094c-.266.047-.453.062-.563.047a2.479 2.479 0 00-.351-.024c-.078 0-.156.008-.235.024a.592.592 0 01-.234 0c-.203 0-.406-.032-.61-.094-.202-.063-.39-.125-.562-.188a1.829 1.829 0 01-.375-.14 10.427 10.427 0 01-.398-.211 2.7 2.7 0 00-.258-.211 4.858 4.858 0 01-.188-.117 2.214 2.214 0 01-.14-.164 1.388 1.388 0 01-.117-.141 1.52 1.52 0 00-.141-.164l-.14-.188a.381.381 0 00-.165-.187c-.093-.016-.156.008-.187.07a.14.14 0 01-.094.094l-.094.094-.093.093-.282.422a3.045 3.045 0 01-.258.282 3.776 3.776 0 00-.117.164.544.544 0 01-.093.14 1.59 1.59 0 01-.118.235c-.03.062-.07.078-.117.047-.094-.016-.133-.063-.117-.141a1.01 1.01 0 00.023-.188l.047-.187c.016-.063.032-.117.047-.164a.851.851 0 01.047-.211.293.293 0 01.07-.117 8.61 8.61 0 00.07-.258c.016-.078.04-.172.071-.281l.047-.235a1.24 1.24 0 01.07-.258c.031-.125.055-.242.07-.351.016-.125.04-.25.07-.375.048-.266.087-.516.118-.75.047-.25.11-.5.188-.75.03-.125.07-.235.117-.328.047-.11.086-.219.117-.328a.772.772 0 00.023-.188c0-.078.008-.148.024-.21a.292.292 0 000-.165c0-.062.039-.11.117-.14.156.25.227.468.21.656a1.65 1.65 0 00.024.492c.016.11.04.226.07.351l.094.329c.032.125.055.242.07.351.032.11.071.211.118.305.031.078.062.148.094.21.047.063.086.126.117.188a.912.912 0 01.07.188l.094.187c.094.172.195.328.305.47.125.14.25.273.375.398.109.03.203.078.28.14.079.063.165.11.259.14.078.032.172.055.28.071.126.016.243.031.352.047.22.031.422.047.61.047.187-.016.39-.07.61-.164.093-.032.187-.078.28-.14.094-.063.204-.126.329-.188.046-.032.101-.063.164-.094a.55.55 0 00.187-.117 1.58 1.58 0 01.258-.188c.14-.078.234-.156.281-.234l.14-.235a1.56 1.56 0 01.048-.257.917.917 0 00.07-.188.772.772 0 00.023-.187v-.211c.016-.157.016-.25 0-.282v-.117c0-.078.016-.156.047-.234.032-.094.055-.18.07-.258a.69.69 0 00-.023-.164l-.047-.234a4.335 4.335 0 00-.047-.305.375.375 0 00-.093-.234 2.61 2.61 0 00-.258-.188.37.37 0 01-.094-.07l-.328-.258c-.078-.063-.203-.11-.375-.14a4.853 4.853 0 00-.586-.118 6.446 6.446 0 01-.586-.117 2.123 2.123 0 00-.351-.07.159.159 0 01-.118-.047.522.522 0 01-.164-.07 1.526 1.526 0 00-.164-.094.52.52 0 00-.164-.024.772.772 0 01-.187-.023.466.466 0 00-.211-.047 3.628 3.628 0 01-.282-.07 4.497 4.497 0 01-.328-.094 1.18 1.18 0 01-.304-.164c-.063-.047-.11-.07-.14-.07a.544.544 0 00-.118-.07c-.063-.048-.117-.071-.164-.071a.16.16 0 01-.117-.047 1.159 1.159 0 01-.235-.164 1.37 1.37 0 00-.351-.234 1.541 1.541 0 01-.235-.141c-.078-.094-.125-.14-.14-.14a.18.18 0 01-.07-.024 6.202 6.202 0 01-.258-.352l-.118-.28a2278.8 2278.8 0 00-.164-.33c-.047-.108-.062-.241-.047-.398v-.304-.328l.024-.258c.031-.094.07-.188.117-.281.047-.11.086-.211.117-.305.063-.094.094-.156.094-.188 0-.046.008-.085.023-.117a1.46 1.46 0 00.188-.281.497.497 0 01.187-.21.357.357 0 01.094-.188.55.55 0 00.117-.188.496.496 0 01.188-.21 8.69 8.69 0 01.164-.212.577.577 0 01.258-.187c.203-.125.343-.203.422-.235a.426.426 0 00.187-.14c.047-.016.086-.016.117 0a.292.292 0 00.164 0 .357.357 0 00.188-.094.735.735 0 01.187-.14 2.65 2.65 0 00.328-.094l.094-.047a.217.217 0 01.14 0 .442.442 0 00.142-.024c.14-.062.25-.086.328-.07.093.016.195.023.304.023.125 0 .25-.007.375-.023.14-.016.29-.008.446.023.265.063.57.149.914.258.172.031.265.055.28.07h.048l.14.047c.063 0 .133.016.211.047.078.063.141.11.188.14a.226.226 0 01.117.095c.094.125.148.187.164.187a.18.18 0 01.07.024c.063.062.118.125.164.187a.814.814 0 00.258.164.348.348 0 00.164-.094l.141-.14c.11-.094.227-.227.352-.399.109-.156.171-.25.187-.28.078-.142.133-.228.164-.259a.768.768 0 01.094-.117.826.826 0 00.187-.328h.188zM61.53 2.46c.094.031.188.039.282.023a.592.592 0 01.234 0c.062 0 .117.016.164.047s.11.047.187.047c.125.031.243.04.352.024a.813.813 0 01.328.023c.094.016.164.023.211.023a.586.586 0 01.234 0c.125 0 .274.016.446.047.172.016.328.008.468-.023.157 0 .258-.008.305-.024a.442.442 0 01.14-.023c.157.016.259.016.305 0a.465.465 0 01.211-.047c.204.016.352.016.446 0a.315.315 0 01.281.094c.016.172 0 .336-.047.492-.031.156-.062.32-.094.492-.03.14-.046.235-.046.281.015.032.015.086 0 .165a.54.54 0 00-.07.21.443.443 0 01-.024.141.52.52 0 01-.024.164.208.208 0 00-.023.094.685.685 0 00-.024.164.44.44 0 010 .281.91.91 0 01-.046.117.69.69 0 00.023.165.61.61 0 01.023.187c0 .125.008.273.024.445s.023.344.023.516c0 .156-.007.312-.023.469-.016.156-.024.32-.024.492a5.968 5.968 0 00-.023.539c.016.172.023.351.023.539a.22.22 0 00.165-.117.974.974 0 01.14-.188l.14-.14a.428.428 0 00.141-.188c.125-.062.227-.133.305-.21l.258-.259a1.64 1.64 0 00.234-.117 1.646 1.646 0 01.446-.187.381.381 0 00.187-.164.95.95 0 00.398-.047c.094-.031.172-.063.235-.094a.584.584 0 01.258-.047c.156 0 .265-.015.328-.047a.836.836 0 01.21-.07.994.994 0 00.305 0 .993.993 0 01.235-.047c.031 0 .07.008.117.024h.21c.095 0 .196.007.306.023.109 0 .218.008.328.023.094.032.187.07.281.118.11.046.227.086.352.117l.328.21c.062.016.132.032.21.048.11.125.188.187.235.187.078.094.125.149.14.164.032.016.063.04.094.07l.094.094c.031.032.063.07.094.117s.047.125.047.235c0 .11.015.226.047.351.03.11.054.211.07.305.031.094.062.18.094.258.015.11.023.21.023.305.016.093.031.203.047.328.031.156.055.312.07.468.032.141.04.305.024.493a7.952 7.952 0 00-.047.257l-.047.282c-.031.14-.055.289-.07.445 0 .156-.016.32-.047.492 0 .172-.008.266-.024.281-.015.016-.023.04-.023.07.016.188.016.305 0 .352v.188a1.86 1.86 0 00-.023.305v.304c-.032.313-.055.57-.07.774a8.9 8.9 0 01-.024.632.444.444 0 01-.024.141.26.26 0 00-.023.117c.016.14.008.25-.024.328a.69.69 0 00-.023.164v.258c.031.032.04.11.023.235 0 .109.008.203.024.28 0 .126-.008.25-.024.376 0 .11-.007.234-.023.375a5.7 5.7 0 00-.023.515c0 .172-.008.352-.024.54a5.965 5.965 0 00-.023.539c.015.187.039.375.07.562l.047.14.047.141a.442.442 0 01.023.141c0 .063.008.11.024.14.093.141.148.227.164.258.015.032.039.063.07.094.172.203.344.344.516.422.03.016.07.031.117.047l.14.094a.504.504 0 00.165.093.82.82 0 00.257.047.729.729 0 00.305-.117c.11-.047.203-.101.281-.164.156-.11.281-.219.375-.328.094-.11.125-.305.094-.586a1.967 1.967 0 01-.094-.375c.016-.047.016-.086 0-.117a5.542 5.542 0 01-.21-.258l-.094-.14a1.124 1.124 0 00-.329-.188c-.109-.047-.218-.031-.328.047-.047.078-.086.125-.117.14a.208.208 0 00-.023.094.685.685 0 00.07.469c.094.14.203.242.328.305.11 0 .195-.032.258-.094a.297.297 0 01.258-.024c.047.094.023.188-.07.282a1.178 1.178 0 00-.07.117.293.293 0 01-.071.117.45.45 0 01-.375.07 1.742 1.742 0 01-.352-.07 1.03 1.03 0 01-.187-.094.542.542 0 01-.094-.14.59.59 0 01-.07-.141.377.377 0 00-.047-.164.544.544 0 01-.094-.14 77.193 77.193 0 01-.047-.141c.078-.5.274-.86.586-1.078.125.015.242.023.352.023l.328.047c.234.094.414.156.539.187a.714.714 0 01.305.211.16.16 0 01.046.117c0 .047.016.102.047.165.032.093.055.18.07.257.016.094.032.211.047.352 0 .047.008.094.024.14a.44.44 0 01.023.141c0 .078-.007.164-.023.258-.016.11-.016.227 0 .352-.063.156-.11.234-.14.234-.016 0-.024.008-.024.023a.604.604 0 01-.211.258l-.188.14-.093.095a.42.42 0 01-.118.117c-.078.078-.148.14-.21.187-.063.047-.172.078-.329.094a.52.52 0 01-.164-.023 1.603 1.603 0 00-.187-.047.772.772 0 00-.188-.024.29.29 0 01-.164 0 2.26 2.26 0 01-.164-.047.217.217 0 00-.14 0 1.053 1.053 0 00-.211-.047c-.032 0-.055-.007-.07-.023a.369.369 0 01-.141-.094c-.047-.03-.094-.062-.14-.093l-.188-.094c-.032 0-.063-.016-.094-.047a.932.932 0 01-.14-.117.759.759 0 00-.094-.117c-.188-.094-.313-.188-.376-.282a3.772 3.772 0 00-.117-.164.307.307 0 00-.14-.14c0-.11-.04-.196-.118-.258a.582.582 0 01-.14-.258 1.79 1.79 0 00-.164-.492.541.541 0 01-.047-.188v-.21a6.727 6.727 0 01-.047-.352c0-.125-.008-.25-.023-.375a5.453 5.453 0 01-.024-.492c.016-.157.024-.32.024-.493a.714.714 0 000-.257 1.58 1.58 0 01-.024-.258c0-.406.024-.844.07-1.313a2.68 2.68 0 00.024-.375c.016-.14.023-.265.023-.375v-.258c-.015-.218-.007-.367.024-.445a.99.99 0 00.094-.305 1.57 1.57 0 00-.024-.257v-.328a2.409 2.409 0 010-.82.289.289 0 00-.047-.165.772.772 0 01-.023-.187v-.235c.015-.093.039-.18.07-.258a5.986 5.986 0 01-.07-.82v-.375c.015-.125.008-.25-.024-.375a1.294 1.294 0 00-.093-.351l-.094-.375a3.256 3.256 0 00-.117-.446 7.359 7.359 0 01-.094-.304.768.768 0 00-.117-.094 1.536 1.536 0 00-.164-.094 1.536 1.536 0 00-.164-.094.52.52 0 00-.164-.07.689.689 0 00-.258-.047c-.094 0-.196-.015-.305-.047l-.469-.117a.61.61 0 00-.187-.023 5.998 5.998 0 00-.75 0c-.25.015-.461.062-.633.14-.063.032-.125.07-.188.117a1.532 1.532 0 01-.164.141 1.542 1.542 0 00-.14.164.354.354 0 01-.14.117c-.048.172-.126.32-.235.446-.094.11-.18.234-.258.375a7.19 7.19 0 00-.188.351 7.186 7.186 0 01-.187.352c-.094.203-.14.344-.14.422a.48.48 0 010 .21.636.636 0 01-.024.141 2.26 2.26 0 00-.047.164 5.137 5.137 0 00-.14 1.032c0 .359.015.734.046 1.125l.047.351c.031.11.055.227.07.352a8.8 8.8 0 01.07.726c.032.25.063.492.095.727a.772.772 0 01.023.187c.016.063.031.117.047.164 0 .172.008.29.023.352a.76.76 0 00.14.351.767.767 0 01.024.188c.016.063.032.117.047.164.047.125.094.242.14.352.048.093.087.18.118.257.078.125.156.22.234.282.079.047.094.11.047.187 0 .078-.047.11-.14.094a1.088 1.088 0 00-.211-.023.52.52 0 00-.164.023 1.01 1.01 0 01-.188-.023c-.125 0-.273-.008-.445-.024a2.873 2.873 0 00-.867-.023 2.46 2.46 0 00-.328.07c-.125.031-.266.07-.422.117-.14.047-.305.07-.493.07-.124.016-.25.016-.374 0A2.494 2.494 0 0062.96 18c-.172.016-.258.016-.258 0h-.023c-.125.016-.242.031-.352.047a.71.71 0 01-.351-.047c.14-.219.273-.344.398-.375.11-.031.21-.078.305-.14a.864.864 0 00.258-.141c.124-.047.187-.078.187-.094a.276.276 0 01.07-.047c.157-.078.297-.133.422-.164.14-.047.274-.125.399-.234.125-.11.195-.172.21-.188a.368.368 0 00.094-.07c.047-.094.078-.14.094-.14a.153.153 0 00.07-.071.97.97 0 01.094-.211.27.27 0 00.047-.07c.125-.25.172-.57.14-.961a13.14 13.14 0 01-.046-1.031c0-.172.008-.336.023-.493a2.347 2.347 0 000-.468.443.443 0 00-.023-.141v-.14a.69.69 0 01.023-.165.836.836 0 00.07-.21.659.659 0 01.024-.305.443.443 0 00-.023-.141c0-.047.007-.086.023-.117.016-.078.031-.149.047-.211a1.33 1.33 0 00.07-.235 1.487 1.487 0 00-.047-.234 1.621 1.621 0 01-.047-.187 1.45 1.45 0 01-.046-.352c0-.125-.016-.266-.047-.422a59.944 59.944 0 00-.07-1.101c-.032-.407-.04-.805-.024-1.196a7.643 7.643 0 000-1.195 47.52 47.52 0 00-.094-.586 5.602 5.602 0 00-.07-.539.468.468 0 000-.21.443.443 0 00-.024-.142v-.187a1.08 1.08 0 00-.023-.211 4.24 4.24 0 00-.07-.328 2.31 2.31 0 00-.118-.352.769.769 0 00-.093-.117.52.52 0 01-.024-.164 1.444 1.444 0 00-.258-.164l-.234-.14c-.11-.11-.172-.157-.187-.141a.18.18 0 01-.07-.024 4.779 4.779 0 01-.188-.117.534.534 0 00-.211-.117.905.905 0 00-.117-.047 1.29 1.29 0 01-.164-.07 5.497 5.497 0 00-.446-.14l-.14-.048A.642.642 0 0062 2.883a.341.341 0 00-.21-.024.576.576 0 01-.212-.046.503.503 0 01-.094-.165c-.03-.093-.015-.156.047-.187zM84.5 10.453h-.258a9.682 9.682 0 00-.938-.14 4.111 4.111 0 00-.398-.024 3.09 3.09 0 01-.422-.023.183.183 0 01-.164-.164c-.015-.125.032-.204.14-.235l.376-.094A.725.725 0 0083 9.727a.155.155 0 01.14.023c.235.016.376.008.422-.023a.51.51 0 01.282-.024.952.952 0 00.234-.047.52.52 0 01.164-.023c.11.015.172.023.188.023.015-.015.054-.031.117-.047.031-.234.047-.437.047-.609 0-.188.008-.375.023-.563v-.374c.016-.126.04-.266.07-.422.032-.125.055-.211.07-.258v-.258a2.022 2.022 0 010-.61c0-.171.032-.359.095-.562a.822.822 0 00.046-.258c.016-.093.04-.203.07-.328.032-.125.071-.242.118-.351.047-.125.078-.258.094-.399a.545.545 0 00.093-.14l.094-.188c.063-.094.11-.172.14-.234a.933.933 0 01.118-.14.817.817 0 00.164-.165.535.535 0 01.14-.164.768.768 0 00.094-.117c.11-.094.165-.164.165-.211.14-.14.218-.211.234-.211a.208.208 0 00.094-.024c.171-.125.296-.218.375-.28.093-.063.187-.134.28-.212a2.13 2.13 0 01.376-.21c.156-.063.289-.141.398-.235a.544.544 0 00.235-.117 1.66 1.66 0 01.21-.07l.235-.094a.366.366 0 01.094-.07.37.37 0 00.14-.094.77.77 0 01.188-.024.77.77 0 00.187-.023c.063-.063.118-.086.164-.07.047 0 .086-.032.118-.094.109.015.21.015.304 0 .094-.032.18-.063.258-.094.125-.031.281-.016.469.047.187.047.36.117.516.21.171.126.265.204.28.235.157.156.25.258.282.305a.933.933 0 01.117.14c.031.032.055.07.07.118.032.03.063.062.094.093.11.22.172.375.188.47.031.093.062.179.094.257.03.078.062.164.093.258.047.094.078.18.094.258l.023.421c-.03.032-.039.118-.023.258s.023.242.023.305a8.182 8.182 0 00-.046.258c-.016.078-.04.164-.07.258a1.458 1.458 0 00-.024.28c0 .095-.008.18-.024.259l-.21.562-.141.375-.14.281a1.44 1.44 0 01-.118.188c-.016 0-.031.016-.047.047-.11.187-.172.281-.187.281l-.047.07a1.213 1.213 0 01-.328.305c-.063.031-.133.07-.211.117a.918.918 0 01-.211.117c-.172.094-.336.18-.492.258-.157.078-.368.078-.633 0a3.451 3.451 0 01-.375-.117 6.63 6.63 0 01-.352-.164c-.062-.047-.117-.07-.164-.07a.294.294 0 01-.117-.07c-.11-.11-.172-.157-.188-.141l-.023-.024a.507.507 0 00-.164-.14.625.625 0 01-.14-.211 3.198 3.198 0 01-.258-.422 1.538 1.538 0 01-.094-.258 3.006 3.006 0 01-.024-.375c.016-.063.04-.14.07-.234.047-.094.087-.196.118-.305.11-.188.18-.305.21-.352.141-.187.227-.304.259-.351a.648.648 0 01.21-.164l.282-.14c.078-.063.125-.102.14-.118A.725.725 0 0189 4.664a.341.341 0 01.21-.023c.063.015.15.03.259.046a.97.97 0 00.187.141c.078.047.156.11.235.188.078.062.148.132.21.21a.37.37 0 01.141.188.292.292 0 010 .164 2.252 2.252 0 00-.047.164.52.52 0 00-.023.164.16.16 0 01-.047.117.862.862 0 01-.21.165.226.226 0 00-.118.093 1.104 1.104 0 01-.422-.14c-.078-.063-.07-.188.023-.375a.748.748 0 00.141-.329.484.484 0 00-.094-.351c-.172-.031-.297-.008-.375.07a.84.84 0 01-.304.188c-.063.14-.125.258-.188.351-.031.063-.07.125-.117.188a.522.522 0 00-.07.164c0 .078.015.187.046.328.032.125.055.234.07.328.016.14.032.219.048.234.015.016.03.04.047.07.109.11.203.196.28.259.079.062.157.109.235.14.031.016.117.024.258.024.156.062.258.086.305.07a.265.265 0 01.187.023c.25 0 .414-.03.492-.093.094-.063.172-.125.235-.188.094-.156.164-.281.21-.375.048-.11.079-.195.094-.258a.44.44 0 00.024-.14 2.2 2.2 0 01.047-.164c.062-.22.101-.352.117-.399a.834.834 0 00.07-.21 1.316 1.316 0 000-.352c0-.11.008-.227.024-.352 0-.078.007-.148.023-.21.016-.079.024-.157.024-.235v-.211c0-.078-.008-.156-.024-.234v-.188a.52.52 0 00-.023-.164 1.337 1.337 0 00-.14-.375 1.294 1.294 0 01-.095-.352 1.458 1.458 0 00-.304-.187.416.416 0 00-.188-.047.77.77 0 01-.187-.023.918.918 0 01-.211-.118.515.515 0 00-.211-.093c-.14 0-.242.007-.305.023a4.741 4.741 0 01-.492.14c-.266.11-.438.204-.516.282a2.854 2.854 0 01-.234.21c-.14.11-.25.196-.328.259a.792.792 0 00-.211.187c-.14.188-.203.281-.188.281a.99.99 0 01-.187.258 1.603 1.603 0 00-.164.328c-.078.125-.133.196-.164.211-.016 0-.032.008-.047.024a3.408 3.408 0 00-.14.375.297.297 0 01-.071.14c-.047.11-.086.243-.117.399-.032.14-.07.281-.118.422-.03.14-.07.297-.117.468a1.666 1.666 0 00-.07.211.54.54 0 01-.047.188c.016.031.008.11-.023.234a.892.892 0 01-.094.235 3.232 3.232 0 01-.07.304 8.103 8.103 0 01-.141.352c-.047.11-.086.234-.117.375a49.46 49.46 0 00-.164.586c-.031.156-.063.328-.094.515.031.047.078.07.14.07a1.01 1.01 0 01.188-.023c.078.016.18.04.305.07.219.016.445.016.68 0 .25-.015.5-.007.75.024.171.016.257.031.257.047.016.016.032.023.047.023l.516.047c.062.016.14.024.234.024.11-.016.188-.024.235-.024.078 0 .156-.008.234-.023.078-.016.156-.024.234-.024l.14.047a.61.61 0 00.328 0 .381.381 0 01.189 0c.093 0 .164.016.21.047a.827.827 0 00.282 0c.047 0 .117-.008.21-.023.094-.016.141.031.141.14 0 .079-.039.118-.117.118-.078 0-.172.015-.281.046a1.339 1.339 0 01-.234.07.873.873 0 00-.211.024 9.592 9.592 0 00-.75.094 5.973 5.973 0 01-.727.07 6.46 6.46 0 01-.445.024h-.328c-.141.015-.22.023-.235.023-.015-.015-.039-.023-.07-.023-.328.03-.656.047-.984.047-.313 0-.626.039-.938.117a.405.405 0 00-.023.234.474.474 0 01.023.258.61.61 0 01-.023.187c0 .047.015.11.046.188.079.297.125.523.141.68.031.14.063.296.094.468 0 .079.008.149.023.211a.767.767 0 01.024.188c.03.156.047.32.047.492 0 .156.015.305.046.445.063.25.11.47.141.657.016.203.047.304.094.304 0 .125.008.203.023.235l.047.093a.464.464 0 01.047.211c.016.063.04.133.07.211.032.125.078.25.14.375.063.125.11.25.142.375.062.219.14.43.234.633.031.078.062.172.094.281.03.094.062.196.093.305.047.172.055.273.024.305-.031.03-.04.062-.024.093a1.429 1.429 0 00-.515 0 3.41 3.41 0 01-.563.047 242.84 242.84 0 01-.234-.047.873.873 0 00-.211-.023c-.078 0-.156.008-.234.023a4.454 4.454 0 01-.211.047c-.157 0-.336-.015-.54-.047a3.108 3.108 0 00-.538 0c-.25.079-.415.118-.493.118a.37.37 0 00-.187.14c-.031.047-.078.063-.14.047a.297.297 0 01-.141-.07l.046-.305c.079-.047.126-.086.141-.117a.295.295 0 01.07-.117c.11-.188.22-.36.329-.516.078-.078.156-.148.234-.21a.618.618 0 00.187-.235c.094-.203.165-.344.211-.422a3.46 3.46 0 00.141-.328 2.55 2.55 0 00.188-.844c.015-.312.039-.578.07-.797.031-.25.039-.43.023-.539 0-.11-.008-.226-.023-.351l-.047-.235c0-.078-.008-.156-.023-.234a.838.838 0 00-.07-.211 1.33 1.33 0 01-.071-.235 1.014 1.014 0 01-.024-.374c.016-.126.024-.25.024-.376 0-.109-.016-.218-.047-.328a1.157 1.157 0 010-.328c0-.11.008-.203.023-.281a.69.69 0 00-.023-.305v-.117zM96.336 5.86c.016 0 .062-.007.14-.023a.653.653 0 01.141-.047.954.954 0 01.352.094c.062.015.133.031.21.047.079.015.157.023.235.023a.688.688 0 00.164.024.443.443 0 01.14-.024c.079.016.15.031.212.047.078.016.156.04.234.07l.422.14c.156.048.305.087.445.118.078.031.149.055.211.07.063.016.125.04.188.07a.252.252 0 00.14.048.16.16 0 01.118.046.92.92 0 01.28.211c.063.063.126.133.188.211l.188.188c.062.047.117.094.164.14a.743.743 0 01.094.235c.015.078.039.14.07.187.078.125.125.22.14.282.032.046.063.109.094.187a.898.898 0 01.071.188c.031.062.062.132.093.21.047.172.078.274.094.305l.047.094a6.028 6.028 0 01.445 2.04c.032.28.024.554-.023.82.015.218.023.445.023.68 0 .218-.015.413-.047.585a2.97 2.97 0 00-.093.281.751.751 0 01-.094.281 3.972 3.972 0 01-.188.376l-.093.234c-.032.14-.055.219-.071.234a.302.302 0 00-.047.07.903.903 0 01-.117.211c-.031.047-.062.11-.094.188a.616.616 0 00-.07.14c-.015.032-.039.07-.07.118a3.501 3.501 0 01-.234.351l-.188.235c-.062.125-.109.21-.141.258l-.093.093a.746.746 0 00-.094.117c-.078.094-.117.157-.117.188s-.016.063-.047.094c-.047.062-.11.125-.188.187a2.895 2.895 0 00-.234.211l-.211.211a.502.502 0 01-.164.094c-.078.031-.156.07-.234.117a1.674 1.674 0 01-.399.234l-.281.094a3.057 3.057 0 01-.328.117.469.469 0 01-.211 0 .714.714 0 00-.258 0 .466.466 0 00-.21.047.216.216 0 01-.142 0c-.03 0-.125-.015-.28-.047a3.94 3.94 0 00-.423-.07l-.375-.094-.234-.093a3.502 3.502 0 01-.258-.118 10.889 10.889 0 01-.351-.093 1.754 1.754 0 01-.305-.118.996.996 0 00-.258-.164l-.234-.093a1.536 1.536 0 00-.164-.094l-.141-.094c-.14-.125-.219-.18-.234-.164-.016 0-.032-.008-.047-.023-.14-.11-.227-.18-.258-.211a.226.226 0 00-.094-.117 5.609 5.609 0 01-.328-.282.768.768 0 00-.094-.117.417.417 0 00-.117-.117.502.502 0 01-.094-.117.294.294 0 01-.07-.117.443.443 0 00-.023-.141 1.06 1.06 0 01-.094-.14 3.731 3.731 0 00-.07-.188c-.063-.11-.094-.188-.094-.235.015-.046.015-.086 0-.117a1.338 1.338 0 01-.07-.234 1.341 1.341 0 00-.07-.235 21.031 21.031 0 01-.188-1.055.444.444 0 01-.024-.14.327.327 0 00-.023-.14 4.991 4.991 0 00-.07-.376 3.02 3.02 0 00-.07-.398 4.656 4.656 0 01-.024-1.031c.047-.297.094-.563.14-.797.032-.125.047-.234.047-.328A.995.995 0 0192 9.727c.078-.157.117-.25.117-.282 0-.047.008-.086.024-.117.109-.219.187-.383.234-.492.047-.11.102-.227.164-.352.125-.171.195-.28.211-.328a.762.762 0 01.094-.117c.094-.14.164-.226.21-.258a.932.932 0 00.118-.14l.094-.188a.545.545 0 01.093-.14.159.159 0 01.118-.047.295.295 0 00.117-.07c.11-.094.187-.157.234-.188.14-.14.297-.258.469-.352a2.6 2.6 0 00.445-.351c.125-.047.25-.086.375-.117.14-.047.281-.086.422-.118.234-.078.39-.14.469-.187.078-.047.187-.055.328-.024zm-2.367 2.368c-.078.156-.14.312-.188.468-.047.14-.094.29-.14.446l-.094.234-.047.234a.96.96 0 00-.047.305v.352c-.016.296-.039.625-.07.984-.016.36-.008.695.023 1.008 0 .11.016.226.047.351.047.125.07.22.07.282.079.328.118.586.118.773.015.172.039.32.07.445.078.188.125.29.14.305.157.125.235.203.235.234 0 .016.016.04.047.07.14.079.234.141.281.188.063.031.11.063.14.094a4.3 4.3 0 01.329.352c.062.062.117.125.164.187.125.11.187.172.187.188a.18.18 0 00.024.07l.164.164.187.14.188.188c.062.047.117.086.164.117.078.094.148.164.21.211.079.031.134.055.165.07.062.079.117.118.164.118s.086.008.117.023c.094.078.18.117.258.117.078.032.164.063.258.094.11.016.203.016.281 0 .125-.016.234-.047.328-.094a.424.424 0 01.305-.07.296.296 0 01.164-.14.906.906 0 00.164-.118c.14-.11.227-.195.258-.258.062-.093.125-.172.187-.234a2.56 2.56 0 00.188-.21c.094-.157.156-.259.187-.306.032-.046.063-.101.094-.164.047-.093.086-.164.117-.21.047-.063.086-.11.117-.141.032-.047.055-.086.07-.117a.293.293 0 01.071-.118c.11-.156.172-.25.188-.28a1.54 1.54 0 01.117-.282c.031-.016.047-.04.047-.07.062-.22.109-.368.14-.446.047-.094.086-.18.117-.258a.864.864 0 00.047-.28c0-.095.008-.188.024-.282.078-.281.101-.469.07-.563a3.925 3.925 0 01-.094-.351 8.99 8.99 0 00-.351-.938c-.047-.171-.078-.257-.094-.257-.016-.016-.023-.032-.023-.047a10.129 10.129 0 01-.118-.47 3.71 3.71 0 00-.117-.444 3.448 3.448 0 00-.117-.258 2.922 2.922 0 00-.094-.281 3.257 3.257 0 00-.21-.493c-.126-.375-.22-.601-.282-.68a.736.736 0 00-.14-.187 1.086 1.086 0 01-.165-.21c-.062-.11-.101-.165-.117-.165l-.047-.047a.592.592 0 01-.07-.14.294.294 0 00-.07-.117 1.52 1.52 0 00-.235-.094 18.846 18.846 0 00-.047-.047 13.113 13.113 0 00-.375-.14l-.187-.048a1.533 1.533 0 01-.164-.093l-.375-.141a1.47 1.47 0 00-.281-.094c-.079-.015-.133-.015-.164 0h-.141c-.172 0-.273.008-.305.024-.031.015-.07.039-.117.07l-.352.21a1.08 1.08 0 00-.304.282c-.11.125-.164.219-.164.281 0 .063-.008.11-.024.141a.455.455 0 00-.093.234.381.381 0 010 .188.868.868 0 01-.024.21v.165c.016.266.086.508.211.726.125.204.219.391.281.563a.89.89 0 01.258.21c.063.08.133.15.211.212.219.14.398.195.54.164.155-.031.304-.086.444-.164.094-.031.188-.07.282-.117a.583.583 0 00.21-.164.226.226 0 00.094-.118.227.227 0 01.094-.14c0-.219.031-.422.094-.61a.488.488 0 00-.094-.539.544.544 0 00-.234-.117 1.114 1.114 0 00-.305-.047.605.605 0 00-.281.024c-.094.015-.156.078-.188.187a.715.715 0 000 .258l.047.281a.474.474 0 01-.023.258c-.016.063-.07.11-.164.14a.595.595 0 01-.14-.14 1.234 1.234 0 00-.118-.187c-.078-.11-.14-.196-.188-.258-.046-.063-.062-.18-.046-.352.015-.265.093-.453.234-.562.156-.032.328-.047.516-.047.187-.016.367-.008.539.023.171.016.32.055.445.117.14.063.234.149.281.258.016.078.04.157.07.235.047.078.07.156.07.234-.046.328-.085.57-.116.727a2.133 2.133 0 01-.352.796.746.746 0 01-.328.282 1.454 1.454 0 01-.258.164l-.281.094c-.125.078-.227.117-.305.117a.292.292 0 01-.164 0 4.46 4.46 0 00-.21-.047.477.477 0 00-.212 0 .325.325 0 01-.14-.024c-.157-.109-.25-.164-.282-.164a.273.273 0 01-.07-.046c-.094-.079-.14-.126-.14-.141a.178.178 0 00-.024-.07c-.125-.172-.195-.258-.211-.258-.016 0-.023-.016-.023-.047a1.773 1.773 0 00-.211-.422 3.258 3.258 0 01-.211-.469c-.032-.156-.055-.242-.07-.258 0-.03-.016-.062-.047-.093l-.141-.516a5.467 5.467 0 00-.117-.539c-.032.063-.07.125-.118.188a1.516 1.516 0 00-.093.164zm15.961 1.617c-.11-.078-.133-.14-.071-.188a.487.487 0 00.164-.234.654.654 0 00-.07-.516.63.63 0 00-.375.117 1.2 1.2 0 00-.258.235c-.156.234-.265.43-.328.586-.078.312-.101.492-.07.539.047.047.133.11.258.187.218.11.429.196.632.258.204.063.368.07.493.024.062-.016.133-.07.211-.165.078-.093.14-.18.187-.257.047-.063.102-.133.164-.211.063-.094.117-.18.164-.258a.513.513 0 01.071-.14l.046-.094a3.58 3.58 0 01.141-.586.826.826 0 00.023-.446c0-.078-.015-.18-.046-.304a.433.433 0 01-.024-.141.27.27 0 00-.023-.117 5.218 5.218 0 00-.188-.235c0-.03-.008-.054-.023-.07a2.19 2.19 0 01-.188-.281.516.516 0 00-.07-.188 3.398 3.398 0 01-.117-.164.294.294 0 00-.071-.14 1.152 1.152 0 00-.281-.14.618.618 0 00-.375-.024 2.259 2.259 0 00-.422.117 2.57 2.57 0 01-.211.094.461.461 0 01-.211.046.625.625 0 00-.234.047.93.93 0 00-.211.117.91.91 0 01-.211.118c-.094.062-.179.11-.258.14-.078.032-.14.063-.187.094a1.176 1.176 0 00-.305.258l-.304.351a2.78 2.78 0 00-.211.282c0 .03-.016.062-.047.093a.712.712 0 00-.094.118.3.3 0 01-.07.117.464.464 0 00-.118.164l-.046.094-.118.234c-.031.094-.07.18-.117.258a3.99 3.99 0 00-.211.492c-.031.125-.07.266-.117.422-.031.094-.07.18-.117.258a.742.742 0 00-.094.234 2.045 2.045 0 00-.023.54c.031.187.047.366.047.538 0 .156-.008.242-.024.258v.07a9.9 9.9 0 010 1.36c-.015.5-.008.93.024 1.289.015.078.023.164.023.258.016.078.031.164.047.257v.282c0 .093.016.164.047.21.047.126.156.258.328.399.172.125.32.227.445.305l.258.187c.125.063.203.11.234.14.047.016.094.04.141.071.078.047.164.094.258.14.094.048.156.134.187.259a2.49 2.49 0 01-.586.164c-.187.03-.406.062-.656.093l-.375.047a11.65 11.65 0 01-.375.047.687.687 0 00-.164.024h-.164a.872.872 0 01-.211-.024l-.187-.047c-.11 0-.219.008-.328.024a.658.658 0 01-.305-.024.445.445 0 01-.141-.023 17.617 17.617 0 01-.14-.047.635.635 0 00-.235-.047.415.415 0 01-.187-.047 9.237 9.237 0 00-.422-.094 9.245 9.245 0 01-.422-.093c-.063.047-.117.047-.164 0a.544.544 0 00-.094-.14c.141-.095.234-.15.281-.165a.295.295 0 00.141-.07c.156-.11.25-.18.281-.211l.141-.14c.14-.079.226-.142.258-.188.047-.063.101-.125.164-.188a2.43 2.43 0 00.187-.14.369.369 0 00.094-.07c.125-.095.203-.173.234-.235a.641.641 0 01.118-.164.264.264 0 01-.024-.188.632.632 0 00.047-.234.403.403 0 00-.023-.117.212.212 0 010-.14c0-.048.007-.095.023-.142a.893.893 0 00.07-.187.538.538 0 00-.023-.164.597.597 0 01-.024-.188v-.304c.016-.11.016-.227 0-.352a.431.431 0 00-.023-.14v-.165c0-.078.008-.148.023-.21.032-.079.055-.157.071-.235.015-.14.023-.281.023-.422 0-.156.016-.273.047-.351.016-.032.016-.07 0-.117V12c.016-.219.008-.383-.023-.492a22.764 22.764 0 00-.094-.586c0-.11-.008-.219-.024-.328a.854.854 0 00-.023-.211l-.047-.235a10.996 10.996 0 01-.141-.585c-.031-.22-.062-.43-.093-.633a4.262 4.262 0 01-.071-.258 5.2 5.2 0 00-.093-.399 2.103 2.103 0 00-.094-.398l-.094-.234a.821.821 0 00-.07-.235.748.748 0 00-.117-.093 1.412 1.412 0 00-.141-.118.748.748 0 00-.117-.093l-.094-.094a2.425 2.425 0 01-.445-.211 1.317 1.317 0 00-.235-.07l-.234-.094a3.508 3.508 0 01-.398-.258c-.157-.125-.25-.188-.282-.188-.046 0-.07-.03-.07-.093.031-.063.086-.094.164-.094a.87.87 0 01.211.023c.063.047.125.07.188.07h.14c.063.016.117.032.164.048a.875.875 0 00.399 0 .48.48 0 01.211 0c.156 0 .312.007.468.023.157.016.313.024.469.024h.141a.684.684 0 01.351 0c.078.015.149.023.211.023a.517.517 0 00.164-.024.775.775 0 01.188-.023c.031 0 .07.008.117.024H105.945c.125 0 .227.03.305.093a.741.741 0 01-.023.328 1.708 1.708 0 00-.071.305 5.929 5.929 0 00-.023.516c.015.172.023.336.023.492.016.125.016.25 0 .375 0 .11-.015.226-.047.351a.975.975 0 00-.023.258c0 .11-.008.211-.024.305.094-.125.149-.188.165-.188a.273.273 0 00.046-.07l.282-.586a.38.38 0 00.07-.094.576.576 0 00.07-.14c.078-.14.117-.242.117-.305.141-.172.227-.281.258-.328a1.29 1.29 0 01.118-.188c.031-.046.07-.101.117-.164l.14-.187a10.545 10.545 0 00.399-.492c.14-.11.281-.188.422-.235a.683.683 0 01.234-.187l.328-.14c.141-.079.227-.11.258-.095.031 0 .07-.007.117-.023.094-.031.203-.062.328-.094a.913.913 0 01.469-.023.743.743 0 01.258.117c.094.063.187.117.281.164a2.777 2.777 0 00.422.211c.062 0 .109.016.141.047.171.156.296.266.375.328.093.063.171.125.234.188.125.078.242.156.351.234.126.078.219.156.282.234a.16.16 0 01.047.117.29.29 0 00.07.118.974.974 0 01.187.445c.032.125.055.25.071.375.031.219.039.414.023.586 0 .172-.015.344-.047.516-.047.171-.07.28-.07.328a.098.098 0 010 .093.614.614 0 01-.07.141.674.674 0 00-.071.281.43.43 0 01-.023.14c-.031.063-.07.126-.117.188a.617.617 0 00-.117.165c-.047.109-.094.18-.141.21-.031.032-.047.079-.047.141a1.162 1.162 0 00-.305.211c-.062.063-.14.133-.234.21a.848.848 0 01-.211.165.229.229 0 01-.117.047c-.016-.016-.07-.016-.164 0-.078.015-.125.031-.141.047 0 .015-.055.015-.164 0a4.351 4.351 0 00-.211-.047l-.234-.047a.218.218 0 00-.141 0 .26.26 0 01-.117-.023c-.219-.094-.367-.141-.445-.141a1.336 1.336 0 01-.235-.07 1.625 1.625 0 01-.187-.047.5.5 0 00-.164-.094 4.254 4.254 0 01-.399-.14c-.14-.063-.226-.126-.258-.188a.253.253 0 01-.046-.14.498.498 0 000-.212 2.584 2.584 0 010-.703.802.802 0 00.023-.187c0-.078.008-.157.023-.235a.62.62 0 01.071-.14.576.576 0 00.07-.14c.047-.126.078-.188.094-.188.015-.016.023-.032.023-.047.032-.094.11-.188.235-.282.125-.093.211-.148.257-.164.063-.03.18-.062.352-.093.188-.016.352-.016.492 0a.346.346 0 01.164.093c.063.047.125.086.188.118a.545.545 0 00.14.093c.063.016.11.055.141.117.031.141.016.258-.047.352-.047.094-.101.18-.164.258l-.094.14a.29.29 0 01-.07.118.572.572 0 00-.094.14c-.015.047-.062.055-.14.024zm15.023-7.828a.464.464 0 01-.023.328c-.032.094-.071.203-.118.328a9.346 9.346 0 01-.257.562 5.47 5.47 0 00-.211.61l-.094.304-.094.235a5.08 5.08 0 00-.047.304 6.2 6.2 0 00-.023.54v.867c.016.11.023.218.023.328 0 .25-.007.5-.023.75-.016.234-.016.46 0 .68v.164a.6.6 0 01.023.187c-.015.219-.007.477.024.774.031.28.031.546 0 .796a.852.852 0 01-.024.211.538.538 0 00-.023.164 3.73 3.73 0 00-.024.422c.016.14.016.274 0 .399l-.046.375c0 .125.007.258.023.398.063.031.109.024.141-.023a.764.764 0 01.093-.117.94.94 0 00.141-.118l.117-.117a.535.535 0 00.141-.094l.117-.117c.156-.094.25-.156.281-.187l.258-.188a3.97 3.97 0 01.539-.422l.235-.187c.093-.078.179-.149.257-.211l.258-.211c.078-.078.149-.156.211-.234l.234-.235c.126-.078.188-.125.188-.14l.07-.07c.078-.079.149-.157.211-.235.063-.078.133-.172.211-.281.031-.094.063-.149.094-.164a.357.357 0 00.07-.094c.016-.031.039-.117.071-.258.031-.156.039-.266.023-.328-.031-.094-.125-.172-.281-.234a17.97 17.97 0 01-.399-.165 3.517 3.517 0 00-.187-.07 1.595 1.595 0 00-.164-.094.418.418 0 00-.188-.046c-.047-.016-.086-.055-.117-.118.016-.078.063-.117.141-.117.078 0 .156-.008.234-.023a.774.774 0 01.188-.024h.234a.218.218 0 01.141 0 .634.634 0 00.14.024 6.78 6.78 0 01.797 0c.281.015.547.008.797-.024.266-.062.484-.078.656-.047.188.016.375.016.563 0h1.125c.109-.015.211-.023.304-.023.078 0 .157.008.235.023.093 0 .179.024.258.07a.284.284 0 01-.165.165c-.062.015-.14.047-.234.094l-.281.14a6.129 6.129 0 00-.539.235l-.469.234-.234.094c-.063.03-.133.07-.211.117a1.396 1.396 0 01-.399.164 2.65 2.65 0 00-.422.164l-.445.375c-.094.078-.18.156-.258.234a.748.748 0 01-.117.094.295.295 0 01-.141.07.544.544 0 01-.117.188l-.14.14-.282.352c-.265.281-.492.516-.679.703a17.1 17.1 0 01-.516.54l-.328.28a1.722 1.722 0 00-.281.305.319.319 0 00.07.164.748.748 0 01.117.094c.141.11.227.18.258.211.031.063.078.14.141.234.156.22.265.36.328.422.062.063.101.14.117.235a.517.517 0 01.164.21c.047.079.102.157.164.235.094.11.149.18.164.21.031.032.063.071.094.118.125.219.203.39.234.516.032.078.055.156.071.234.031.063.062.133.093.211a.97.97 0 00.164.281l.141.281c.078.172.133.336.164.493.047.14.133.265.258.375.125.125.211.187.258.187.078.078.14.156.187.235.047.078.086.148.117.21.063.032.141.11.235.235.031.047.062.11.094.187.031.063.062.133.093.211.094.125.141.211.141.258 0 .031.016.063.047.094.109.156.172.273.187.351.032.094.071.18.118.258.078.11.109.164.093.164 0 .016.008.04.024.07.125.126.187.204.187.235s.008.063.024.094c.062.125.132.25.211.375.093.125.179.258.257.398a.581.581 0 01.071.14c.031.063.062.118.093.165.079.125.118.203.118.234 0 .032.007.063.023.094.125.125.203.21.234.258.032.062.063.117.094.164l.164.164a.522.522 0 00.211.164.32.32 0 00.211.023c.078 0 .156.016.235.047.078.016.148.04.21.07a.53.53 0 00.188.094c.078.016.164.024.258.024h.258c.156 0 .296-.016.421-.047a.41.41 0 00.282-.14c.109-.126.187-.305.234-.54.031.157.039.336.023.54v.609a1.701 1.701 0 01-.703.234c-.265.047-.547.086-.843.117a2.799 2.799 0 01-.821-.023 4.234 4.234 0 01-.773-.188 2.731 2.731 0 01-.211-.093 1.636 1.636 0 01-.211-.07c-.25-.11-.43-.212-.539-.305a1.661 1.661 0 01-.328-.399 20.95 20.95 0 00-.305-.492.748.748 0 00-.117-.094l-.094-.094a.574.574 0 01-.07-.14.254.254 0 00-.047-.14.29.29 0 01-.07-.118.291.291 0 00-.071-.117.764.764 0 01-.093-.117.78.78 0 01-.047-.118 1.405 1.405 0 01-.071-.164.227.227 0 00-.046-.117 3.841 3.841 0 01-.141-.258 1.595 1.595 0 00-.117-.234.953.953 0 00-.094-.21c-.016 0-.031-.009-.047-.024a1.344 1.344 0 00-.117-.235c-.016 0-.031-.008-.047-.023-.094-.219-.156-.36-.187-.422a2.443 2.443 0 01-.094-.211c-.063-.156-.11-.242-.141-.258a2.08 2.08 0 00-.047-.047c-.078-.172-.14-.304-.187-.398a2.353 2.353 0 00-.141-.281c-.109-.172-.18-.266-.211-.282a.38.38 0 01-.07-.093c-.109-.157-.164-.25-.164-.282a.16.16 0 00-.047-.117 3.751 3.751 0 01-.164-.281 3.006 3.006 0 00-.117-.211.302.302 0 01-.071-.117.223.223 0 00-.093-.14.2.2 0 00-.024-.165.768.768 0 00-.093-.117.58.58 0 01-.071-.14.293.293 0 00-.07-.141 2.353 2.353 0 00-.141-.282l-.047-.14a.509.509 0 00-.023-.164.616.616 0 00-.117-.164 1.201 1.201 0 01-.117-.188 11.542 11.542 0 00-.305-.61 2.224 2.224 0 00-.375-.562l-.234.164c-.126.079-.227.141-.305.188-.203.11-.328.172-.375.187a3.799 3.799 0 01-.258.141.575.575 0 00-.258.188l.047.703c.016.234 0 .46-.047.68a7.475 7.475 0 01-.047.14.539.539 0 00-.023.164 5.078 5.078 0 00-.047.75c.016.297.031.54.047.727 0 .109-.008.218-.024.328-.015.093.008.164.071.21a.29.29 0 00.117.07c.062 0 .109.017.141.048.093.047.171.094.234.14.062.032.109.055.141.07l.234.095c.078.03.156.07.234.117.11.047.219.101.328.164.125.047.196.086.211.117l.094.047c.109.078.188.125.235.14.062.016.124.04.187.07.063.095.086.15.07.165 0 .031-.015.062-.047.094a.687.687 0 00-.304-.024.961.961 0 01-.305.047.692.692 0 01-.164-.023.898.898 0 01-.117-.047h-.446l-.445.047c-.156 0-.312-.008-.469-.024-.14 0-.296-.008-.468-.023l-.305.047a.762.762 0 00-.187.023.782.782 0 01-.188.023 5.133 5.133 0 01-.68.047c-.218 0-.445.024-.679.07-.125.016-.266.032-.422.047a7.428 7.428 0 01-.399.07h-.14c-.063 0-.11-.023-.141-.07-.016-.078.008-.125.07-.14a.254.254 0 00.141-.047.754.754 0 01.117-.094.218.218 0 01.141 0l.211-.21c.047-.032.101-.063.164-.094.078-.032.148-.063.211-.094a.63.63 0 00.211-.14c.25-.126.461-.227.633-.305.171-.079.289-.18.351-.305a.321.321 0 00.023-.14c0-.079.008-.15.024-.212l.047-.14a1.198 1.198 0 00.117-.516c0-.125.008-.242.023-.352.032-.25.071-.492.118-.726.047-.25.078-.485.093-.703a.432.432 0 00-.023-.14v-.165c0-.234-.008-.43-.023-.586a5.095 5.095 0 01-.024-.469c.016-.093.031-.195.047-.304.016-.125.023-.242.023-.352 0-.078-.007-.156-.023-.234a8.175 8.175 0 00-.047-.258v-.422a2.07 2.07 0 000-.445c0-.172-.008-.36-.023-.563a8.717 8.717 0 01-.024-.68c0-.124-.008-.242-.023-.351 0-.125.008-.242.023-.352.016-.093.024-.203.024-.328.015-.14.015-.289 0-.445a.508.508 0 00-.024-.164.802.802 0 01-.023-.188v-.21c.015-.079.023-.157.023-.235v-.351c0-.141-.008-.282-.023-.422a1.658 1.658 0 010-.399c0-.11.008-.21.023-.304a.965.965 0 00.047-.305.468.468 0 000-.211 1.164 1.164 0 01-.023-.234c0-.141.007-.227.023-.258a.098.098 0 000-.094 9.734 9.734 0 00-.117-.586 1.785 1.785 0 00-.07-.351 1.156 1.156 0 00-.235-.211.509.509 0 00-.187-.211c-.235-.11-.407-.188-.516-.235a1.612 1.612 0 00-.328-.164 15.05 15.05 0 01-.445-.14.705.705 0 01-.352-.211c.078-.204.148-.305.211-.305l.187-.047.329-.047a5.11 5.11 0 00.375-.07l.14-.047a.691.691 0 01.164-.023.291.291 0 01.164 0 .522.522 0 00.164.023.819.819 0 00.258-.047 2.19 2.19 0 01.258-.07 1.99 1.99 0 01.609 0c.219.015.415.008.586-.024a.266.266 0 01.118-.023.232.232 0 00.117-.094.215.215 0 00.14 0 .29.29 0 01.164-.047c.063 0 .118.008.164.024l.141.047zm8.391 1.125c.047-.032.125-.032.234 0 .11.015.203.03.281.046.094.032.188.055.282.07.109 0 .203.016.281.048a.665.665 0 01.211.21l.094.094a.264.264 0 01.093.094l.141.352a.743.743 0 01.094.234c-.094.281-.188.453-.282.516-.156.14-.265.258-.328.351-.047.094-.133.157-.257.188a.945.945 0 01-.258.023c-.172.047-.282.07-.328.07a.218.218 0 00-.141 0c-.234.016-.399 0-.492-.046a.936.936 0 00-.235-.141l-.14-.281a8.815 8.815 0 01-.094-.352 1.348 1.348 0 01-.023-.21v-.235c.031-.203.085-.344.164-.422a.97.97 0 00.211-.234c.093-.11.14-.172.14-.188a.282.282 0 01.07-.047.305.305 0 01.141-.07.3.3 0 00.141-.07zm1.5 3.609c.015.078.008.14-.024.188a.631.631 0 00-.023.187c0 .11.008.219.023.328.032.11.039.219.024.328 0 .078-.008.157-.024.235 0 .062-.008.132-.023.21-.031.297-.055.633-.07 1.008 0 .36-.016.711-.047 1.055a5.704 5.704 0 01-.071.516 4.83 4.83 0 00-.07.492c0 .172.008.328.023.469.016.14.024.289.024.445-.016.11-.031.226-.047.351 0 .11-.016.227-.047.352a2.35 2.35 0 00-.023.586c.015.219.031.422.047.61l.046.562c.016.187.04.367.071.539.031.11.07.219.117.328.062.11.117.211.164.305.063.172.102.265.117.281.016 0 .031.008.047.023.063.125.125.22.188.282l.093.14.118.117c.046.079.109.141.187.188.078.047.156.11.234.188.125.14.204.226.235.257.047.016.062.047.047.094a4.482 4.482 0 00-.211.047 1.44 1.44 0 00-.516.117 2.305 2.305 0 01-.328.024 2.86 2.86 0 00-.352.023c-.14.047-.218.063-.234.047 0-.016-.016-.024-.047-.024-.219.047-.414.086-.586.118-.172.03-.336.062-.492.093a4.326 4.326 0 01-.398.07c-.11.016-.227.04-.352.071a.898.898 0 01-.117.047 1.194 1.194 0 01-.117.07.782.782 0 01-.328.024.691.691 0 00-.305.023c.094-.187.156-.297.187-.328l.094-.094c.094-.156.164-.265.211-.328a.738.738 0 01.188-.14.6.6 0 01.187-.352c.063-.078.117-.172.164-.281.063-.11.117-.22.164-.328.094-.172.149-.313.164-.422.032-.11.047-.22.047-.329a1.292 1.292 0 000-.351 3.145 3.145 0 01-.023-.375l.047-.281c.015-.11.031-.211.046-.305a2.95 2.95 0 00.024-.375v-.352a.597.597 0 00-.024-.187.905.905 0 01-.023-.211c0-.172-.016-.297-.047-.375a.285.285 0 00-.187-.164c-.078-.188-.118-.305-.118-.352 0-.046.024-.109.071-.187a2.62 2.62 0 01.258-.375.576.576 0 00.117-.188 1.811 1.811 0 01.094-.586l.023-.28v-.212c.016-.078.023-.156.023-.234v-.235a.83.83 0 000-.28 1.228 1.228 0 00-.07-.165.952.952 0 00-.07-.187c-.047-.235-.133-.414-.258-.54a3.14 3.14 0 00-.516-.492 1.495 1.495 0 00-.164-.093l-.14-.094a1.056 1.056 0 01-.188-.094.51.51 0 00-.117-.094.266.266 0 00-.188-.023.382.382 0 01-.164-.047c-.187-.078-.304-.117-.351-.117a.142.142 0 01-.094-.094.467.467 0 01-.211-.047l-.187-.14c-.188-.11-.266-.211-.235-.305.031-.094.149-.133.352-.117.203.015.375.008.515-.024.141-.03.211-.039.211-.023H131.82a.212.212 0 01.094-.024.445.445 0 00.141-.023.87.87 0 01.211-.023c.078-.016.14-.024.187-.024.063-.015.117-.031.164-.047.156.016.242.016.258 0a.21.21 0 01.094-.023c.172.016.304.023.398.023.094-.015.18-.023.258-.023.172 0 .359-.008.563-.024.218-.03.437-.039.656-.023zm15.258-4.219c0 .094-.04.149-.118.164-.078.016-.156.04-.234.07a.296.296 0 01-.164.141.92.92 0 00-.188.07 1.407 1.407 0 01-.164.094 1.407 1.407 0 01-.164.094c-.172.11-.273.164-.304.164a.206.206 0 00-.094.024l-.375.21a3.193 3.193 0 01-.399.211l-.328.141a.45.45 0 00-.211.234c.016.22 0 .415-.047.586a4.527 4.527 0 00-.117.516c-.015.14-.023.273-.023.398a.992.992 0 01-.024.375l-.046.141a.784.784 0 00-.047.117v.164a.508.508 0 01-.024.164 3.233 3.233 0 000 .54 2.48 2.48 0 01-.023.585 8.15 8.15 0 00-.047.258 1.39 1.39 0 01-.07.235c0 .046.007.093.023.14a.29.29 0 01.047.164 6.51 6.51 0 01-.07.492 5.353 5.353 0 00-.024.54c0 .171-.008.343-.023.515v.54c0 .077.008.155.023.234.016.078.024.156.024.234a.437.437 0 010 .281 1.668 1.668 0 00-.024.281c.016.079.031.149.047.211.016.063.031.133.047.211.016.14.023.297.023.47.016.17.039.343.071.515.031.11.039.172.023.187 0 .016.008.04.024.07.031.22.054.438.07.657l.094.656c.031.203.062.336.093.398.032.22.039.438.024.657-.016.203 0 .414.047.633l.211.28c.047.048.101.095.164.141a.983.983 0 01.211.094c.015 0 .039.016.07.047.125.078.289.14.492.188.141.046.242.078.305.093a.983.983 0 00.164.024c.094-.016.148-.008.164.023l.094.047c.078.031.164.063.257.094.11.015.188.062.235.14-.016.094-.055.141-.117.141a.218.218 0 00-.141 0 .364.364 0 00-.141.047.382.382 0 01-.117.023.475.475 0 00-.258.024c-.062.015-.14.031-.234.047a1.125 1.125 0 01-.351.047c-.141 0-.297.015-.469.046-.235.032-.453.063-.657.094-.203.016-.437.04-.703.07a3.19 3.19 0 01-.398.024c-.125.015-.211.008-.258-.024-.094-.39-.125-.773-.094-1.148.047-.39.055-.773.024-1.148-.094.078-.149.14-.164.187a.291.291 0 01-.071.117c-.125.219-.21.36-.257.422a3.574 3.574 0 01-.118.211c-.031.063-.07.125-.117.188a.93.93 0 00-.14.187l-.188.188c0 .015-.031.039-.094.07l-.445.328c-.125.11-.195.164-.211.164-.016 0-.031.008-.047.023a1.769 1.769 0 01-.398.211.922.922 0 01-.188.07 1.67 1.67 0 00-.211.071c-.14.078-.234.117-.281.117a.653.653 0 00-.141.024l-.374.164a.838.838 0 01-.305.047c-.11.015-.242.03-.399.047l-.234.046a.871.871 0 01-.211.024 8.279 8.279 0 00-.258-.047 2.772 2.772 0 01-.304-.07 4.748 4.748 0 00-.352-.118 1.346 1.346 0 01-.305-.093 1.768 1.768 0 00-.234-.094 4.591 4.591 0 01-.258-.094.527.527 0 00-.187-.094.162.162 0 01-.118-.046 10.597 10.597 0 00-.281-.235 1.065 1.065 0 01-.187-.187 2.54 2.54 0 00-.328-.352l-.235-.281a.948.948 0 01-.234-.445c-.094-.11-.141-.172-.141-.188a.098.098 0 000-.094 2.336 2.336 0 01-.117-.351 1.924 1.924 0 00-.07-.281 5.645 5.645 0 00-.141-.704 12.097 12.097 0 01-.117-.68 3.58 3.58 0 010-.585 2.3 2.3 0 00-.024-.586 1.305 1.305 0 010-.352c.016-.078.024-.156.024-.234a1.86 1.86 0 01-.024-.235.753.753 0 00.024-.187c.047-.172.062-.273.047-.305a.27.27 0 01.023-.117c.016-.078.031-.148.047-.21a4.61 4.61 0 01.047-.212v-.21c0-.063.008-.126.023-.188 0-.063.008-.117.024-.164a3.29 3.29 0 00.094-.211.616.616 0 000-.235c0-.093.015-.18.046-.257.079-.172.125-.282.141-.329l.047-.14a.903.903 0 01.117-.211.49.49 0 00.07-.258l.188-.234c.062-.078.133-.164.211-.258l.164-.211a.373.373 0 00.094-.14.546.546 0 01.093-.141 2.079 2.079 0 00.516-.399l.141-.14c.047-.032.109-.063.187-.094l.235-.094.257-.14c.172-.079.289-.133.352-.165.078-.046.164-.085.258-.117.218-.078.344-.125.375-.14.047-.016.109-.04.187-.07l.282-.094a1.25 1.25 0 01.304-.07c.125-.016.258-.024.399-.024.171-.031.32-.031.445 0 .078 0 .164.016.258.047l.328.093c.109.016.211.04.305.07l.187.095c.063.03.133.062.211.093.172.078.266.117.281.117.016-.015.039-.007.071.024.281.203.492.375.632.516.157.14.305.28.446.421.031.032.07.079.117.141a.356.356 0 00.187.094 7.737 7.737 0 000-1.219l-.047-1.289c0-.219.008-.453.024-.703.016-.25-.016-.461-.094-.633a.617.617 0 00-.117-.164 3.013 3.013 0 00-.117-.21l-.094-.095a.301.301 0 00-.07-.117 1.636 1.636 0 00-.282-.422 3.846 3.846 0 00-.234-.258 1.059 1.059 0 00-.187-.187.347.347 0 01-.094-.258c.078-.078.164-.101.258-.07a.952.952 0 00.304.047c.11.015.211.023.305.023.109-.015.219-.023.328-.023h.328c.11-.016.211-.024.305-.024.125 0 .25.008.375.024.125.015.25.023.375.023.141.016.289.024.445.024.157-.016.297-.032.422-.047.25-.032.461-.055.633-.07.172-.016.344-.04.516-.07.062 0 .148.007.257.022.11 0 .211.008.305.024.203-.031.336-.008.399.07zm-6.516 7.64c-.125-.171-.242-.273-.352-.304a.537.537 0 00-.632.164c-.079.094-.141.18-.188.258-.172.25-.281.461-.328.633-.031.078-.07.164-.117.258-.047.093-.055.172-.024.234 0 .078.039.164.117.258l.165.164c.125.11.195.164.211.164.031 0 .062.008.093.023l.141.094a.685.685 0 00.164.024c.125 0 .234-.016.328-.047.109-.047.203-.086.281-.117a3.91 3.91 0 01.375-.165 2.39 2.39 0 00.352-.187c.125-.094.211-.156.258-.188.125-.093.195-.132.211-.117.015 0 .031-.008.047-.023.124-.094.21-.156.257-.188.172-.093.321-.195.446-.304.125-.11.234-.25.328-.422.078-.14.109-.235.093-.281a.408.408 0 01-.023-.094.447.447 0 00-.094-.352 5.765 5.765 0 01-.14-.258.77.77 0 00-.117-.21.712.712 0 01-.094-.118 2.082 2.082 0 00-.235-.304c-.171-.235-.304-.383-.398-.446a1.67 1.67 0 01-.258-.21c-.109-.094-.172-.141-.187-.141a.271.271 0 00-.071-.047 1.104 1.104 0 00-.304-.164 4.653 4.653 0 01-.305-.164c-.156-.094-.25-.133-.281-.117a.206.206 0 01-.094-.024 2.584 2.584 0 00-.516-.094h-.328a.767.767 0 00-.187.024 1.745 1.745 0 00-.211.094 2.964 2.964 0 01-.164.093 1.766 1.766 0 00-.328.235l-.188.234a1.832 1.832 0 00-.164.188.892.892 0 01-.094.164c-.015 0-.039.015-.07.046l-.094.188a.576.576 0 01-.07.14l-.094.141a3.136 3.136 0 00-.234.445c-.031.094-.071.204-.117.329l-.094.14-.07.14c-.094.157-.18.376-.258.657l-.188.328a2.097 2.097 0 00-.117.282c-.047.187-.086.304-.117.351a1.374 1.374 0 01-.07.164c-.047.14-.094.29-.141.445a3.37 3.37 0 00-.117.47c0 .14-.008.226-.024.257-.015.016-.023.031-.023.047v.328a.402.402 0 01.023.117c0 .078-.008.156-.023.235a1.166 1.166 0 00-.024.234c0 .125.008.242.024.352.031.093.062.18.094.257.031.157.054.258.07.305.031.11.07.203.117.281a.903.903 0 01.117.211.633.633 0 01.047.235.861.861 0 00.07.21.78.78 0 01.047.118c.032.031.063.07.094.117a.512.512 0 01.07.164.291.291 0 00.071.117c.125.203.218.336.281.399.062.047.109.086.141.117l.21.21a.18.18 0 01.071.024c.219.125.351.195.398.211.063.016.125.04.188.07.062.016.133.032.211.047a.98.98 0 00.164.024c.078-.016.133-.016.164 0 .047.015.086.015.117 0 .125 0 .25-.008.375-.024.141-.015.25-.039.328-.07.094-.031.203-.063.328-.094.125-.047.227-.086.305-.117a1.03 1.03 0 01.211-.117.53.53 0 00.164-.07c.125-.094.211-.165.258-.211.047-.063.101-.125.164-.188.047-.062.094-.117.14-.164a.72.72 0 00.141-.187 2.43 2.43 0 01.234-.211c.063-.063.118-.125.165-.188.093-.14.171-.234.234-.281.062-.047.125-.11.187-.188a.973.973 0 01.118-.14l.14-.188a.544.544 0 00.094-.14l.141-.188c.109-.172.171-.258.187-.258.016-.015.023-.054.023-.117.016-.031.016-.07 0-.117a.46.46 0 01-.023-.14v-.282a.694.694 0 00-.047-.258 1.645 1.645 0 01-.023-.258 1.181 1.181 0 010-.468v-.54c.015-.124.023-.242.023-.35a.247.247 0 00-.047-.142c-.015-.046-.007-.109.024-.187a2.68 2.68 0 01-.258.187l-.07.07c-.125.11-.196.165-.211.165l-.024.023c-.156.11-.304.211-.445.305a6.562 6.562 0 01-.469.234 2.29 2.29 0 01-.656.258 1.183 1.183 0 01-.234.024h-.235c-.078 0-.164.007-.258.023a1.19 1.19 0 01-.234-.023 3.13 3.13 0 01-.234-.07 2.174 2.174 0 01-.164-.071c-.157-.031-.235-.055-.235-.07 0-.032-.015-.063-.047-.094-.234-.156-.375-.281-.422-.375a1.603 1.603 0 01-.117-.399 1.198 1.198 0 01-.023-.398 1.69 1.69 0 01.07-.328.786.786 0 01.117-.258 1.09 1.09 0 00.188-.281 1.09 1.09 0 01.187-.281c.047-.141.071-.227.071-.258s.007-.063.023-.094a.545.545 0 01.188-.117c.078-.031.164-.063.257-.094.188-.14.352-.219.493-.234.171.03.265.047.281.047h.117a.51.51 0 01.211.187 1.5 1.5 0 01.352.305c.062.078.109.14.14.187.047.047.07.11.07.188a.292.292 0 01-.093.21l-.211.212a1.767 1.767 0 00-.188.164c-.062.062-.133.078-.211.047-.031-.125-.007-.22.071-.282.078-.078.101-.21.07-.398zm15.094-5.085a.702.702 0 01-.094.351 1.732 1.732 0 00-.117.305 1.395 1.395 0 00-.071.235 1.599 1.599 0 01-.07.21c-.078.11-.117.18-.117.211.016.016.016.04 0 .07-.016.048-.047.11-.094.188l-.094.188a.328.328 0 00-.07.164c0 .078-.015.14-.047.187a1.838 1.838 0 01-.047.164 1.228 1.228 0 01-.07.164c-.062.141-.117.282-.164.422s-.094.29-.141.446a1.698 1.698 0 00-.093.351 1.566 1.566 0 01-.118.281.539.539 0 00-.023.165.539.539 0 01-.023.164.898.898 0 01-.071.187 2.894 2.894 0 00-.047.164l-.093.281a.476.476 0 01-.141.235c-.063.265-.125.46-.187.586a.294.294 0 00-.071.14c-.015.047-.062.063-.14.047-.016-.187-.008-.312.023-.375a.735.735 0 00.094-.258.865.865 0 000-.398 6.057 6.057 0 00-.071-.492c-.062-.36-.148-.742-.257-1.149-.094-.406-.227-.742-.399-1.008l-.117-.117-.094-.14a6.233 6.233 0 01-.187-.258.926.926 0 01-.188-.094c0-.016-.015-.031-.047-.047a10.328 10.328 0 00-.257-.093 8.079 8.079 0 01-.094-.047.784.784 0 00-.352-.07.578.578 0 00-.211.046.979.979 0 01-.234.024 8.9 8.9 0 01-.633.023c-.203 0-.375.024-.515.07-.047.032-.102.07-.165.118a4.26 4.26 0 01-.187.117c-.109.093-.18.14-.211.14a.176.176 0 00-.07.024 3.94 3.94 0 01-.164.117.352.352 0 00-.094.07 3.797 3.797 0 01-.305.422c-.047.031-.086.11-.117.235a.826.826 0 00-.094.375v.375a.46.46 0 01-.023.14v.14c0 .11.008.22.023.329.031.11.063.234.094.375 0 .156.008.258.023.305a.582.582 0 01.071.14.615.615 0 01.07.14.91.91 0 00.047.118l.117.117a.462.462 0 01.164.14c.141.095.219.157.235.188l.046.047c.047.031.102.063.164.094a.52.52 0 01.188.07c.188.094.336.157.445.188.11.031.203.062.282.094.156.093.25.148.281.164.031 0 .062.015.094.046a1.6 1.6 0 00.234.211.205.205 0 00.094.024.376.376 0 00.164.047c.062 0 .125.015.187.047l.235.093c.093.016.187.04.281.07.047.016.133.04.258.071.062.016.125.04.187.07.078.016.156.04.235.07.187.032.289.063.304.094a.272.272 0 00.071.047l.351.14c.109.017.18.04.211.071l.141.094.257.117c.157.094.235.133.235.117a1.2 1.2 0 01.164.305.612.612 0 00.07.14c.094.172.133.305.117.4 0 .093.008.187.024.28.031.094.055.188.07.282a.693.693 0 01.047.257c.016.125.023.243.023.352v.328c.016.563-.039 1.04-.164 1.43-.078.234-.156.39-.234.468a2.19 2.19 0 00-.187.282 1.888 1.888 0 01-.235.281.737.737 0 01-.14.188 1.767 1.767 0 01-.188.164 1.17 1.17 0 00-.211.14.357.357 0 01-.07.094c-.156.062-.258.094-.305.094-.031 0-.062.015-.094.047-.187.14-.328.218-.422.234a1.98 1.98 0 01-.257.094c-.266.047-.453.062-.563.047a2.466 2.466 0 00-.351-.024c-.079 0-.157.008-.235.024a.59.59 0 01-.234 0c-.203 0-.406-.032-.61-.094a11.91 11.91 0 01-.562-.188 1.829 1.829 0 01-.375-.14 9.992 9.992 0 01-.398-.211 2.718 2.718 0 00-.258-.211 5.105 5.105 0 01-.188-.117 2.171 2.171 0 01-.14-.164 1.29 1.29 0 01-.118-.141 1.423 1.423 0 00-.14-.164l-.141-.188a.38.38 0 00-.164-.187c-.094-.016-.156.008-.187.07a.142.142 0 01-.094.094l-.094.094-.094.093-.281.422a3.07 3.07 0 01-.258.282 3.44 3.44 0 00-.117.164.52.52 0 01-.094.14c-.047.11-.086.188-.117.235-.031.062-.07.078-.117.047-.094-.016-.133-.063-.117-.141.015-.078.023-.14.023-.188l.047-.187c.016-.063.031-.117.047-.164a.854.854 0 01.047-.211.3.3 0 01.07-.117c.031-.11.055-.196.07-.258.016-.078.04-.172.071-.281l.047-.235c.015-.093.039-.18.07-.258.031-.125.055-.242.07-.351.016-.125.039-.25.071-.375.047-.266.086-.516.117-.75.047-.25.109-.5.187-.75.032-.125.071-.235.117-.328.047-.11.086-.219.118-.328a.802.802 0 00.023-.188c0-.078.008-.148.024-.21a.303.303 0 000-.165c0-.062.039-.11.117-.14.156.25.226.468.211.656-.016.187-.008.351.023.492.016.11.039.226.07.351l.094.329c.031.125.055.242.07.351.032.11.071.211.118.305.031.078.062.148.093.21.047.063.086.126.118.188a.952.952 0 01.07.188l.094.187c.093.172.195.328.304.47.125.14.25.273.375.398.11.03.204.078.282.14.078.063.164.11.257.14.079.032.172.055.282.071.125.016.242.031.351.047.219.031.422.047.61.047.187-.016.39-.07.609-.164.094-.032.187-.078.281-.14.094-.063.203-.126.328-.188.047-.032.102-.063.164-.094a.546.546 0 00.188-.117c.047-.047.133-.11.258-.188.14-.078.234-.156.281-.234l.141-.235c.015-.125.031-.21.046-.257a.802.802 0 00.094-.375v-.211c.016-.157.016-.25 0-.282v-.117c0-.078.016-.156.047-.234.031-.094.055-.18.07-.258a.667.667 0 00-.023-.164l-.047-.234a3.853 3.853 0 00-.047-.305.373.373 0 00-.094-.234 2.594 2.594 0 00-.257-.188.354.354 0 01-.094-.07l-.328-.258c-.078-.063-.203-.11-.375-.14a4.847 4.847 0 00-.586-.118 6.425 6.425 0 01-.586-.117 2.13 2.13 0 00-.352-.07.16.16 0 01-.117-.047.528.528 0 01-.164-.07 1.495 1.495 0 00-.164-.094.518.518 0 00-.164-.024.762.762 0 01-.187-.023.468.468 0 00-.211-.047 3.614 3.614 0 01-.282-.07 4.537 4.537 0 01-.328-.094 1.188 1.188 0 01-.305-.164c-.062-.047-.109-.07-.14-.07a.563.563 0 00-.117-.07c-.063-.048-.117-.071-.164-.071a.162.162 0 01-.118-.047 1.194 1.194 0 01-.234-.164 1.376 1.376 0 00-.351-.234 1.565 1.565 0 01-.235-.141c-.078-.094-.125-.14-.141-.14a.18.18 0 01-.07-.024 6.704 6.704 0 01-.258-.352c-.046-.11-.086-.203-.117-.28l-.164-.33c-.047-.108-.062-.241-.047-.398v-.304-.328l.024-.258c.031-.094.07-.188.117-.281.047-.11.086-.211.117-.305.063-.094.094-.156.094-.188a.27.27 0 01.023-.117c.078-.093.141-.187.188-.281a.497.497 0 01.187-.21.359.359 0 01.094-.188.544.544 0 00.117-.188.5.5 0 01.188-.21c.047-.063.101-.134.164-.212a.575.575 0 01.258-.187c.203-.125.343-.203.421-.235a.424.424 0 00.188-.14c.047-.016.086-.016.117 0a.292.292 0 00.164 0 .359.359 0 00.188-.094.733.733 0 01.187-.14c.188-.048.297-.079.328-.094l.094-.047a.218.218 0 01.141 0 .439.439 0 00.14-.024c.141-.062.25-.086.328-.07.094.016.196.023.305.023.125 0 .25-.007.375-.023.141-.016.289-.008.445.023.266.063.571.149.914.258.172.031.266.055.282.07h.047l.14.047c.063 0 .133.016.211.047.078.063.141.11.188.14a.224.224 0 01.117.095c.094.125.148.187.164.187.016 0 .039.008.07.024.063.062.117.125.164.187a.825.825 0 00.258.164.346.346 0 00.164-.094l.141-.14c.109-.094.226-.227.351-.399.11-.156.172-.25.188-.28.078-.142.133-.228.164-.259a.712.712 0 01.094-.117.827.827 0 00.187-.328h.188z"/>
</svg>
