<svg xmlns="http://www.w3.org/2000/svg" viewBox="0 0 144 175">
  <g id="Layer_2" data-name="Layer 2">
    <g id="Layer_1-2" data-name="Layer 1">
      <path fill="#82b1a9" d="M0 0h144v175H0z"/>
      <path d="M40 150.78s-5.9-68 29.56-69.57c31.07-1.38 57.6 20.2 33 37.82" fill="none" stroke="#ffeac5" stroke-miterlimit="10" stroke-width="8.67"/>
      <path d="M71.15 75.64c-21.31 0-23.11 41.62-22.39 76.3h54.17s4-76.29-31.78-76.3" fill="#4678bc"/>
      <path d="M68.77 76.08c-4.14 0-18.1 5.71-27.69 14.9 0 0 3.09 10.2 10.19 11.94M74.67 76c4.15 0 19.66-1.17 32 9.2 0 0 .54 5.93-6.75 11.45" fill="#4678bc"/>
      <path d="M48.64 125a17 17 0 0011.22-13.68s17.56-1.88 29 0c0 0 6.56 12.34 13.67 13.68 0 0 2.16 17.78 1.22 26.93H48.06s-1.25-18.75.58-26.93" fill="#58c9e9"/>
      <path d="M66.83 115.53l-3-38.33c-1.66-1.32-4.77.78-5.12 2.06s1.36 37.48 1.36 37.48c.06 1.14 6.87.52 6.77-1.21M88.35 115.35l-1.7-38.83s-1.32-2.64-4.57-.48C80.71 77 81 115.42 81 115.42c0 1.14 7.1 1.68 7.37-.07" fill="#58c9e9"/>
      <path d="M86.27 113.61a1.61 1.61 0 11-1.6-1.61 1.6 1.6 0 011.6 1.61M65.22 113.61a1.61 1.61 0 11-1.61-1.61 1.61 1.61 0 011.61 1.61" fill="#fff"/>
      <path d="M62 130.84s-3.78 9.92 8.29 11.53 22-4.2 19.31-12.16a169.11 169.11 0 00-27.6.63" fill="#4cadc9"/>
      <path d="M40.79 89.5c-1.24.2-4.74 5.14-4.2 6.3s11.71 11.2 13.5 9.56a5.35 5.35 0 001.66-4.84c-.14-1.24-8.46-11.41-11-11M105 81.82c1.26-.13 5.89 3.77 5.66 5s-8.5 13.77-10.64 12.66a5.33 5.33 0 01-2.83-4.26C97 94 102.5 82.07 105 81.82" fill="#406dab"/>
      <path d="M83 99.05c-1.31-.8-3.66 7.92 3.38 11.27 9.79 4.66 17.15-9.89 2.66-16.13-3.2-1.37 3.12 8.65 2.52 9.27s-3.1 2.35-3.84 1.88-3.63-5.62-4.72-6.29" fill="#78909c"/>
      <path fill="#78909c" d="M91.57 109.87l11.95 17.44 3.9-2.14-12.63-18.4"/>
      <path d="M115.09 135.58c1.3.8 3.66-7.92-3.38-11.27-9.79-4.66-17.15 9.89-2.66 16.13 3.2 1.38-3.13-8.65-2.52-9.27s3.1-2.35 3.84-1.88 3.65 5.62 4.72 6.29" fill="#78909c"/>
      <path d="M125.4 175c1-12.53 1.57-37.27-1-40.88C121.17 129.63 14 115.27 0 113.4V175z" fill="#f15a29"/>
      <path d="M140.13 175c0-3.35-.21-6-.8-6.32-1.59-.8-44.89-.8-47.27 2.38 0 0-.2 1.64-.4 3.94z" fill="#78909c"/>
      <path d="M1.79 175L21 117.32S5.66 70.49 0 56.09V175z" fill="#f15a29"/>
      <path d="M71.68 175a34.32 34.32 0 00-67.27 0z" fill="#627780"/>
      <path d="M49.87 175a13.63 13.63 0 00-23.64 0z" fill="#78909c"/>
      <path d="M.67 46.18c-.23 0-.45.54-.67 1.61v69.53c6.33.58 21.07.18 20.73-.85C20.27 115.11 3 46.57.67 46.18" fill="#d6eff5"/>
      <path d="M100.91 115.22s-5.68-.12-6.8 2.13 4.18 8.43 7.06 8.12 4.94-3.75 4.94-3.75" fill="#ffeac5"/>
      <path d="M100 115.72s-3.55-.5-3.61-2.69 4.75-.63 6.06 2.93" fill="#ffeac5"/>
      <path d="M20.73 116.47C38.05 18.88 41.08 35 41.08 35l-18 94.89" fill="#f15a29"/>
      <path d="M61.78 53.24a4.86 4.86 0 11-4.85-4.85 4.85 4.85 0 014.85 4.85M94.41 53.24a4.85 4.85 0 11-4.85-4.85 4.85 4.85 0 014.85 4.85" fill="#fff8d5"/>
      <path d="M56.43 33.64s-1 33.9 1.4 36.07S85.76 73.2 88.2 67.1s1-30.84 0-33.46-31.7-3.5-31.77 0" fill="#fff8d5"/>
      <path d="M80.71 55.24c0 2.45-1.4 4.43-3.13 4.43s-3.12-2-3.12-4.43 1.4-4.43 3.12-4.43 3.13 2 3.13 4.43" fill="#fff"/>
      <path d="M76.88 55.53c-.6 0-1.12.55-1.35 1.34a.92.92 0 010 1.84c.24.73.74 1.23 1.31 1.23.81 0 1.47-1 1.47-2.2s-.66-2.21-1.47-2.21" fill="#58595b"/>
      <path d="M71.08 55.24c0 2.45-1.4 4.43-3.13 4.43s-3.12-2-3.12-4.43 1.4-4.43 3.12-4.43 3.13 2 3.13 4.43" fill="#fff"/>
      <path d="M67.89 55.53c-.6 0-1.12.55-1.35 1.34a.92.92 0 010 1.84c.24.73.74 1.23 1.31 1.23.81 0 1.47-1 1.47-2.2s-.66-2.21-1.47-2.21" fill="#58595b"/>
      <path d="M70.57 48.51c.12.4-.87 1-2.2 1.42s-2.5.39-2.61 0 .87-1 2.19-1.42 2.51-.39 2.62 0M79.36 49.52c-.11.39-1.28.42-2.62 0s-2.33-1-2.22-1.38 1.28-.42 2.62-.06 2.33 1 2.22 1.39" fill="#9b8579"/>
      <path d="M68 76.08s4.86 18.48 5.79 17.67 4.61-17.67 4.61-17.67 2-2.2 2-2.83-13-.12-13.85 0S68 76.08 68 76.08" fill="#fff"/>
      <path d="M70.28 71.53v4.93c0 .26 1.85 2.57 2.44 2.37a7.94 7.94 0 002.44-2.31c.21-.51.54-5.33.54-5.33" fill="#fff8d5"/>
      <path d="M72.33 62.41s-5.55-.27-5.78.43 0 8.44.88 8.69 10.34.4 10.65-.34.3-8.47-.5-8.83-5.25 0-5.25 0" fill="#9b8579"/>
      <path d="M70 64.48s-1.24 4.91 2.48 5.23 3.1-5.55 3.1-5.55z" fill="#a85f40"/>
      <path d="M72.43 69.71a2.35 2.35 0 002.23-1 3.21 3.21 0 00-2.72-1.52 3.17 3.17 0 00-1.94.71 2.6 2.6 0 002.43 1.81" fill="#f68b5f"/>
      <path d="M72.35 55.24c-1 .22-2 7.45-1.45 7.81s3.41.18 3.55-.36-1.48-7.58-2.1-7.45" fill="#fdddc1"/>
      <path d="M56.22 46.17s-.81 21.75 1.61 23.54 10.94 1.94 10.94 1.94l-1.94-3.77s-7.24-.32-7.4-1.19.06-21.69.06-21.69l26.75-.87S85.08 65.05 84.71 66s-7.13 1.88-7.13 1.88l-1.46 3.73s11.58-.08 12.54-4.67c.71-3.38 1.83-16.94.58-23.94" fill="#9b8579"/>
      <path d="M89 39.29s6.45-15.63-14.76-17.6l-.75-.06c-.57 0-1.14-.08-1.74-.1H70.3c-22.41-.14-14.07 17.79-14.07 17.79s-6.39 3.63-1 6.79S98 48.5 89 39.29" fill="#4678bc"/>
    </g>
  </g>
</svg>
