<svg xmlns="http://www.w3.org/2000/svg" viewBox="0 0 144 175">
  <g id="Layer_2" data-name="Layer 2">
    <g id="Layer_1-2" data-name="Layer 1">
      <path fill="#726658" d="M0 0h144v175H0z"/>
      <path d="M10 137.4s4.89 6.1 8.58 7.47 7.1-.17 10-1.27a4.2 4.2 0 002.5-5c-.28-1.11-.44-5-1.86-5.16s-.32-3.85-.95-4.48-3.95-1.42-4.9-1.58-4.74-.79-5.53 0-2.37 2.85-2.37 2.85-6.9 5.56-5.47 7.17" fill="#f9ed32"/>
      <path d="M121.79 91.09s1.79-16.49-11.44-34.15c-2.48-3.31 23.51 11.84 21.49 32.76" fill="#78909c"/>
      <path d="M122 90.71s.41 16.58-14.24 33.07c-2.75 3.1 24.42-9.83 24.14-30.85" fill="#78909c"/>
      <path d="M54.21 97.22s-1-3.44 1.11-4.07 2.62 10.22-3 13.28" fill="#9b8579"/>
      <path d="M45.74 116.51c3.14 63.38 37.16-13.83 45.09-14.46" fill="none" stroke="#fff8d6" stroke-miterlimit="10" stroke-width="10.11"/>
      <path d="M41.08 106.28S36.62 126 37.8 127.87s14.72 3.25 16 2.24-1.47-23.68-1.47-23.68 3.55-3.54 2.43-7.54-7.44-4.18-10.43-3.13-8 6.79-3.22 10.52" fill="#9b8579"/>
      <path d="M32.67 99.62c-1.64 1.19-.44 4.14 2.64 4.14.8 0 87.2-8.08 87.2-10.12s1.58-2.65.31-3.28-86.68 6.73-90.15 9.26" fill="#c49a6c"/>
      <path d="M120 175s1.77-84.85-29.13-83.87S59.41 175 59.41 175z" fill="#c2b59b"/>
      <path d="M86.86 86.51s-.69 5.11-.59 5.37c.32.9 8.09.78 8.32-.37S94 84.46 94 84.46" fill="#fff8d5"/>
      <path d="M72.36 41.63s-1.27 41.08 1.69 43.72 33.85 4.22 36.82-3.17 1.26-37.38 0-40.55-38.42-4.25-38.51 0" fill="#fff8d5"/>
      <path d="M71.21 167.36s2.27-71.9 23.42-69.42c17 2 17 68.15 17 68.15" fill="none" stroke="#9b8579" stroke-miterlimit="10" stroke-width="5.06"/>
      <path d="M93.29 65.17c0 3.23-1.84 5.84-4.12 5.84s-4.12-2.61-4.12-5.84 1.85-5.84 4.12-5.84 4.12 2.61 4.12 5.84" fill="#fff"/>
      <path d="M90.19 62.26c-.8 0-1.48.73-1.78 1.77a1.22 1.22 0 010 2.43c.32 1 1 1.62 1.73 1.62 1.07 0 1.93-1.3 1.93-2.91s-.86-2.91-1.93-2.91" fill="#58595b"/>
      <path d="M81.58 65.17c0 2.65-1.51 4.8-3.38 4.8s-3.38-2.15-3.38-4.8 1.51-4.79 3.38-4.79 3.38 2.14 3.38 4.79" fill="#fff"/>
      <path d="M79.3 63.19c-.66 0-1.22.6-1.46 1.45a1 1 0 010 2c.26.79.79 1.34 1.42 1.34.87 0 1.58-1.07 1.58-2.39s-.71-2.39-1.58-2.39" fill="#58595b"/>
      <path d="M81.31 77s-.49 7.71 4.45 7.9 3.06-9.37 3.06-9.37z" fill="#d17751"/>
      <path d="M85.76 84.88c2.48.09 3.24-2.27 3.39-4.65h-.57c-2.85 0-5.22 1.28-5.87 3a3.75 3.75 0 003.05 1.69" fill="#f68b5f"/>
      <path d="M92.59 58.23c-.12.5-1.76.54-3.66.09s-3.35-1.23-3.23-1.73 1.76-.53 3.66-.08 3.35 1.22 3.23 1.72M80.29 57.76c.17.48-.88 1.29-2.36 1.81s-2.8.56-3 .07.88-1.3 2.35-1.82 2.81-.55 3-.06" fill="#c49a6c"/>
      <path d="M83.74 92.94s-2.95-4.62-1.89-4.47 14.64.94 14.85 1.89-.79 1.89-.79 1.89" fill="#c2b59b"/>
      <path d="M93.5 113.7s-1.2 46.29-69.27 36" fill="none" stroke="#fff8d6" stroke-miterlimit="10" stroke-width="10.11"/>
      <path d="M81.62 125s7.19.53 15.4.74c0 0 8.72-19.37-2.73-19.8-7.46-.27-12.67 19.06-12.67 19.06" fill="#c2b59b"/>
      <path d="M59.86 163.78s37.84 5.9 60 0c0 0 .66 8 .14 11.18H59.41a38.3 38.3 0 01.45-11.18M21.7 143.55c1.05 0 13.91-.84 14.54 0s-.85 12.85-2.11 13.91-21.07.93-27.39-14.28 13.07-.89 13.07-.89 4.21-5.9 5.68-3.16-2.31 6.74-2.31 6.74M39.79 96.07c-.27.44-2.29 3.79-.39 4.78s14.18-.43 15.21-1.7-.24-5.05-2.41-5.09-11.18 0-12.41 2" fill="#9b8579"/>
      <path d="M117.29 89.2s-1.26 7 0 7.84 16.91-1.2 17.07-3.1.63-4.79-1.27-5.47-13.88-.76-15.8.73" fill="#90a2ac"/>
      <path d="M95.54 55.39s-.05 3.25 1.19 3.94c0 0 2.6-2.72 5.66-.7s.19 11.5-4.17 10.13c0 0 .48 7.59 2.17 8.75s2.42-3.06 2.42-3.06 1.19 10.5 3.65 11 5.53-2.31 6.05-7.78 3.57-20.86-1.69-27.07" fill="#c49a6c"/>
      <path d="M111.66 48c6.52 7.11-4.07 9.45-28.95 8.53-25.25-.98-10.51-8.09-10.5-8.53 0 0-9-16.59 17.49-18.8s24.22 14.22 22 18.8" fill="#ffce40"/>
      <path d="M111.66 48a123.89 123.89 0 01-17.29 2.11c.56-5 2.52-22.42 2.36-23s-10.17-.68-10.8-.36 1.33 19.36 1.74 23.42C77.38 49.92 72.21 48 72.21 48c0 .48-14.75 7.59 10.5 8.53 24.88.92 35.47-1.42 29-8.53" fill="#eabd3c"/>
      <path d="M90.27 36c-3.81.59-5.91 5.33-5.22 8.22 1.38 5.74 10.44 6.63 12.68.95C99.48 40.66 96.42 35 90.27 36" fill="#78909c"/>
      <path d="M91.57 37.79c-2.49 0-4.84 1.7-4.84 5.17s3.5 4 4.84 4.06c3.37 0 4.88-2.31 4.84-4.57a5.19 5.19 0 00-4.84-4.66" fill="#d6eff6"/>
      <path d="M79.36 73.79s-.83 3.19.38 3.82 10.2-.47 10.53-1.32-.67-3.15-1.1-3.42-9.65.18-9.81.92" fill="#c49a6c"/>
      <path d="M83.57 66.31c-.91.21-1.81 6.82-1.28 7.15s3 .16 3.13-.33-1.3-6.94-1.85-6.82" fill="#fdddc1"/>
      <path fill="none" stroke="#f9ed32" stroke-linecap="round" stroke-miterlimit="10" stroke-width="1.26" d="M8.85 121.76l3.37 5.99M25.28 115.85l-1.72 7.9M37.93 128.29l-6.84 4.32M5.48 130.91l3.37 2.11M32.54 123.4l-2.9 2.72M17.11 121.45l.8 3.89M34.01 139.65l3.95-.55"/>
    </g>
  </g>
</svg>
