<svg xmlns="http://www.w3.org/2000/svg" viewBox="0 0 144 175.22">
  <g id="Layer_2" data-name="Layer 2">
    <g id="Layer_1-2" data-name="Layer 1">
      <g id="Layer_2-2" data-name="Layer 2">
        <g id="Layer_1-2-2" data-name="Layer 1-2">
          <path d="M0 0h144v175.22H0z" fill="#79d0e3"/>
          <path d="M24.29 115.66c-2.7-5.85-1.94-10.24-9.29-21s-8-35.38 8-43.45 26.84 8.7 27.32 22.4S53.4 91.32 57 82.16s12.12-.45 6.92 8.5-7.48 22.34-6.4 26.66-28.65 8.35-30.73 7.15-2.47-8.81-2.47-8.81" fill="#316bb4"/>
          <path d="M54.44 59.84s-29.24-4-51 8.79M6 93.13s26.42 1.43 46.74-10.76" fill="none" stroke="#79d0e3" stroke-miterlimit="10" stroke-width="2.61"/>
          <path d="M113 125c2.7-5.85 1.94-10.24 9.29-21s8-35.34-7.94-43.41-26.8 8.7-27.28 22.41-3.07 17.7-6.66 8.54-12.12-.44-6.92 8.46 7.43 22.36 6.35 26.66 28.65 8.35 30.73 7.15S113 125 113 125" fill="#316bb4"/>
          <path d="M82.89 69.22s37.75-5.15 59.37 15m-11 18.29s-26.42 1.43-46.74-10.76" fill="none" stroke="#79d0e3" stroke-miterlimit="10" stroke-width="2.61"/>
        </g>
      </g>
    </g>
  </g>
</svg>
