<svg xmlns="http://www.w3.org/2000/svg" viewBox="0 0 144 163.18">
  <g id="Layer_2" data-name="Layer 2">
    <g id="Layer_1-2" data-name="Layer 1">
      <path fill="#8ad5e7" d="M0 0h144v121.32H0z"/>
      <path d="M141.71 96.49V61.84h-3.06V56h-11.21v6.88h-8.66v35.65h-4.08V67.7h-25v46.37h-3.28V56H64.77v28.26h-3.06v-9.17H39v29.56h-3.53V39.42h-2.55v-7.13H20.69v7.64H7.7V96H4.13V56.24H0v65l144-.05v-24.7z" fill="#6aa4b3"/>
      <path fill="#a7a9ac" d="M0 110.06h144v53.12H0z"/>
      <path d="M51.36 112.42A21.65 21.65 0 0135.05 105h32.62a21.65 21.65 0 01-16.31 7.39" fill="#58595b"/>
      <path d="M17.15 125a17.21 17.21 0 1017.21-17.2A17.21 17.21 0 0017.15 125m3.77 0a13.44 13.44 0 1113.44 13.4A13.43 13.43 0 0120.92 125M90 125a17.21 17.21 0 1017.21-17.2A17.22 17.22 0 0090 125m3.78 0a13.44 13.44 0 1113.42 13.4A13.43 13.43 0 0193.77 125" fill="#414042"/>
      <path d="M44 112.31c0 3.86 4.43 7 9.88 7s9.89-3.13 9.89-7-4.43-7-9.89-7-9.88 3.13-9.88 7M76 91.66A16.11 16.11 0 0191.85 105H60.12A16.11 16.11 0 0176 91.66" fill="#be1e2d"/>
      <path d="M70.83 124a3.69 3.69 0 103.69-3.69 3.69 3.69 0 00-3.69 3.69" fill="#58595b"/>
      <path d="M59.9 123a5.19 5.19 0 105.19-5.19A5.19 5.19 0 0059.9 123" fill="#58595b"/>
      <path transform="rotate(-45 45.158 117.955)" fill="#be1e2d" d="M40.71 115.92h8.9v4.09h-8.9z"/>
      <path transform="rotate(-44.98 42.216 120.963)" fill="#be1e2d" d="M38 119.64h8.4v2.61H38z"/>
      <path d="M99.62 125a7.59 7.59 0 107.58-7.58 7.58 7.58 0 00-7.58 7.58" fill="#58595b"/>
      <path fill="#9b8579" d="M107.2 124.96L93.71 99.22V94.4"/>
      <path d="M107.2 126.58a1.55 1.55 0 00.75-.19 1.61 1.61 0 00.68-2.18l-13.3-25.38V94.4a1.62 1.62 0 10-3.24 0v5.22l13.68 26.09a1.62 1.62 0 001.43.87M86.7 116.74a1.62 1.62 0 00.93-2.95l-6.55-4.54a1.61 1.61 0 10-1.84 2.65l6.54 4.55a1.67 1.67 0 00.92.29M47.3 117.26a14.93 14.93 0 00-27.92 9.68l-4 1.3a19.64 19.64 0 01-.45-4.16 19.11 19.11 0 0136.3-8.36l-3.92 1.54" fill="#be1e2d"/>
      <path fill="#58595b" d="M70.16 118.25h9.13l3.32-13.22H67.67l2.49 13.22z"/>
      <path d="M46.38 98.79A18.24 18.24 0 0160.12 105H32.63a18.23 18.23 0 0113.75-6.24M102.27 88.16a2.25 2.25 0 00-2.15 1.59 5.07 5.07 0 000 10.1 2.26 2.26 0 004.41-.67v-8.76a2.26 2.26 0 00-2.26-2.26" fill="#414042"/>
      <path d="M92.06 95.06a3.5 3.5 0 00-1.43-3.25h-.14L84 87.22a1.62 1.62 0 011.84-2.67L92.17 89l.31.2a6.78 6.78 0 012.81 6.12 1.62 1.62 0 01-1.73 1.51 1.53 1.53 0 01-.81-.29 1.61 1.61 0 01-.69-1.43" fill="#414042"/>
      <path d="M28.3 125a6.06 6.06 0 106.06-6 6.06 6.06 0 00-6.06 6" fill="#594a42"/>
      <path d="M33.14 135.35l47.61-2.72 14.44-32.75a1.62 1.62 0 10-3-1.31L78.65 129.4l-45.58-3.24M107 109.17a14.92 14.92 0 00-14.26 14.26l-3.92 3.92a19.59 19.59 0 01-.28-3.27A19.11 19.11 0 01107.67 105a19.5 19.5 0 013.27.28z" fill="#be1e2d"/>
    </g>
  </g>
</svg>
