<svg xmlns="http://www.w3.org/2000/svg" viewBox="0 0 144 163.18">
  <g id="Layer_2" data-name="Layer 2">
    <g id="Layer_1-2" data-name="Layer 1">
      <path fill="#1c75bc" d="M0 0h144v163.18H0z"/>
      <path fill="#8ad5e7" d="M0 0h144v126.2H0z"/>
      <path d="M17.89 123.54l-.07-4.72a1 1 0 10-2 0l1.57 4.7zM17.89 126.78l.08 4.73a1 1 0 102 0l-1.57-4.7zM14.88 112.71a5.83 5.83 0 007.29 3.86l6-1.87a5.83 5.83 0 10-3.43-11.15l-6.06 1.86a5.84 5.84 0 00-3.85 7.3" fill="#f15a29"/>
      <path fill="#f1f2f2" d="M72.96 95.64l-3.18-12.6 6.04-1.09 14.81 8.33-19.17 11.53"/>
      <path d="M74.11 90.87L71 97.69l-43 13.66-6.8 14.86 68.32-.06a38.26 38.26 0 0037.65-38.85z" fill="#f1f2f2"/>
      <path d="M89.53 126.15a38.12 38.12 0 0021.89-7.32l-87 .36-3.21 7z" fill="#27aae1"/>
      <path d="M94.89 106.74a8.74 8.74 0 11-8.89-8.6 8.73 8.73 0 018.87 8.6" fill="#f15a29"/>
      <path d="M90.44 106.81a4.28 4.28 0 11-4.35-4.21 4.27 4.27 0 014.35 4.21" fill="#f1f2f2"/>
      <path fill="#27aae1" d="M74.11 90.87l15.7-1.06-11.13-6.25-6.23 1 1.66 6.31z"/>
      <path d="M20.22 124h-3.06a1.12 1.12 0 100 2.23h5.36V124z" fill="#f15a29"/>
    </g>
  </g>
</svg>
