<svg xmlns="http://www.w3.org/2000/svg" viewBox="0 0 143.84 175.08">
  <defs>
    <clipPath id="clip-path">
      <path d="M44.22 135.84c-.28 1.08 2 10.79 2.74 11.25s76.33-14.84 76.53-15.54-.2-4.82-.8-4.82-78.07 7.54-78.47 9.11" fill="none"/>
    </clipPath>
  </defs>
  <g id="Layer_2" data-name="Layer 2">
    <g id="Layer_1-2" data-name="Layer 1">
      <path fill="#ffe6b9" d="M0 0h143.84v175H0z"/>
      <path d="M48.3 92.37s-4.37-3.86-3.72-4.16 20.52-1 20.77 0-4.26 4.16-4.26 4.16" fill="#9b8579"/>
      <path d="M85.45 175.08S85 89.42 55.54 90.35s-29.95 84.73-29.95 84.73z" fill="#9b8579"/>
      <path d="M60.86 96.91c23.56.24 34.79 86.21 47.11 38.19" fill="none" stroke="#9b8579" stroke-miterlimit="10" stroke-width="10.4"/>
      <path d="M52.73 89.53S39.82 153 41.62 175.08h26.64s-3.69-69-10.27-85.49" fill="#58595b"/>
      <path d="M37.8 43.37s-1.13 36.54 1.51 38.88 30.1 3.75 32.74-2.81 1.13-33.25 0-36.07-34.17-3.77-34.25 0" fill="#fff8d5"/>
      <path d="M52.73 84.21v5.32c0 .27 2 2.77 2.63 2.55A8.71 8.71 0 0058 89.59c.22-.54.58-5.75.58-5.75M45.68 60.84a7 7 0 11-7-7 7 7 0 017 7M78.64 60.84a7 7 0 11-7-7 7 7 0 017 7" fill="#fff8d5"/>
      <path d="M53.06 61.33c0 2.89-1.65 5.23-3.69 5.23s-3.69-2.34-3.69-5.23 1.65-5.23 3.69-5.23 3.69 2.35 3.69 5.23M63.89 61.33c0 2.89-1.65 5.23-3.68 5.23s-3.69-2.34-3.69-5.23 1.65-5.23 3.69-5.23 3.68 2.35 3.68 5.23" fill="#fff"/>
      <path d="M60 60.15c-.71 0-1.33.65-1.59 1.58a1.09 1.09 0 010 2.17c.28.86.86 1.45 1.54 1.45.95 0 1.73-1.16 1.73-2.6s-.78-2.6-1.73-2.6M49.3 60.15c-.71 0-1.32.65-1.59 1.58a1.09 1.09 0 010 2.17c.28.86.86 1.45 1.54 1.45 1 0 1.73-1.16 1.73-2.6s-.77-2.6-1.73-2.6" fill="#58595b"/>
      <path d="M52.33 53c.06.49-1.29 1-3 1.27s-3.17 0-3.23-.48 1.28-1.05 3-1.26 3.17 0 3.23.47M63.48 53.8c0 .49-1.47.79-3.2.67s-3.11-.6-3.08-1.08 1.46-.78 3.2-.67 3.11.6 3.08 1.08" fill="#a97c50"/>
      <path d="M41.22 46.66s-1.1 9.44-4.5 7.84c0 0-3.62-11 2.4-16.37 4-3.59 32.21-5 33.61 2.31 2.44 12.67 1 14.47-.57 14.24s-4.45-11-4.45-11" fill="#a97c50"/>
      <path d="M67.81 39.43S62.69 28.5 57.88 27.6s-2.34 5.11-2.34 5.11-6.19-5.4-11.1-5.21.7 6.92.7 6.92-9.53-5.62-12.34-4 2.2 14.23 8.42 16.24 25.23 1.87 27-1.66c3.71-7.3 1.52-16.73-1.63-16.93s-2 11.89-2 11.89" fill="#a97c50"/>
      <path d="M45.91 121.48a13.49 13.49 0 00-6 2.67 5.54 5.54 0 01-6.76 0 18.14 18.14 0 00-13.71-3.42C8.37 122.63 1.28 135.1 3.6 148.58s13.16 22.87 24.22 21a18.13 18.13 0 0011.79-7.8 5.55 5.55 0 016.39-2.3 13.44 13.44 0 006.55.52c8.73-1.5 14.32-11.34 12.5-22s-10.39-18-19.11-16.54" fill="#fbb040"/>
      <path d="M47.74 143.29a9.63 9.63 0 11-9.63-9.63 9.63 9.63 0 019.63 9.63" fill="#58595b"/>
      <path d="M44.22 135.84c-.28 1.08 2 10.79 2.74 11.25s76.33-14.84 76.53-15.54-.2-4.82-.8-4.82-78.07 7.54-78.47 9.11" fill="#af7c2a"/>
      <g clip-path="url(#clip-path)" fill="#a17225">
        <path transform="rotate(-9.61 70.404 138.72)" d="M69.5 122.55h1.69v32.3H69.5z"/>
        <path transform="rotate(-9.61 85.802 136.54)" d="M84.96 120.39h1.69v32.31h-1.69z"/>
        <path transform="rotate(-9.61 101.315 134.43)" d="M100.42 118.24h1.69v32.3h-1.69z"/>
        <path transform="rotate(-9.61 116.718 132.19)" d="M115.89 116.09h1.69v32.31h-1.69z"/>
      </g>
      <path d="M14 139.37s2.31 14.85 3.31 15.16 3.92-.61 4.22-1.11-2.53-14.55-3.18-15.25-4.49.13-4.32 1.2" fill="#af7c2a"/>
      <path fill="none" stroke="#726658" stroke-miterlimit="10" stroke-width=".3" d="M17.8 142.73l105.28-14.81M17.8 145.64l105.35-16.7M19.3 148.15l103.89-18.48M19.3 150.41l104.1-19.97M19.8 152.52l103.73-21.28M17.34 140.83l105.59-13.54"/>
      <path d="M33.62 152.48s4.51 4.67 6.84 4.07 7.25-6.35 7.28-8.2-4.54-2.9-4.54-2.9 4.33-.42 4-1.85-8.37-.19-8.37-.19-5.23 5.61-5.24 9.07" fill="#fff8d5"/>
      <path d="M16.64 139.52s2.21 13.75 2.36 13.9a2.25 2.25 0 001.5-.25c.11-.2-2.59-13.95-2.7-14s-1.2.12-1.16.4" fill="#ffcd74"/>
      <path d="M49.37 97.15C25.81 100-4.13 125 36.37 147.9" fill="none" stroke="#9b8579" stroke-miterlimit="10" stroke-width="10.4"/>
      <path d="M111.84 127.75s.87-2.51-.61-2.68-3.37 2-3.3 3.17z" fill="#fff8d5"/>
      <path d="M102.12 136.92s-2.53-3.1 2.21-7c5.44-4.44 9.63 5.08 8.58 7-.82 1.46-8.23 1.3-10.79 0" fill="#fff8d5"/>
      <path d="M36.94 52.46s-1.24 28.22 2.18 30.93 33.17 3.11 34.39-1.7.42-29 .42-29-4.15-4.09-3.74-3.24-1.38 20.49-2.38 21-25.28 1.4-26.29-1.1-1-19.19-1-19.19" fill="#a97c50"/>
      <path d="M51.17 74s-1.71 7.92 3.71 8.22 3.68-8.47 3.68-8.47z" fill="#a85f40"/>
      <path d="M54.88 82.17a3.19 3.19 0 003.42-2.25 7.24 7.24 0 00-6.79 0 3.67 3.67 0 003.37 2.28" fill="#f68b5f"/>
      <path d="M55.05 60.15c-1.72.33-3.41 11.17-2.41 11.71s5.68.26 5.91-.54-2.46-11.32-3.5-11.17" fill="#fdddc1"/>
      <path d="M122.69 126.73s7.12-5.42 8.83-4.71 3.48 8.69 2.88 9.59-10.91-.06-10.91-.06M124.73 124.18c.13.34-.3.82-1 1.07s-1.3.18-1.43-.16.3-.82 1-1.07 1.3-.18 1.43.16M127.62 122.26c.13.34-.3.82-1 1.07s-1.3.18-1.43-.16.3-.82 1-1.07 1.3-.18 1.43.16M131 120.53c.13.34-.3.82-1 1.07s-1.3.18-1.43-.16.3-.82 1-1.07 1.3-.18 1.43.16M125.92 133.36c0 .36-.65.58-1.35.48s-1.23-.46-1.18-.82.65-.57 1.35-.48 1.23.46 1.18.82M129.41 133.37c0 .36-.58.66-1.29.65s-1.27-.31-1.27-.67.58-.65 1.28-.65 1.28.31 1.28.67M133.2 133.63c0 .36-.61.62-1.32.58s-1.26-.37-1.24-.73.61-.62 1.32-.58 1.26.37 1.24.73" fill="#fbb040"/>
      <path d="M128.65 130.71a.52.52 0 01-.52.53.53.53 0 110-1.05.52.52 0 01.52.52M127.9 125a.52.52 0 01-.52.53.53.53 0 010-1.06.52.52 0 01.52.53M132.17 130.71a.53.53 0 11-.53-.52.53.53 0 01.53.52M130.64 123.87a.53.53 0 01-1 0 .53.53 0 111 0M125.55 130.71a.53.53 0 11-.53-.52.53.53 0 01.53.52M124.9 127a.53.53 0 01-1.06 0 .53.53 0 011.06 0" fill="#726658"/>
    </g>
  </g>
</svg>
