<svg xmlns="http://www.w3.org/2000/svg" viewBox="0 0 144 175">
  <g id="Layer_2" data-name="Layer 2">
    <g id="Layer_1-2" data-name="Layer 1">
      <path fill="#85d0ca" d="M0 0h144v175H0z"/>
      <path d="M122.61 112.72c5.13-1.37 4.57-6.2 4.11-8.3s-7.61-9.48-11.6-5.39c-5.88 6-2.1 13.93-2.1 13.93" fill="#fff8d5"/>
      <path d="M54.29 106c24.37 9 43.94 66.56 64.57 4.4M45.09 106c-25.4 11.69-49.64 49.42.92 49.37" fill="none" stroke="#fff8d5" stroke-miterlimit="10" stroke-width="10.54"/>
      <path d="M72.38 175c1-28.84-.82-76.37-23.28-75.66-24.75.78-24.77 52-23.45 75.66z" fill="#fff"/>
      <path d="M52 160.84a2.14 2.14 0 11-2.14-2.14 2.14 2.14 0 012.14 2.14" fill="#ebebec"/>
      <path d="M30.05 50.15S25 93.37 50.37 93.83c21.83.4 17.88-43.68 17.88-43.68" fill="#fff8d5"/>
      <path d="M46.43 92.61s-.63 6.59-.34 7.09 3.08 5.78 3.44 5.72S53 100 53 99.68s-.52-7.07-.52-7.07M35.78 70c0 3-2.06 5.44-4.61 5.44S26.56 73 26.56 70s2.06-5.43 4.61-5.43S35.78 67 35.78 70M71 70c0 3-2.06 5.44-4.61 5.44S61.8 73 61.8 70s2.06-5.43 4.61-5.43S71 67 71 70" fill="#fff8d5"/>
      <path d="M46.92 73.24c0 3.16-1.8 5.72-4 5.72s-4-2.56-4-5.72 1.8-5.72 4-5.72 4 2.56 4 5.72" fill="#fff"/>
      <path d="M42.81 71.94c-.78 0-1.45.71-1.74 1.73a1.19 1.19 0 010 2.38c.31.94 1 1.59 1.69 1.59 1 0 1.9-1.28 1.9-2.85s-.85-2.85-1.9-2.85" fill="#58595b"/>
      <path d="M57.15 73.24c0 3.16-1.81 5.72-4 5.72s-4-2.56-4-5.72 1.81-5.72 4-5.72 4 2.56 4 5.72" fill="#fff"/>
      <path d="M53 71.94c-.78 0-1.45.71-1.74 1.73a1.19 1.19 0 01.05 2.38c.31.94.94 1.59 1.69 1.59 1.05 0 1.89-1.28 1.89-2.85s-.84-2.85-1.89-2.85" fill="#58595b"/>
      <path d="M45.28 83.45s-1.45 8.21 3.8 7.41c4.7-.71 3.06-7.41 3.06-7.41" fill="#d17751"/>
      <path d="M49.08 90.86a3.46 3.46 0 002.77-2 4.73 4.73 0 00-6.26 0 2.94 2.94 0 003.49 2" fill="#f68b5f"/>
      <path d="M46.86 80.54c-.28.26.34 1.37 1.33 1.43s1.86-1.16 1.59-1.43a4.13 4.13 0 00-2.92 0" fill="#fdddc1"/>
      <path d="M43.35 65.47c.21.49-.73 1.37-2.11 2s-2.66.7-2.87.21.73-1.36 2.1-2 2.66-.7 2.88-.22M57.32 66.91c-.25.46-1.53.25-2.84-.46s-2.19-1.68-1.93-2.14 1.52-.26 2.84.46 2.18 1.67 1.93 2.14" fill="#f7941d"/>
      <path d="M53 99.68s15.29 27 16.6 27 8-8.36 6.82-11.71S61 102.3 53 99.68M46.09 99.7s-15.71 27-17 27-8-8.36-6.83-11.71 18-14.58 23.85-15.25" fill="#fff"/>
      <path d="M24.54 131.57s1.7 30.14 2.74 30.8 22.92 2 23.86.48 0-28.91-1.37-30.78-25.39-1.8-25.23-.5" fill="#97daf8"/>
      <path d="M21.69 149.83c4.55 3.39 12.34 5.5 24.32 5.49" fill="none" stroke="#fff8d5" stroke-miterlimit="10" stroke-width="10.54"/>
      <path d="M45.73 160.37s6.2 2.46 7.74-.28-.22-17.72-7.74-10.26" fill="#fff8d5"/>
      <path d="M45 150.17s.62-4.69 2.76-4.57 1.4 4.45-.29 6.05" fill="#fff8d5"/>
      <path d="M54.12 120.32s-.71 2 1 2.6 7 .22 7.66-.46.19-2 .19-2z" fill="#ebebec"/>
      <path d="M29.48 129.79a12.48 12.48 0 00.72 3.52c.49.76 13.11-.17 13.22-.83s-.12-3.07-.5-3.29-13.11-.38-13.44.6" fill="#78909c"/>
      <path d="M29.64 71s-.25 24.64 19.46 28.34c0 0 20.23-6.66 19.43-29.34" fill="none" stroke="#b7c0c7" stroke-linecap="round" stroke-miterlimit="10" stroke-width="1.32"/>
      <path d="M32.47 85.07C35 91.3 39.88 97.61 49.1 99.34A31.13 31.13 0 0065 85.84M49.1 99.34s-3.82 30.58 12.65 32c10.71.9 41.32-29.68 55.11-24.4" fill="none" stroke="#98daf8" stroke-linecap="round" stroke-linejoin="round" stroke-width="1.98"/>
      <path d="M124.24 107.35a5.38 5.38 0 11-5.38-5.38 5.37 5.37 0 015.38 5.38" fill="#a8b4bc"/>
      <path d="M121.57 107.35a2.71 2.71 0 11-2.71-2.71 2.7 2.7 0 012.71 2.71" fill="#ebecee"/>
      <path d="M114.25 96.28s.09 7.13 2.06 7.4 3-1.21 3.38-2.7-.33-5.6-1.73-5.92a3.91 3.91 0 00-3.71 1.22M113 112.72s3.4-.16 4.5-1.59.16-3.9-4.5-3.24" fill="#fff8d5"/>
      <path d="M49.83 54.54s-1.8 8.48-9 9-2-6.89-2-6.89-4.37 7.19-9.78 8.54S22.32 43 38.86 38.74 61.21 43 61.21 43s5.24-3.08 9.81 4.17-.86 18.34-2.74 17.83-8.61-9-8.61-9 3.73 9.91-2.31 7c-8.25-4-7.53-8.51-7.53-8.51" fill="#f7941d"/>
      <path d="M49.11 25.68c-.3 0-19.08 9.32-18.86 11s5.16 14.53 6.59 14.73 26 1.12 27.44 0 6.37-16 6.15-16.48-18.93-9.58-21.32-9.25" fill="#fff"/>
      <path d="M54 39.81a1.59 1.59 0 00-1.19-.47h-1.67v-2a1.44 1.44 0 00-.44-1 1.58 1.58 0 00-1.17-.45 1.48 1.48 0 00-1.14.46 1.44 1.44 0 00-.42 1v2h-1.84a1.4 1.4 0 00-1 .48 1.69 1.69 0 00-.45 1.17 1.62 1.62 0 00.41 1.13 1.37 1.37 0 001 .49H48v1.77a1.72 1.72 0 00.41 1.2 1.49 1.49 0 001.15.48 1.57 1.57 0 001.18-.47 1.74 1.74 0 00.43-1.21v-1.78h1.67a1.61 1.61 0 001.16-.47 1.65 1.65 0 00.43-1.14 1.69 1.69 0 00-.43-1.19" fill="#ef4136"/>
      <path d="M56 156.88a3.11 3.11 0 003.26 2.12c2.49-.27 8.34-3.31 8.71-4.61s-.94-2.8-.94-2.8z" fill="#ebebec"/>
    </g>
  </g>
</svg>
