<svg xmlns="http://www.w3.org/2000/svg" viewBox="0 0 144 175">
  <g id="Layer_2" data-name="Layer 2">
    <g id="Layer_1-2" data-name="Layer 1">
      <path fill="#fcc5a3" d="M0 0h144v175H0z"/>
      <path d="M28.81 48.35a21.66 21.66 0 01.5 7.33 29.59 29.59 0 00.23 7.38c1.42 5.56 1.06 11.6.59 17.14-.77-.06-1.89-.62-2.33-.2-1.34 1.73-2.89 1.58-4.44 1.43-.77-.07.14-1.35-.68-1 .13-1.35 0-3.62-.94-2.34-.82.38-.22 2.24-1.43 2.58S18 80 16.82 80.38c0 .44-.13 1.32-.17 1.75-.82.36-2.28-.66-2.32-.23-.91 1.23-.69 3-.86 4.74-.78-.08-1.59.25-1.89-.66.39-7.58.48-15.27.3-23s-.28-15.42-.14-22.8c.28-1.53 1.92-.6 3.15.64-.41-.4.76-.49.34-.87a3.64 3.64 0 013.64 2.4l-.07-1.33c.36-.46 1.16-.06 1.94-.11 0 .45.05.89.44.87l1.55-.08c0-.45-.07-1.35-.1-1.8 0 .45.05.9.44.88l1.56-.09c.44.89-.27 2.29.15 3.18h1.16c.37-.92-.09-2.28-.15-3.2.41.43.8.41 1.58.37.48 1.38-.65 2.8.57 4.13l-.05-1.38c2 .84.52 3.22.92 4.58" fill="#ef4136"/>
      <path d="M27.78 51.13S27 47.42 27 46.85s6.8-10.76 6.8-11.33-.57-4.86-1-4.86-21.8 4-21.8 4" fill="none" stroke="#78909c" stroke-miterlimit="10" stroke-width="1.14"/>
      <path d="M9.43 32.57C9.05 34 9.81 37.8 11 38.28s20.73-3.54 21-4.5-.9-5.57-1.65-6c-1.23-.67-20.24 2.1-20.94 4.76" fill="#ef4136"/>
      <path d="M39.44 85.83s.94-5.9-1.39-6.42-1.92 5.9-1.92 5.9" fill="#fff8d6"/>
      <path d="M35.51 87.4c32.56 44.46 59.31 22.28 66.48 21.71" fill="none" stroke="#fff8d6" stroke-miterlimit="10" stroke-width="9.14"/>
      <path d="M128.33 175s1.61-76.68-26.33-75.8S73.59 175 73.59 175z" fill="#ccecfc"/>
      <path d="M98.4 95.06s-.62 4.62-.54 4.86c.3.81 7.33.71 7.53-.33s-.58-6.38-.58-6.38" fill="#fff8d5"/>
      <path d="M85.3 54.5S84.15 91.63 86.83 94s30.59 3.82 33.27-2.86 1.15-33.79 0-36.65-34.73-3.83-34.8 0" fill="#fff8d5"/>
      <path d="M81.39 121.62s12.15 0 12 1.68c-2.34 22.47 16 36.57 22.69 5.66.2-.91 8.08-1.43 8.59-1.32s4.63 15.29 5.75 47.36H73.59s.07-29.87 7.8-53.38" fill="#4891ce"/>
      <path d="M87.83 123.82s4.08-22.08 17.59-18.42c11.18 3 15.39 24.46 15.39 24.46" fill="none" stroke="#4891ce" stroke-miterlimit="10" stroke-width="4.57"/>
      <path d="M111.1 63.89a26.74 26.74 0 01-9.66 4.47c-5.2 1-1.29-7.23-1.29-7.23s-4.47 5.52-9.42 6.47-2.67-6.38-2.67-6.38-3.9 5.14-8.66 5.52-.34-21.8 22.51-24.18 24.71 13.24 25.66 22.57-4.29 25-6.81 23.55-1.28-10.89-1.28-10.89-5 1.14-8.38-13.9" fill="#c49a6c"/>
      <path d="M126.66 60.5s12.43 1.2 12.14-1.8-26.8-6.43-29.8-6.43" fill="#3f7fb5"/>
      <path d="M79.7 56.8s19.39 5.16 47 3.7c0 0 4.19-22.6-23.34-24.31S79.7 56.8 79.7 56.8" fill="#4891ce"/>
      <path d="M84.68 52.92s-6.85-3.07-6.35-7.36 8 1.36 8 1.36-6.17-5.57-4-7.93S96.75 44.78 96 54c0 0-10-.37-11.36-1.07" fill="#c49a6c"/>
      <path d="M101.58 75.78c0 2.92-1.67 5.28-3.72 5.28s-3.73-2.36-3.73-5.28 1.67-5.28 3.73-5.28 3.72 2.36 3.72 5.28" fill="#fff"/>
      <path d="M96.11 71.88c-.72 0-1.34.66-1.61 1.59a1.1 1.1 0 010 2.2c.29.87.87 1.47 1.56 1.47 1 0 1.75-1.18 1.75-2.63s-.79-2.63-1.75-2.63" fill="#58595b"/>
      <path d="M92.58 75.78c0 2.39-1.36 4.34-3 4.34s-3.06-2-3.06-4.34 1.37-4.33 3.06-4.33 3 1.94 3 4.33" fill="#fff"/>
      <path d="M88.09 72.58c-.59 0-1.1.54-1.32 1.31a.9.9 0 010 1.8c.24.71.72 1.2 1.28 1.2.79 0 1.44-1 1.44-2.15s-.65-2.16-1.44-2.16" fill="#58595b"/>
      <path d="M90.59 84.5s-.45 7 4 7.14 2.76-8.47 2.76-8.47z" fill="#d17751"/>
      <path d="M94.61 91.64c2.24.08 2.93-2.06 3.06-4.2h-.51c-2.58 0-4.73 1.16-5.31 2.71a3.4 3.4 0 002.76 1.53" fill="#f68b5f"/>
      <path d="M93.15 76.81C92.32 77 91.51 83 92 83.27s2.72.15 2.83-.3-1.18-6.27-1.67-6.16" fill="#fdddc1"/>
      <path d="M101.5 69.84c-.11.44-1.59.48-3.3.07s-3-1.11-2.92-1.56 1.59-.48 3.3-.07 3 1.1 2.92 1.56M91.33 69.08c.16.43-.8 1.17-2.13 1.64s-2.53.5-2.69.06.8-1.17 2.13-1.64 2.54-.5 2.69-.06" fill="#c49a6c"/>
      <path d="M95.59 100.88s-2.67-4.18-1.72-4 13.23.85 13.42 1.71-.71 1.71-.71 1.71M27.78 50.3l26.31 114.21" fill="#ccecfc"/>
      <path fill="none" stroke="#c2b59b" stroke-miterlimit="10" stroke-width="4.57" d="M27.78 50.3l26.31 114.21"/>
      <path d="M104.41 119.64s-14.1 57.54-55.29 23.27" fill="none" stroke="#fff8d6" stroke-miterlimit="10" stroke-width="9.14"/>
      <path d="M95.59 123.1s4.57 7.24 12 7.43c0 0 7.88-17.51-2.48-17.9-6.73-.25-9.52 10.47-9.52 10.47" fill="#ccecfc"/>
      <path d="M52.65 140.52S47 129.33 43.89 136c-3.47 7.43 1.12 14.65 6.32 11.71" fill="#fff8d5"/>
      <path d="M30.64 91.29c.53 3.19 2.77 6.86 5.24 4s2.66-7 .42-10.62-6.76 0-5.66 6.57" fill="#fff8d6"/>
      <path d="M121.23 74c0 2.8-2 5.08-4.43 5.08s-4.43-2.28-4.43-5.08 2-5.08 4.43-5.08 4.43 2.27 4.43 5.08" fill="#fff8d5"/>
    </g>
  </g>
</svg>
