<svg xmlns="http://www.w3.org/2000/svg" viewBox="0 0 144 175">
  <g id="Layer_2" data-name="Layer 2">
    <g id="Layer_1-2" data-name="Layer 1">
      <path fill="#fff" d="M0 0h144v175H0z"/>
      <path d="M104 92.08c0-8.91-.35-20.49-1.24-32-1.79-22.92-5.61-45.45-5.61-45.45-1.31-1.26-14.43 1.87-27.63 1.91s-26.37-3.14-27.67-1.88c0 0-3.82 22.53-5.61 45.45a428.26 428.26 0 00-1 47.14c.24 3.39.3 12 .28 21.71 0 2.83-.08 15.11-.1 18.14-.1 10.4-.22 18.68-.22 18.68a37.42 37.42 0 0021.8 1.93s1.57-18.12 1.53-35.17c0-14.76 6.72-82.66 10.95-84.73 4.12 2 11 74.93 11 84.73 0 17.05 1.54 35.17 1.54 35.17a37.42 37.42 0 0021.78-1.93s-.31-30.29-.32-36.82c0-9.66 0-18.32.27-21.71 0-.74.11-2 .15-3.53.06-1.92.1-4.39.11-7.28v-4.36" fill="#cbb6a6"/>
      <path d="M42 15c.43 0 22.38 2.75 27.77 2.34M69.71 22S43.86 20.79 41 19.48" fill="none" stroke="#a28c86" stroke-linecap="round" stroke-linejoin="round" stroke-width=".59"/>
      <path d="M49.43 21.25a7.88 7.88 0 01-1.34-.25c-.26-.09-.25-.43-.25-.67 0-.52.53-5 1.34-5.25a1.58 1.58 0 01.52-.1 1.18 1.18 0 01.84.4l.15.14-.07.18a18.37 18.37 0 00-.86 5.3v.32z" fill="#cbb6a6"/>
      <path d="M49.7 15.31a.88.88 0 01.64.32 18.8 18.8 0 00-.88 5.37 8.54 8.54 0 01-1.27-.21c-.28-.1.53-5.19 1.08-5.36a1.28 1.28 0 01.43-.08m0-.59a2.09 2.09 0 00-.61.1c-1.15.36-1.54 5.49-1.54 5.54 0 .25 0 .78.44.95a9 9 0 001.41.24l.63.06v-.63a18 18 0 01.85-5.15l.13-.37-.29-.26a1.43 1.43 0 00-1-.48" fill="#a28c86"/>
      <path d="M60.26 22.32a8.83 8.83 0 01-1.34-.22c-.27-.1-.26-.43-.26-.67 0-.74.57-5 1.34-5.26a1.83 1.83 0 01.52-.09 1.2 1.2 0 01.85.4l.14.13-.07.19a18.28 18.28 0 00-.86 5.2v.31z" fill="#cbb6a6"/>
      <path d="M60.52 16.37a.92.92 0 01.65.32 18.4 18.4 0 00-.88 5.31 10.13 10.13 0 01-1.29-.18c-.29-.1.52-5.19 1.07-5.37a1.59 1.59 0 01.43-.08m0-.59a2.07 2.07 0 00-.6.11c-1.16.37-1.55 5.48-1.55 5.53 0 .26 0 .79.44.95a8.16 8.16 0 001.41.24l.63.07v-.63a18.41 18.41 0 01.85-5.15l.13-.37-.28-.27a1.49 1.49 0 00-1-.48" fill="#a28c86"/>
      <path d="M97.16 15c-.42 0-22.55 2.75-27.93 2.34M69.23 22S95 20.71 97.86 19.4" fill="none" stroke="#a28c86" stroke-linecap="round" stroke-linejoin="round" stroke-width=".59"/>
      <path d="M89.19 21a18.81 18.81 0 00-.86-5.24l-.07-.18.14-.14a1.2 1.2 0 01.85-.4 1.62 1.62 0 01.52.1c.8.25 1.32 4.73 1.33 5.26 0 .24 0 .56-.25.66a8.83 8.83 0 01-1.34.22h-.31z" fill="#cbb6a6"/>
      <path d="M89.25 15.31a1.28 1.28 0 01.43.08c.54.17 1.35 5.26 1.07 5.36a8.54 8.54 0 01-1.27.21 18.37 18.37 0 00-.88-5.33.92.92 0 01.65-.32m0-.59a1.45 1.45 0 00-1 .48l-.29.26.14.37a18.21 18.21 0 01.79 5.17v.63l.63-.06a9.25 9.25 0 001.48-.26c.46-.17.44-.7.44-.95 0-.05-.39-5.17-1.55-5.54a2 2 0 00-.6-.1" fill="#a28c86"/>
      <path d="M78.37 22a18.47 18.47 0 00-.87-5.24l-.07-.19.15-.13a1.2 1.2 0 01.84-.4 1.83 1.83 0 01.52.09c.82.26 1.33 4.71 1.34 5.25 0 .25 0 .58-.25.68a9 9 0 01-1.34.22h-.31z" fill="#cbb6a6"/>
      <path d="M78.42 16.37a1.59 1.59 0 01.43.08c.55.18 1.36 5.27 1.08 5.37a10.13 10.13 0 01-1.27.21 18.83 18.83 0 00-.88-5.34.9.9 0 01.64-.32m0-.59a1.46 1.46 0 00-1 .48l-.29.27.14.37a18.66 18.66 0 01.84 5.15v.63l.63-.07a9 9 0 001.41-.23c.46-.18.45-.69.45-1 0-.05-.41-5.17-1.55-5.53a2.08 2.08 0 00-.61-.11" fill="#a28c86"/>
      <path d="M69.47 16.57s-.88 21.86 0 31.24M69.28 43.59s2.7-1.77 3.29-3.83.82-18 .82-18M46 20.35s0 9.37-6 12.35M92.75 20.3s0 11.89 6.59 13.61" fill="none" stroke="#a28c86" stroke-linecap="round" stroke-linejoin="round" stroke-width=".59"/>
      <path d="M72.54 19.48a1.21 1.21 0 11-1.21-1.33 1.28 1.28 0 011.21 1.33" fill="#a28c86"/>
    </g>
  </g>
</svg>
