<svg xmlns="http://www.w3.org/2000/svg" viewBox="0 0 144.03 175.04">
  <defs>
    <clipPath id="clip-path">
      <path d="M44.66 50.58l-1 1.26A1.54 1.54 0 0044 54l38.31 27.44 1-1.27-36.45-29.85a1.56 1.56 0 00-1-.35 1.53 1.53 0 00-1.23.61" fill="none"/>
    </clipPath>
    <clipPath id="clip-path-2">
      <path d="M53.22 41.13a1.42 1.42 0 00-.83.23C49.77 43.08 54.07 54.25 62 66.3S78.5 86.71 81.12 85s-1.68-12.91-9.62-25c-7.23-11-15-18.91-18.28-18.91" fill="none"/>
    </clipPath>
    <clipPath id="clip-path-3">
      <path d="M40.29 56.09c-1.48 0-2.47.33-2.83 1-1.44 2.79 7.79 10.41 20.61 17s24.38 9.71 25.82 6.92S76.1 70.64 63.28 64c-9.62-5-18.53-7.94-23-7.94" fill="none"/>
    </clipPath>
    <clipPath id="clip-path-4">
      <path d="M19.64 93.45a1.21 1.21 0 00-1 1.09l-1.78 18.15a2.17 2.17 0 002.14 2.39h110.58a2.18 2.18 0 002.14-2.5l-2.2-15a1.23 1.23 0 00-1-1c-25.77-4.5-48.07-6.32-67.27-6.32a248.07 248.07 0 00-41.61 3.28" fill="none"/>
    </clipPath>
    <clipPath id="clip-path-5">
      <path fill="none" d="M2.83 96.75h140.71v12.13H2.83z"/>
    </clipPath>
  </defs>
  <g id="Layer_2" data-name="Layer 2">
    <g id="Layer_1-2" data-name="Layer 1">
      <path fill="#b0e1ec" d="M.02 0h144v156.64H.02z"/>
      <path d="M0 99.45s73.67-21.8 144 3.1V175H0z" fill="#9ccb3b"/>
      <path d="M82.38 57.85a120.6 120.6 0 010 13.48l-3.09-1.21s.84-13.11 0-13.49z" fill="#b16027"/>
      <path d="M44.66 50.58l-1 1.26A1.54 1.54 0 0044 54l38.31 27.44 1-1.26-36.45-29.86a1.54 1.54 0 00-2.2.26" fill="#9dcd6e"/>
      <g clip-path="url(#clip-path)">
        <path d="M54.94 58.55c-3.42 5.63-12.09 6.61-19.36 2.19s-10.41-12.57-7-18.19 12.1-6.61 19.42-2.19 10.41 12.56 7 18.19" fill="#308a42"/>
      </g>
      <path d="M81.12 85C78.5 86.71 69.94 78.34 62 66.3s-12.23-23.22-9.61-24.94S63.57 48 71.5 60.05 83.74 83.26 81.12 85" fill="#dcb463"/>
      <g clip-path="url(#clip-path-2)" fill="#8c6026">
        <path d="M64.4 48.42s-3 .39-3.88 2.18l4.48-.91zM69 54.87s-3 .4-3.88 2.18l4.45-.9zM73.82 62.38s-2.94.4-3.87 2.18l4.44-.91z"/>
      </g>
      <path d="M72.36 70.59l2.81.74s1.42-13.35 2-13.48a9 9 0 015.25 0s-3.57-5.06-8.42-1.68c0 0-1.46 9.08-1.65 14.42" fill="#d38729"/>
      <path d="M83.89 81.06c-1.44 2.79-13-.31-25.82-6.92s-22-14.23-20.61-17 13 .3 25.82 6.91 22 14.24 20.61 17" fill="#ffd068"/>
      <g clip-path="url(#clip-path-3)" fill="#b07d2d">
        <path d="M51.39 57.38s-2.37 1.79-2.31 3.8l3.43-3zM58.58 60.74s-2.37 1.79-2.31 3.8l3.44-3zM66.44 64.93s-2.37 1.79-2.31 3.8l3.44-3z"/>
      </g>
      <path d="M49.54 71.56s25.72-6.5 48.94 2c0 0-2.24 15.48-3.74 17.48s-40.55 2.58-42.15-1c-.11-.25-.19-.52-.3-.77-.92-2.06-1.75-8.36-2.75-17.69" fill="#d38729"/>
      <path d="M80.26 69.58s.79 23 3 22.87 6.75-.38 8.19-.6 2.73-.52 2.73-.52a1 1 0 00.71-.57 22.72 22.72 0 001.33-4.54c.55-2.65 1.51-8 1.51-8l.73-4.71a72.63 72.63 0 00-18.22-4" fill="#e1ad71"/>
      <path d="M12.24 95.11l-4 24.15a2 2 0 002 2.36h127.38a2 2 0 002-2.39l-3.86-21.15c-53.23-10.62-94-8.77-123.52-3" fill="#f1f2f2"/>
      <path d="M19.64 93.45a1.21 1.21 0 00-1 1.09l-1.78 18.15a2.17 2.17 0 002.14 2.39h110.58a2.18 2.18 0 002.14-2.5l-2.2-15a1.23 1.23 0 00-1-1c-47.17-8.23-82.71-7.5-108.88-3" fill="#e56d62"/>
      <g clip-path="url(#clip-path-4)">
        <path transform="rotate(-.32 80.282 104.073)" fill="#df4027" d="M76.84 88.12h3.73v31.47h-3.73z"/>
        <path transform="rotate(-.32 67.749 104.038)" fill="#df4027" d="M66.04 88.12h3.73v31.47h-3.73z"/>
        <path transform="rotate(-.32 57.006 104.008)" fill="#df4027" d="M55.1 88.12h3.73v31.47H55.1z"/>
        <path transform="rotate(-.32 48.048 105.774)" fill="#df4027" d="M44.88 88.12h3.72v31.47h-3.72z"/>
        <path transform="rotate(-.34 36.769 102.905)" fill="#df4027" d="M34.67 87.1h3.73v31.46h-3.73z"/>
        <path transform="rotate(-.34 26.663 101.19)" fill="#df4027" d="M24.96 86.52h3.73v31.46h-3.73z"/>
        <path transform="rotate(-.32 89.234 104.098)" fill="#df4027" d="M87.21 87.27h3.72v31.46h-3.72z"/>
        <path transform="rotate(-.32 101.768 104.133)" fill="#df4027" d="M98.5 87.04h3.73v31.46H98.5z"/>
        <path transform="rotate(-.32 112.51 104.163)" fill="#df4027" d="M109.48 87.27h3.73v31.46h-3.73z"/>
        <path transform="rotate(-.32 123.254 104.193)" fill="#df4027" d="M120.01 88.12h3.73v31.47h-3.73z"/>
        <g clip-path="url(#clip-path-5)" fill="#a81f23" opacity=".65">
          <path d="M3.81 105.15h139.73v3.73H3.81zM2.83 96.75h139.73v3.74H2.83z"/>
        </g>
      </g>
      <path d="M63 100.34c0 2.66-7.91 4.81-17.66 4.81s-17.71-2.15-17.71-4.81 7.91-4.8 17.67-4.8 17.7 2.15 17.7 4.8M110.26 103.67c0 2.65-7.91 4.8-17.67 4.8s-17.66-2.15-17.66-4.8 7.9-4.81 17.66-4.81 17.67 2.15 17.67 4.81" fill="#eeeff0"/>
    </g>
  </g>
</svg>
