<svg xmlns="http://www.w3.org/2000/svg" viewBox="0 0 144 174.97">
  <g id="Layer_2" data-name="Layer 2">
    <g id="Layer_1-2" data-name="Layer 1">
      <path fill="#addedc" d="M0 0h144v174.97H0z"/>
      <path d="M144 175v-64.4c-74.48-32-127.75 2.69-144 15.68V175z" fill="#afd24d"/>
      <path d="M117.76 123.4c0 5.32-16.64 9.64-37.17 9.64s-37.17-4.32-37.17-9.64 16.64-9.64 37.17-9.64 37.17 4.31 37.17 9.64" fill="#7ba541"/>
      <path d="M106.75 94.94c-.13-2.06-.12-9-3.34-9-2.24 0-3.13 2-3.49 4.22-3.31 7.4-3 15.89-4 23.91-.41 3.12-.67 7 1.64 9.31 2 2 5.9.32 7.92-.29 2.17-.65 1.88-9.33 2-11.18.38-5.58-.36-11.42-.71-17" fill="#b18b8c"/>
      <path d="M102.26 118.07a14.87 14.87 0 01-6.63-.31 7.91 7.91 0 001.91 5.65c2 2 5.9.32 7.92-.29 1.22-.37 1.66-3.3 1.84-6.1a29.17 29.17 0 01-5 1" fill="#9b8579"/>
      <path d="M62.06 94.94c-.13-2.06-.12-9-3.34-9-2.24 0-3.13 2-3.49 4.22-3.31 7.4-3 15.89-4 23.91-.41 3.12-.67 7 1.64 9.31 2 2 5.9.32 7.91-.29 2.18-.65 1.89-9.33 2-11.18.38-5.58-.36-11.42-.71-17" fill="#b18b8c"/>
      <path d="M60.69 116.93c-.75.24-1.49.46-2.24.68a21.6 21.6 0 01-4.53.64 11.44 11.44 0 01-3-.25 7.72 7.72 0 001.9 5.41c2 2 5.9.32 7.91-.29 1.24-.37 1.68-3.32 1.85-6.14a2.6 2.6 0 00-1.92 0" fill="#9b8579"/>
      <path d="M118.15 81.47c-3.5-9.12-10.69-15.9-19.55-19.81-9.14-4-18.84-3.62-28.29-.95-4.21 1.19-12.47 4.19-16.51 8.74a22.42 22.42 0 00-9.58 9.39c-4.62 8.92-.64 19.24 5.81 26 7.56 7.93 20.29 8.63 30.49 9.48 10.92.92 22.19.49 31.05-6.76 7.1-5.79 9.83-17.67 6.58-26.1" fill="#e6b3b3"/>
      <path d="M21.48 56.59c-.05 0-.05.1 0 .1s0-.1 0-.1" fill="#dcacac"/>
      <path d="M112.51 96.64c-.13-2.07-.12-9-3.34-9-2.24 0-3.13 2-3.49 4.22-3.31 7.39-3 15.89-4 23.91-.4 3.11-.66 7 1.65 9.31 2 2 5.89.31 7.91-.3 2.18-.65 1.89-9.32 2-11.17.37-5.58-.36-11.43-.71-17" fill="#e6b3b3"/>
      <path d="M108 119.76a14.72 14.72 0 01-6.63-.3 7.92 7.92 0 001.91 5.65c2 2 5.89.31 7.91-.3 1.23-.36 1.67-3.29 1.85-6.1a28.44 28.44 0 01-5 1.05" fill="#9b8579"/>
      <path d="M67.82 96.64c-.13-2.07-.12-9-3.34-9-2.24 0-3.14 2-3.49 4.22-3.31 7.39-3 15.89-4 23.91-.4 3.11-.66 7 1.65 9.31 2 2 5.89.31 7.91-.3 2.17-.65 1.89-9.32 2-11.17.37-5.58-.36-11.43-.71-17" fill="#e6b3b3"/>
      <path d="M66.44 118.62c-.74.24-1.48.47-2.23.68a21.7 21.7 0 01-4.53.64 10.7 10.7 0 01-3-.25 7.77 7.77 0 001.91 5.42c2 2 5.89.31 7.91-.3 1.23-.37 1.67-3.31 1.85-6.14a2.73 2.73 0 00-1.93 0" fill="#9b8579"/>
      <path d="M63 97.61c7.61-10.21 6.62-24.9-2.35-33.14a24.21 24.21 0 00-6.88 5 22.36 22.36 0 00-9.58 9.39c-4.62 8.92-.64 19.24 5.81 26 .22.23.47.44.7.67A21 21 0 0063 97.61" fill="#c19798"/>
      <path d="M125.61 70.28c-.15-.76-.8-.41-.83.19-.12 2.41 1.17 4.87-1.73 6l-.41.16a7.72 7.72 0 00-.19-1.12c-.49-1.78-1.54-3.19-3.49-3.21-2.74 0-1.75 6.57 1.25 6.93a12.32 12.32 0 01-1.57 1.65c-1.17 1.08-3.83 2.16-5.1.81-.18-.2-.29.22-.27.33.93 4.73 6 2 7.86-.54a8 8 0 001.28-2.48 5.22 5.22 0 003.09-2c1.33-2.15.56-4.43.11-6.74m-6.13 4.31c1.33 0 1.66 1.3 1.59 2.46A3.18 3.18 0 01120 77c-.58-.14-1.92-2.35-.53-2.39" fill="#e6b3b3"/>
      <path d="M20.25 93.62c9.8 13.14 30.72 9.94 41-.93A21.2 21.2 0 0066.12 72a37.68 37.68 0 00-1.34-4 12.37 12.37 0 00-4.48-8 12.13 12.13 0 00-5.71-4.17 2.61 2.61 0 00-1.56 0 28.2 28.2 0 00-2.72-.83c-6.7-1.68-15.45-1.24-21.81 1.65-6.14 2.78-7.89 10.5-9.79 16.3-.92 2.81-2.8 8.91-2.69 11.91.17 5.11 1 4.47 4.23 8.81" fill="#f3bdbc"/>
      <path d="M25.62 57.55a.84.84 0 00.3-.93c-2-3.37-4.82-6.27-8.57-3.16a17.57 17.57 0 00-5.84 10.44c-.44 2.75 1.38 8.34 5.18 5.57a12.68 12.68 0 003.49-4.27c.9-1.61 2.63-2.75 3.94-4.1a3.12 3.12 0 001.62-3.17 2.4 2.4 0 00-.12-.38M47.15 53a.88.88 0 01-.31-.94c2-3.37 4.82-6.26 8.57-3.15a17.49 17.49 0 015.84 10.44c.44 2.75-1.38 8.34-5.18 5.56a12.55 12.55 0 01-3.49-4.26c-.9-1.61-2.62-2.75-3.93-4.1A3.15 3.15 0 0147 53.36a1.55 1.55 0 01.13-.38M37.23 79.49a19.7 19.7 0 00-11.15-1c-7.14.5-12.95 7.86-10.26 15.08 4 10.73 15.56 9.9 23.47 4.23 7.11-5.11 6.06-15.28-2.06-18.35" fill="#dcacac"/>
      <path d="M25.77 89.07c.18 1.55-.22-1.87 0-.28-.14-1.27-.63-3.4-2.33-3.36s-2.25 2.19-2.16 3.47.41 3.38 1.65 4.31a2.4 2.4 0 001.32.58l.45-.1c-.28.06-.32.08-.13.06h.35c.62 0 .8-.8.8-1.29v-.18a3.7 3.7 0 00.15-1.1v-.48a8.73 8.73 0 00-.12-1.61M32.83 86.35a2 2 0 00-1-1.48c-.7-.27-1.4.38-1.57 1a6.43 6.43 0 00.08 4.13c.21.51.83 1.69 1.56 1.66.5 0 .62-.87.79-1.23a6.8 6.8 0 00.14-4.09" fill="#b18b8c"/>
      <path d="M25.73 67.29c-2 .24-3.34 2.79-2.8 4.63a1.65 1.65 0 00.84 1.21c.65.26 1.05-.34 1.29-.84-.24.51.37-.78.24-.54a.88.88 0 01.54-.39c.45-.19.71.28.75.46a4.37 4.37 0 00.54 1.39 2.9 2.9 0 00.53.67c.82.7 1.46-1.71 1.47-2.19.05-1.87-1.14-4.66-3.4-4.4M36 67.29c-2 .24-3.34 2.79-2.8 4.63a1.65 1.65 0 00.8 1.21c.64.26 1.05-.34 1.28-.84-.24.51.38-.78.25-.54a.86.86 0 01.53-.39c.46-.19.72.28.76.46a4.37 4.37 0 00.54 1.39 2.66 2.66 0 00.53.67c.82.7 1.46-1.71 1.47-2.19.05-1.87-1.14-4.66-3.4-4.4" fill="#414042"/>
    </g>
  </g>
</svg>
