<svg xmlns="http://www.w3.org/2000/svg" viewBox="0 0 144 174.97">
  <g id="Layer_2" data-name="Layer 2">
    <g id="Layer_1-2" data-name="Layer 1">
      <path fill="#addedc" d="M0 0h144v174.97H0z"/>
      <path d="M144 175v-64.4c-74.48-32-127.75 2.69-144 15.68V175z" fill="#afd24d"/>
      <path d="M94.76 124.37c0 3-9.28 5.37-20.72 5.37s-20.73-2.4-20.73-5.37S62.59 119 74 119s20.72 2.41 20.72 5.38" fill="#7ba541"/>
      <path d="M48.42 78.62c.23-.08.48-.36.44-.58-.52-2.85-1.77-5.59-5.17-4.38a13.05 13.05 0 00-6.69 5.8c-1 1.81-1.15 6.17 2.2 5.2a9.42 9.42 0 003.52-2.09c1-.89 2.53-1.25 3.79-1.86a2.3 2.3 0 001.93-1.8 2.83 2.83 0 000-.29" fill="#dcacac"/>
      <path d="M67.49 111.38c-.08-.84-.08-3.66-2-3.66a2 2 0 00-2.09 1.72c-2 3-1.78 6.49-2.41 9.77-.24 1.27-.4 2.84 1 3.8 1.18.82 3.53.13 4.74-.12s1.13-3.81 1.2-4.57a36.82 36.82 0 00-.42-6.94" fill="#c2b3a6"/>
      <path d="M64.8 120.83a13 13 0 01-4-.13A2.7 2.7 0 0062 123c1.18.82 3.53.13 4.74-.12.73-.15 1-1.35 1.1-2.5a24 24 0 01-3 .44" fill="#9b8579"/>
      <path d="M83.65 111.38c-.08-.84-.07-3.66-2-3.66a2 2 0 00-2.09 1.72c-2 3-1.78 6.49-2.41 9.77-.24 1.27-.4 2.84 1 3.8 1.18.82 3.54.13 4.75-.12s1.13-3.81 1.2-4.57a37.69 37.69 0 00-.43-6.94" fill="#c2b3a6"/>
      <path d="M81 120.83a12.9 12.9 0 01-4-.13 2.67 2.67 0 001.13 2.3c1.18.82 3.54.13 4.75-.12.73-.15 1-1.35 1.1-2.5a24.16 24.16 0 01-3 .44" fill="#9b8579"/>
      <path d="M71.3 92.37c-.73.18 1.36-3.63.65-3.32a6.86 6.86 0 00-2.9-.82c-3.19-.18-6.13 1.25-8.61 3.11A18.46 18.46 0 0057 94.7c-.66-1.16-1.3-2.34-1.9-3.52-.27-.51-1 0-1.15.44C50.6 100.45 59 110.37 66.53 114s14-1 21.68.35c0 0 4.15-7.92 1-13.37-3.45-6-14.36-9.65-18-8.65" fill="#e7cdc1"/>
      <path d="M71.77 90.27c0-.46-.06-.91-.12-1.37a7.17 7.17 0 00-2.65-.68c-3.17-.18-6.12 1.26-8.6 3.12A18.46 18.46 0 0057 94.7c-.66-1.16-1.3-2.34-1.9-3.52-.26-.51-1 0-1.15.44-1.92 5.14.14 10.66 3.69 15.09a20.73 20.73 0 0010.06-5 14.76 14.76 0 004.09-9.41c-.15 0-.31 0-.44.08-.41.11.1-1.11.48-2.1" fill="#c2b3a6"/>
      <path d="M66.13 75.73c-4.46-3.25-12.53-3.15-17.23.33-2.14.09-3.31 2.4-4.34 4.83s-.15 5.18-.69 8c-.58 3.11-2.46 6.11-1.55 8.64 3.61 9.89 19 7.3 25.32 1.08 6.09-6 5.4-17.83-1.51-22.88" fill="#f6dacc"/>
      <path d="M88.21 114.39c-.08-.85-.07-3.67-2-3.67a2 2 0 00-2.09 1.72c-2 3-1.78 6.49-2.41 9.77-.24 1.27-.4 2.84 1 3.8 1.19.82 3.54.13 4.75-.12s1.13-3.81 1.2-4.56a37.58 37.58 0 00-.43-6.94" fill="#e7cdc1"/>
      <path d="M85.52 123.83a12.9 12.9 0 01-4-.13 2.68 2.68 0 001.18 2.3c1.18.82 3.53.13 4.74-.12.73-.15 1-1.34 1.1-2.49a23.86 23.86 0 01-3 .43" fill="#9b8579"/>
      <path d="M73.55 114.39c-.08-.85-.08-3.67-2-3.67a2 2 0 00-2.09 1.72c-2 3-1.78 6.49-2.41 9.77-.24 1.27-.4 2.84 1 3.8 1.18.82 3.53.13 4.74-.12s1.13-3.81 1.2-4.56a36.72 36.72 0 00-.42-6.94" fill="#e7cdc1"/>
      <path d="M70.86 123.83a13 13 0 01-4-.13A2.7 2.7 0 0068 126c1.18.82 3.53.13 4.74-.12.74-.15 1-1.34 1.11-2.49a24.39 24.39 0 01-3 .43" fill="#9b8579"/>
      <path d="M42.9 70.21v0M64.59 79.84a.57.57 0 01-.59-.34c-.5-2.6-.36-5.34 2.94-5.44a11.88 11.88 0 017.65 2.7c1.45 1.2 3 4.86-.15 5.14a8.51 8.51 0 01-3.69-.6 15.1 15.1 0 00-3.81-.3 2.12 2.12 0 01-2.25-.88 2.6 2.6 0 01-.1-.25M51.21 94.55a10.62 10.62 0 00-6-.51c-3.84.27-7 4.22-5.53 8.11 2.15 5.77 8.38 5.33 12.63 2.27a5.53 5.53 0 00-1.1-9.87" fill="#dcacac"/>
      <path d="M45 99.71c.1.83-.12-1 0-.15-.08-.69-.34-1.83-1.25-1.81s-1.22 1.18-1.17 1.87a3.21 3.21 0 00.89 2.31 1.28 1.28 0 00.71.32l.24-.06h-.07.19c.33 0 .43-.42.43-.69v-.1a1.68 1.68 0 00.08-.59v-.26a5 5 0 00-.06-.86M48.84 98.24a1.1 1.1 0 00-.56-.79c-.38-.15-.75.2-.84.55a3.41 3.41 0 00.06 2.21c.11.28.44.92.84.9s.33-.47.42-.66a3.63 3.63 0 00.08-2.21" fill="#b18b8c"/>
      <path d="M47.49 84.86c-2 .24-3.35 2.79-2.8 4.63a1.65 1.65 0 00.83 1.21c.65.25 1.06-.35 1.29-.84-.24.5.38-.78.24-.54a.92.92 0 01.54-.4c.46-.18.71.28.76.46a4 4 0 00.53 1.39 2.57 2.57 0 00.54.68c.82.7 1.46-1.71 1.47-2.2 0-1.86-1.15-4.66-3.4-4.39M55.09 85.4c-2 .24-3.35 2.78-2.8 4.63a1.65 1.65 0 00.83 1.21c.65.25 1.06-.35 1.29-.84-.24.5.38-.79.24-.55a.91.91 0 01.54-.39c.45-.18.71.28.76.46a4 4 0 00.53 1.39A2.75 2.75 0 0057 92c.82.69 1.45-1.71 1.47-2.2 0-1.87-1.15-4.66-3.4-4.39" fill="#414042"/>
      <path d="M95.53 97.4c-.33-.39-.58.49-.4.75.88 1.31 1.07 3.63-.78 4.2a3.23 3.23 0 00.09-1.17c-.13-1.05-.76-2.82-2.17-2.52-1.82.4-1.66 3-.56 4.46a5.38 5.38 0 01-2.26 0c-.19.52-.38 1-.58 1.56a5.13 5.13 0 003.51-.08 4.12 4.12 0 00.75-.47 2 2 0 00.8 0c3.18-.72 3.55-4.52 1.6-6.74m-2.6 4.91a1.48 1.48 0 01-.59-.6c0-.38-.06-.75-.08-1.13.56.73.78 1.31.67 1.73" fill="#e7cdc1"/>
    </g>
  </g>
</svg>
