<svg xmlns="http://www.w3.org/2000/svg" viewBox="0 0 144 175">
  <g id="Layer_2" data-name="Layer 2">
    <g id="Layer_1-2" data-name="Layer 1">
      <path fill="#afe1ef" d="M0 0h144v175H0z"/>
      <path d="M78.56 175s3-84.2-27.71-83.23S24.23 175 24.23 175z" fill="#3a6fb7"/>
      <path d="M55.52 97.25c15.89 4.43 32.66 39.06 32.66 77.75M50.46 96C30.52 100.83 15 136.31 15 175" fill="none" stroke="#3a6fb7" stroke-miterlimit="10" stroke-width="8.78"/>
      <path d="M32.37 42.83S31.2 80.9 33.94 83.34s31.37 3.91 34.11-2.93 1.18-34.64 0-37.58-35.6-3.93-35.68 0" fill="#fff8d5"/>
      <path d="M40.58 61a7.29 7.29 0 11-7.29-7.29A7.29 7.29 0 0140.58 61M74.92 61a7.29 7.29 0 11-7.29-7.29A7.29 7.29 0 0174.92 61" fill="#fff8d5"/>
      <path d="M48.27 61.55c0 3-1.72 5.45-3.85 5.45s-3.84-2.44-3.84-5.45 1.72-5.45 3.84-5.45 3.85 2.44 3.85 5.45M59.55 61.55c0 3-1.72 5.45-3.84 5.45s-3.84-2.44-3.84-5.45 1.72-5.45 3.84-5.45 3.84 2.44 3.84 5.45" fill="#fff"/>
      <path d="M55.45 60.31c-.75 0-1.39.68-1.66 1.64a1.14 1.14 0 01.05 2.27c.29.9.9 1.52 1.61 1.52 1 0 1.8-1.22 1.8-2.72s-.81-2.71-1.8-2.71M44.35 60.31c-.74 0-1.38.68-1.65 1.64a1.14 1.14 0 010 2.27c.3.9.9 1.52 1.61 1.52 1 0 1.81-1.22 1.81-2.72s-.81-2.71-1.81-2.71" fill="#58595b"/>
      <path d="M47.51 52.89c.06.5-1.34 1.09-3.14 1.32s-3.3 0-3.37-.5 1.34-1.09 3.14-1.32 3.31 0 3.37.5M59.12 53.7c0 .51-1.52.82-3.33.7s-3.24-.62-3.21-1.13 1.52-.81 3.33-.7 3.25.63 3.21 1.13" fill="#a97c50"/>
      <path d="M49.84 62.25c-1.35.26-2.67 8.74-1.89 9.16s4.45.21 4.63-.42-1.93-8.9-2.74-8.74" fill="#fdddc1"/>
      <path d="M46.55 73.8s-1.78 8.26 3.86 8.57 3.84-8.83 3.84-8.83z" fill="#d17751"/>
      <path d="M50.41 82.37A3.34 3.34 0 0054 80a7 7 0 00-3.57-.9 7 7 0 00-3.5.86 3.81 3.81 0 003.5 2.38" fill="#f68b5f"/>
      <path d="M35.94 46.26s-1.34 9.5-3.78 7.49c-1.45-1.2-2.47-12.48 1.58-16.38s32.53-4.9 35 2.41c3 8.88 2.17 14.43.52 14.2s-5.75-10.83-5.75-10.83" fill="#a97c50"/>
      <path d="M43.93 93.6s5.59 33.16 6.44 32.21 6.11-32.07 6.16-32.56 1.42-2.35 1.1-3.06-15.6-.94-15.21 0 1.51 3.41 1.51 3.41" fill="#fff"/>
      <path d="M47.93 85.38v5.55c0 .28 2.07 2.88 2.73 2.65A8.75 8.75 0 0053.4 91c.24-.56.61-6 .61-6" fill="#fff8d5"/>
      <path d="M50.46 93.57s-3.14 3-2.71 3.48 1.65 1.73 1.61 2-3 3.57-2.74 4.63 3.2 21.69 3.43 21.68 1.08-1.69 1.62-3.65 2-18.86 2.12-19.48-2.19-2.4-2.23-2.63 2-2.78 1.92-3-2.35-2.91-3-3" fill="#f15a36"/>
      <path d="M43.93 93.6s-7.67 5.75-6 7 5.18 0 5.18 0-3.36 5.8-2.31 6.74 8.52 20.23 9.33 19.29S47.41 95 43.93 93.6" fill="#325f9e"/>
      <path d="M56.59 92.76s7.68 5.75 6 7-5.17 0-5.17 0 3.35 5.8 2.3 6.74-8.72 21.09-9.57 20.15 3-32.45 6.44-33.89M33.79 97.29s3.57 6.35 3.42 7.16-10.65 10.21-12.3 10.29-4.38-.3-5.66-1.26 1.05-6.2 1.48-7.12 11.75-9.83 13.06-9.07" fill="#325f9e"/>
      <path d="M21.82 105.25l5.48 8.11q.66-.48 1.41-1.08l-5.53-8.18-1.36 1.15M24.39 103.13l5.52 8.18c.45-.37.91-.76 1.36-1.15l-5.48-8.11-1.4 1.08" fill="#feed73"/>
      <path d="M67.05 96.07s-3.57 6.35-3.41 7.16 10.64 10.2 12.29 10.29 4.39-.3 5.66-1.26-1-6.2-1.47-7.12-11.75-9.83-13.07-9.07" fill="#325f9e"/>
      <path d="M79 104l-5.48 8.11-1.41-1.08 5.53-8.18L79 104M76.46 101.91l-5.53 8.18-1.36-1.15 5.48-8.12 1.41 1.09M83.55 168.51h9.25v2.2h-9.25zM83.55 172.8h9.25v2.2h-9.25zM10.52 168.51h9.25v2.2h-9.25zM10.52 172.8h9.25v2.2h-9.25z" fill="#feed73"/>
      <path d="M52.09 138.72a2 2 0 11-2.09-2.05 2.05 2.05 0 012.05 2.05M52.09 154.8a2.05 2.05 0 11-2.05-2 2 2 0 012.05 2M27.14 156.85s-.63 2.72.62 3.66 11.29 1.05 11.92 0a9 9 0 00.73-3.24zM62.2 157.39s-.4 2.76.93 3.6 11.33.12 11.87-1a9.1 9.1 0 00.47-3.29z" fill="#325f9e"/>
      <path d="M30.12 42.76s-9.77-10.82-6.07-16.47 55.41 4.55 46.73 16.08" fill="#3a6fb7"/>
      <path d="M30.89 46.52a4.61 4.61 0 01-.77-3.76c.62-1.88 25.26-5.39 40.66-.39 1 .31 1 3.26-.7 3.67s-39.19.48-39.19.48" fill="#f5ed60"/>
      <path d="M30.89 46.52s-9.5 8 6.32 9.58 33.15-10.25 33.15-10.25-21.45-2.62-39.47.67" fill="#485961"/>
      <path d="M52.27 32.1c.71-.63-8.08-1.65-8.71-1.65-.41 0-1.64 1.64-2.45 2.8-.82-1.16-2-2.8-2.45-2.8-.63 0-9.42 1-8.71 1.65s4 .31 4 .31-2.75 1.06-1.49 1.32a14.48 14.48 0 003.42 0s-1.35.72 0 1.11a23.87 23.87 0 005.22.08 23.89 23.89 0 005.22-.08c1.35-.39 0-1.11 0-1.11a14.48 14.48 0 003.42 0c1.26-.26-1.49-1.32-1.49-1.32s3.3.32 4-.31M67.75 120.88c.31-.27-3.57-.72-3.85-.72s-.72.72-1.09 1.23c-.35-.51-.9-1.23-1.08-1.23s-4.16.45-3.85.72 1.77.14 1.77.14-1.21.47-.66.58a6 6 0 001.52 0s-.6.32 0 .5a10.75 10.75 0 002.3 0 10.83 10.83 0 002.31 0c.6-.18 0-.5 0-.5a6 6 0 001.52 0c.55-.11-.66-.58-.66-.58s1.45.14 1.77-.14" fill="#f5ed60"/>
      <path d="M91.06 67a20.66 20.66 0 01-3.88-.33c-.43-.29 1.7-2.33 2.18-2.33M113.24 53.67s-19.62-5.87-20.47-5.49-1.71 2.06-1 2.74 12.74 7.87 12.74 7.87" fill="#cfd1d2"/>
      <path d="M94.52 66.23s27.87-12.65 29.72-14.36 4.55-6.11-6.61-6.25-25.29 17.63-25.29 17.63-3.55-1.85-4.21-1.61a3.44 3.44 0 00-1.47 1.65c0 .19 4.31 4.55 5.16 4.32a16.92 16.92 0 002.7-1.38" fill="#fff"/>
      <path d="M104.47 57.28s1.43 18.72 2.42 19.19a4.32 4.32 0 003.56-.71c.56-.57 4.62-21.19 4.62-21.19" fill="#fff"/>
      <path d="M116.56 45.66s4.19 1.45-13.22 9.48c-1.21.43-.79 2.06-.43 2.06s22.44-5.54 20.11-11c0 0-2.13-1.23-6.46-.56" fill="#bce4f9"/>
      <path d="M91.49 66.66s-.62 3.55-.38 3.65 2.8-.1 2.94-.48 1.56-5.45 1.56-5.45" fill="#fff"/>
    </g>
  </g>
</svg>
