<svg xmlns="http://www.w3.org/2000/svg" viewBox="0 0 144.02 175.04">
  <g id="Layer_2" data-name="Layer 2">
    <g id="Layer_1-2" data-name="Layer 1">
      <path fill="#27aae1" d="M.02 0h144v167.67H.02z"/>
      <path fill="#78909c" d="M.01 71.34h144v103.7H.01z"/>
      <path d="M50 84.64c-17.1 1.76-59.91 25-25.33 43.78s96.63 10.49 108.14-9.49c5.81-10.15-6.81-42.1-82.81-34.29" fill="#f1f2f2"/>
      <path d="M54.49 89.9C40.78 91.31 6.45 110 34.18 125s77.48 8.41 86.71-7.61c4.68-8.14-5.47-33.76-66.4-27.5" fill="#d1d3d4"/>
      <path d="M54.49 97c-13.71 1.18-48 16.8-20.31 29.4s77.48 7 86.71-6.37c4.68-6.82-5.47-28.27-66.4-23" fill="#27aae1"/>
      <path d="M26.43 93.63s1.18-6.54 5-6.87c4.75-.41 4.9 19.41 4.9 19.41M35.78 88.79s1.18-6.54 5-6.87c4.75-.41 4.9 19.42 4.9 19.42M35.04 93.72l9.07-3.06M35.93 99.74l9.63-3.13" fill="none" stroke="#bcbec0" stroke-linecap="round" stroke-miterlimit="10" stroke-width="2"/>
      <path fill="none" stroke="#bcbec0" stroke-linecap="round" stroke-miterlimit="10" stroke-width="2" d="M36.3 103.92l-2.36-14.99 10-3.07"/>
      <path d="M33.46 107s1.27-1.58 2.32-1.33 2.95-1 3.16-1.18 4.33-2.32 4.33-2.32a5.32 5.32 0 014-1.37c2.25.31 2 3.75 2 3.75s-2.18 4.87-5.81 5.5-10.25 1.14-10.25 1.14" fill="#27aae1"/>
    </g>
  </g>
</svg>
