<svg xmlns="http://www.w3.org/2000/svg" viewBox="0 0 144 174.97">
  <g id="Layer_2" data-name="Layer 2">
    <g id="Layer_1-2" data-name="Layer 1">
      <path fill="#addedc" d="M0 0h144v174.97H0z"/>
      <path d="M144 175v-64.4c-74.48-32-127.75 2.69-144 15.68V175z" fill="#afd24d"/>
      <path d="M100.21 125.56c0 4.4-11.16 8-24.92 8s-24.91-3.57-24.91-8 11.15-8 24.91-8 24.92 3.57 24.92 8" fill="#7ba541"/>
      <path d="M72.07 109.93a4.68 4.68 0 00-1.35-2.86.19.19 0 00-.29.07c-1.34 2.27-1.58 5.2-2.79 7.59a10.63 10.63 0 01-.68 1.14c-1.39 1.44-3 2.66-4.71 4.18-1.1 1-1.23 5.38 1 5a8 8 0 004.31-2.73c2.77-2.25 5.29-6.12 5.73-9.35a3.74 3.74 0 00-1.25-3.08" fill="#bcbec0"/>
      <path d="M90.82 117.73c-.28-6.38-5.87-12.57-12.64-11.27-3 .57-4.47 4.76-4.78 7.32a8.11 8.11 0 001.93 6c-2.58-.36-5.34-.29-6 1.86-1.2 3.69 4.47 3.13 6.43 3.26 3.54.23 8.5.6 11.72-1.2 1.92-1.08 4.31-3.64 3.37-6" fill="#bcbec0"/>
      <path d="M102.76 101.94c-1.22-1.16-2.66-.89-3.87.07a5.62 5.62 0 00-.81.81 11.07 11.07 0 00-3.22-3.89c-4.32-3.16-10-2.83-14.86-4.61-2.57-.95-3.9-3-6.09-4.45C72.58 89 71 89.85 70.2 91a28.24 28.24 0 00-3.08 6.29c-.15-2 .11-3.93 1.8-5.4v-.07a4.93 4.93 0 00-3 4 46.89 46.89 0 00-.86 8.52 16 16 0 001.43 6.07c-1.78 2.5-4.41 4-7.12 5.35-1.23.6-2.56 4.51-.43 4.78 3.93.49 7.08-1.09 9.7-3.93a8.29 8.29 0 00.93-1.21 18.09 18.09 0 003.1 3c8.51 6.25 23.56 4.86 26.59-6.64a10.87 10.87 0 00.32-3 12.27 12.27 0 001.24 0 3 3 0 001.81-.81 4.26 4.26 0 00.09-6" fill="#e6e7e8"/>
      <path d="M80.15 94.37l-.15-.05c-2.57-.95-3.9-3-6.09-4.45-1.33-.85-2.89 0-3.7 1.11a27.85 27.85 0 00-3.09 6.29c-.15-2 .11-3.93 1.8-5.4v-.07a4.93 4.93 0 00-3 4 46.89 46.89 0 00-.86 8.52 16 16 0 001.43 6.07 11 11 0 01-.74.92 12.5 12.5 0 004.3-.71c7.07-2.47 10.24-9.32 10.06-16.27" fill="#bcbec0"/>
      <path d="M80 86.21A12.59 12.59 0 0072.79 78a40.42 40.42 0 001.54-10.52c0-1.55-.55-3.18-.44-4.7a6 6 0 00-.48-3.3c-.27-.56-1-1.22-1.56-.58-2.22 2.36-3 6.28-3.47 9.38s.24 5.83 1 8.66a12.36 12.36 0 00-6.38.85A5.57 5.57 0 0059.21 79c-.07-1.53-.33-3.06-.53-4.43a41.92 41.92 0 00-3.32-11.47c-.32-.67-1.11-1.38-1.81-.67-2.25 2.3-1.87 7.22-1.68 10.15A29.76 29.76 0 0055 83.35c-1.58 2.5.31 8.43-2 13.23-4.28 8.78 7.76 15.07 17.83 11.55 9-3.15 11.71-13.4 9.19-21.92" fill="#fff"/>
      <path d="M97.86 120.3c-.29-6.38-5.86-12.57-12.65-11.3-3 .58-4.46 4.77-4.77 7.33a8 8 0 001.93 6c-2.59-.36-5.34-.29-6 1.86-1.2 3.69 4.48 3.13 6.43 3.26 3.54.24 8.5.6 11.73-1.2 1.91-1.07 4.31-3.63 3.37-6" fill="#f1f2f2"/>
      <path d="M73.21 83.19c-.08 0-.07.18 0 .18s.07-.18 0-.18" fill="#e6e7e8"/>
      <path d="M67.9 111.32" fill="#d1d3d4"/>
      <path d="M62.88 100.2a.15.15 0 00-.26 0c-.27.5-.14 1.05-.44 1.57-.72 1.26-2.28 0-2.59-1a2.94 2.94 0 00-.14-.74c-.23-.75-.84-.1-.85.38a2.92 2.92 0 00.1.9c-.19 1.31-2.38 2.38-2.49.5 0-.54-.65-.79-.73-.13-.19 1.48.75 3.23 2.49 2.4a2.8 2.8 0 001.32-1.49 1.93 1.93 0 002.37.91c1-.41 2-2.32 1.22-3.3" fill="#9b8579"/>
      <path d="M56 99.84a3.33 3.33 0 002 .9 2.2 2.2 0 001.44-.18 3.67 3.67 0 002.37-2.63c.38-2.14-2.38-2.25-3.75-2.07a3.12 3.12 0 00-2.52 1.58 2.11 2.11 0 00.48 2.4" fill="#eebcb4"/>
      <path d="M57.76 90c-.73-.07-1.15.66-1.29 1.25a3.7 3.7 0 00.24 2c.15.29.48.33.59 0a3.18 3.18 0 00.05-1.11c0-.34-.07-.58.27-.74.58-.26.94.56.9 1 0 .25 0 .62.29.73s.45-.21.47-.43c.13-1-.32-2.6-1.52-2.7M60.93 90c-.73-.07-1.14.66-1.29 1.25a3.61 3.61 0 00.25 2c.14.29.48.33.58 0a3.18 3.18 0 00.05-1.11c0-.34-.07-.58.27-.74.59-.26.94.57.9 1 0 .25 0 .62.29.73s.45-.21.48-.43c.12-1-.33-2.6-1.53-2.7" fill="#58595b"/>
      <path d="M57.75 79.6a16.66 16.66 0 00-.62-1.93 1.93 1.93 0 00-.68-1.09c-1-.58-1.25.88-1.14 1.56a20.7 20.7 0 00.54 2.33 1.31 1.31 0 00.45.8c.06.23.19.41.42.37a1.74 1.74 0 00.87-.6c.44-.44.31-.87.16-1.44M70.74 77.56a1.7 1.7 0 001 .28c.23 0 .29-.25.27-.49a1.29 1.29 0 00.16-.9 21.12 21.12 0 00-.26-2.38c-.12-.67-.83-2-1.59-1.1a1.92 1.92 0 00-.28 1.26 15.25 15.25 0 000 2c0 .58.07 1 .63 1.3" fill="#eebcb4"/>
    </g>
  </g>
</svg>
