<svg xmlns="http://www.w3.org/2000/svg" viewBox="0 0 144 163.18">
  <g id="Layer_2" data-name="Layer 2">
    <g id="Layer_1-2" data-name="Layer 1">
      <path fill="#155e98" d="M0 0h144v163.18H0z"/>
      <path fill="#fff200" d="M22.2 57.24l1.36 4.2h4.42l-3.57 2.6 1.36 4.2-3.57-2.6-3.57 2.6 1.36-4.2-3.57-2.6h4.42l1.36-4.2zM19.7 11.55l1.37 4.2h4.41l-3.57 2.59 1.36 4.2-3.57-2.59-3.57 2.59 1.36-4.2-3.57-2.59h4.42l1.36-4.2zM42.42 135.35l1.36 4.19h4.41l-3.57 2.6 1.37 4.2-3.57-2.6-3.58 2.6 1.37-4.2-3.57-2.6h4.41l1.37-4.19zM120.7 11.55l1.36 4.2h4.42l-3.57 2.59 1.36 4.2-3.57-2.59-3.57 2.59 1.36-4.2-3.57-2.59h4.41l1.37-4.2zM114.92 120.02l1.36 4.2h4.42l-3.57 2.6 1.36 4.2-3.57-2.6-3.57 2.6 1.36-4.2-3.57-2.6h4.42l1.36-4.2zM65.66 38.63l1.36 4.2h4.41l-3.57 2.59 1.37 4.2-3.57-2.6-3.58 2.6 1.37-4.2-3.57-2.59h4.41l1.37-4.2z"/>
      <path d="M29.08 93.88a10.48 10.48 0 1120.86 1.94M59.71 124.56a10.47 10.47 0 00-1.93-20.86" fill="#ed1c24"/>
      <path d="M58.47 111.13a79 79 0 0033.41-20c14.9-14.9 22.65-34 23-52.49-18.51.39-37.6 8.14-52.49 23a78.86 78.86 0 00-20 33.41z" fill="#f1f2f2"/>
      <path d="M107.59 69a74.38 74.38 0 007.33-30.33A74.34 74.34 0 0084.59 46a28.85 28.85 0 0023 23M57.24 96.31a14.87 14.87 0 00-13.6 13.6 14.87 14.87 0 0013.6-13.6" fill="#ed1c24"/>
      <path d="M72.28 60.46a9.44 9.44 0 002.48-8.91 81.23 81.23 0 00-12.33 10.12l-.69.71a9.43 9.43 0 0010.54-1.92M89.34 64.2a9.42 9.42 0 100 13.33 9.42 9.42 0 000-13.33M102 78.79a9.41 9.41 0 00-10.82 13l.71-.69A80.56 80.56 0 00102 78.79" fill="#27aae1"/>
    </g>
  </g>
</svg>
