<svg xmlns="http://www.w3.org/2000/svg" viewBox="0 0 144 174.97">
  <g id="Layer_2" data-name="Layer 2">
    <g id="Layer_1-2" data-name="Layer 1">
      <path fill="#addedc" d="M0 0h144v174.97H0z"/>
      <path d="M144 175v-64.41C69.52 78.64 16.25 113.28 0 126.28V175z" fill="#afd24d"/>
      <path d="M102.19 127.63c0 3.75-11.72 6.79-26.17 6.79s-26.16-3-26.16-6.79 11.71-6.79 26.16-6.79 26.17 3 26.17 6.79" fill="#7ba541"/>
      <path d="M84.1 127.9v-.07a1.45 1.45 0 00-.12-.22 1 1 0 01-.08-.11 9.4 9.4 0 01-.75-1.25h-.08a2 2 0 01-.08.33c-1.81-1.38-4.84-1.8-6.53-.47a.61.61 0 00.06.84 11.08 11.08 0 003.48 2 9.05 9.05 0 003.76.86c.74-.11.64-1.21.39-1.82" fill="#726658"/>
      <path d="M83.74 127.79c-2.94-1.58-7.69-.21-9.54 2.49-.16.22 0 .71.31.68 1.65-.12 3.32-.31 5-.5s3.19 0 4.55-.82c.63-.35.2-1.58-.29-1.85" fill="#726658"/>
      <path d="M84.24 128.17l-.24-.36a.88.88 0 00-.84-.43 11.25 11.25 0 00-8 4.87c-.1.15 0 .66.25.56 2.2-.83 4.41-1.56 6.65-2.3.8-.26 3.09-1 2.19-2.34" fill="#726658"/>
      <path d="M82.13 112.47c-.46-.36-1.21-.58-1.58.08-1.12 2 .15 5 .61 7 .74 3.22 1.18 7.17 2.9 10 .11.19.43.24.49 0a20.23 20.23 0 00.48-8.82c-.43-2.15-1-6.82-2.9-8.29" fill="#726658"/>
      <path d="M75.35 126.56a.14.14 0 010-.07c0-.09 0-.17-.07-.24a.61.61 0 010-.12v-.06a11.75 11.75 0 01-.46-1.38s-.06-.07-.07 0-.1.2-.15.3c-1.47-1.74-4.34-2.8-6.28-1.86-.28.13-.29.61-.12.83a11.09 11.09 0 003 2.66 9.09 9.09 0 003.49 1.64c.75.06.89-1 .78-1.69" fill="#5c5348"/>
      <path d="M75 126.38c-2.52-2.18-7.46-1.86-9.85.37-.2.19-.16.7.15.74 1.64.23 3.32.42 5 .58s3.13.64 4.62.18c.69-.21.54-1.5.11-1.87" fill="#5c5348"/>
      <path d="M75.42 126.86c0-.13-.1-.27-.16-.4a.86.86 0 00-.72-.6 11.2 11.2 0 00-8.87 3c-.13.12-.15.64.12.6 2.33-.34 4.65-.58 7-.81.84-.09 3.23-.3 2.64-1.82" fill="#5c5348"/>
      <path d="M77.06 113.68c-.35-.72-1.2-.85-1.47 0a39.16 39.16 0 00-1.08 8.22c-.17 2.2-.13 4.62 1.47 6.28.24.25.44-.2.43-.39-.18-2.33.62-4.63.76-7s1-5-.11-7.18" fill="#5c5348"/>
      <path d="M99.37 84.93c-3.68-.06-7.34 2.78-10.9 3.58a17.85 17.85 0 01-7.15 0c-.65-.35-1.29-.71-1.93-1.11-3.39-2.13-7.13-4.57-9.39-8.31-1.57-2.61-2.44-5.58-5.36-6.3-2-.48-4 3-4.86 4.46-1.64 2.66-1.34 6.34-1.49 9.38a87.51 87.51 0 00-.55 9.07c-.5 9 2.61 21.06 21.19 22.89a2.84 2.84 0 00-.48 1.2 1.91 1.91 0 00.32 1.17v.36c0 .52.39 1.42 1 1.15 1.38-.55 1.62-2.14 2.41-3.25.81 1.22 1.48 2.53 2.22 3.81.45.77 1.18 0 1.26-.54a4.12 4.12 0 00-.07-1.64 2 2 0 00-.08-.22.7.7 0 00.11-.23l.29.13c1.1.44 1.26-1.37.85-2.22 2.73-1 5.4-3 7.66-4.68a25.93 25.93 0 0010.3-17.84c.65-4.83-.22-10.79-5.35-10.86" fill="#f7941d"/>
      <path d="M70.54 78a12.7 12.7 0 00.07-10.65c-.08-.19-.18-.35-.26-.53-1.29-3.41-3.92-5.25-6.7-6.46-3.13-1.36-5.89.47-7.9 3.46A20.41 20.41 0 0052 74.25c-.1 2.44.08 6.13 1.74 7.83a16.8 16.8 0 002.38 3.12 12.54 12.54 0 00-1.25 6.2c0 1 .56 2.83 1.63 2.27 1.7-.88 2.33-2.7 3-4.61a22.36 22.36 0 001.95 3 .79.79 0 001 .22 5.5 5.5 0 001.94-4c1 1.39 2.29 2.33 3.43 1A5.42 5.42 0 0069 85.63c1.53 1.18 3.31 1.69 4.29-.07A5 5 0 0070.54 78" fill="#fbb040"/>
      <path d="M69.91 54.5c-.84-2.13-3.34-1.29-4.83-.55a7 7 0 00-.6.33 6.73 6.73 0 00-.08-3.23 1.94 1.94 0 00-3.09-.9 8.7 8.7 0 00-2.78 3.34c-.22-.73-.44-1.46-.67-2.19a1.55 1.55 0 00-2.47-.92 5.45 5.45 0 00-1.7 2.18l-.12-.25C53 51 50.46 47.94 49.09 50.4s-.31 5.31.56 7.76a13.2 13.2 0 003.77 5.18c.44 2.59 3 2.74 3.45.41.74.72 1.69.85 2.17-.78.11-.38.21-.76.32-1.13a1.34 1.34 0 00.94.41 2.49 2.49 0 001.48-.6 1.37 1.37 0 001.22.85h.27a1 1 0 00.46-.09c3.17-.65 7.37-4.78 6.15-7.91" fill="#f15a29"/>
      <path d="M98.82 97.07c.58-6-7.48-3.21-9.8-2.15-4.26 2-7.9.85-12-.81-1.71-.68-4.43-2.82-6.3-1.82-2.55 1.36-2.4 4.52-1.39 7.38a11 11 0 00.39 2.41 25.93 25.93 0 002.52 5.47c1.89 3.25 4.44 5.77 7.94 5.88 3.14.1 4.95-2.07 4.83-4.12 4 0 8.45-1.32 10.21-5.13a4.26 4.26 0 00.52-2.79 5.38 5.38 0 003.11-4.32" fill="#fbb040"/>
      <path d="M115.76 81.07C110.49 72.75 98 83.28 99.4 90.5c.1.5.34.75.61.82a.13.13 0 010 .06l.42.1a1.17 1.17 0 001.23-.28c2.64-3.21 8-9.26 11.4-4 3.93 6.16 2.58 12.24.44 18.7-.12.37.23 1.81.79 1.14 6.68-8.09 7.08-17.14 1.48-26" fill="#f7941d"/>
      <path d="M121.46 68.92c-11.52-9.46-23.31 10.81-21.87 20.73l.09-.19c.11.91.63 1.7 1.33 1 2.3-2.27 3.18-6 4.76-8.82 2-3.55 7.06-8.44 11.5-7.26s7.22 6.89 7.89 11c.86 5.18-.69 10.39-2.19 15.29-.1.32.26 1.15.54.61 5.61-10.74 8.61-23.61-2.05-32.36" fill="#f7941d"/>
      <path d="M115.85 75.17c-5.46-.54-9.56 3.49-12.95 7.32-1.35 1.52-3.76 4.14-2.35 6.26.19.28.46.12.57-.13 1.54-3.6 8.55-6.89 12.18-7.5 6.84-1.14 8.56 5.6 8 10.63 0 .42.43 1.44.85.71 3.61-6.27 2.77-16.41-6.28-17.29" fill="#f7941d"/>
      <path d="M110 86.93c-1.1-1.89-3.54-3.68-5.77-3.43s-3.46 2.36-3.8 4.27c-.08.48.2 1.66.93 1.34 1-.46 1.88-1.21 3.11-1s2.42 1.52 3.21 2.5c1.59 2 1 4.56.62 6.85 0 .22.19.91.51.57a9.18 9.18 0 001.19-11.1" fill="#f7941d"/>
      <path d="M56.08 83.92a7.7 7.7 0 00-1.61-2.38 2 2 0 00-1-.65c-.8-1.14-2.27 0-2.52 1.37a1.76 1.76 0 00-1.1 1.11c-1.78.21-2.84 3.78-3.3 5-.39 1 0 3.22 1.52 2.83a3.83 3.83 0 001.53-.86c.13 1 .3 2.09.52 3.07s.77 2 1.82 2a1.53 1.53 0 00.3 0c1.69-.22 1.88-2.21 1.61-3.64.09-.92.16-1.83.21-2.72a1.1 1.1 0 00.39-.09c1.77-.84 2.36-3.23 1.64-5" fill="#f15a29"/>
      <path d="M52.46 74.16a25.2 25.2 0 00-4.35.5c-1.54.46-2.85 1.7-4.22 2.48s-1.73 4.2.11 4.63c2.59.61 5 2.5 7.61 2.16 11.91-1.5 4.78-10.27.85-9.77" fill="#f9ed32"/>
      <path d="M53.3 69.55a2.47 2.47 0 00-1.83 3 1.06 1.06 0 00.54.78c.43.17.69-.22.84-.54-.15.33.25-.51.16-.36a.59.59 0 01.35-.25c.3-.12.47.18.5.3a2.68 2.68 0 00.35.9 1.51 1.51 0 00.35.44c.53.46.95-1.11.95-1.43 0-1.22-.74-3-2.21-2.86M60.2 71.41a1.88 1.88 0 00-1.74-1.23 2.47 2.47 0 00-2 3.28c.17.66.9 1 1.19.21.2-.59.06-1 .7-1.1.28 0 .53-.13.64.11s.17.67.29 1a.54.54 0 001.07 0 3.35 3.35 0 00-.17-2.25" fill="#414042"/>
    </g>
  </g>
</svg>
