<svg xmlns="http://www.w3.org/2000/svg" viewBox="0 0 144 175">
  <g id="Layer_2" data-name="Layer 2">
    <g id="Layer_1-2" data-name="Layer 1">
      <path fill="#fdc05d" d="M0 0h144v120.78H0z"/>
      <path d="M133.53 106.34A61.53 61.53 0 1172 44.81a61.53 61.53 0 0161.53 61.53" fill="#ffd861"/>
      <path d="M43 97.57c-1.56-2.21-.86-18 4.79-19s37.21-10.6 68 .07c0 0-18.71 20.36-48.24 22.08" fill="#fff"/>
      <path d="M39.91 18.33s2.42 53.06 8.34 54.75S91.86 69 91.41 67.37c-7.64-28.17-50.94-52.82-51.5-49" fill="#f7941d"/>
      <path d="M39.66 30.49c-1.48.06-23.39 46-18.15 49.23s20.92 1.19 22.33-2-.14-47.39-4.18-47.25" fill="#f15a29"/>
      <path d="M39.37 14.92c-2-.26 5.92 79.28 6.58 79.18s4.16.79 4.49-.65-9.09-78.28-11.07-78.53" fill="#fff"/>
      <path d="M22.78 98.7s-1.27 13.74.61 14.73 77.4 5.75 96.85-32.05a166.47 166.47 0 00-31 1.15C75.06 84.4 58.7 95.22 45.26 95.83c-14.42.64-22.51 2.41-22.48 2.87" fill="#fff"/>
      <path d="M97.74 93.38a5.8 5.8 0 11-5-6.5 5.81 5.81 0 015 6.5z" fill="none" stroke="#ef4136" stroke-miterlimit="10" stroke-width="2.37"/>
      <path d="M21.21 97.25c-.17 1.31-1.25 3.18 1.31 3.51s35.47-4.3 37.71-6 26.19-12.2 36.58-12.2 22.49.89 23.43-1.16 5.72-8 5-9.07-40.6 1.8-43.08 4.16S65.83 90.27 58.57 92s-37.36 5.24-37.36 5.24" fill="#78909c"/>
      <path d="M0 107c7-1.5 19-8.5 32.5 0s26.5-9.63 43-2.07 29.5-7.74 43 1.17 16.5-5.1 25.5.9v68H0z" fill="#27aae1"/>
    </g>
  </g>
</svg>
