<svg xmlns="http://www.w3.org/2000/svg" viewBox="0 0 144 175">
  <g id="Layer_2" data-name="Layer 2">
    <g id="Layer_1-2" data-name="Layer 1">
      <path fill="#88d5ee" d="M0 0h144v167.67H0z"/>
      <path d="M118.34 127.14c1.17-1.3 13.75-4.88 15.08-3.47s4.25 7 2.5 9.42" fill="#e0b04c"/>
      <path d="M111.67 132.51c-1.66 11-.66 19.33 0 19.33s18 4 19.48 3.5 7.19-17.5 7.52-20.17" fill="#ef4136"/>
      <path d="M110.76 127.84s-.58 5.92 0 6.5 28.91 4.17 29.74 2.17 1.67-5.67 1-6.5-30.57-4.35-30.74-2.17" fill="#dd3c32"/>
      <path d="M31.93 90.07c2.31-1 9.53 7.43 11 6.66S52.69 86 57.3 88.79s6.16 7.69 11.54 5.12 11.78-7.68 15.88-3.58S95 84.94 99.08 86.48s-1.54 72.36-1.54 72.36H35s-5.38-67.75-3.08-68.77" fill="#ffcb6b"/>
      <path d="M31.93 90.07c2.31-1 9.53 7.43 11 6.66S52.69 86 57.3 88.79s6.16 7.69 11.54 5.12 11.78-7.68 15.88-3.58S95 84.94 99.08 86.48s-1.54 72.36-1.54 72.36H35s-5.38-67.75-3.08-68.77" fill="#ffcb6b"/>
      <path d="M42.35 158.84h-26.3s-5.21-38.28-3.29-39.64c1.61-1.15 3 .58 4.13 3.78.22.62.43 1.3.64 2 1.25 4.44 3-5.5 6-6.17s1.71 5.83 4.79 5.83 5.8-7.86 9.22-7.52 6.83 38.95 4.78 41.69M91.47 158.84h26.3s5.21-38.28 3.29-39.64c-1.61-1.15-3 .58-4.13 3.78-.22.62-.43 1.3-.64 2-1.25 4.44-3-5.5-6-6.17s-1.7 5.83-4.78 5.83-5.8-7.86-9.22-7.52-6.84 38.95-4.78 41.69M77.81 158.84H54.74S45.66 126.2 66 125.43s11.84 33.41 11.84 33.41" fill="#e0b04c"/>
      <path d="M62.71 158.84h-8S45.67 126.2 66 125.43c0 0-13.12 12-3.26 33.41" fill="#f7c35f"/>
      <path d="M44.77 115.44c2 .76 6.15-.51 5.64-6.41s-4.35-5.64-5.64-5.12-7.62 8.64 0 11.53M65.51 103.86c2-.76 6.15.51 5.64 6.41s-4.36 5.63-5.64 5.12-7.63-8.64 0-11.53M86.85 115.49c-2 .63-6.11-.91-5.21-6.76s4.72-5.34 6-4.74 7 9.12-.76 11.5" fill="#e0b04c"/>
      <path d="M0 151.28s12.5-8.9 29 0 40.5-8.31 53.5-4 36.5-9 61.5 2.92V175H0z" fill="#f8d991"/>
    </g>
  </g>
</svg>
