<svg xmlns="http://www.w3.org/2000/svg" viewBox="0 0 144.31 175.22">
  <defs>
    <clipPath id="clip-path">
      <path d="M96.68 44.76c14.34 23.5-18.33 36-23 39C69 87.37 70 137.23 71 138.49c3 3.09 18.67.69 21.34.18 2.67-.32-1.67-27.74-1.34-37.27.17-4.66 8.17-9.09 15.8-16.07 7.62-6.67 14.87-15.88 13.54-22.76C117.7 49.12 97 44.76 96.68 44.76" fill="none"/>
    </clipPath>
    <clipPath id="clip-path-2">
      <path d="M34.57 68.63c-1.17 11.75 7.65 25.27 18 32.46 10.33 6.72 21 13.32 21 12.73 0-.07 3.49-22.15.83-23.49-2.31-1.55-16.88-13-19.41-22.19-1.48-5.36-1.93-11.41-.12-16.53A25.54 25.54 0 0160 42.67c-14.1 3.23-24.12 12-25.38 26" fill="none"/>
    </clipPath>
    <clipPath id="clip-path-3">
      <path d="M42.85 97.33c-1.26.38-6.75 18.28-2.25 20.31 5.35.58 51.4.68 51-5.19-.44-6.06 3-9.94 0-13.08-1.89-2.19-20.44-3.68-34.1-3.68-7.9 0-14.16.5-14.62 1.64" fill="none"/>
    </clipPath>
    <clipPath id="clip-path-4">
      <path d="M34.57 68.63c-1.17 11.75 7.65 25.27 18 32.46 10.33 6.72 21 13.32 21 12.73 0-.07 3.49-22.15.83-23.49-2.66-1.78-23-16.43-19-26.26 9.18-8.9 25.45-3.84 29.54-3.22l16.79-14.24A84.64 84.64 0 0073 41.25c-20.71 0-36.84 9.41-38.47 27.38" fill="none"/>
    </clipPath>
  </defs>
  <g id="Layer_2" data-name="Layer 2">
    <g id="Layer_1-2" data-name="Layer 1">
      <path fill="#156b7a" d="M144.31 175.22H.31L0 0h144l.31 175.22z"/>
      <path d="M101.68 46.61C69 34.71 36.9 42.89 34.57 68.63c-1.17 11.75 7.65 25.27 18 32.46 10.33 6.72 21 13.32 21 12.73 0-.07 3.49-22.15.83-23.49-2.66-1.78-23-16.43-19-26.26 4-10.93 45.47-2.57 40 4.67 0 0 9.47 6.26 12.85-4.49" fill="#a82a21"/>
      <path d="M71 138.49c-1-1.26-2-51.12 2.67-54.75 4.67-3 37.34-15.48 23-39 0-.07 21 4.26 23.67 17.81 1.33 6.88-5.92 16.1-13.54 22.76-7.63 7-15.63 11.41-15.8 16.07-.33 9.53 4 36.95 1.34 37.27-2.67.51-18.34 2.91-21.34-.18" fill="#cd372e"/>
      <path d="M73.6 146.42c0 4.07-.45 7.37-1 7.37s-1-3.3-1-7.37.45-7.38 1-7.38 1 3.3 1 7.38M77.77 147c0 4.07-.45 7.37-1 7.37s-1-3.3-1-7.37.44-7.38 1-7.38 1 3.31 1 7.38M82.6 147c0 4.07-.45 7.37-1 7.37s-1-3.3-1-7.37.45-7.38 1-7.38 1 3.31 1 7.38M87.35 146.42c0 4.07-.45 7.37-1 7.37s-1-3.3-1-7.37.45-7.38 1-7.38 1 3.3 1 7.38M92.1 145.67c0 4.07-.45 7.37-1 7.37s-1-3.3-1-7.37.45-7.38 1-7.38 1 3.3 1 7.38M34.62 98.42c-4-.54-7.25-1.43-7.18-2s3.41-.56 7.45 0 7.25 1.42 7.17 2-3.4.55-7.44 0M33.49 102.47c-4-.54-7.25-1.42-7.18-2s3.41-.55 7.45 0 7.25 1.42 7.17 2-3.4.55-7.44 0M32.85 107.26c-4-.54-7.25-1.42-7.18-2s3.41-.55 7.44 0 7.25 1.42 7.18 2-3.4.55-7.44 0M32.79 112.05c-4-.54-7.25-1.43-7.17-2s3.4-.55 7.44 0 7.25 1.42 7.18 2-3.41.56-7.45 0M32.91 116.85c-4-.54-7.25-1.42-7.18-2s3.41-.55 7.44 0 7.25 1.42 7.18 2-3.41.55-7.44 0" fill="#b0d235"/>
      <g clip-path="url(#clip-path)" fill="#b0d235">
        <path d="M73.15 125.36l-3.24 5.27-3.36-5.15 3.24-3.36 3.36 3.24zM79.75 125.36l-3.24 5.27-3.36-5.15 3.23-3.36 3.37 3.24zM86.34 125.36l-3.23 5.27-3.36-5.15 3.23-3.36 3.36 3.24zM92.94 125.36l-3.24 5.27-3.36-5.15 3.24-3.36 3.36 3.24zM99.54 125.36l-3.24 5.27-3.36-5.15 3.24-3.36 3.36 3.24zM73.27 98.02l-4.45 4.3-1.97-5.82 3.97-2.45 2.45 3.97zM79.66 99.67l-4.45 4.3-1.97-5.83 3.97-2.45 2.45 3.98zM86.05 101.32l-4.45 4.29-1.97-5.82 3.97-2.45 2.45 3.98zM92.44 102.97l-4.45 4.29-1.97-5.82 3.97-2.45 2.45 3.98zM98.83 104.61l-4.45 4.3-1.97-5.82 3.97-2.45 2.45 3.97zM89.27 72.76l-5.79 2.19.48-6.12 4.62-.69.69 4.62zM94.49 76.79l-5.78 2.19.48-6.12 4.61-.69.69 4.62zM99.71 80.82l-5.78 2.19.48-6.12 4.62-.69.68 4.62zM104.94 84.85l-5.78 2.19.48-6.12 4.61-.69.69 4.62zM110.16 88.88l-5.78 2.19.48-6.13 4.61-.68.69 4.62zM95.85 62.43l-1.43 6.02-4.8-3.85 2.03-4.2 4.2 2.03zM102.12 60.38l-1.43 6.02-4.8-3.85 2.03-4.2 4.2 2.03zM108.39 58.33l-1.43 6.01-4.8-3.84 2.03-4.2 4.2 2.03zM114.66 56.28l-1.43 6.01-4.8-3.84 2.03-4.2 4.2 2.03zM120.93 54.23l-1.43 6.01-4.8-3.84 2.03-4.21 4.2 2.04z"/>
      </g>
      <path d="M74.35 90.33c-2.31-1.55-16.88-13-19.41-22.19-1.48-5.36-1.93-11.41-.12-16.53A25.54 25.54 0 0160 42.67c-14.1 3.23-24.12 12-25.38 26-1.17 11.75 7.65 25.27 18 32.46 10.33 6.72 21 13.32 21 12.73 0-.07 3.49-22.15.83-23.49" fill="#cd372e"/>
      <g clip-path="url(#clip-path-2)" fill="#b0d235">
        <path d="M57.23 63.58l3.54-5.07 3.05 5.33L60.39 67l-3.16-3.42zM50.64 63.19l3.54-5.07 3.06 5.33-3.43 3.16-3.17-3.42zM44.06 62.8l3.54-5.07 3.05 5.33-3.43 3.17-3.16-3.43zM37.47 62.41l3.54-5.07 3.05 5.33-3.42 3.17-3.17-3.43zM30.88 62.02l3.54-5.07 3.06 5.33-3.43 3.17-3.17-3.43zM60.99 78.36l-1.15-6.08 5.95 1.55-.14 4.66-4.66-.13zM56.11 82.79l-1.15-6.07 5.95 1.54-.14 4.67-4.66-.14zM51.23 87.23l-1.16-6.07 5.95 1.54-.13 4.66-4.66-.13zM46.34 91.67l-1.15-6.08 5.95 1.55-.13 4.66-4.67-.13zM41.46 96.11l-1.15-6.08 5.95 1.55-.13 4.66-4.67-.13z"/>
      </g>
      <path d="M40.6 117.64c5.35.58 51.4.68 51-5.19-.44-6.06 3-9.94 0-13.08-3-3.46-47.47-5.16-48.72-2-1.26.38-6.75 18.28-2.25 20.31" fill="#ef4136"/>
      <g clip-path="url(#clip-path-3)" fill="#b0d235">
        <path d="M54.45 118.08l5.08 3.53-5.33 3.07-3.17-3.42 3.42-3.18zM54.82 111.5l5.08 3.53-5.33 3.06-3.17-3.42 3.42-3.17zM55.19 104.91l5.08 3.53-5.32 3.06-3.18-3.42 3.42-3.17zM55.56 98.32l5.08 3.53-5.32 3.07-3.18-3.42 3.42-3.18zM55.94 91.73l5.08 3.54-5.33 3.06-3.18-3.42 3.43-3.18zM72.99 118.08l5.08 3.53-5.32 3.07-3.18-3.42 3.42-3.18zM73.36 111.5l5.09 3.53-5.33 3.06-3.18-3.42 3.42-3.17zM73.73 104.91l5.09 3.53-5.33 3.06-3.17-3.42 3.41-3.17zM74.11 98.32l5.08 3.53-5.33 3.07-3.17-3.42 3.42-3.18zM74.48 91.73l5.08 3.54-5.33 3.06-3.17-3.42 3.42-3.18z"/>
      </g>
      <g clip-path="url(#clip-path-4)" fill="#b0d235">
        <path d="M75.66 62.07l5.51 2.81-4.87 3.75-3.61-2.96 2.97-3.6zM75.15 55.49l5.5 2.81-4.87 3.76-3.6-2.97 2.97-3.6zM74.63 48.91l5.51 2.82-4.87 3.75-3.6-2.97 2.96-3.6zM74.12 42.33l5.51 2.82-4.87 3.75-3.61-2.96 2.97-3.61zM73.61 35.75l5.5 2.82-4.86 3.75-3.61-2.96 2.97-3.61z"/>
      </g>
    </g>
  </g>
</svg>
