<svg xmlns="http://www.w3.org/2000/svg" viewBox="0 0 144 163.18">
  <g id="Layer_2" data-name="Layer 2">
    <g id="Layer_1-2" data-name="Layer 1">
      <path fill="#8ad5e7" d="M0 0h144v121.32H0z"/>
      <path d="M141.71 96.49V61.84h-3.06V56h-11.21v6.88h-8.66v35.65h-4.08V67.7h-25v46.37h-3.28V56H64.77v28.26h-3.06v-9.17H39v29.56h-3.53V39.42h-2.55v-7.13H20.69v7.64H7.7V96H4.13V56.24H0v65l144-.05v-24.7z" fill="#6aa4b3"/>
      <path fill="#a7a9ac" d="M0 110.06h144v53.12H0z"/>
      <path d="M35.35 128.78a9.78 9.78 0 109.77-9.78 9.77 9.77 0 00-9.77 9.77" fill="#414042"/>
      <path d="M41.13 128.78a4 4 0 104-4 4 4 0 00-4 4" fill="#fffef2"/>
      <path d="M92.14 127.21a9.78 9.78 0 109.77-9.77 9.78 9.78 0 00-9.77 9.77" fill="#414042"/>
      <path d="M97.93 127.21a4 4 0 104-4 4 4 0 00-4 4" fill="#fffef2"/>
      <path d="M81.19 94.35s10.39 16.89-.27 27.38H65.75s-6-6 0-12c0 0 1.86-1.28-.38-3.53H43.06s-13.65 6.19-13.65 16.8H54s.67 3.19 7.36 3.19h20.39c4.65 0 12.72-.53 13.07-9.53-2.67-8.8-11.09-23.52-11.09-23.52" fill="#be1e2d"/>
      <path d="M42.93 99.93h21.79a3.46 3.46 0 110 6.92H42.93a3.46 3.46 0 010-6.92M44.21 112.42A14.79 14.79 0 0159 127.21H29.41a14.8 14.8 0 0114.8-14.79M91.11 114.93a9.81 9.81 0 0113.86.75l-14.61 13.1a9.81 9.81 0 01.75-13.85" fill="#594a42"/>
      <path d="M93.69 89.89a2.28 2.28 0 00-2.18 1.61 5.16 5.16 0 000 10.28 2.29 2.29 0 004.49-.68v-8.91a2.29 2.29 0 00-2.3-2.3" fill="#414042"/>
      <path d="M81.47 94.64a2.92 2.92 0 00-2.78-1.08h-.13L72 94.77a1.37 1.37 0 11-.49-2.69l6.39-1.15.29-.06a5.7 5.7 0 015.33 2 1.36 1.36 0 01-.13 1.93 1.35 1.35 0 01-1.93-.13" fill="#be1e2d"/>
    </g>
  </g>
</svg>
