<svg xmlns="http://www.w3.org/2000/svg" viewBox="0 0 144 174.97">
  <g id="Layer_2" data-name="Layer 2">
    <g id="Layer_1-2" data-name="Layer 1">
      <path d="M132.28 55.66c-4.78-1.23-11.86 2.68-13.47 7.57a6.11 6.11 0 00-1.13 0c-1 .13-1.13 2-.38 2.52a13.4 13.4 0 001.25.78 3.5 3.5 0 002 3 2.16 2.16 0 002.65-1.25 7.56 7.56 0 003.94-.23 11 11 0 006.56-7.69c.34-1.33.45-4.21-1.37-4.69" fill="#f1f2f2"/>
      <path fill="#addedc" d="M0 0h144v174.97H0z"/>
      <path d="M144 175v-64.41C69.52 78.64 16.25 113.28 0 126.28V175z" fill="#afd24d"/>
      <path d="M112.52 120.46c0 5.1-15.92 9.23-35.56 9.23s-35.57-4.13-35.57-9.23 15.93-9.22 35.57-9.22 35.56 4.13 35.56 9.22" fill="#7ba541"/>
      <path d="M61.28 101.71A2.64 2.64 0 0059.42 99a4.34 4.34 0 000-3.74 3.34 3.34 0 00-1.82-2c0-.48-.07-1-.1-1.42-.13-2-.12-8.72-3.24-8.71-2.17 0-3 1.95-3.39 4.1a30.15 30.15 0 00-1.83 5.61 1.1 1.1 0 00-.35-.2 2.64 2.64 0 00.37-1.23c.64-.8-.06-2.69-1-2.23a1.48 1.48 0 00-.35-.09 1.16 1.16 0 00-.89.35 5.09 5.09 0 00-.69 1 2.53 2.53 0 00-.29 1.87 1 1 0 00.05.16 1.09 1.09 0 000 .26 1.43 1.43 0 00-.37.62c-.7 2.46-.15 4.2 1.44 5.11-1 1.09-2.18 2.1-2.09 3.87a4.91 4.91 0 00.71 2.47 4.32 4.32 0 00-1.07 3 2.79 2.79 0 001.49 2.71c-.15.32-.29.65-.43 1-.24.62-.11 2.64 1 2.45a7.78 7.78 0 001.86 5.54c1.91 1.95 5.72.3 7.68-.29 1.4-.42 1.75-4.25 1.86-7.32a1.6 1.6 0 00.73-.3 1.78 1.78 0 00.79-1.66 5.91 5.91 0 00-.26-1.23 4 4 0 001.45-3 3.34 3.34 0 00-.32-1.45 5.73 5.73 0 00.75-2.54" fill="#bcbec0"/>
      <path d="M56.21 113.24c-.72.23-1.44.45-2.17.66a21.12 21.12 0 01-4.4.62 10.83 10.83 0 01-2.89-.24 7.5 7.5 0 001.85 5.25c1.91 2 5.72.31 7.68-.28 1.2-.36 1.62-3.22 1.79-6a2.54 2.54 0 00-1.86-.05" fill="#9b8579"/>
      <path d="M97.43 105.7a3.34 3.34 0 00-.32-1.45 5.73 5.73 0 00.75-2.54A2.64 2.64 0 0096 99a4.34 4.34 0 000-3.74 3.34 3.34 0 00-1.82-2c0-.47-.07-1-.1-1.42-.13-2-.12-8.72-3.24-8.7-2.17 0-3 1.94-3.39 4.09a30.15 30.15 0 00-1.83 5.61 1 1 0 00-.5-.25 6.38 6.38 0 00-2-.15 1.19 1.19 0 00-1 .89c-.7 2.46-.14 4.21 1.44 5.11-1 1.09-2.18 2.11-2.09 3.87a4.91 4.91 0 00.72 2.47 4.33 4.33 0 00-1.08 3 2.78 2.78 0 001.5 2.71c-.16.32-.3.65-.43 1-.25.62-.11 2.64 1 2.45a7.73 7.73 0 001.85 5.54c1.91 1.95 5.72.3 7.69-.29 1.39-.42 1.74-4.25 1.85-7.32a1.69 1.69 0 00.73-.29 1.81 1.81 0 00.79-1.67 6.05 6.05 0 00-.26-1.23 4 4 0 001.45-3" fill="#bcbec0"/>
      <path d="M92.79 113.24c-.72.23-1.44.45-2.17.66a21 21 0 01-4.39.62 10.87 10.87 0 01-2.9-.24 7.54 7.54 0 001.85 5.26c1.91 1.95 5.72.3 7.69-.29 1.19-.36 1.62-3.22 1.79-6a2.57 2.57 0 00-1.87-.05" fill="#9b8579"/>
      <path d="M120.25 59.31a7.58 7.58 0 00-2.38-2.43c-.6-.69-1.26-1.36-2-2.06-1.5-1.53-3.3-.69-4.89.18-3-4.54-9.22-4.15-13.77-1.43-2.6-3.25-7.13-2.9-10.94-1a4.86 4.86 0 00-4.41-3 7.76 7.76 0 00-4.75.95c-2.47-3-6.68-2.93-9.82-.43-2.36-1.63-6.23-.78-8.7 1.26a5.25 5.25 0 00-7.77 1.29A25.41 25.41 0 0048.93 56c-.47-.26-1-.14-1.63.66-1.87 2.44-2 5.56-2.17 8.66-.17 2.49-.68 6.45.25 9.14a15.65 15.65 0 00-.1 1.85.76.76 0 00-.21.14C42.6 79 43 82 45.3 83.37c-.86 2.72.37 5.9 2.76 7a4.46 4.46 0 00.65 3.87c1.31 1.9 3.67 2.09 5.65 1.31a6.14 6.14 0 001.85 4.4c1.9 1.61 3.36 1 4.7-.22a5.58 5.58 0 003.14 3.23 9 9 0 006.21.06l.26.08a5.33 5.33 0 001.94 2.31 6.25 6.25 0 006.75-.22c.54.09 1.07.16 1.61.22a7.36 7.36 0 003.81 2.85c2.23.63 3.69-1.19 5-2.76h.5c1 1.52 2.1 3 4.19 2.44a5.74 5.74 0 004.08-3.42c1.4 1.07 3.15 2.27 4.74 1.38 2.82-1.58 3.68-3.34 4.8-6 4.72 1.89 8.47-1.76 8.75-6.42a24.45 24.45 0 004.56-10.75c.82-4.07.68-8.38.93-12.51.22-3.83.09-7.48-2-10.84" fill="#e6e7e8"/>
      <path d="M50.54 88.16a9.14 9.14 0 003.86-3.74c1.81-.26 3.61-.56 5.39-.8 3.31-.44 6.43-1.09 9.06-3a6.07 6.07 0 001.8-1.94c.52-.5 1-1 1.54-1.6 1.13-1.23.2-2.29-.73-3.2 3.53-2.66 2.47-6.7-.41-9.28 2.48-2.22 1.64-5.14-.39-7.37 1.32-.85 2.22-1.76 2-3.37a4.26 4.26 0 00-1.38-3 4.08 4.08 0 001.41-2.69 7.93 7.93 0 00-5.39 1.81c-2.36-1.63-6.23-.78-8.7 1.26a5.25 5.25 0 00-7.77 1.29 26.57 26.57 0 00-1.9 3.47c-.47-.26-1-.14-1.63.66-1.87 2.44-2 5.56-2.17 8.66-.17 2.49-.68 6.45.25 9.14a15.65 15.65 0 00-.1 1.85.61.61 0 00-.2.14C42.6 79 43 82 45.3 83.37a6.16 6.16 0 00.41 4.63 2.16 2.16 0 001.29-.75c.58 1.16 1.66 1.74 3.56.91" fill="#e0e1e2"/>
      <path d="M71.05 59.47c2.48-2.21 1.64-5.14-.39-7.37 1.32-.85 2.21-1.75 2-3.36a4.24 4.24 0 00-1.38-3c2.25-2.09 1.72-4.85-.79-6.53 1.12-1.81-.07-4.23-2.11-5.54 1.41-1.71.6-4.13-2-4.92a25.69 25.69 0 00-3.15-.75c.17-.35 0-.69-.76-1-2.31-.86-5-.44-7.67-.1-2.15.28-5.61.55-7.81 1.57-.51.05-1 .12-1.6.22a.42.42 0 00-.14-.11c-2.47-1.23-5-.52-5.89 1.21-2.43-.15-5 1.15-5.63 2.89a4.9 4.9 0 00-3.25 1 2.65 2.65 0 00-.48 4 6.22 6.22 0 00-3.55 1.89c-1.16 1.5-.42 2.36.75 3.06a4.46 4.46 0 00-2.4 2.57 4.74 4.74 0 00.68 4.1 1.16 1.16 0 010 .18 4.52 4.52 0 00-1.75 1.64c-1 1.62-.31 3.25 1 4.41v1.09a5.28 5.28 0 00-2 3c-.28 1.56 1.45 2.25 3 2.88 0 .11.06.21.1.32-1.18.91-2.31 1.85-1.6 3.13a4.33 4.33 0 003.42 2.17c-.81 1.03-1.65 2.37-.65 3.28 1.68 1.61 3.3 1.91 5.69 2.24-.64 2 .38 3.51 2.15 4.28-.13.32-.25.63-.35.91-.38 1.12 0 4.09 1.82 3.4A2.87 2.87 0 0038.23 80c.63 1.61 1.35 3.2 3 3.36.87.08 1.22-1.06 1.31-1.81a3.92 3.92 0 002.89 1.25 2.1 2.1 0 001.57-.73c.58 1.16 1.66 1.75 3.55.91a9 9 0 003.87-3.73c1.81-.26 3.61-.57 5.39-.8 3.31-.44 6.43-1.1 9.06-3a6 6 0 001.8-2c.52-.5 1-1 1.54-1.59 1.13-1.23.2-2.29-.73-3.2 3.53-2.66 2.47-6.71-.41-9.29" fill="#f1f2f2"/>
      <path d="M68.57 30.28a6 6 0 001.12-7.44c-1.41-2.22-4.07-1.45-6-.41a8.62 8.62 0 00-2.9 2.57c-.12-.12-.22-.25-.35-.36C54 18.86 44 20.31 37.92 25.69a7.35 7.35 0 00-2.64-3.47 9.5 9.5 0 00-8-1.31c-1.89.67-1.82 4.54-.34 5.55 1.71 1.18 2.84 3 4.57 4.13a7.13 7.13 0 002 .84v.25a14 14 0 00-.93 3.6c-.42 1.74-.78 3.49-1.2 5.21-1.05 4.37-.36 26.75 4.11 31.59s13.48 3.55 19.1 2c7.33-2 11.21-8.3 12.85-15.27 1.88-7.95.78-12.91.12-18.45a31.45 31.45 0 00-2.11-8.3l1.31-.2a2.2 2.2 0 001.75-1.6" fill="#6d6e71"/>
      <path d="M65.11 26.1a2 2 0 00-2.59.56 1.63 1.63 0 000 1.49.67.67 0 00.24.43c.34.22.33.66.46 1a2 2 0 00.94 1.24c1 .33 1.66-1 1.87-1.8.26-.93.06-2.49-.93-2.95M35.47 28.26c-.48-.94-1.92-2.61-3-1.49a1.49 1.49 0 000 1.88 1.84 1.84 0 001.2.87.58.58 0 00.09.21v-.11a1 1 0 00.07.15.37.37 0 00.58.1 3.58 3.58 0 01.88-.42 1 1 0 00.28-1.19" fill="#fcd4d4"/>
      <path d="M52.91 58.06c-.1-.08-.21 0-.24.1a6.23 6.23 0 01-1 2.49c-.68.81-1.81.36-2.49-.13s-.46-2-.49-2.74c-.07-1.33-1.49-1.31-1.43 0a3.73 3.73 0 01-1 2.9c-1.25 1.34-3.3.13-3.51-1.42-.11-.9-1.16-.86-1.24 0-.23 2.41 1.36 4.41 3.89 4.13a3.11 3.11 0 002.31-1.69 3.37 3.37 0 00.34.43 3.22 3.22 0 003.46.9c1.62-.5 2.79-3.87 1.39-5" fill="#414042"/>
      <path d="M49.94 54c-.08-.4-.34-.86-.8-.88a14.34 14.34 0 00-4.54 1 .71.71 0 00-.4.51c-.6 1.76 1.22 3.41 2.79 3.67 2.23.36 3.27-2.67 3-4.37M44 44.93c-.85-.45-1.71.38-2.09 1a5.18 5.18 0 00-.43 3.22c0 .36.13.81.51 1s.76-.36.8-.72.08-2.39.86-2.21c.22.06.31.32.38.59 0 .09.05.18.06.26s0 .27 0 .26V48.55c-.07.43 0 1.09.51 1.27s.74-.38.82-.75c.32-1.37-.17-3.46-1.48-4.15M49.59 44.09c-1.18-.42-1.68 1.21-1.79 2v1.12a.28.28 0 010 .08 3.54 3.54 0 00.2 1.62.35.35 0 00.66.07 4.14 4.14 0 00.6-1.44 2.81 2.81 0 01.33-1.07c0 .05 0 .05.1 0a.08.08 0 00.06 0 .87.87 0 01.3.36 2.78 2.78 0 01.28 1.39c0 .63.84 1.27 1.06.4.38-1.43-.18-4-1.77-4.55" fill="#414042"/>
      <path d="M69.45 112.22a3.34 3.34 0 00-.32-1.45 5.73 5.73 0 00.75-2.54 2.63 2.63 0 00-1.86-2.7 4.34 4.34 0 000-3.74 3.34 3.34 0 00-1.82-2c0-.48-.07-1-.1-1.42-.13-2-.12-8.72-3.24-8.71-2.17 0-3 2-3.39 4.1a30.15 30.15 0 00-1.83 5.61 1 1 0 00-.5-.25 6.38 6.38 0 00-2-.15c-.46 0-.84.48-1 .89-.7 2.46-.14 4.21 1.44 5.11-1 1.09-2.18 2.1-2.09 3.87a4.91 4.91 0 00.71 2.47 4.37 4.37 0 00-1.08 3 2.8 2.8 0 001.51 2.71c-.16.32-.3.65-.43 1-.25.62-.11 2.64 1 2.45a7.78 7.78 0 001.86 5.54c1.91 1.95 5.72.3 7.68-.29 1.4-.42 1.75-4.25 1.86-7.32a1.6 1.6 0 00.73-.3 1.78 1.78 0 00.79-1.66 5.91 5.91 0 00-.26-1.23 4 4 0 001.45-3" fill="#e6e7e8"/>
      <path d="M64.81 119.76c-.72.23-1.44.45-2.17.66a21.12 21.12 0 01-4.4.62 10.83 10.83 0 01-2.89-.24 7.54 7.54 0 001.85 5.26c1.91 1.95 5.72.3 7.68-.29 1.2-.36 1.63-3.22 1.79-6a2.54 2.54 0 00-1.86 0" fill="#9b8579"/>
      <path d="M106 112.22a3.34 3.34 0 00-.32-1.45 5.73 5.73 0 00.75-2.54 2.64 2.64 0 00-1.86-2.7 4.34 4.34 0 000-3.74 3.34 3.34 0 00-1.82-2c0-.47-.07-1-.1-1.42-.12-2-.11-8.72-3.24-8.7-2.17 0-3 1.94-3.39 4.09a30.15 30.15 0 00-1.83 5.61 1 1 0 00-.5-.25 6.38 6.38 0 00-2-.15 1.19 1.19 0 00-1 .89c-.7 2.46-.14 4.21 1.44 5.11-1 1.09-2.18 2.11-2.09 3.87a4.91 4.91 0 00.72 2.47 4.35 4.35 0 00-1.08 3 2.78 2.78 0 001.5 2.71c-.16.32-.3.66-.43 1-.25.62-.11 2.64 1 2.45a7.71 7.71 0 001.85 5.54c1.91 1.95 5.72.3 7.69-.29 1.39-.42 1.74-4.25 1.85-7.32a1.69 1.69 0 00.73-.29 1.81 1.81 0 00.79-1.67 6.05 6.05 0 00-.26-1.23 4 4 0 001.45-3" fill="#e6e7e8"/>
      <path d="M101.39 119.76c-.72.23-1.44.45-2.17.66a21.12 21.12 0 01-4.4.62 10.83 10.83 0 01-2.89-.24 7.54 7.54 0 001.85 5.26c1.91 1.95 5.72.3 7.68-.29 1.2-.36 1.63-3.22 1.8-6a2.57 2.57 0 00-1.87 0" fill="#9b8579"/>
      <path d="M57.81 17.86a2.7 2.7 0 00-1.33-1c-.93-2.66-4.37-4.85-6.4-2-1-.47-2.12.09-3 1.11-1.68-1.6-3.21-1.06-4.16.28-1.71-.52-4.07.95-5.56 2.64a4.9 4.9 0 00-.53 5.49 2.52 2.52 0 001.7 1.1c.13 1.62.73 3.13 1.82 3.62 1.32.6 2.84-.55 4.13-1.75 1.22.78 2.79 1.44 3.8.35a6.55 6.55 0 00.72-.94.84.84 0 00.44.12 4.49 4.49 0 003-1.34c1 2.05 2.59 4.22 4.64 2.12a2.7 2.7 0 00.82-1.82 2.12 2.12 0 00.62.61.88.88 0 001.18 0 3.39 3.39 0 00.91-3.85c1.81-2.3.25-6.52-2.82-4.64" fill="#e6e7e8"/>
    </g>
  </g>
</svg>
