<svg xmlns="http://www.w3.org/2000/svg" viewBox="0 0 144 164.18">
  <g id="Layer_2" data-name="Layer 2">
    <g id="Layer_1-2" data-name="Layer 1">
      <path fill="#1c75bc" d="M0 1h144v163.18H0z"/>
      <path fill="#8ad5e7" d="M0 0h144v126.2H0z"/>
      <path d="M72.79 66.21H65.7l-1.6 16.43h11.49c.08-1 .13-1.9.13-2.87a32.64 32.64 0 00-2.93-13.56M56.36 66.21h-7.09l-1.61 16.43h11.49c.09-1 .14-1.9.14-2.87a32.8 32.8 0 00-2.93-13.56" fill="#414042"/>
      <path fill="#fff" d="M83.15 75.41H41.34L34.3 91.99h53.44l-4.59-16.58z"/>
      <path d="M99.11 82.64h-68l-12.64 36.47h26.47a19.28 19.28 0 0020.17 4.63 19.26 19.26 0 0020.16-4.63h26.47z" fill="#fff"/>
      <path d="M97.3 99.67l-2.73 7L8.45 109l4.1 16.72c.19.15 13.28.31 13.47.46h94a62.78 62.78 0 0020.49-30.06zM85.12 82.64l-1.32-4.71H73.39v4.71h11.73zM34.48 87.25H29.5l-2.17 6.27h7.15v-6.27zM90.84 93.52h12.04l-2.17-6.27h-9.87v6.27zM79.22 87.24h10.36v6.28H79.22zM68.8 87.24h9.16v6.28H68.8zM57.78 87.24h9.76v6.28h-9.76zM46.76 87.24h9.76v6.28h-9.76zM35.73 87.24h9.76v6.28h-9.76z" fill="#27aae1"/>
      <path d="M72.79 66.21H65.7l-.24 2.44h8.32c-.3-.83-.63-1.65-1-2.44M49.27 66.21L49 68.65h8.32c-.3-.83-.63-1.65-1-2.44z" fill="#ed1c24"/>
      <path d="M97.83 117.24a2.21 2.21 0 11-2.2-2.21 2.2 2.2 0 012.2 2.21M88.81 117.24a2.21 2.21 0 11-2.2-2.21 2.2 2.2 0 012.2 2.21M79.79 117.24a2.2 2.2 0 11-2.2-2.21 2.19 2.19 0 012.2 2.21M70.78 117.24a2.21 2.21 0 11-2.21-2.24 2.2 2.2 0 012.21 2.21M61.76 117.24a2.21 2.21 0 11-2.21-2.24 2.2 2.2 0 012.21 2.21M52.74 117.24a2.21 2.21 0 11-2.2-2.21 2.2 2.2 0 012.2 2.21M43.72 117.24a2.21 2.21 0 11-2.2-2.21 2.19 2.19 0 012.2 2.21M34.7 117.24a2.2 2.2 0 11-2.2-2.24 2.19 2.19 0 012.2 2.21" fill="#27aae1"/>
    </g>
  </g>
</svg>
