<svg xmlns="http://www.w3.org/2000/svg" viewBox="0 0 144 175">
  <g id="Layer_2" data-name="Layer 2">
    <g id="Layer_1-2" data-name="Layer 1">
      <path fill="#fff" d="M0 0h144v175H0z"/>
      <path d="M96.91 44.84c-1.26.24-2.52.47-3.79.67a125.41 125.41 0 01-27.66 1.22c-5.86-.37-11.63-1.3-17.41-2.13-4.73 19.84-36.33 82.14-30.75 84.15 6.14 2.22 12 .45 15.34 3.77s8.43 5.53 16 3.76 7.27-4.65 7.56-1.77 2 3.47 11.11 2.4 6.44-5.94 14.92-3.51 17.55 4.87 21.94 1.11 0-3.54 10.53-3.54 14.3-2.88 14.3-2.88a467.65 467.65 0 00-30.68-79.68 22.92 22.92 0 01-1.41-3.57" fill="#d36e78"/>
      <path d="M114.7 131c-4.24.18-15.27-41.83-21.18-53.9s12.84 55.07 10.65 57.45c4.39-3.76 0-3.55 10.53-3.55M40.19 88.69c1.33-5.15-9.27 17.45-13.35 41.62 2.29.26 4.29.72 5.8 2.21-5.31-4 7.55-43.83 7.55-43.83M51.31 135.5c3.29-1.51 10-81.24 10.89-69.39S56 133.32 56 133.32M74 84.66c-2.66-9.37 1.55 48.59-1.17 50.59 2.93-1.65 3.4-3.57 9.38-1.85 1.47.42 3 .84 4.44 1.23-4.62-1.1-10-40.58-12.65-50M98.83 49.44l-.51-1a22.92 22.92 0 01-1.41-3.57c-1.26.24-2.52.47-3.79.67a125.41 125.41 0 01-27.66 1.22c-5.86-.37-11.63-1.3-17.41-2.13-.34 1.41-.81 3-1.4 4.84s26 6.72 52.18 0" fill="#c16371"/>
    </g>
  </g>
</svg>
