<svg xmlns="http://www.w3.org/2000/svg" viewBox="0 0 144 175">
  <defs>
    <clipPath id="clip-path">
      <path fill="none" d="M5.91 79.84h20.66v35.34H5.91z"/>
    </clipPath>
    <clipPath id="clip-path-2">
      <path fill="none" d="M37.26 88.83h17.59v30.09H37.26z"/>
    </clipPath>
    <clipPath id="clip-path-3">
      <path fill="none" d="M110.66 92.89h16.16v27.65h-16.16z"/>
    </clipPath>
    <clipPath id="clip-path-4">
      <path fill="none" d="M84.92 106.43h12.05v20.61H84.92z"/>
    </clipPath>
    <clipPath id="clip-path-5">
      <path fill="none" d="M63.28 111.47H72v14.91h-8.72z"/>
    </clipPath>
  </defs>
  <g id="Layer_2" data-name="Layer 2">
    <g id="Layer_1-2" data-name="Layer 1">
      <path fill="#70cbce" d="M0 0h144v137.59H0z"/>
      <g clip-path="url(#clip-path)" opacity=".4">
        <path d="M21 99.48c2.15-.17 3.75-.49 4-1 .39-.84-2.69-5.06-5.32-8.42 1.67-.13 2.91-.37 3.08-.74.5-1.07-6.58-9.51-6.58-9.51s-8.48 9.1-6.08 9.85a13.11 13.11 0 002.29.36c-3 3.62-6.33 8.3-4.39 8.9a16.34 16.34 0 003 .48c-3.26 4.07-6.48 8.82-4.37 9.48a33.61 33.61 0 007.28.78v5.49h4.56v-5.47c4.12-.1 7.73-.52 8.1-1.32s-2.6-5.16-5.49-8.91" fill="#43797b"/>
      </g>
      <g clip-path="url(#clip-path-2)" opacity=".4">
        <path d="M50.14 105.56c1.84-.15 3.19-.42 3.38-.83.34-.72-2.29-4.3-4.52-7.16 1.41-.11 2.47-.32 2.62-.63C52 96 46 88.83 46 88.83s-7.22 7.75-5.17 8.39a10.16 10.16 0 001.95.31c-2.54 3.08-5.4 7.07-3.74 7.58a13.67 13.67 0 002.51.41C38.78 109 36 113 37.83 113.59a29.48 29.48 0 006.2.66v4.68h3.89v-4.66c3.5-.09 6.58-.45 6.9-1.13s-2.22-4.39-4.68-7.58" fill="#43797b"/>
      </g>
      <g clip-path="url(#clip-path-3)" opacity=".4">
        <path d="M122.5 108.26c1.68-.14 2.93-.39 3.11-.76.3-.66-2.11-4-4.17-6.59 1.31-.1 2.28-.29 2.41-.58.39-.84-5.15-7.44-5.15-7.44s-6.63 7.12-4.75 7.7a9 9 0 001.79.29c-2.33 2.83-5 6.49-3.44 7a13.22 13.22 0 002.31.37c-2.55 3.19-5.07 6.9-3.42 7.42a27.5 27.5 0 005.69.61v4.29h3.58v-4.28c3.22-.08 6.05-.41 6.33-1s-2-4-4.29-7" fill="#43797b"/>
      </g>
      <g clip-path="url(#clip-path-4)" opacity=".4">
        <path d="M93.74 117.89c1.26-.11 2.19-.29 2.32-.57.22-.5-1.57-2.95-3.1-4.91 1-.08 1.69-.22 1.79-.43.29-.63-3.84-5.55-3.84-5.55s-4.94 5.31-3.54 5.74a7.12 7.12 0 001.33.21c-1.73 2.12-3.69 4.84-2.56 5.19a9.41 9.41 0 001.72.28c-1.9 2.38-3.78 5.15-2.55 5.53a20.42 20.42 0 004.25.46V127h2.66v-3.19c2.4-.06 4.51-.31 4.72-.77s-1.51-3-3.2-5.19" fill="#43797b"/>
      </g>
      <g clip-path="url(#clip-path-5)" opacity=".4">
        <path d="M69.67 119.76c.91-.07 1.58-.21 1.67-.41.17-.36-1.13-2.13-2.24-3.55.7-.06 1.23-.16 1.3-.31.21-.46-2.78-4-2.78-4s-3.58 3.84-2.56 4.16a6.08 6.08 0 001 .15c-1.25 1.53-2.67 3.5-1.85 3.76a7.25 7.25 0 001.24.2c-1.37 1.72-2.73 3.72-1.84 4a14.83 14.83 0 003.07.33v2.31h1.93v-2.31c1.73 0 3.26-.21 3.41-.55s-1.09-2.18-2.31-3.76" fill="#43797b"/>
      </g>
      <path d="M0 116.87s25.67-8 49.67 0 20-11.33 46 0 32.67-10.32 48.33-.87v59H0z" fill="#fff"/>
      <path d="M19.68 111c4.08-2.13 13.42 2.1 18.25 10.19s-16.08 6.21-17.33 1.48" fill="#00707c"/>
      <path d="M108.73 127.5c-.14 4.5-1.46 8.83-5.56 11.18A18.88 18.88 0 0195 140.8c.62-2.13 1.58-6.9 1-9.34h6.89a1.54 1.54 0 100-3.08H48.42a1.54 1.54 0 100 3.08h6.06c1.49 3.17 1.91 6.68 3 10-2.31 0-4.63-.07-6.94-.2-1.24-.07-1.23 1.85 0 1.92 7.85.44 15.71.11 23.57-.13 6.21-.19 12.42 0 18.63-.22 4.25-.14 8.82-.66 12.42-3.12 4-2.75 5.35-7.55 5.48-12.2a1 1 0 00-1.91 0M76.15 141a.28.28 0 000 .09l-3.26.08c-4.46.14-8.92.29-13.39.3v-.15c-1.14-3.25-1.61-6.67-2.9-9.85h19.72c-.07 3.19.58 6.42-.17 9.53m14.79-.05c-4.29.07-8.57.06-12.85.11.64-3.18 0-6.39.09-9.59H93.7a.75.75 0 00.43.39v.25a9.77 9.77 0 010 1.21 26.55 26.55 0 01-.31 3.08c-.14 1-.31 1.91-.5 2.86-.07.36-.32 1.44-.31 1.44a1.72 1.72 0 00-.07.21h-2" fill="#6f7577"/>
      <path d="M119 122.68a3.77 3.77 0 01-3.64 3.89h-93.3a3.9 3.9 0 010-7.78s97 1.75 97 3.89" fill="#0297a7"/>
      <path d="M126.53 125c-.23 7.87-2.54 15.43-9.71 19.55-4.27 2.45-9.3 3.34-14.3 3.7 1.08-3.72 2.77-12.07 1.76-16.33h12a2.69 2.69 0 100-5.38H21.11a2.69 2.69 0 000 5.38h10.6c2.59 5.57 3.29 11.72 5.29 17.5-4.05 0-8.1-.13-12.14-.36-2.16-.12-2.15 3.23 0 3.35 13.72.77 27.47.2 41.19-.22 10.86-.33 21.72 0 32.57-.39 7.44-.24 15.42-1.15 21.72-5.45 7.06-4.81 9.34-13.2 9.58-21.32.07-2.17-3.29-2.16-3.35 0m-56.98 23.58a1.1 1.1 0 000 .16c-1.89 0-3.79.07-5.69.13-7.8.25-15.6.51-23.4.53 0-.08 0-.17-.06-.26-2-5.67-2.81-11.66-5.06-17.22h34.5c-.11 5.57 1 11.22-.29 16.66m25.84-.08c-7.48.11-15 .09-22.45.18 1.11-5.55-.1-11.16.16-16.76h27.12a1.29 1.29 0 00.75.68c0 .11 0 .24.06.44a16.51 16.51 0 010 2.11 48.54 48.54 0 01-.55 5.38c-.24 1.68-.54 3.35-.87 5-.13.64-.55 2.52-.55 2.51a1.73 1.73 0 00-.11.37c-1.21 0-2.41.06-3.58.08" fill="#848b8c"/>
      <path d="M34.6 119c-6.09 0-13.5-4.66-14.5-7.66s-9.59 13.39 2.66 15.19" fill="#0297a7"/>
    </g>
  </g>
</svg>
