<svg xmlns="http://www.w3.org/2000/svg" viewBox="0 0 144.13 175.22">
  <g id="Layer_2" data-name="Layer 2">
    <g id="Layer_1-2" data-name="Layer 1">
      <path fill="#70cbce" d="M.06 0h144v175.22H.06z"/>
      <path d="M71.1 77.22l-7.78 4.49c-1 .6-2.67 1.19-2.67 2.62v9.32c0 1.2-.23 2.59 1 3.3l8.3 4.79 1.16.67a1.83 1.83 0 001.84 0l9.55-5.51a1.66 1.66 0 00.83-1.06 2.09 2.09 0 00.07-.51v-9.52a5.09 5.09 0 00-.25-2.43 4.67 4.67 0 00-1.81-1.31L78 80.16l-5.08-2.94a1.83 1.83 0 00-1.84 0" fill="#fff"/>
      <path d="M121 113.32l-12.37-7.14 10.28-2.75a4.11 4.11 0 00-2.13-7.93l-17.35 4.64V80.59v-1.1l17.33 4.65a4.11 4.11 0 002.13-7.94l-10.28-2.75L121 66.31a4.11 4.11 0 00-4.11-7.11l-12.36 7.14 2.75-10.27a4.11 4.11 0 00-7.94-2.13l-4.69 17.35L97 72.65 77 61.11l-.24-.11 12.7-12.7a4.11 4.11 0 10-5.81-5.81L76.13 50V35.69a4.11 4.11 0 10-8.22 0V50l-7.51-7.55a4.11 4.11 0 00-5.81 5.81L67.3 61 49.4 71.3l-4.65-17.36a4.11 4.11 0 00-7.93 2.13l2.75 10.27L27.2 59.2a4.11 4.11 0 00-4.11 7.11l12.37 7.14-10.27 2.75a4.11 4.11 0 102.13 7.94l17.36-4.66v20.69L27.32 95.5a4.11 4.11 0 10-2.13 7.93l10.27 2.75-12.37 7.14a4.11 4.11 0 004.11 7.12l12.37-7.14-2.75 10.27a4.1 4.1 0 107.93 2.12l4.65-17.35.23.13 8 4.59 9.71 5.61-12.71 12.7a4.11 4.11 0 005.81 5.81l7.51-7.52v14.28a4.11 4.11 0 008.22 0v-14.28l7.52 7.52a4.11 4.11 0 105.81-5.81l-12.7-12.7 16.2-9.35c.53-.3 1.12-.61 1.72-.93l4.63 17.29a4.11 4.11 0 107.94-2.12l-2.75-10.27 12.36 7.14a4.11 4.11 0 004.11-7.12m-30.37-12.75L72 111.3l-18.6-10.74V79.08L72 68.33l18.64 10.75z" fill="#fff"/>
    </g>
  </g>
</svg>
