<svg xmlns="http://www.w3.org/2000/svg" viewBox="0 0 144.02 175.04">
  <defs>
    <clipPath id="clip-path">
      <path fill="none" d="M37.28 116.58h17.59v30.09H37.28z"/>
    </clipPath>
    <clipPath id="clip-path-2">
      <path fill="none" d="M110.68 120.63h16.16v27.65h-16.16z"/>
    </clipPath>
    <clipPath id="clip-path-3">
      <path fill="none" d="M84.94 134.17h12.05v20.61H84.94z"/>
    </clipPath>
    <clipPath id="clip-path-4">
      <path fill="none" d="M63.3 139.21h8.72v14.92H63.3z"/>
    </clipPath>
  </defs>
  <g id="Layer_2" data-name="Layer 2">
    <g id="Layer_1-2" data-name="Layer 1">
      <path fill="#70cbce" d="M.02 0h144v165.34H.02z"/>
      <path d="M21.07 127.23c2.15-.18 3.74-.5 4-1 .39-.84-2.69-5-5.32-8.41 1.67-.13 2.92-.37 3.08-.74.5-1.08-6.58-9.52-6.58-9.52s-8.48 9.11-6.08 9.85a12.21 12.21 0 002.29.36c-3 3.63-6.33 8.3-4.39 8.91a15.78 15.78 0 003 .47c-3.26 4.08-6.48 8.83-4.37 9.48a34.12 34.12 0 007.28.79v5.49h4.56v-5.48c4.12-.1 7.73-.52 8.1-1.32s-2.6-5.16-5.48-8.9" fill="#43797b"/>
      <g clip-path="url(#clip-path)" opacity=".7">
        <path d="M50.16 133.31c1.84-.15 3.19-.43 3.38-.83.34-.72-2.29-4.31-4.52-7.17 1.41-.11 2.47-.31 2.62-.63.42-.91-5.61-8.1-5.61-8.1s-7.22 7.75-5.17 8.38a9.42 9.42 0 002 .31c-2.54 3.09-5.4 7.07-3.74 7.59a13.82 13.82 0 002.51.4c-2.78 3.47-5.52 7.52-3.73 8.07a28.67 28.67 0 006.2.67v4.67h3.89V142c3.5-.08 6.58-.44 6.9-1.12s-2.22-4.39-4.68-7.58" fill="#43797b"/>
      </g>
      <g clip-path="url(#clip-path-2)" opacity=".7">
        <path d="M122.52 136c1.69-.14 2.93-.39 3.11-.77.3-.66-2.11-4-4.16-6.58 1.3-.1 2.27-.29 2.4-.58.39-.84-5.15-7.45-5.15-7.45s-6.63 7.13-4.75 7.71a9.08 9.08 0 001.79.28c-2.33 2.84-5 6.5-3.44 7a12.33 12.33 0 002.31.37c-2.55 3.19-5.07 6.91-3.42 7.42a26.19 26.19 0 005.7.61v4.3h3.57V144c3.22-.08 6-.41 6.34-1s-2-4-4.3-7" fill="#43797b"/>
      </g>
      <g clip-path="url(#clip-path-3)" opacity=".5">
        <path d="M93.76 145.63c1.26-.1 2.19-.29 2.32-.57.22-.49-1.57-2.95-3.1-4.91 1-.07 1.69-.21 1.79-.43.29-.62-3.84-5.55-3.84-5.55s-4.94 5.31-3.54 5.75a7.12 7.12 0 001.33.21C87 142.24 85 145 86.16 145.32a9.41 9.41 0 001.72.28c-1.9 2.37-3.78 5.14-2.55 5.53a19.9 19.9 0 004.25.45v3.2h2.66v-3.19c2.4-.06 4.51-.3 4.72-.77s-1.51-3-3.2-5.19" fill="#43797b"/>
      </g>
      <g clip-path="url(#clip-path-4)" opacity=".2">
        <path d="M69.69 147.51c.91-.08 1.58-.21 1.68-.42s-1.14-2.13-2.25-3.55c.7 0 1.23-.16 1.3-.31.21-.45-2.78-4-2.78-4s-3.58 3.85-2.56 4.16a4.39 4.39 0 001 .15c-1.25 1.53-2.67 3.51-1.85 3.76a7.25 7.25 0 001.24.2c-1.37 1.72-2.73 3.73-1.84 4a14.16 14.16 0 003.07.33v2.32h1.93v-2.31c1.74 0 3.26-.22 3.42-.56s-1.1-2.17-2.32-3.75" fill="#43797b"/>
      </g>
      <path d="M0 144.62s25.67-8 49.67 0 20-11.33 46 0 32.67-10.33 48.33-.83V175H0z" fill="#fff"/>
      <path d="M107.26 118.51c0 19.9-15.77 36-35.24 36s-35.24-16.12-35.24-36 15.78-36 35.24-36 35.24 16.12 35.24 36" fill="#fff"/>
      <path d="M53.75 79.25c-1.81.59-5.44 3.56-2.47 5.68s-5.28 6.56-.91 8.21 26.77 13.08 44-3.58c1.27-1.23-2.49-3.21-2.64-4.63s2-6.38-2.5-5.17" fill="#f15a29"/>
      <path d="M95.9 62.9c0 13.47-10.69 24.4-23.9 24.4S48.15 76.37 48.15 62.9 58.84 38.5 72 38.5a24.14 24.14 0 0123.9 24.4" fill="#fff"/>
      <path d="M73 101.48s-5.5 2.94-4 5.06 5.88.64 6.29-1.21.36-3.2-2.31-3.85M74.5 114.93s-6-1.56-6.36 1 3.89 4.46 5.45 3.37 2.43-2.1.91-4.39M74.71 130.4s-5.73-2.45-6.43.06 3.17 5 4.87 4.15 2.72-1.71 1.56-4.21M57.1 71.1a1.66 1.66 0 01-1.17 2.74c-1.57 0-2.32-.5-2.16-1.55a2 2 0 013.33-1.19M60.86 74.38a1.67 1.67 0 01-1.17 2.74c-1.57 0-2.33-.5-2.16-1.55a2 2 0 013.33-1.19M65.73 76.51a1.66 1.66 0 01-1.17 2.74c-1.56 0-2.32-.5-2.15-1.56a2 2 0 013.32-1.18M71.68 77.26A1.66 1.66 0 0170.51 80c-1.56 0-2.32-.5-2.15-1.56a2 2 0 013.32-1.18M77.06 76.51a1.66 1.66 0 01-1.17 2.74c-1.57 0-2.32-.5-2.16-1.56a2 2 0 013.33-1.18M83.09 74.38a1.66 1.66 0 01-1.17 2.74c-1.57 0-2.32-.5-2.16-1.55a2 2 0 013.33-1.19M87.59 70.38a1.66 1.66 0 01-1.17 2.74c-1.57 0-2.32-.5-2.16-1.55a2 2 0 013.33-1.19M67.83 59.59c0 2.89-1.62 5.22-3.62 5.22s-3.63-2.33-3.63-5.22 1.63-5.22 3.63-5.22 3.62 2.34 3.62 5.22M78.78 59.59c0 2.89-1.62 5.22-3.62 5.22s-3.63-2.33-3.63-5.22 1.62-5.22 3.63-5.22 3.62 2.34 3.62 5.22" fill="#78909c"/>
      <path d="M68.85 66.55c-1 .15-17.83 8-19 10.25s1.29.41 3.88 0 1.24.25 3.16-.42 12.5-4.31 13.59-5 2.25-5.42-1.67-4.84" fill="#f7941d"/>
      <path d="M54.87 95S47 102.83 47 116.58c0 1.25 11.17 2 11.5-2.12s-.82-14.08 2.77-17.46" fill="#f15a29"/>
      <path d="M47.53 116.58s-.76 3 0 3.26.64-3.15.64-3.15M50.1 116.88s-.76 3 0 3.25.64-3.14.64-3.14M53.5 116.37s-.76 3 0 3.26.64-3.15.64-3.15M56.57 115.94s-.77 3 0 3.25.63-3.14.63-3.14" fill="#f15a29"/>
      <path d="M40.44 106.33l-.17-.07a2.21 2.21 0 00-.47-.18c-.2-.06-.39-.09-.66-.18s-.56-.16-.88-.27a19.7 19.7 0 01-2.1-.83 20.47 20.47 0 01-2.26-1.27 16.81 16.81 0 01-2.08-1.63 10.58 10.58 0 01-.82-.9 8.23 8.23 0 01-.71-.9 6.75 6.75 0 01-.87-1.58 5.64 5.64 0 01-.18-.7l.16-.12.41.43c.28.26.71.6 1.23 1 1.05.8 2.52 1.77 4 2.73s2.94 2 4 2.78a9.11 9.11 0 011.23 1.09 2.61 2.61 0 01.28.35l.09.13z" fill="#726659"/>
      <path d="M34.27 95s-3.48-7.24-7.68-7.66-6.44 10.32 3.31 18.32c0 0 10.63-3.93 8.25-13C37 88.37 34.27 95 34.27 95" fill="#f15a29"/>
      <path d="M103.34 106.21v-.18a1.45 1.45 0 01.1-.51 4.78 4.78 0 01.37-.76 5.82 5.82 0 01.55-.85 12.3 12.3 0 011.6-1.78 17.68 17.68 0 012.08-1.61 19.45 19.45 0 012.24-1.26c.36-.19.73-.33 1.08-.48s.68-.27 1-.38.61-.21.87-.29.5-.16.7-.22l.64-.2.15.12-.4.47a14.94 14.94 0 01-1.2 1.09c-1.05.83-2.51 1.83-4 2.82s-3 1.92-4 2.7a12.43 12.43 0 00-1.23 1 2.32 2.32 0 00-.29.33 1 1 0 00-.1.13z" fill="#726659"/>
      <path d="M109.68 95s3.48-7.24 7.68-7.66 6.44 10.32-3.31 18.32c0 0-10.63-3.93-8.25-13 1.12-4.25 3.88 2.34 3.88 2.34" fill="#f15a29"/>
    </g>
  </g>
</svg>
