<svg xmlns="http://www.w3.org/2000/svg" viewBox="0 0 144 175">
  <g id="Layer_2" data-name="Layer 2">
    <g id="Layer_1-2" data-name="Layer 1">
      <path fill="#fff" d="M0 0h144v175H0z"/>
      <path d="M120.91 66.64c-2.68-5.48.87-18.61-1.49-23.65l-27.86-4.22s-5.48 28.45-10.31 32c-3.79 2.79-14 17.8-29.76 35.37-.53.55-1 1.1-1.5 1.66-8.88 10.31-9.15 20.91-3.43 26.28a14.3 14.3 0 009.72 3.57C71.07 138 85 120.79 85 120.79c11.82-11.86 14.27-17.51 25.65-19.79 13.28-2.68 13.76-27.25 10.27-34.36" fill="#bdcc7b"/>
      <path d="M43.69 118.62c-2 6.35-.82 12 2.87 15.47a14.3 14.3 0 009.72 3.57c6.62.13 13-3.23 18.15-7-4.85-5.42-13.76-9.85-24.38-11.46a54.36 54.36 0 00-6.36-.6M122.45 72.62a19.49 19.49 0 00-16 29.51 29.78 29.78 0 014.19-1.13c10.65-2.14 13.06-18.36 11.81-28.38M119.42 43l-27.86-4.23S90.56 44 89 50.23l31 4.7c.26-4.69.6-9.37-.61-11.94" fill="#b584ae"/>
      <path d="M90.1 57.6c-3.48-5-1.93-18.53-5-23.16H56.9s-1.16 29-5.41 33.2C48.17 71 40.34 87.33 27.37 107.07c-.44.62-.84 1.24-1.23 1.86-7.24 11.52-5.92 22 .54 26.49a14.21 14.21 0 0010.15 2.08c14.66-1.93 25.86-21 25.86-21C72.6 103 74.17 97.08 85.08 93.11c12.74-4.63 9.52-29 5-35.51" fill="#d2e287"/>
      <path d="M21.52 120.57c-1 6.57 1 12 5.16 14.85a14.21 14.21 0 0010.15 2.08c6.56-.86 12.42-5.15 16.89-9.62-5.6-4.63-15.07-7.68-25.81-7.68a55.3 55.3 0 00-6.39.37M92.51 63.29a19.49 19.49 0 00-11.4 31.57 30.24 30.24 0 014-1.75C95.29 89.4 95.25 73 92.51 63.29M85.08 34.44H56.9s-.21 5.31-.79 11.72h31.36c-.45-4.68-.82-9.35-2.39-11.72" fill="#ca93c1"/>
    </g>
  </g>
</svg>
