<svg xmlns="http://www.w3.org/2000/svg" viewBox="0 0 144 163.18">
  <g id="Layer_2" data-name="Layer 2">
    <g id="Layer_1-2" data-name="Layer 1">
      <path fill="#155e98" d="M0 0h144v163.18H0z"/>
      <path d="M40.1 136.85c-1.81 0-3.35.63-3.9 1.5l-1.73-1.73v4.86l1.73-1.73c.55.87 2.09 1.5 3.9 1.5 2.28 0 4.12-1 4.12-2.2s-1.84-2.2-4.12-2.2M130 36.43c-1.82 0-3.36.63-3.91 1.5l-1.73-1.73v4.86l1.73-1.73c.55.87 2.09 1.49 3.91 1.49 2.27 0 4.12-1 4.12-2.19s-1.85-2.2-4.12-2.2M46.83 34c-1.82 0-3.36.63-3.91 1.5l-1.73-1.73v4.86l1.73-1.73c.55.87 2.09 1.5 3.91 1.5 2.27 0 4.12-1 4.12-2.2S49.1 34 46.83 34M101.34 117.5c-1.82 0-3.36.63-3.91 1.5l-1.73-1.73v4.86l1.73-1.73c.55.87 2.09 1.5 3.91 1.5 2.27 0 4.12-1 4.12-2.2s-1.85-2.2-4.12-2.2" fill="#f7941d"/>
      <path d="M21.77 92.62c1.19 5.16.1 9.81-2.45 10.4s-5.57-3.11-6.77-8.27-.1-9.81 2.45-10.4 5.57 3.11 6.77 8.27" fill="#009ada"/>
      <path d="M17.6 91.6v-6.52a1.41 1.41 0 10-2.82 0l2.07 6.52zM17.6 95.93v6.52a1.41 1.41 0 002.82 0l-2.07-6.52zM29.54 75.44a11.39 11.39 0 01.52 22.78M29.54 82.74a11.39 11.39 0 11.52 22.78" fill="#f15a29"/>
      <path d="M29.54 100.31s63.17 7 84.33 8c10 .47 18.06-8.09 18.06-18.07s-8.1-18.53-18.06-18.06C92.71 73.19 20.1 81 20.1 81l-.05 9.89M91 54.85h-2.41a2.37 2.37 0 00-2.38 2.38v12H91V59.6h3.31v-4.75z" fill="#f7941d"/>
      <path d="M20 90.28a10.09 10.09 0 1010.12-10.09A10.09 10.09 0 0020 90.28" fill="#f7941d"/>
      <path d="M30.12 92.12c2.95 0 7.14-1.07 9.23-2.83-2.09-1.77-6.28-2.84-9.23-2.84" fill="#f15a29"/>
      <path d="M102.08 79.44a14.25 14.25 0 11-14.25-14.25 14.25 14.25 0 0114.25 14.25" fill="#f7941d"/>
      <path d="M114.22 90.1a6.14 6.14 0 11-6.14-6.1 6.14 6.14 0 016.14 6.15M92.35 90.1a4.61 4.61 0 11-4.6-4.61 4.6 4.6 0 014.6 4.61M70.87 90.1a3.46 3.46 0 11-3.46-3.46 3.45 3.45 0 013.46 3.46M100.58 73.1a14.28 14.28 0 00-6.28-6.35l-8.09 7.62z" fill="#f1f2f2"/>
      <path d="M17.51 92.12a1.54 1.54 0 000 3.08h4.17l-1-3.08z" fill="#f15a29"/>
    </g>
  </g>
</svg>
