<svg xmlns="http://www.w3.org/2000/svg" viewBox="0 0 144 175">
  <g id="Layer_2" data-name="Layer 2">
    <g id="Layer_1-2" data-name="Layer 1">
      <path fill="#fff" d="M0 0h144v175H0z"/>
      <path d="M56 21.73c1.09-1.36 1.7-3.33 5.28-3.33s23.83-.79 24.61 0A19.6 19.6 0 0188 21.73l-6.4 62.49 6.4 73.59s-27.53 4.73-32-4.73 0-131.35 0-131.35" fill="#6d6e71"/>
      <path d="M57.11 20.37L52 26.64 30.42 37.32s9.06 44.34 9.52 52.43S30.39 156 32 157.63s30.19 4.94 32.19 3.65 11.09-28 11.23-31.52.4-45.9.11-48.68-18.42-60.71-18.42-60.71" fill="#808285"/>
      <path d="M64.63 44.58s-17.08-9.76-17.22-10.94 9.7-13.27 9.7-13.27M86.89 20.37L92 26.64l21.58 10.68s-9.06 44.34-9.52 52.43 9.55 66.25 7.94 67.88-30.19 4.94-32.19 3.65-11.08-28-11.23-31.52-.4-45.9-.11-48.68 18.42-60.71 18.42-60.71" fill="#939598"/>
      <path d="M79.37 44.58s17.08-9.76 17.22-10.94-9.7-13.27-9.7-13.27" fill="#bcbec0"/>
      <path fill="#939598" d="M59.21 27.09l-6.15 10.68-3.81 3.03 24.09 32.27"/>
      <path fill="#bcbec0" d="M84.79 27.09l6.15 10.68 3.81 3.03-26.31 39.64"/>
      <path d="M77.94 93.22A2.25 2.25 0 1175.7 91a2.24 2.24 0 012.24 2.25M77.94 109.71a2.25 2.25 0 11-2.24-2.25 2.24 2.24 0 012.24 2.25M107.44 118.88c-.24-1.64-.47-3.28-.69-4.88L94 117.31s2.64 5.36 13.48 1.57" fill="#6d6e71"/>
      <path d="M36.57 118.88c.24-1.64.47-3.28.69-4.88l12.79 3.31s-2.64 5.36-13.48 1.57" fill="#939598"/>
      <path d="M113.58 37.32s14.75 17.4 6.15 119c0 0-14-1.49-15.42-6.57 0 0 4.79-50.18 1.12-70.34 0 0-1-34.47 8.15-42.07" fill="#a7a9ac"/>
      <path d="M30.42 37.32s-14.75 17.4-6.15 119c0 0 14-1.49 15.43-6.57 0 0-4.8-50.18-1.13-70.34 0 0 1-34.47-8.15-42.07" fill="#939598"/>
    </g>
  </g>
</svg>
