<svg xmlns="http://www.w3.org/2000/svg" viewBox="0 0 144 175">
  <g id="Layer_2" data-name="Layer 2">
    <g id="Layer_1-2" data-name="Layer 1">
      <path fill="#27aae1" d="M0 0h144v175H0z"/>
      <path d="M65.26 26.64c6 4.48 14.9 5.28 20.13 1.76s12-.59 14.48 6.19 9.53 12.49 16.06 12.9 10.48 5.56 8.58 11.58.65 13.93 6.2 17.27 5.69 9.49-.11 13.73-8.78 12.06-6.84 17.8-2.25 11-9.12 11.54-14.08 5.74-15.81 12.12S91 140.82 85 137.34s-14.88-3-20.13 1.62-12 2.78-14.48-4.17-9.5-12.2-16-11.89-10.5-5.18-8.58-12.35-.64-16-6.21-20-5.72-11.42.11-16.26 8.84-13.74 6.88-20.54 2.25-12.53 9.14-12.32 14.05-4.63 15.73-11.04 7.73-8.27 13.8-3.75" fill="#ffd861"/>
      <path d="M58.94 45.32C48 47.8 20.57 80.69 42.72 107.21S104.61 122 112 93.8c3.74-14.35-4.37-59.52-53-48.48" fill="#f7941d"/>
    </g>
  </g>
</svg>
