<svg xmlns="http://www.w3.org/2000/svg" viewBox="0 0 144 175">
  <defs>
    <clipPath id="clip-path">
      <path fill="none" d="M18.73 86.16h42v36.66h-42z"/>
    </clipPath>
    <clipPath id="clip-path-2">
      <path fill="none" d="M81.52 86.47h42v36.66h-42z"/>
    </clipPath>
  </defs>
  <g id="Layer_2" data-name="Layer 2">
    <g id="Layer_1-2" data-name="Layer 1">
      <path fill="#8dc63f" d="M0 0h144v175H0z"/>
      <path d="M13.22 87.29s69.14 2 86.76 11.08 33.29 26.92 31.25 27.38-8.32 1.07-11.67-3.42-15.41-17.93-22.36-20-27.62-13.19-82-7.25" fill="#ae2f27"/>
      <path d="M125.68 87.29s-69.13 2-86.75 11.08-33.29 26.92-31.25 27.38 8.32 1.07 11.66-3.42 15.41-17.93 22.37-20 27.62-13.19 82-7.25" fill="#ae2f27"/>
      <path d="M121.29 85.57c-13.2-1.29-49.82-2.14-49.82-2.14-25.5 0-62.64.5-62.17 6.26s2.7 4.72 4.08 7.4 1.15 31.9 26.19 29.63 27.61-25.57 28.53-28.59 5.1-3.7 5.91 3 8.93 26.11 29.56 25.53 21.55-19.19 22.55-24.14 5.29-5.8 5.57-10c.22-3.23 2.8-5.7-10.4-7m-81.57 37.27c-7.24.53-20-5-20.94-19.25S29.18 87 40 86.35c0 0 20.22-2.88 20.68 13.79s-13.75 22.11-21 22.65m83.75-18.94c-1 14.22-13.7 19.78-20.94 19.24s-21.46-6-21-22.64 20.69-13.79 20.69-13.79c10.85.65 22.21 3 21.25 17.19" fill="#ef4136"/>
      <path d="M129.74 90.78c0 1-1.62 1.79-3.62 1.79s-3.63-.8-3.63-1.79 1.62-1.78 3.63-1.78 3.62.8 3.62 1.78M18.79 90.78c0 1-1.63 1.79-3.63 1.79s-3.62-.8-3.62-1.79S13.16 89 15.16 89s3.63.8 3.63 1.78" fill="#ae2f27"/>
      <g clip-path="url(#clip-path)" opacity=".3">
        <path d="M40 86.35c-10.85.66-22.21 3-21.24 17.19s13.69 19.78 20.93 19.25 21.46-6 21-22.65S40 86.35 40 86.35" fill="#bb2830"/>
      </g>
      <g clip-path="url(#clip-path-2)" opacity=".3">
        <path d="M102.22 86.66S82 83.77 81.53 100.45s13.76 22.1 21 22.64 20-5 20.94-19.24-10.4-16.54-21.25-17.19" fill="#bb2830"/>
      </g>
    </g>
  </g>
</svg>
