<svg xmlns="http://www.w3.org/2000/svg" viewBox="0 0 144.02 175.04">
  <g id="Layer_2" data-name="Layer 2">
    <g id="Layer_1-2" data-name="Layer 1">
      <path fill="#fdc05d" d="M.01 0h144v175.04H.01z"/>
      <path d="M144 175v-47.16c-3.06 2.87-6.09 4.25-11-3-11.36-16.72-15.62-4.59-34.09 0S63.4 122.42 70.5 82.65s58.24-21.31 66.05-36-31.49-51.44-85-21.17C32.1 36.46 14.35 64.49 0 89.09V175z" fill="#27aae1"/>
      <path d="M34.63 130.89C.9 100.7 27.48 25 63.37 14.9s65.4-1.49 74.49 23.32c2.6 7.08-6.28 14.45-9.12 5.26S117 56.31 113.11 45.66 100.33 45.3 101 33.23s-15.63 13.49-18.82 0-14.56 5.68-16.69-4.62-7.82-5.33-6.75 4.26-.14 14.8-11.36 21c-41.57 22.79-4.48 84.5-12.79 77.07" fill="#fff"/>
      <path d="M72.69 108.85s6.52 13.24-5.89 21.52M92.17 103.82s12.89 7.18 7.4 21.05" fill="none" stroke="#ffdaa9" stroke-miterlimit="10" stroke-width="5"/>
      <path d="M29.62 143.08c.72 2.18 49.89-23.32 75-29.8s26.24-5.77 25.63.67-16 36.57-70.71 40.77" fill="#f15a29"/>
      <path d="M54.27 162c29.82 3.37 35.44-12.26 35.44-12.26-7.87-4.58-10.81 2.13-19.65-4.24s-12.44 1.78-16.91-1.74-10.32-2.17-14 2c0 0 1-7-7.11-7L20 148.92" fill="#27aae1"/>
      <path d="M69.41 100.18s-5.19-13.46 1.55-19 17.32-2.34 15.56 3.54c-1.61 5.41-3.2 6.83-3.58 8.71 0 0-4 6.56-10 7.81" fill="#ffdaa9"/>
      <path d="M68.82 102.87s-2.94 13.76-.92 13.85 10.2.5 11.53-1.23 1.33-9 .89-10.16 11.36 2.67 11.92 6.49 7.75-1.43 9-5.79-11.17-10.42-18.3-12.55c0 0-7.59 6.12-12.84 6.54-2 .16-1.06 1.75-1.28 2.85" fill="#025e74"/>
      <path d="M75.73 82.5s-15.5 5.84-17.67 19.67M83.74 83s2.64 15 19.15 12.48" fill="none" stroke="#ffdaa9" stroke-miterlimit="10" stroke-width="5"/>
      <path d="M56.9 98.82c-.56.62-3.88 3.93-2.38 8.12s6.88 3.87 6.19 1.19-.94-5 .44-4.13 2.43-2.27-.44-4.16M100.56 97.51c.78.31 5 2.27 8.44-.59s1.25-7.79-1-6.21-4.37 2.61-4 1-3-1.5-3.76 1.85" fill="#ffdaa9"/>
      <path transform="rotate(-58.5 81.303 78.195)" fill="#ffdaa9" d="M77.96 76.04h6.69v4.31h-6.69z"/>
      <path d="M74.46 58.24S70.94 72.47 77 76s12 1.67 15.4-2.9 4.86-16.93 4.86-16.93c-.5-3.45-19-11.37-22.8 2.07" fill="#fed8ad"/>
      <path d="M76.51 62.39a3.15 3.15 0 11-4.35-1.78 3.33 3.33 0 014.35 1.78M98.3 64.5a3.14 3.14 0 11-4.3-1.78 3.33 3.33 0 014.3 1.78" fill="#fed8ad"/>
      <path d="M76.4 57.69S77.52 60 81 59.75s.3-2.44.3-2.44 3.2 3.06 6 3 .18-3.47.18-3.47 2.11 3.74 4.23 4.31.59-3.84.59-3.84 1.9 7.42 3.3 7.38 3.46-4.7.65-8.52c0 0 4.68-.07 5.63-2.51s-5.49-4.6-10.13-.94c0 0 6.88-3.44 6.49-5.33s-8.14-1.89-11.62 2.12c0 0 3.52-5.89 1.45-8.29s-11.27 2.44-11.23 9.34c0 0-4.16-4-5.62-2.52s2.93 4.7 2.93 4.7a10.45 10.45 0 00-1.48 6.43c.3 3.92 1.45 6 2.36 6.33s1.33-5.83 1.32-7.8" fill="#f7941d"/>
      <path d="M90.39 69a8 8 0 01-3.7-.65c-.15-.32-.13-5.75 2.85-5.46s1.21 5.89.85 6.11M81.34 68.3a8.28 8.28 0 003.76-.17c.19-.3.87-5.69-2.13-5.78S81 68 81.34 68.3" fill="#fff"/>
      <path d="M89 63.41a1.31 1.31 0 011.52.42l-.19.08c-.59.28-.91.82-.73 1.21s.81.46 1.4.18a1.23 1.23 0 01-.64 1.08A1.68 1.68 0 0189 63.41M83.08 63a1.31 1.31 0 011.51.43c-.6.28-.93.81-.76 1.2s.72.46 1.27.25a1.23 1.23 0 01-.66 1.12 1.68 1.68 0 01-1.36-3" fill="#726658"/>
      <path d="M79.45 70.91c-1.44.28-.13 4.22 2.25 4.55s3.2-2.36 3.2-2.36c.15-.77-5.45-2.19-5.45-2.19" fill="#f8a88e"/>
    </g>
  </g>
</svg>
