<svg xmlns="http://www.w3.org/2000/svg" viewBox="0 0 144.02 175.22">
  <defs>
    <clipPath id="clip-path">
      <path d="M43 142.05c.41 4.73 0 6.09 6.6 6.29 18.85.59 23.73.23 42.58-.36 6.58-.2 5.8-1.2 6.21-5.93z" fill="none"/>
    </clipPath>
    <clipPath id="clip-path-2">
      <path d="M107.05 140.82c-.17 3.42 1.33 3.35 3.5 3.27a15.69 15.69 0 011.81 0c3.09.2 6 .42 6.37-3.28 0-.4 1.75-3.48 1.75-4.37-3.69-.17-11.52-.18-14.33-.19a43 43 0 01.9 4.56" fill="none"/>
    </clipPath>
    <clipPath id="clip-path-3">
      <path d="M21.1 136.53c.5 2 1.49 3.4 1.58 4.29.42 3.7 2.09 2.88 5.17 2.67a12.21 12.21 0 012.21.11c2.06.23 3.55.46 3.4-2.78 0-1 1.11-2.55 1.61-4.6z" fill="none"/>
    </clipPath>
    <clipPath id="clip-path-4">
      <path d="M37.51 37.65c-7 6.58-17.06 22.2-17.67 54.87-.44 23 .35 35.71 1 42.51.27 2.87 1.73 4.69 1.84 5.79.42 3.7 2.09 2.88 5.17 2.67a12.21 12.21 0 012.21.11c2.06.23 3.55.46 3.4-2.78-.06-1.24 1.88-3.52 1.84-6.47-.1-7.32-.08-18.78.36-28.88.62-14.18 2.23-31.15 2.47-36.56s2.26 20.53 2.67 30.81c.33 8.16-.51 27.09-.67 36.89 0 2.54 2.74 4.47 2.83 5.44.41 4.73 0 6.09 6.6 6.29 18.85.59 23.73.23 42.58-.36 6.58-.2 5.8-1.2 6.21-5.93.1-1.1 3-3.45 3-6.52-.19-10.06-1-27.94-.65-35.81.41-10.28 2.44-35.24 2.67-30.81s1.85 22.38 2.47 36.56c.47 10.75.46 23 .34 30.23 0 2.3 1 4.08.91 5.12-.17 3.42 1.33 3.35 3.5 3.27a15.69 15.69 0 011.81 0c3.09.2 6 .42 6.37-3.28.1-.9 1.54-2.3 1.75-4.37.67-6.39 1.61-19.23 1.14-43.93C121 59.85 110.94 44.23 104 37.65c-6.74-6.35-20-9.52-33.22-9.52s-26.53 3.17-33.27 9.52" fill="none"/>
    </clipPath>
    <clipPath id="clip-path-5">
      <path d="M58 28.69c-.57.24-1.14.49-1.72.77 0 0 11.17 22.64 29.85 0a18.74 18.74 0 00-2.18-1.06c-13.22 14-22.34 5.27-25.95.29" fill="none"/>
    </clipPath>
  </defs>
  <g id="Layer_2" data-name="Layer 2">
    <g id="Layer_1-2" data-name="Layer 1">
      <path fill="#78c25f" d="M.01 0h144v175.22H.01z"/>
      <path d="M37.51 37.65c-7 6.58-17.06 22.2-17.67 54.87-.43 23 .35 35.71 1 42.51.27 2.87 1.73 4.69 1.85 5.79.41 3.7 2.08 2.88 5.16 2.67s5.82 1.65 5.61-2.67c-.06-1.24 1.88-3.52 1.84-6.47-.1-7.32-.08-18.78.36-28.88.62-14.18 2.23-31.15 2.47-36.56s2.26 20.53 2.67 30.81c.33 8.16-.51 27.09-.67 36.9 0 2.53 2.74 4.46 2.82 5.43.42 4.73 0 6.09 6.61 6.29 18.85.59 23.73.23 42.58-.36 6.58-.2 5.8-1.2 6.21-5.93.1-1.1 3-3.45 3-6.52-.19-10.06-1-27.94-.65-35.81.41-10.28 2.44-35.24 2.67-30.81s1.85 22.38 2.47 36.56c.47 10.75.46 23 .34 30.24 0 2.29 1 4.07.91 5.11-.21 4.32 2.23 3.07 5.32 3.28s5.94.42 6.36-3.28c.1-.9 1.54-2.3 1.75-4.36.67-6.4 1.61-19.24 1.14-43.94C121 59.85 110.94 44.23 104 37.65 90.46 25 51 25 37.51 37.65" fill="#316bb4" fill-rule="evenodd"/>
      <g clip-path="url(#clip-path)" fill="#265591">
        <path d="M43.89 137.75h.99v15.55h-.99zM46.3 137.75h.99v15.55h-.99zM48.71 137.75h.99v15.55h-.99zM51.12 137.75h.99v15.55h-.99zM53.53 137.75h.99v15.55h-.99zM55.94 137.75h.99v15.55h-.99zM58.35 137.75h.99v15.55h-.99zM60.76 137.75h.99v15.55h-.99zM63.17 137.75h.99v15.55h-.99zM65.58 137.75h.99v15.55h-.99zM67.99 137.75h.99v15.55h-.99zM70.4 137.75h.99v15.55h-.99zM72.81 137.75h.99v15.55h-.99zM75.22 137.75h.99v15.55h-.99zM77.63 137.75h.99v15.55h-.99zM80.03 137.75h.99v15.55h-.99zM82.44 137.75h.99v15.55h-.99zM84.85 137.75h.99v15.55h-.99zM87.26 137.75h.99v15.55h-.99zM89.67 137.75h.99v15.55h-.99zM92.08 137.75h.99v15.55h-.99zM94.49 137.75h.99v15.55h-.99zM96.9 137.75h.99v15.55h-.99z"/>
      </g>
      <g clip-path="url(#clip-path-2)" fill="#265591">
        <path d="M108.93 146.28h-1.1l.07-12.94 1.03 2.21v10.73zM110.24 135.03h1.09v10.73h-1.09zM112.83 135.03h1.09v10.73h-1.09zM115.43 135.03h1.09v10.73h-1.09zM117.54 135.03h1.09v10.73h-1.09z"/>
      </g>
      <g clip-path="url(#clip-path-3)" fill="#265591">
        <path d="M21.63 133.84h1.09v13.05h-1.09zM23.86 133.84h1.09v13.05h-1.09zM26.09 133.84h1.09v13.05h-1.09zM28.32 133.84h1.09v13.05h-1.09zM30.54 133.84h1.09v13.05h-1.09zM32.77 133.84h1.09v13.05h-1.09z"/>
      </g>
      <g clip-path="url(#clip-path-4)" fill="#79d0e3" fill-rule="evenodd">
        <path d="M27.8 82.88q-6 5.73-12.68 11c-1.64-5.24-3-10.5-4.2-15.74 3.5-1.67 6.9-3.46 10.18-5.34 2.08 3.39 4.31 6.75 6.7 10M44.8 86.43q-5.36 6.33-11.42 12.29-3.23-7.56-5.74-15.21 4.94-3 9.51-6.38 3.6 4.74 7.65 9.3M62 88.21q-4.68 6.84-10.07 13.39-4-7.18-7.24-14.52 4.57-3.56 8.78-7.33 4 4.34 8.53 8.46M79.29 88.21q-3.95 7.28-8.64 14.35Q66 95.82 62 88.86q4.17-4 8-8.19 4.45 3.9 9.35 7.54M96.5 86.43q-3.19 7.65-7.14 15.17-5.35-6.22-10-12.74 3.73-4.41 7.08-9c3.23 2.28 6.59 4.47 10.09 6.54M113.5 82.88q-2.41 8-5.58 15.84-6-5.64-11.32-11.64 3.29-4.77 6.15-9.65c3.46 1.93 7 3.76 10.75 5.45M130.16 77.56q-1.62 8.16-4 16.35-6.56-5-12.51-10.4 2.79-5.08 5.16-10.24c3.66 1.56 7.43 3 11.33 4.29M27.8 45.28q-6 5.73-12.68 11c-1.64-5.24-3-10.5-4.2-15.74 3.5-1.67 6.9-3.46 10.18-5.34 2.08 3.39 4.31 6.75 6.7 10.05M44.8 48.83q-5.36 6.33-11.42 12.29-3.23-7.56-5.74-15.21 4.94-3 9.51-6.38 3.6 4.74 7.65 9.3M62 50.61c-3.12 4.55-6.47 9-10.07 13.39q-4-7.19-7.24-14.52 4.57-3.55 8.78-7.33 4 4.34 8.53 8.46M79.29 50.61Q75.35 57.89 70.65 65 66 58.23 62 51.26q4.17-4 8-8.19 4.45 3.9 9.35 7.54M96.5 48.83C94.37 53.93 92 59 89.36 64q-5.35-6.22-10-12.74 3.73-4.41 7.08-9c3.23 2.28 6.59 4.47 10.09 6.54M113.5 45.28q-2.41 7.95-5.58 15.84-6-5.64-11.32-11.64 3.29-4.77 6.15-9.65c3.46 1.93 7 3.76 10.75 5.45M130.16 40q-1.62 8.16-4 16.35-6.56-5-12.51-10.4 2.79-5.08 5.16-10.24c3.66 1.56 7.43 3 11.33 4.29M27.8 118.64c-4 3.81-8.23 7.5-12.68 11q-2.46-7.86-4.2-15.74 5.25-2.51 10.18-5.34 3.12 5.1 6.7 10.06M44.8 122.18q-5.36 6.33-11.42 12.29-3.23-7.56-5.74-15.21 4.94-3 9.51-6.37c2.4 3.15 5 6.26 7.65 9.29M62 124q-4.68 6.84-10.07 13.4-4-7.2-7.24-14.53 4.57-3.56 8.78-7.33c2.7 2.85 5.53 5.68 8.53 8.46M79.29 124a187.1 187.1 0 01-8.64 14.36Q66 131.57 62 124.61q4.17-4 8-8.19 4.45 3.9 9.35 7.54M96.5 122.18c-2.13 5.1-4.51 10.17-7.14 15.17q-5.35-6.22-10-12.74 3.73-4.41 7.08-9 4.84 3.44 10.09 6.54M113.5 118.64c-1.61 5.29-3.47 10.58-5.58 15.83q-6-5.64-11.32-11.64 3.29-4.77 6.15-9.65 5.19 2.91 10.75 5.46M130.16 113.31q-1.62 8.18-4 16.35-6.56-5-12.51-10.4 2.79-5.07 5.16-10.24c3.66 1.56 7.43 3 11.33 4.29"/>
      </g>
      <path d="M56.25 29.46s11.17 22.64 29.85 0c0 0-13.19-7.91-29.85 0" fill="#265591" fill-rule="evenodd"/>
      <g clip-path="url(#clip-path-5)" fill="#316bb4">
        <path d="M58.52 23.47h.99v15.55h-.99zM61.32 26.27h.99v15.55h-.99zM65.03 28.4h.99v15.55h-.99zM68.75 30.54h.99v15.55h-.99zM72.46 32.67h.99v15.55h-.99zM75.8 30.17h.99v15.55h-.99zM79.14 27.67h.99v15.55h-.99zM82.47 25.16h.99v15.55h-.99z"/>
      </g>
    </g>
  </g>
</svg>
