<svg xmlns="http://www.w3.org/2000/svg" viewBox="0 0 144.02 175.04">
  <g id="Layer_2" data-name="Layer 2">
    <g id="Layer_1-2" data-name="Layer 1">
      <path fill="#fdc05d" d="M.02 0h144v120.78H.02z"/>
      <path d="M102 112.36A48.35 48.35 0 1153.6 64a48.35 48.35 0 0148.4 48.36" fill="#ffd861"/>
      <path d="M0 107c7-1.5 19-8.5 32.5 0s26.5-9.63 43-2.07 29.5-7.74 43 1.17 16.5-5.1 25.5.9v68H0z" fill="#27aae1"/>
      <path d="M88.32 73.9S71 94.59 78.24 105.3s18.5 12.47 27.76 7.63 21.7-24.07 21.7-24.07c2-6.11-22.19-34.09-39.38-15" fill="#fed8ad"/>
      <path d="M88.35 82.41c0 3.56-2.57 6.45-5.74 6.45s-5.75-2.86-5.75-6.45S79.43 76 82.61 76s5.74 2.89 5.74 6.45M122.7 103.48c0 3.56-2.57 6.45-5.75 6.45s-5.74-2.89-5.74-6.45S113.78 97 117 97s5.75 2.89 5.75 6.46" fill="#fed8ad"/>
      <path transform="rotate(-24.67 81.192 111.983)" fill="#fed8ad" d="M74.48 107.8h13.41v8.34H74.48z"/>
      <path d="M71.13 115.53c2.52-4.5 2.59-10.13 2.63-15.16 0-3.81.31-8.49-.71-12.23-.83-3-5.83-5.47-8.26-6.72a25.69 25.69 0 00-20.21-1.07c-3.62 1.24-2.06 7 1.59 5.76a20.27 20.27 0 0116.51.89 21.24 21.24 0 014 2.73c1.91 1.62.68 1.29.49-.59.72 6.9 2.28 17.06-1.24 23.33-1.88 3.37 3.28 6.38 5.16 3" fill="#fed8ad"/>
      <path d="M46.8 88.25a8.48 8.48 0 011.2-2.67c.1 0 .84-.26.94-.25a54.37 54.37 0 01-.65-6h-1c-2.58.07-6.45 1.93-8.58 3.39-1.29.88-4.88 7.92-4.18 9s6.44-2.44 7.32-2.84a16 16 0 00.08 2.83c.38 3.43 4.59-2.33 4.89-3.49M15.42 132.8l57.93-1.09s13-26-9.71-26.32-48.22 27.41-48.22 27.41" fill="#fed8ad"/>
      <path d="M68.13 125.1c16 0 33 1.52 47.32 9.19 3.39 1.82 6.41-3.34 3-5.15-15.3-8.18-33.23-10-50.33-10-3.85 0-3.85 6 0 6" fill="#fed8ad"/>
      <path d="M115.55 134.34s.87 5.48 2.36 4.11 1.37-2.43 1.37-2.43 5.87 6 6.87 3.93-.2-8.24-7.52-10.61" fill="#fed8ad"/>
      <path d="M92 74.55s0 4.76 5.94 7.12 2.47-3.79 2.47-3.79 2.82 7.63 7.6 9.81 3.08-5.58 3.08-5.58.49 7.87 3.52 10.53 4.08-5.88 4.08-5.88-2.85 13.8-.49 14.86 9.51-5 8-13.56c0 0 7.79 3.67 11.32.39s-5.35-12-16-9.73c0 0 14.16-.14 15-3.58s-11.93-9.68-20.94-5.85c0 0 10.58-6.91 9.09-12.56s-20.61-5-26.11 6.41c0 0-3.63-10-7.26-8.71s1 10.14 1 10.14A19.22 19.22 0 0084.69 74C82 80.74 82.25 85.11 83.5 86.38s6.89-8.56 8.5-11.83" fill="#f7941d"/>
      <path d="M106 104.57c-.84.08-5.61-3.42-5.61-4.07s4.42-9.62 9.12-6.72-2.74 10.72-3.51 10.79M91.58 96.07c.36.77 5.8 3.09 6.36 2.75s6-8.7 1.14-11.27-7.83 7.83-7.5 8.52" fill="#fff"/>
      <path d="M108.2 94.17a2.46 2.46 0 012.19 1.93h-.37c-1.21 0-2.19.63-2.19 1.41s1 1.43 2.17 1.44h.1a2.26 2.26 0 01-1.92 1.26c-1.31 0-2.35-1.35-2.35-3s1.07-3 2.37-3M98.72 88.74a2.44 2.44 0 012.15 1.94c-1.2 0-2.19.59-2.21 1.38s.82 1.33 1.9 1.44a2.27 2.27 0 01-2 1.24c-1.3 0-2.32-1.39-2.29-3s1.12-3 2.42-3" fill="#726658"/>
      <path d="M86.35 98.88c-2.6-.71-3.61 6.86.06 9.34s7.19-1.33 7.19-1.33c.86-1.16-7.25-8-7.25-8" fill="#f8a88e"/>
      <path d="M5.82 134.87c5.24-5.66 17.2-12.38 24.13-6.29s18.05-7.08 34 .76 8.82-9.94 26.23 3.46S58.7 149.36 26 141.38" fill="#27aae1"/>
    </g>
  </g>
</svg>
