<svg xmlns="http://www.w3.org/2000/svg" viewBox="0 0 144 163.18">
  <g id="Layer_2" data-name="Layer 2">
    <g id="Layer_1-2" data-name="Layer 1">
      <path fill="#8ad5e7" d="M0 0h144v121.32H0z"/>
      <path d="M141.71 96.49V61.84h-3.06V56h-11.21v6.88h-8.66v35.65h-4.08V67.7h-25v46.37h-3.28V56H64.77v28.26h-3.06v-9.17H39v29.56h-3.53V39.42h-2.55v-7.13H20.69v7.64H7.7V96H4.13V56.24H0v65l144-.05v-24.7z" fill="#6aa4b3"/>
      <path fill="#a7a9ac" d="M0 110.06h144v53.12H0z"/>
      <path d="M68.64 81.32a2.59 2.59 0 00-2.59 2.6v3.51h5.19v-3.51a2.59 2.59 0 00-2.6-2.6" fill="#414042"/>
      <path fill="#58595b" d="M80.16 130.23h8.21"/>
      <path d="M106.09 107.65h-.4.42a43.56 43.56 0 00-78.67 9.06 18.64 18.64 0 00-5.82 13.54h105.56a22.64 22.64 0 00-21.09-22.58" fill="#fff200"/>
      <path d="M113.46 130.23a11.86 11.86 0 11-11.86-11.85 11.85 11.85 0 0111.86 11.85" fill="#414042"/>
      <path d="M106.43 130.23a4.84 4.84 0 11-4.83-4.83 4.84 4.84 0 014.83 4.83" fill="#fffef2"/>
      <path d="M57.59 130.23a11.86 11.86 0 11-11.86-11.85 11.85 11.85 0 0111.86 11.85" fill="#414042"/>
      <path d="M50.57 130.23a4.84 4.84 0 11-4.84-4.83 4.84 4.84 0 014.84 4.83" fill="#fffef2"/>
      <path d="M27.49 130.23a4.46 4.46 0 01-4.49 4.46h-2.79a4.46 4.46 0 110-8.92H23a4.46 4.46 0 014.46 4.46M131.53 130.07a4.46 4.46 0 01-4.46 4.46h-2.83a4.46 4.46 0 110-8.91h2.83a4.46 4.46 0 014.46 4.45" fill="#414042"/>
      <path d="M47.24 96.82a39.76 39.76 0 00-11.13 10.81h11.13zM68.87 90.42a39.75 39.75 0 00-17.68 4.15v13.06h26.58V90.42zM106.09 107.61a43.74 43.74 0 00-19.52-17.19h-4.85v17.21h19.88z" fill="#27aae1"/>
      <path d="M128.06 112.77a1.65 1.65 0 00-1.58 1.17 3.72 3.72 0 000 7.42 1.65 1.65 0 003.24-.49v-6.44a1.66 1.66 0 00-1.66-1.66M21.39 112.77a1.66 1.66 0 011.61 1.17 3.72 3.72 0 010 7.42 1.66 1.66 0 01-3.25-.49v-6.44a1.66 1.66 0 011.66-1.66" fill="#414042"/>
      <path d="M119.78 113.51a22.68 22.68 0 00-5.39-3.66h-84a42.67 42.67 0 00-2.13 4.66h92.62z" fill="#fff200"/>
      <path fill="#414042" d="M30.35 109.85h2.33v2.33h-2.33zM32.69 112.2h2.33v2.33h-2.33zM35.02 109.85h2.33v2.33h-2.33zM37.37 112.2h2.33v2.33h-2.33zM39.7 109.85h2.33v2.33H39.7zM42.04 112.2h2.33v2.33h-2.33zM44.37 109.85h2.33v2.33h-2.33zM46.72 112.2h2.33v2.33h-2.33zM49.05 109.85h2.33v2.33h-2.33zM51.39 112.2h2.33v2.33h-2.33zM53.72 109.85h2.33v2.33h-2.33zM56.07 112.2h2.33v2.33h-2.33zM58.4 109.85h2.33v2.33H58.4zM60.74 112.2h2.33v2.33h-2.33zM63.07 109.85h2.33v2.33h-2.33zM65.42 112.2h2.33v2.33h-2.33zM67.74 109.85h2.33v2.33h-2.33zM70.09 112.2h2.33v2.33h-2.33zM72.42 109.85h2.33v2.33h-2.33zM74.77 112.2h2.33v2.33h-2.33zM77.09 109.85h2.33v2.33h-2.33zM79.44 112.2h2.33v2.33h-2.33zM81.77 109.85h2.33v2.33h-2.33zM84.11 112.2h2.33v2.33h-2.33zM86.45 109.85h2.33v2.33h-2.33zM88.79 112.2h2.33v2.33h-2.33zM91.12 109.85h2.33v2.33h-2.33zM93.46 112.2h2.33v2.33h-2.33zM95.79 109.85h2.33v2.33h-2.33zM98.14 112.2h2.33v2.33h-2.33zM100.47 109.85h2.33v2.33h-2.33zM102.81 112.2h2.33v2.33h-2.33zM105.14 109.85h2.33v2.33h-2.33zM107.49 112.2h2.33v2.33h-2.33zM109.82 109.85h2.33v2.33h-2.33zM112.16 112.2h2.33v2.33h-2.33zM116.82 112.18v-.94a22.33 22.33 0 00-2.33-1.34v2.28zM118.19 112.2h-1.35v2.31h2.33V113c-.32-.27-.65-.54-1-.79M30.35 114.51v-2.31H29.2c-.35.76-.68 1.53-1 2.31z"/>
    </g>
  </g>
</svg>
