<svg xmlns="http://www.w3.org/2000/svg" viewBox="0 0 144 175">
  <g id="Layer_2" data-name="Layer 2">
    <g id="Layer_1-2" data-name="Layer 1">
      <path fill="#ffd98b" d="M0 0h144v175H0z"/>
      <path fill="#b1d681" d="M0 15.29h144v106.33H0z"/>
      <path d="M46.86 88.7a10 10 0 11-10-10 10 10 0 0110 10" fill="#a97c50"/>
      <path d="M112.47 104.88s-.13-4.17-2.29-3.57-1.26 6.62-1.26 6.62 5.73 7 7.2 5.43-3.65-8.48-3.65-8.48" fill="#fff8d5"/>
      <path d="M54.17 106.78c24.32 3.09 27.07 40.2 58.38 3.47" fill="none" stroke="#fff8d6" stroke-miterlimit="10" stroke-width="9.53"/>
      <path d="M71.12 175c1.15-18 2.91-75.45-21.64-74.67-24.95.79-22.1 58.25-20.78 74.67z" fill="#78909c"/>
      <path d="M52.11 137.58a1.94 1.94 0 11-1.93-1.93 1.93 1.93 0 011.93 1.93M52.11 155.89a1.94 1.94 0 11-1.93-1.89 1.93 1.93 0 011.93 1.93" fill="#ebebec"/>
      <path d="M97.17 124.09c6-3.33 11-8.65 15.38-13.84" fill="none" stroke="#fff8d6" stroke-miterlimit="10" stroke-width="9.53"/>
      <path d="M54.17 106.78c8.68 1.11 15 7 21.26 12.46 5.51 4.82 11.78 9.28 19.17 6.06" fill="none" stroke="#788f9b" stroke-miterlimit="10" stroke-width="10.29"/>
      <path d="M40 175h20.76c-.9-15.38-3.89-59.88-4.61-73.44l.74-3.27-4.41 2-5.79-.46s-3.6-1.16-3.94-.89c-.06 0 1.2 3 1.2 3s-4.58 50.65-4 73" fill="#f5a3c7"/>
      <path d="M56.15 101.52s10.75 3.92 10.44 5-6.57 2-6.57 2 6.41 4.31 6 5.19-7.27 17.23-8.02 16.22-4.53-26.93-1.85-28.41" fill="#6a808a"/>
      <path d="M32.25 55.82s-4.57 40 18.38 39.49c19.11-.43 16.16-39.49 16.16-39.49" fill="#fff8d5"/>
      <path d="M47.06 94.21s-.56 7.48-.31 7.92 2.79 3.08 3.11 3a17 17 0 003.18-3c0-.28-.47-7.91-.47-7.91M37.44 73.77c0 2.71-1.87 4.91-4.17 4.91s-4.17-2.2-4.17-4.91 1.87-4.92 4.17-4.92 4.17 2.2 4.17 4.92M69.29 73.77c0 2.71-1.86 4.91-4.16 4.91S61 76.48 61 73.77s1.86-4.92 4.17-4.92 4.16 2.2 4.16 4.92" fill="#fff8d5"/>
      <path d="M47.51 76.69c0 2.86-1.63 5.18-3.65 5.18s-3.64-2.32-3.64-5.18 1.63-5.17 3.64-5.17 3.65 2.32 3.65 5.17" fill="#fff"/>
      <path d="M43.79 75.52c-.7 0-1.31.64-1.57 1.56a1.08 1.08 0 01.05 2.16c.28.85.85 1.43 1.52 1.43 1 0 1.72-1.15 1.72-2.57s-.77-2.58-1.72-2.58" fill="#58595b"/>
      <path d="M56.75 76.69c0 2.86-1.63 5.18-3.64 5.18s-3.65-2.32-3.65-5.18 1.63-5.17 3.65-5.17 3.64 2.32 3.64 5.17" fill="#fff"/>
      <path d="M53 75.52c-.71 0-1.31.64-1.57 1.56a1.08 1.08 0 010 2.16c.28.85.86 1.43 1.53 1.43.94 0 1.71-1.15 1.71-2.57S54 75.52 53 75.52" fill="#58595b"/>
      <path d="M46 85.92s-1.31 7.42 3.44 6.7c4.25-.64 2.76-6.7 2.76-6.7" fill="#d17751"/>
      <path d="M49.46 92.62a3.16 3.16 0 002.54-1.8 4.28 4.28 0 00-5.66 0 2.63 2.63 0 003.15 1.76" fill="#f68b5f"/>
      <path d="M47.45 83.29c-.25.23.31 1.25 1.2 1.3s1.69-1 1.44-1.3a3.8 3.8 0 00-2.64 0" fill="#fdddc1"/>
      <path d="M44.28 69.67c.19.44-.66 1.23-1.91 1.78s-2.4.63-2.59.19.66-1.23 1.9-1.77 2.41-.63 2.6-.2M56.91 71c-.23.42-1.38.23-2.57-.42s-2-1.51-1.75-1.93 1.38-.23 2.57.42 2 1.51 1.75 1.93" fill="#a97c50"/>
      <path d="M33 135.65s1.19-2.41 1.79-2.36 10.72 1.93 11.76 1.83 11.76-2.33 12.16-1.83a16.55 16.55 0 011.11 2.71s-18.88 5.16-20 5.06" fill="#fff"/>
      <path d="M31.69 135.4c-.4 1.18-.33 20 .76 20.64a134.19 134.19 0 0014.69 3.77c.69-.1 13.27-5.26 13.38-6.25s1.51-17.81.91-18.73-13.94 2.78-15 2.71-14.25-3.54-14.74-2.14" fill="#f15a29"/>
      <path d="M45 137.26s-.78 22.33 0 22.55 2.47.52 2.89-.25.6-22 .36-22.3-3.25-.26-3.25 0" fill="#dd5526"/>
      <path d="M39.83 109.34c-10.31 5.81-33 35.25-13.6 41.89 4.23 1.45 10.47 1.82 19.28.62" fill="none" stroke="#fff8d6" stroke-miterlimit="10" stroke-width="9.53"/>
      <path d="M39.83 109.34c-9.91 5.58-31.27 33-15.7 41" fill="none" stroke="#788f9b" stroke-miterlimit="10" stroke-width="10.29"/>
      <path d="M43.6 101.52s-10.05 4.08-9.75 5.12 6.52 2.07 6.52 2.07-6.48 4.19-6.14 5.08 6.14 17.09 6.92 16.09 5.09-26.83 2.45-28.36" fill="#6a808a"/>
      <path d="M42.52 148.05s-.37-2.31 1.19-2.53 2.29 2.53 2.29 2.53 3-3.15 5.28-2.54 1.42 12.81-7 11" fill="#fff8d5"/>
      <path d="M117.43 75.53c-.91.41-7.05 34.5-6.54 35s1.47.36 1.77-1.25c.25-1.33 4.65-24.83 5.31-32.38.15-1.62-.31-1.46-.54-1.35" fill="#c49a6c"/>
      <path d="M116.12 99.67s-3.06-.08-3.57 3.68 1.74 11.23 3.57 10c.95-.62 4.82-12.65 0-13.69" fill="#fff8d5"/>
      <path d="M60.9 59a20.83 20.83 0 01-16.6 9.4c-11.31.38-6.17-6.92-6.17-6.92s-4 7.49-6.76 7.92-9.86-14.91 2.47-24.4 28.26.89 28.26.89S66.59 41 71 49.58c4 7.8-.56 19.56-4.21 19.7S60.9 59 60.9 59" fill="#a97c50"/>
    </g>
  </g>
</svg>
