<svg xmlns="http://www.w3.org/2000/svg" viewBox="0 0 144 175">
  <g id="Layer_2" data-name="Layer 2">
    <g id="Layer_1-2" data-name="Layer 1">
      <path fill="#fff" d="M0 0h144v175H0z"/>
      <path d="M65.17 70c-7.46 11.53-13.57 63.51-12.89 68.26s16.45 20.34 16.45 20.34l14.76-19.68C87.22 133.83 72.63 70 72.63 70l-3.9-13.91" fill="#a85454"/>
      <path d="M46.73 26.74c1.65-2.71 41-2.51 44.37 0s-3.21 11-3.21 11H49" fill="#944546"/>
      <path d="M80.22 50.44s9.32-23.08 10.88-23.7 5 9.32 4.38 11.85-14 14.35-14 14.35M57.6 50.44s-9.31-23.08-10.87-23.7-5 9.32-4.38 11.85 14 14.35 14 14.35" fill="#b75c5c"/>
      <path d="M55.15 49.87s15.32-4.69 27.2 1.56l-10 17.82a21 21 0 00-6.87 0s-10-13.13-10.32-19.38" fill="#b45a5a"/>
      <path d="M73.6 74.31L62 77.53c-.62 1.93-1.22 4.08-1.8 6.38l14.67-4c-.47-2.15-.88-4-1.22-5.55M77 90.12l-19.38 5.35q-.59 3.07-1.13 6.21l21.63-6c-.38-1.9-.76-3.77-1.13-5.58M53.89 119.15l27.25-7.53q-.49-2.78-1-5.61l-25.4 7c-.3 2.1-.58 4.15-.83 6.12M52.24 136.36l31.33-8.66c-.2-1.76-.45-3.67-.74-5.68l-30.18 8.33c-.23 2.52-.37 4.58-.41 6M61.17 150.65l17.06-4.72 5.26-7a1.58 1.58 0 00.2-.39l-26.63 7.36c1.29 1.58 2.71 3.21 4.11 4.76" fill="#894343"/>
    </g>
  </g>
</svg>
