<svg xmlns="http://www.w3.org/2000/svg" viewBox="0 0 144.13 163.18">
  <g id="Layer_2" data-name="Layer 2">
    <g id="Layer_1-2" data-name="Layer 1">
      <path fill="#8ad5e7" d="M.13 0h144v121.32H.13z"/>
      <path fill="#a7a9ac" d="M0 110.06h144v53.12H0z"/>
      <path fill="#6aa4b3" d="M144.13 121.32V10.11L100.7 60.66l-6.56-12.33-17.78 25.9-20.34-41.94-37.58 42.82L.13 27.71v93.61h144z"/>
      <path d="M101.15 53.11h-2.6A2.56 2.56 0 0096 55.67v39.8h5.17V58.23h3.55v-5.12z" fill="#414042"/>
      <path fill="#414042" d="M94.51 63.79h8.65v17.08h-8.65z"/>
      <path d="M110.76 86.56H87V63.14H45.86L29.3 117.78h95.57a41.52 41.52 0 00-14.11-31.22" fill="#00813b"/>
      <path d="M70.3 117.78A23.69 23.69 0 1146.62 94.1a23.69 23.69 0 0123.68 23.68" fill="#414042"/>
      <path d="M56.28 117.78a9.67 9.67 0 11-9.66-9.66 9.66 9.66 0 019.66 9.66" fill="#fff200"/>
      <path d="M120.78 124.61A16.75 16.75 0 11104 107.87a16.74 16.74 0 0116.74 16.74" fill="#414042"/>
      <path d="M110.87 124.61a6.84 6.84 0 11-6.84-6.83 6.84 6.84 0 016.84 6.83" fill="#fff200"/>
      <path d="M76.81 117.78v-.11a30.2 30.2 0 00-60.39.11 29.89 29.89 0 00.43 5h6.63a23.24 23.24 0 01-.55-5 23.69 23.69 0 1146.83 5h6.61a29.89 29.89 0 00.44-5" fill="#00a14b"/>
      <path d="M55.14 81.31a36.3 36.3 0 0115.26 5.25H87V67.05H55.14z" fill="#27aae1"/>
      <path d="M132.34 117.78a3.56 3.56 0 01-3.55 3.56h-2.26a3.56 3.56 0 010-7.11h2.26a3.55 3.55 0 013.55 3.55M128.08 99.16a2 2 0 00-1.86 1.38 4.38 4.38 0 000 8.72 1.95 1.95 0 003.81-.58v-7.56a2 2 0 00-1.95-2" fill="#414042"/>
      <path d="M87 67.05s4.11-.3 4.11-3.91h-6" fill="#00813b"/>
    </g>
  </g>
</svg>
