<svg xmlns="http://www.w3.org/2000/svg" viewBox="0 0 144.13 163.18">
  <g id="Layer_2" data-name="Layer 2">
    <g id="Layer_1-2" data-name="Layer 1">
      <path fill="#8ad5e7" d="M.13 0h144v121.32H.13z"/>
      <path fill="#a7a9ac" d="M0 110.06h144v53.12H0z"/>
      <path fill="#6aa4b3" d="M144.13 121.32V10.11l-43.42 50.55-6.57-12.33-17.78 25.9-20.34-41.94-37.58 42.82L.13 27.71v93.61h144z"/>
      <path fill="#808285" d="M0 140.74h144v5.36H0zM0 128.69h144v5.36H0z"/>
      <path fill="#808285" d="M136.09 130.83h2.75v12.58h-2.75zM119.78 130.83h2.75v12.58h-2.75zM103.47 130.83h2.75v12.58h-2.75zM87.16 130.83h2.75v12.58h-2.75zM70.85 130.83h2.75v12.58h-2.75zM54.54 130.83h2.75v12.58h-2.75zM38.23 130.83h2.75v12.58h-2.75zM21.92 130.83h2.75v12.58h-2.75zM5.61 130.83h2.75v12.58H5.61z"/>
      <path fill="#fff200" d="M117.82 76.51h-12.37l1.21 24.98h9.95l1.21-24.98z"/>
      <path fill="#ed1c24" d="M60.8 81.59h35.55v48.01H60.8zM129.12 109.79a12 12 0 11-12-12 12 12 0 0112 12"/>
      <path fill="#fff200" d="M133.53 137.4l-12.59-15.58H10.6v7.79h42.53v-5.72h4.3v5.72h63.51v7.79h12.59z"/>
      <path fill="#ed1c24" d="M96.34 97.76h20.76v24.06H96.34z"/>
      <path d="M79.32 129.61a9.26 9.26 0 11-9.26-9.26 9.27 9.27 0 019.26 9.26" fill="#414042"/>
      <path d="M98.57 129.61a9.26 9.26 0 11-9.26-9.26 9.27 9.27 0 019.26 9.26" fill="#414042"/>
      <path d="M73.84 129.61a3.78 3.78 0 11-3.78-3.78 3.78 3.78 0 013.78 3.78M93.09 129.61a3.78 3.78 0 11-3.78-3.78 3.79 3.79 0 013.78 3.78" fill="#fffef2"/>
      <path d="M109.41 134a4.91 4.91 0 11-4.91-5 4.91 4.91 0 014.91 4.91" fill="#414042"/>
      <path d="M106.5 134a2 2 0 11-2-2 2 2 0 012 2" fill="#fffef2"/>
      <path d="M119.78 134a4.91 4.91 0 11-4.91-4.91 4.91 4.91 0 014.91 4.91" fill="#414042"/>
      <path d="M116.87 134a2 2 0 11-2-2 2 2 0 012 2" fill="#fffef2"/>
      <path fill="#27aae1" d="M73.6 86.77h22.73v10.99H73.6z"/>
      <path fill="#ed1c24" d="M111.64 73.05h-4.53l-1.66 3.46h6.19v-3.46zM111.64 73.05h4.53l1.65 3.46h-6.18v-3.46z"/>
      <path fill="#ed1c24" d="M103.79 75.71h15.69v3.14h-15.69zM96.34 86.77a5.24 5.24 0 003.91-5.18H94.8M70.06 128.38h19.7v2.45h-19.7z"/>
      <path d="M79.32 129.61a9.26 9.26 0 11-9.26-9.26 9.27 9.27 0 019.26 9.26" fill="#414042"/>
      <path d="M98.57 129.61a9.26 9.26 0 11-9.26-9.26 9.27 9.27 0 019.26 9.26" fill="#414042"/>
      <path d="M73.84 129.61a3.78 3.78 0 11-3.78-3.78 3.78 3.78 0 013.78 3.78M93.09 129.61a3.78 3.78 0 11-3.78-3.78 3.79 3.79 0 013.78 3.78" fill="#fffef2"/>
      <path fill="#ed1c24" d="M70.06 128.38h19.7v2.45h-19.7zM104.5 133.34h10.37v1.23H104.5zM14.21 91.94h35.48v29.88H14.21zM49.67 86.77H10.31a5.23 5.23 0 003.87 5.16h35.49a5.23 5.23 0 003.92-5.17z"/>
      <path fill="#27aae1" d="M14.21 91.94h9.85v10.99h-9.85zM25.97 91.94h12.2v10.99h-12.2zM40.09 91.94h9.6v10.99h-9.6z"/>
      <path d="M43.11 134a4.91 4.91 0 11-4.91-5 4.91 4.91 0 014.91 5" fill="#414042"/>
      <path d="M40.21 134a2 2 0 11-2-2 2 2 0 012 2" fill="#fffef2"/>
      <path d="M53.48 134a4.91 4.91 0 11-4.91-5 4.91 4.91 0 014.91 5" fill="#414042"/>
      <path d="M50.58 134a2 2 0 11-2-2 2 2 0 012 2" fill="#fffef2"/>
      <path fill="#ed1c24" d="M38.2 133.34h10.37v1.23H38.2z"/>
      <path d="M20.08 134a4.92 4.92 0 11-4.92-5 4.92 4.92 0 014.92 5" fill="#414042"/>
      <path d="M17.17 134a2 2 0 11-2-2 2 2 0 012 2" fill="#fffef2"/>
      <path d="M30.45 134a4.92 4.92 0 11-4.92-5 4.92 4.92 0 014.92 5" fill="#414042"/>
      <path d="M27.54 134a2 2 0 11-2-2 2 2 0 012 2" fill="#fffef2"/>
      <path fill="#ed1c24" d="M15.16 133.34h10.37v1.23H15.16z"/>
    </g>
  </g>
</svg>
