<svg xmlns="http://www.w3.org/2000/svg" viewBox="0 0 144.13 163.18">
  <g id="Layer_2" data-name="Layer 2">
    <g id="Layer_1-2" data-name="Layer 1">
      <path fill="#8ad5e7" d="M.13 0h144v121.32H.13z"/>
      <path fill="#a7a9ac" d="M0 110.06h144v53.12H0z"/>
      <path fill="#6aa4b3" d="M144.13 121.32V10.11l-43.42 50.55-6.57-12.33-17.78 25.9-20.34-41.94-37.58 42.82L.13 27.71v93.61h144z"/>
      <path fill="#00813b" d="M94.15 71.54l-13.54 7.54-45.86 6.28-12.25 1.26-7.47 13.75v20.92h79.12V71.54zM125.54 105a4.58 4.58 0 00-.64 0l-1.77-13.2H97v35.93h34.24V110.6a5.64 5.64 0 00-5.65-5.64"/>
      <path fill="#d1d3d4" d="M15.02 121.29h81.99v6.43H15.02z"/>
      <path d="M91.81 85h2.63A2.58 2.58 0 0197 87.6v40.12h-5.19V90.18h-3.58V85z" fill="#414042"/>
      <path fill="#414042" d="M89.78 95.79h8.73V113h-8.73zM42.87 127.72a10.43 10.43 0 11-10.43-10.43 10.43 10.43 0 0110.43 10.43"/>
      <path d="M36.7 127.72a4.26 4.26 0 11-4.26-4.25 4.26 4.26 0 014.26 4.25" fill="#fff200"/>
      <path d="M64.52 127.72a10.44 10.44 0 11-10.43-10.43 10.43 10.43 0 0110.43 10.43" fill="#414042"/>
      <path d="M58.34 127.72a4.26 4.26 0 11-4.25-4.25 4.25 4.25 0 014.25 4.25" fill="#fff200"/>
      <path d="M122.54 127.72a10.44 10.44 0 11-10.44-10.43 10.43 10.43 0 0110.44 10.43" fill="#414042"/>
      <path d="M116.36 127.72a4.26 4.26 0 11-4.26-4.25 4.25 4.25 0 014.26 4.25" fill="#fff200"/>
      <path d="M135.57 126.8a3.33 3.33 0 01-3.33 3.32h-2.11a3.32 3.32 0 110-6.64h2.11a3.32 3.32 0 013.33 3.32M19.4 126.8a3.32 3.32 0 01-3.32 3.32H14a3.32 3.32 0 010-6.64h2.11a3.32 3.32 0 013.32 3.32M133.23 116.52a1 1 0 00-.9.66 2.12 2.12 0 000 4.22.94.94 0 001.84-.28v-3.66a.94.94 0 00-.94-.94" fill="#414042"/>
      <path fill="#27aae1" d="M103.45 95.79h15.57v9.16h-15.57zM120.18 104.95h4.71l-1.23-9.16h-3.48v9.16z"/>
      <path fill="#00813b" d="M94.15 71.54h7.52v5.38h-7.52zM123.66 95.79s2.87-.13 3.8-4h-4.64"/>
    </g>
  </g>
</svg>
