<svg xmlns="http://www.w3.org/2000/svg" viewBox="0 0 144.02 175.04">
  <g id="Layer_2" data-name="Layer 2">
    <g id="Layer_1-2" data-name="Layer 1">
      <path fill="#8dc63f" d="M.01 0h144v175.04H.01z"/>
      <path d="M23.12 57.52c-.55 0-7.45 71.55-4.18 73.16 2.8 1.09 44.15 2.38 47.05 0 2.83-2.91 4.21-33.3 9-32.64s2.24 31.21 3.68 32.64c2.92 2.9 45.81 1.4 47.06 0 1.56-1.79-3.46-71.15-7.33-75.63-3.25-6.78-94.91-5.4-95.24 2.47" fill="#27aae1"/>
      <path d="M21.86 53.93c-.32 1.72-1.26 9.13.55 10.42.9.64 24.88-1.61 48.92-1.81 24-.59 48.11.88 49 0 1.69-1.82 1-8.28-1.14-10-1-.88-25.24-3.42-49.26-3-24 0-47.84 3-48 4.43M66 130.68c0 1.72-10.53 3.12-23.52 3.12s-23.53-1.4-23.53-3.12 11-5.23 24-5.23S66 129 66 130.68M125.69 130.68c0 1.72-10.54 3.12-23.53 3.12s-23.53-1.4-23.53-3.12 11-5.23 24-5.23 23.1 3.51 23.1 5.23" fill="#2596c7"/>
      <path d="M73.92 55.53a1.19 1.19 0 11-1.19 1.19 1.18 1.18 0 011.19-1.19m0-1.28a2.47 2.47 0 102.47 2.47 2.47 2.47 0 00-2.47-2.47" fill="#035675"/>
      <path d="M74.62 57s7.22 12 7.22 21.58c0 2.47-2.25 1.22-2.33 0s-5.1-20.32-6-21.58c-.24-.34.67-1 1.13 0" fill="#faf06a"/>
      <path d="M81.26 79.22s.57 3.23 0 3.55-.72-3.55-.72-3.55" fill="#faf06a"/>
      <path d="M61.64 55.53a1.19 1.19 0 11-1.19 1.19 1.18 1.18 0 011.19-1.19m0-1.28a2.47 2.47 0 102.47 2.47 2.46 2.46 0 00-2.47-2.47" fill="#035675"/>
      <path d="M60.94 57s-7.23 12-7.23 21.58c0 2.47 2.25 1.22 2.33 0s5.1-20.32 6-21.58c.25-.34-.67-1-1.12 0" fill="#faf06a"/>
      <path d="M54.29 79.22s-.57 3.23 0 3.55.73-3.55.73-3.55M104.73 62.65l4.11 63.08c1.57.14 3.08.32 4.49.54l-4.14-63.53-4.46-.09M112.36 62.79l4.17 64.06a43.31 43.31 0 014.54 1.18l-4.25-65.22h-4.46" fill="#faf06a"/>
    </g>
  </g>
</svg>
