<svg xmlns="http://www.w3.org/2000/svg" viewBox="0 0 144 174.97">
  <g id="Layer_2" data-name="Layer 2">
    <g id="Layer_1-2" data-name="Layer 1">
      <path fill="#addedc" d="M0 0h144v174.97H0z"/>
      <path d="M144 175v-64.41C69.52 78.64 16.25 113.28 0 126.28V175z" fill="#afd24d"/>
      <path d="M98.94 128.59C98.94 134.36 86.88 139 72 139s-26.94-4.67-26.94-10.44S57.12 118.15 72 118.15s26.94 4.67 26.94 10.44" fill="#7ba541"/>
      <path d="M134.21 37.35c-3.4-6.3-14.66 8.44-16.16 10.58L117 49.44c1.62-4.49 3.18-9 4.62-13.58 1.11-3.5 1.44-8.22-.1-11.62-.46-1-1.27-1.82-2.45-1.44-3.34 1.05-5.9 6.25-7.26 9.16-2.23 4.81-3.38 10-4.78 15.14-.65 2.34-1.39 4.69-2.14 7.06a61.36 61.36 0 01.13-6.5c.68-8.18 2.2-17.58-.88-25.44a2.4 2.4 0 00-2-1.64h-.28a1.92 1.92 0 00-1.58 1.05c-1.63 3.31-3.58 6.13-4.42 9.84A94.11 94.11 0 0093.3 46.9c-.24 4.13 0 8.26 0 12.39-.62-2.33-1.24-4.65-2-6.89-1.72-5.14-3.59-13.8-8.42-17-1.39-.93-2.6.37-2.75 1.8-1 9.31 1.6 18.24 5.46 26.62a42.36 42.36 0 006.58 10.43c.35.39.69.78 1 1.18.36 1 .76 2 1.21 2.9.71 1.48 1.54 1.86 2.28 1.6.92 1.23 1.84 2.46 2.82 3.67.06.08.18.2.3.18h.21a1.39 1.39 0 001.32-.51l.27-.28a1 1 0 00.14-.17c.88-1 1.76-1.9 2.61-2.86.71.1 1.43-.4 2-1.89l.24-.64c5.71-6.64 11-13.57 17.18-19.85 4.41-4.52 14.31-12.94 10.45-20.1" fill="#a97c50"/>
      <path d="M138.64 44.76c-1.6-4.87-8.65-2.25-16.59 2.81 2.64-3.37 5.25-6.81 7.66-10.34 1.28-1.87 3.41-6.87.88-8.67-2.33-1.67-5.63 1.73-7.28 3.08a75.87 75.87 0 00-11.23 12l-1.45 1.83c1.28-5.07 2.13-10.24 2.94-15.4.42-2.64 2.64-8.7-.59-10.61-2.42-1.43-4.6 3.17-5.55 4.57a71.22 71.22 0 00-7.68 15.57 93.26 93.26 0 00-3 10c-.14-3.73-.36-7.46-.75-11.18-.22-2.18-1.81-19.78-6.36-16.23-1.76 1.39-2.26 4.27-2.73 6.32A61.81 61.81 0 0085.6 40.7a75.57 75.57 0 00.85 12.58l-.28-.44C83.32 48.36 82.61 42 76.9 40.36c-1.57-.43-2.22 2.21-2.2 3.21.08 4.42-.73 8.9 1 13.11 1.84 4.52 4.66 8.46 7.56 12.35.91 1.23 5.2 6.33 8.36 7.44a1.18 1.18 0 001.43.8c10.42-2.34 19.27-7.69 28-13.66a97.11 97.11 0 0012.72-10.11c1.81-1.75 5.87-5.7 4.87-8.74" fill="#c49a6c"/>
      <path d="M114.68 60.53a60.8 60.8 0 00-6.93 2.79c.19-.44.36-.89.52-1.34.41-1.2.54-3.33-1-3.77l-.27-.07a1.56 1.56 0 00-1.42.55c-1.93 1.92-4.27 3.68-6.42 5.61a15.15 15.15 0 00-.27-6.94 1.49 1.49 0 00-2.59-.51 14.76 14.76 0 00-3.3 7.72c-1-2.54-2.25-4.86-5-6.1-1.78-.81-2.8 2.14-2.15 3.44.29.58.84 1.62 1.42 2.86a1.66 1.66 0 011.47 1.42c.67 4.31 5 7 8 9.81.89.85 1.75 1.74 2.61 2.63 3.4-1.43 6.33-4 9.5-5.82 3.42-1.93 6.18-4.32 7.57-8.09.39-1 .5-4.94-1.7-4.19" fill="#a97c50"/>
      <path d="M70.83 65c-8.47 4.12-10.92 9.91-11.83 3.2 0-3.75.16-9.77.34-11.32l.06-.06c2.72-2.82 4-7.93 4.27-11a11.12 11.12 0 00-7.23-11.68c-.24-.1-.48-.17-.72-.25.06-.21.11-.42.17-.6.37-1.11.52-2.35 1-3.42s-.28-3.41-1.65-2.38a7.87 7.87 0 00-2.52 3.46 4 4 0 01-1.28-1.29c-.59-1.23-1.68-.36-1.62.71a8.62 8.62 0 00.73 3.36l-1.91.94a1.66 1.66 0 01-.41.14 12.06 12.06 0 00-4.56 5.77A20.71 20.71 0 0042.81 53a8.64 8.64 0 00.36 2.13 8.9 8.9 0 001.42 2.71c.95 2.93 2 12.18 2.73 14.58a20.91 20.91 0 01.56 6.39.82.82 0 011.23-.2 5.65 5.65 0 01.54-.56c.47-.42 1-.17 1.25.24.44-.63 1-.91 1.54-.56a2.37 2.37 0 01.39.3 8.61 8.61 0 01.55-.68.55.55 0 01.72-.17 5.09 5.09 0 011.43-1.7c.49-.36 1-.1 1.2.45A6.86 6.86 0 0157 77a4.36 4.36 0 01.73-.57.59.59 0 01.59 0l.06-.14c.71.62 1.47 1.26 2.26 1.89-4 1.16-8.12 2.15-12.2 3.18a71.58 71.58 0 00-.3 8.91 2.18 2.18 0 00.09.23q.1.78.24 1.56a.79.79 0 00-.14.13c-2.94 3.35-2.47 8.29-2.51 12.46 0 1.3 1.66 3.55 2.71 1.61a23.48 23.48 0 001-2.29c.44 1.78 1.07 3.47 2.82 4.38.83.43 1.57-.53 1.8-1.18a12.71 12.71 0 00.57-2.11 20.57 20.57 0 004.78 3.57 29 29 0 0020.22 3 4.28 4.28 0 001.92 2.14 1.29 1.29 0 001.5-.32 3.65 3.65 0 00.3-.27 7 7 0 001.56-2.39 2.81 2.81 0 00.22-.78 27.8 27.8 0 007.16-4.53c8.36-3.57 14.82-7.68 15.15-24.85S85.83 57.78 70.83 65" fill="#a97c50"/>
      <path d="M73.57 125.13a.43.43 0 000-.07 1.39 1.39 0 00-.14-.25l-.08-.13v-.06a10 10 0 01-.84-1.4s-.09-.06-.09 0-.07.25-.1.37c-2-1.56-5.45-2-7.36-.53a.69.69 0 00.07 1 12.67 12.67 0 003.92 2.21c1.24.43 2.92 1.14 4.24 1 .84-.12.72-1.36.44-2.05" fill="#726658"/>
      <path d="M73.16 125c-3.31-1.79-8.66-.24-10.75 2.8-.18.26 0 .81.35.78 1.86-.15 3.75-.35 5.6-.57s3.6-.05 5.13-.92c.71-.4.23-1.78-.33-2.09" fill="#726658"/>
      <path d="M73.73 125.44l-.27-.41a1 1 0 00-.94-.48 12.69 12.69 0 00-9 5.49c-.11.16 0 .74.28.63 2.48-.94 5-1.76 7.5-2.59.91-.3 3.48-1.11 2.47-2.64" fill="#726658"/>
      <path d="M71.36 107.74c-.53-.4-1.37-.65-1.78.09-1.27 2.26.16 5.64.68 7.93.83 3.63 1.33 8.08 3.26 11.3.14.22.49.28.57 0a23.07 23.07 0 00.53-10c-.48-2.41-1.12-7.68-3.26-9.34" fill="#726658"/>
      <path d="M81.82 128v-.07a1 1 0 00-.14-.25 1.25 1.25 0 00-.08-.12v-.06a10.69 10.69 0 01-.84-1.41s-.08-.06-.09 0a2.22 2.22 0 01-.09.37c-2-1.55-5.46-2-7.37-.53a.69.69 0 00.07 1 12.67 12.67 0 003.92 2.21c1.24.44 2.92 1.15 4.24 1 .84-.11.72-1.36.45-2.05" fill="#9b8579"/>
      <path d="M81.4 127.93c-3.3-1.79-8.66-.24-10.75 2.79-.17.26 0 .81.35.78 1.86-.14 3.75-.35 5.61-.57 1.69-.2 3.6-.05 5.12-.92.71-.4.23-1.78-.33-2.08" fill="#9b8579"/>
      <path d="M82 128.36l-.3-.36a1 1 0 00-.94-.49 12.69 12.69 0 00-9 5.49c-.11.17 0 .74.28.63 2.49-.94 5-1.76 7.5-2.59.91-.29 3.48-1.11 2.47-2.63" fill="#9b8579"/>
      <path d="M79.6 110.66c-.53-.41-1.37-.66-1.78.08-1.27 2.26.16 5.65.68 7.93.83 3.63 1.33 8.08 3.27 11.3.13.22.49.28.56 0a23 23 0 00.53-10c-.48-2.41-1.12-7.68-3.26-9.33" fill="#9b8579"/>
      <path d="M107.93 100.7c-2.45.5-5.11 1.36-7.81 2.17a5.79 5.79 0 011.51-1.53c.9-.57.83-3.48-.52-3.1l-.27.08a31.09 31.09 0 01-4.64 1.46c.3-.34.59-.69.84-1 .62-.84.59-2.74-.74-2.85a33.79 33.79 0 01-9-1.63 16.4 16.4 0 00-3.93-4.76c-4.31-3.33-9.57-5.33-15-3.68-9.41 2.85-11.7 12.59-5.63 18.88 4.88 7.53 13.44 11.51 22.74 11.71 7.39.16 22.9-4.53 23.93-13.37.08-.71-.32-2.57-1.42-2.35" fill="#8b5e3c"/>
      <path d="M44.05 53.64c-.49-.57-1.15-.9-1.8-.3a11.46 11.46 0 00-2.32 2.93 2.48 2.48 0 01-.65-.83c0-.1-.13 0-.12.05a.81.81 0 00.05.37 5.92 5.92 0 01.48.88 8.32 8.32 0 00-.88 3 2.63 2.63 0 00.83 1.91c-.07.27-.14.54-.22.82a31.15 31.15 0 00-.9 10.09c.08 1.34 1.59 3.64 2.78 1.66 1.78-3 1.52-6.09 1.24-9.24a5.7 5.7 0 00.65 1.48 1.12 1.12 0 001.75.3 4.65 4.65 0 001.19-2.16c1.15.33 1.8-1.1 1.78-2.22 0-3.4-1.68-6.25-3.86-8.78" fill="#de5426"/>
      <path d="M45.3 51.21a1.13 1.13 0 01-.3-1.39 6.64 6.64 0 00-2.29-.41 1.25 1.25 0 01-.8-.25h-.31a5.65 5.65 0 00-1.81.45 24.67 24.67 0 00-4.46 1.77c-2.55 1.28-4.86 3.61-5.24 6.53-.11.83.2 3.3 1.61 3 2.77-.54 4.51-2.21 7-3.38 2.23-1.08 4.6-1.4 6.87-2.2a4.32 4.32 0 011.95.48 3.41 3.41 0 001.6.33c-.53-2.07-2.24-3.57-3.78-5" fill="#f7941d"/>
      <path d="M43.93 44.73a1.4 1.4 0 00-1.3-.92 1.84 1.84 0 00-1.48 2.46c.13.49.67.77.88.15.16-.44 0-.73.53-.82.21 0 .4-.1.48.08s.13.51.22.76a.41.41 0 00.8 0 2.52 2.52 0 00-.13-1.69M48.36 44.73a1.4 1.4 0 00-1.3-.92 1.84 1.84 0 00-1.48 2.46c.13.49.67.77.89.15.15-.44 0-.73.52-.82.21 0 .4-.1.48.08s.13.51.22.76a.41.41 0 00.8 0 2.52 2.52 0 00-.13-1.69" fill="#414042"/>
      <path d="M47.71 52.32c-1.05-1.62-3.71-4.6-5.76-3a.29.29 0 000 .43 14.39 14.39 0 013.68 3 8.66 8.66 0 011 1.67c.66 1.45.44 3.1 1 4.59.19.56.67 1.89 1.47 1.84a1.36 1.36 0 001.24-1.36c.23-2.64-1.27-5.05-2.66-7.21" fill="#f15a29"/>
      <path d="M47.36 75.22a3.75 3.75 0 00-1.76 1.06l-.18.1a5.76 5.76 0 00-2.83 4.11c0 .56.12 2.15 1.06 2a5.42 5.42 0 002.45-1.71 9.39 9.39 0 002.4-3.43c.32-.78 0-2.43-1.14-2.12M59.36 72.37a3.89 3.89 0 001.12 1.74c0 .06.07.12.11.17a5.76 5.76 0 004.2 2.72c.56 0 2.15-.18 1.95-1.12A5.46 5.46 0 0065 73.45a9.36 9.36 0 00-3.51-2.28c-.78-.29-2.42.1-2.08 1.2" fill="#f1f2f2"/>
      <path d="M59.79 71.22a3.78 3.78 0 002.05.24h.21A5.78 5.78 0 0066.79 70c.37-.42 1.23-1.77.38-2.22a5.41 5.41 0 00-3-.15 9.28 9.28 0 00-4 1.25c-.72.41-1.47 1.93-.4 2.37M60.21 72.87a.51.51 0 00-.9 0 3 3 0 00-.23.38.68.68 0 00-.81.33 3.69 3.69 0 00-.41.85.52.52 0 00-.5 0 4.19 4.19 0 00-.63.48 5 5 0 00-.26-.91c-.18-.47-.6-.69-1-.38a4.47 4.47 0 00-1.22 1.45.47.47 0 00-.61.14 6.15 6.15 0 00-.46.58 1.76 1.76 0 00-.34-.25c-.5-.3-.94-.06-1.31.47-.26-.35-.67-.56-1.07-.2a5.07 5.07 0 00-.46.47c-.31-.24-.72-.25-1.1.23a10.56 10.56 0 00-1.12 1.8c-2.22 1.77-3.23 6.68-3.13 8.77 0 .61.74 2.2 1.55 1.29a12.39 12.39 0 002.4-4.43 1.6 1.6 0 001 1.1c.82.26 1.55-.22 2.2-1a1.81 1.81 0 001 1.39c1.42.56 2.44-.78 3.13-2.52a4.16 4.16 0 001 1.36c.5.44 1-.05 1.17-.5.65-1.42.41-2.87.34-4.34h.06a1.77 1.77 0 00.61.41.47.47 0 00.55-.24 4.6 4.6 0 00.46-1.24 1.57 1.57 0 00.37-1c.28.09.57-.15.65-.59a4.76 4.76 0 00-1-3.83" fill="#f1f2f2"/>
      <path d="M62.85 75.21c-.86-.59-1.63-1.85-2.79-1.72a1 1 0 00-.83.76 1.94 1.94 0 000 1.14 2.17 2.17 0 00-.07.24 2.72 2.72 0 00-.17 2.26.73.73 0 00-.16.54 21.63 21.63 0 00.77 3.64c0 .05 0 .09.05.14v.11c.28.58.87.75 1.2 0a7 7 0 00.48-1.77c.92.35 1.46-1 1.46-1.82a2.93 2.93 0 000-.41 1.62 1.62 0 00.53-.91c.18-.65.22-1.72-.43-2.17" fill="#f1f2f2"/>
    </g>
  </g>
</svg>
