<svg xmlns="http://www.w3.org/2000/svg" viewBox="0 0 144 163.18">
  <g id="Layer_2" data-name="Layer 2">
    <g id="Layer_1-2" data-name="Layer 1">
      <path fill="#8ad5e7" d="M0 0h144v121.32H0z"/>
      <path d="M141.71 96.49V61.84h-3.06V56h-11.21v6.88h-8.66v35.65h-4.08V67.7h-25v46.37h-3.28V56H64.77v28.26h-3.06v-9.17H39v29.56h-3.53V39.42h-2.55v-7.13H20.69v7.64H7.7V96H4.13V56.24H0v65l144-.05v-24.7z" fill="#6aa4b3"/>
      <path fill="#a7a9ac" d="M0 110.06h144v53.12H0z"/>
      <path d="M112.44 101.46v-.89a30 30 0 00-6.72-19H22.66v48.32h98.68v-7.39a29.26 29.26 0 00-8.9-21" fill="#fff"/>
      <path d="M108.78 86.1h-5.7v15.36h9.36v-1.91a30.34 30.34 0 00-3.66-13.45" fill="#27aae1"/>
      <path d="M27.4 129.91a3.06 3.06 0 01-3.06 3.09H21a3.06 3.06 0 110-6.12h3.37a3.06 3.06 0 013.06 3.06M126.08 129.91a3.05 3.05 0 01-3 3.06h-3.38a3.06 3.06 0 010-6.12h3.3a3.05 3.05 0 013 3.06M54.07 129.91a8.23 8.23 0 11-8.23-8.23 8.22 8.22 0 018.23 8.23" fill="#414042"/>
      <path d="M49.2 129.91a3.36 3.36 0 11-3.36-3.36 3.35 3.35 0 013.36 3.36" fill="#fffef2"/>
      <path d="M110 129.91a8.23 8.23 0 11-8.23-8.23 8.22 8.22 0 018.23 8.23" fill="#414042"/>
      <path d="M105.16 129.91a3.36 3.36 0 11-3.36-3.36 3.35 3.35 0 013.36 3.36" fill="#fffef2"/>
      <path d="M122.76 116.5a1.41 1.41 0 00-1.35 1 3.18 3.18 0 000 6.33 1.42 1.42 0 002.77-.42v-5.49a1.42 1.42 0 00-1.42-1.42M21.24 116.5a1.42 1.42 0 011.35 1 3.18 3.18 0 010 6.33 1.42 1.42 0 01-2.77-.42v-5.49a1.42 1.42 0 011.42-1.42" fill="#414042"/>
    </g>
  </g>
</svg>
