<svg xmlns="http://www.w3.org/2000/svg" viewBox="0 0 144 175">
  <g id="Layer_2" data-name="Layer 2">
    <g id="Layer_1-2" data-name="Layer 1">
      <path fill="#fff" d="M0 0h144v175H0z"/>
      <path d="M54.66 30.34s13.5 2.46 34.68 0c0 0 14.12 50.48-13.69 65S46 58.61 46.8 55.24s7.86-24.9 7.86-24.9" fill="#58595b"/>
      <path d="M27.47 38.94S40 59.62 28.7 83.4c0 0 11.06 29 0 56.73 0 0 28.85 16.59 30.77 15.35s17-19.06 17.31-20.12.67-41.3.68-42.54-24.17-15.17-22.8-62.48c.07-.42-17.65 7.9-27.19 8.6" fill="#808285"/>
      <path d="M116.53 38.94S104 59.62 115.3 83.4c0 0-11.06 29 0 56.73 0 0-28.85 16.59-30.77 15.35s-17-19.06-17.3-20.12-.68-41.3-.69-42.54 24.17-15.17 22.8-62.48c-.07-.42 17.65 7.9 27.19 8.6" fill="#939598"/>
      <path d="M75.85 95.3a2.29 2.29 0 11-2.26-2 2.12 2.12 0 012.26 2M75.85 106.71a2.29 2.29 0 11-2.26-1.94 2.12 2.12 0 012.26 1.94M75.85 118.12a2.29 2.29 0 11-2.26-1.94 2.12 2.12 0 012.26 1.94M75.85 129.53a2.29 2.29 0 11-2.26-1.94 2.12 2.12 0 012.26 1.94" fill="#58595b"/>
      <path fill="#808285" d="M104.75 120.33l-17.55 3.11-.23-.98 17.55-3.11.23.98z"/>
      <path fill="#58595b" d="M39.77 120.33l17.55 3.11.24-.98L40 119.35l-.23.98z"/>
    </g>
  </g>
</svg>
