<svg xmlns="http://www.w3.org/2000/svg" viewBox="0 0 144.02 175.04">
  <g id="Layer_2" data-name="Layer 2">
    <g id="Layer_1-2" data-name="Layer 1">
      <path fill="#fdc05d" d="M.01 0h144v175.04H.01z"/>
      <path d="M51.26 53.25c-13.1 3-45.89 42.3-19.4 74s74 17.72 82.81-16.05c4.48-17.15-5.22-71.17-63.41-58" fill="#8dc63f"/>
      <path d="M46.42 135.56c-.17-.75-.4-1.44-.6-2.16l-1.27-4.26c-.43-1.41-.87-2.83-1.3-4.25l-.53-1.76c-.17-.49-.24-.95-.36-1.41a10.36 10.36 0 01.2-5.14c0-.68.29-2.11 1.64-4.83a51.37 51.37 0 002.58-5.75 19.09 19.09 0 00.62-2.25 11.05 11.05 0 00.21-1.3 10.42 10.42 0 00.1-1.38 14.1 14.1 0 00-.91-5.51 18 18 0 00-2.35-4.28c-.43-.64-.88-1.11-1.32-1.65l-.17-.2-.06-.08-.12-.15-.25-.29A10.56 10.56 0 0141 85.76a22 22 0 01-.89-6.41v-.53c0-3.21.2-7.33 0-10.35-.21-1.39-.45-2.85-.64-4.33-.42.59-.8 1.13-1.17 1.6a10.23 10.23 0 00.43-3.42v-.4a64.69 64.69 0 00-12.3 18.31c0 1.42-.51 2.78-.06 4.32l.51.07a32 32 0 00.33 4.83 23.32 23.32 0 005 8.85c.07-.19.17-.33.45-.1.08.1.18.19.27.29l.17.19a3.22 3.22 0 01.33.45c.07.15.16.3.24.45a2.27 2.27 0 00.16.39l.14.13a2.23 2.23 0 00.39-.09.46.46 0 010 .32 1.46 1.46 0 01.36.47 3.49 3.49 0 010 1.32 34.84 34.84 0 01-1.51 4.67 38.61 38.61 0 00-1.75 6.1 22.58 22.58 0 00-.2 6.82 46.48 46.48 0 001.61 5.29c.19.61.4 1.24.58 1.91s.32 1.24.47 1.87c.08.36.17.72.25 1.08a50.57 50.57 0 005.85 5.3 47.94 47.94 0 007.28 4.64c-.14-.66-.27-1.34-.41-2zM76.31 125.12a22.15 22.15 0 00-3.6-7.3l-.66-.85a1 1 0 00-.1-.15 1.3 1.3 0 01-.12-.14.24.24 0 00-.06-.11 2.3 2.3 0 01-.16-.37 1.27 1.27 0 01-.28-.9 10.51 10.51 0 01.57-3.22c.46-1.54 1.22-3.47 2.09-5.73a51 51 0 002.52-8.07 25.2 25.2 0 00.55-5 21 21 0 00-.67-5.43A22.32 22.32 0 0071.61 79l-.92-1.1a6.73 6.73 0 01-.63-.83 6.5 6.5 0 01-.54-.83c-.15-.29-.34-.53-.45-.81A13.73 13.73 0 0168 72.68c-.07-.16-.12-.35-.18-.52A33.9 33.9 0 0167 66.6c-.14-2-.16-4-.23-5.74s-.32-3.3-.36-5l-1.32 1.86a18.42 18.42 0 00.8-4c.43-3.75-1-2.09-2.61-1-.81.89-1.15-.76-2.13.76.24-.78.41-1.31.61-1.91h-.16c-.28 1-.57 2.26-.88 1.62a9.72 9.72 0 00.5-1.58l-.63.07c-.34.92-.66 1.74-.92 1.57a5.63 5.63 0 01.67-1.54q-2.58.3-5.32.8A52.64 52.64 0 0053 62a36.91 36.91 0 00.83 13.78c.3-.07.46-.63.8.09 1 2.27.78 4.59 2.31 6.77l.52-.08a30.67 30.67 0 003.08 5.48A9.15 9.15 0 0163 91.85c.17-.07.33-.11.43 0a5.71 5.71 0 01-.14 2.6v.51a.65.65 0 00.34.27 12.32 12.32 0 01-.49 1.52 45.41 45.41 0 01-1.3 5.65c-.56 2.06-1.24 4.32-1.76 6.86a20 20 0 00-.08 8.81 12.74 12.74 0 002.11 4.48 8.47 8.47 0 00.75.93l.4.44.33.35a7.07 7.07 0 01.89.92 9.18 9.18 0 012.65 4.17c.66 2.51.34 6 .1 8.68 1.8-.35 2.07 6.47 3.92 5.28-.06.52-.12 1.09-.17 1.67a50.52 50.52 0 006.14-.65c.16-2 .33-4.06.43-6.26a41.26 41.26 0 00-1.19-13M103 130.18a29.41 29.41 0 001.48-2.83c.24-.54.47-1.06.69-1.7l.31-.93c.1-.34.2-.75.29-1.12a14.92 14.92 0 00-.72-9.28c-.33-.72-.7-1.43-1.09-2.11s-.86-1.26-1.32-1.86-.87-1-1.33-1.47l-.83-.86-.27-.17-.25-.16c-.13-.09-.33-.25-.34-.21a.4.4 0 01-.31-.26.41.41 0 010-.27v-.22l.08-.09c.2-.24.48-.54.85-.92s.8-.81 1.37-1.45l.47-.54c.19-.24.39-.52.58-.78.08-.11.22-.32.35-.54s.24-.42.35-.64.1-.18.18-.35l.21-.53a10.68 10.68 0 00.33-1.1c0-.15.09-.44.13-.71s0-.55.06-.82a7.24 7.24 0 00-.13-1.66 8 8 0 00-1.27-3 12 12 0 00-.85-1l-.37-.35-.33-.27c-.22-.18-.44-.35-.67-.51l-.34-.22-.24-.14c-.32-.17-.64-.34-1-.49s-.5-.21-.77-.32l-.65-.3-.6-.17-.3-.09h-.18a.63.63 0 01-.41-.19 1 1 0 01-.21-.83v-.35c0-.16.05-.36.07-.54.06-.37.1-.71.18-1.1.12-.72.29-1.47.44-2.15.34-1.4.67-2.6.93-3.51l.15-.67c.54-2 1.12-4.32 1.51-6.69a31.07 31.07 0 00.47-6.87 28.2 28.2 0 00-1-4.94l-.4-.36c-.18.72-.42 1.35-.62 1.92a18.54 18.54 0 00-.1-2.51c-1-.81-2-1.57-3.07-2.3a4.44 4.44 0 01-.24.49C94 60.15 93 59 92.68 60.54A17.25 17.25 0 0092.2 58c-.27 0 0 .75.2 1.47s.23 1.36-.21 1a4.77 4.77 0 00-.27-1.47c-.2-.47-.35-1-.54-1.43-.22.27-.06 1.09.06 1.85s.14 1.52-.21 1.48a7.34 7.34 0 010-1.6c0-.63-.13-1.23-.55-1.18-.16 0 .06.91.16 1.36a5.83 5.83 0 00-.79-1.64c-.15-.2-.29-.37-.41-.5a1.55 1.55 0 00-.4-.23.38.38 0 00-.53.2 3.41 3.41 0 00-.18 1.15 5.25 5.25 0 00-1-2.22 10.61 10.61 0 01.54 1.22 6.8 6.8 0 00-.62-1l-.15.38a8.29 8.29 0 00.31.83 3.46 3.46 0 00-.31-.67c-.12.32-.17.59-.31.92 0 .94-.59 1.93-.48 2.34a16.65 16.65 0 010 3.27c-.1 1.23-.33 2.6-.59 4-.56 2.84-1.4 5.89-2.24 9.15.29.08.67-.2.67.38-.15 1.78-1.49 3-1.61 4.93l.45.24A36.85 36.85 0 0081.73 87l-.06.8v1l.06 1.95a17.09 17.09 0 00.71 3.73 12 12 0 004.16 6c0-.21.09-.37.5-.11s.6.34.91.54a15 15 0 011.07-1.8c.24-.34.51-.7.75-1l.58-.76 1-1.25c.12-.17.28-.36.35-.48l.13-.2v-.12l.23.19.45.37c.31.25.63.48 1 .7l.49.32.3.23a6.71 6.71 0 001.22.67 1.8 1.8 0 00.75.25.3.3 0 00.19 0h-.08a1.17 1.17 0 00-.33.24 1.29 1.29 0 01-.13.17 3.57 3.57 0 00-.28.27 3.32 3.32 0 00-.44.62c-.07.19-.35.55-.55.9a9.8 9.8 0 00-.55 1.07c0 .08-.08.19-.13.3a7.8 7.8 0 01-.38.9l-.2.43-.29-.1-1-.3-1-.31-.49-.15a3.55 3.55 0 00-.44-.21c-.58-.29-1.16-.49-1.66-.78l-.47-.29a11.25 11.25 0 00-1.15 7.56 12.73 12.73 0 001.94 4.41 17 17 0 003 3.23c.46.37 1.07.87 1.26 1a7 7 0 01.82.62l.36.29.29.32a4.11 4.11 0 01.38.78 3.82 3.82 0 01.72 1.58 4 4 0 01.07.91 5.73 5.73 0 01-.14 1c-.64 2.09-2.8 4.51-4.25 6.71.42.14.57.63.6 1.24s-.07 1.46-.05 2.19c0 1.49.52 2.51 1.55 2.1a4.52 4.52 0 00-.21 1 3 3 0 00.11 1 1.79 1.79 0 00.38.73.46.46 0 00.43.21c.17-.05.35-.07.52-.11a47.25 47.25 0 006.7-5c.48-.75 1-1.58 1.54-2.51" fill="#347327"/>
      <path d="M90.12 101.92a3.55 3.55 0 01.44.21l.49.15 1 .31 1 .3.27.1a.11.11 0 00.06 0l.2-.43a7.8 7.8 0 00.38-.9c0-.11.09-.22.12-.3a12 12 0 01.56-1.07c.2-.35.48-.71.55-.9a3.32 3.32 0 01.44-.62 3.57 3.57 0 01.28-.27 1.29 1.29 0 00.13-.17 1.17 1.17 0 01.33-.24h.08a.3.3 0 01-.19 0 1.8 1.8 0 01-.75-.25 6.71 6.71 0 01-1.15-.84l-.3-.23-.5-.32c-.32-.22-.64-.45-1-.7l-.45-.37-.23-.19v.12l-.13.2c-.07.12-.23.31-.35.48l-1 1.25-.58.76c-.25.32-.51.68-.75 1a15 15 0 00-1.07 1.8l.47.29c.49.29 1.08.49 1.66.78" fill="#347327"/>
      <path d="M133.31 113.34c-.35-.77-3.11-.85-7.42-.46-.77 10.38-5.16 29-26.51 32.37-24 3.77-36.91-12.3-41.11-18.83-4.58 1.28-7.35 2.26-7.27 2.71C54.36 147.27 88 155 102.52 152c22.85-4.74 32.81-34.27 30.79-38.63" fill="#cadd66"/>
      <path d="M99.38 145.25c21.35-3.36 25.74-22 26.51-32.37-15.72 1.42-52.07 9.18-67.62 13.54 4.2 6.53 17.15 22.6 41.11 18.83" fill="#ef4136"/>
      <path d="M133.31 113.34s-.05-.06-.07-.08c-1.18 9-12 33.21-31.68 37.28-13.79 2.87-43.89-5.77-50-21.91-.4.2-.62.37-.59.5C54.36 147.27 88 155 102.52 152c22.85-4.74 32.81-34.27 30.79-38.63" fill="#347327"/>
      <path d="M73.11 130c-.62 3.41.94 3.53 1.23 2.19s-1-3.24-1.23-2.19M95.8 136.3c-.62 3.41.94 3.53 1.23 2.19s-1-3.24-1.23-2.19M105.23 122.73c-.62 3.41.94 3.53 1.22 2.19s-1-3.24-1.22-2.19M114.61 121.09c-.61 3.41.94 3.53 1.23 2.18s-1-3.23-1.23-2.18M95.8 126c-.62 3.41.94 3.53 1.23 2.18S96 125 95.8 126M103.82 133c-.62 3.4.94 3.52 1.22 2.18s-1-3.24-1.22-2.18M84.11 126c-.62 3.41.94 3.53 1.22 2.18s-1-3.23-1.22-2.18M82 136.3c-.62 3.41.94 3.53 1.23 2.19s-1-3.24-1.23-2.19" fill="#a82a21"/>
    </g>
  </g>
</svg>
