<svg xmlns="http://www.w3.org/2000/svg" viewBox="0 0 144 164.18">
  <g id="Layer_2" data-name="Layer 2">
    <g id="Layer_1-2" data-name="Layer 1">
      <path fill="#1c75bc" d="M0 1h144v163.18H0z"/>
      <path fill="#8ad5e7" d="M0 0h144v126.2H0z"/>
      <path d="M46.42 109.64l.17 4.28H75.3v-2.75l33.06-5.26-4.74-3.08-.21-.14-12.06-7.85-11.65-7.58-25.48.95-10.85-9.1h-5.26l7.59 9.42-16.18.6c-1 2.37-2.88 6.78-2.88 6.78l19.66 1.53z" fill="#fff"/>
      <path d="M29.44 121.79H14.66v4.41h98.86l6.63-10.32 9.2-14.32S60.4 94 29.44 121.79" fill="#e6e7e8"/>
      <path d="M14.84 124v2.24h98.68l6.63-10.32c-8.59 3.19-33.52 8.23-105.31 8.08M91.37 94.84l-5.45-3.54H66.05c4.78 4.81 17.87 8.43 33.83 9.08zM43.37 76.11h-5.26l3.46 4.3h6.92l-5.12-4.3z" fill="#27aae1"/>
    </g>
  </g>
</svg>
